<svg xmlns="http://www.w3.org/2000/svg" xmlns:xlink="http://www.w3.org/1999/xlink" width="500" zoomAndPan="magnify" viewBox="0 0 375.12 383.03998" height="500" preserveAspectRatio="xMidYMid meet" version="1.0"><defs><clipPath id="aceb585103"><path d="M 37.4375 40.398438 L 336.6875 40.398438 L 336.6875 333.664062 L 37.4375 333.664062 Z M 37.4375 40.398438 " clip-rule="nonzero"/></clipPath></defs><g clip-path="url(#aceb585103)"><path fill="#2d2d2d" d="M 73.398438 151.71875 C 73.398438 96.84375 118.046875 52.195312 172.921875 52.195312 L 278.160156 52.195312 L 278.160156 45.058594 C 278.160156 43.296875 279.15625 41.679688 280.730469 40.890625 C 282.308594 40.097656 284.199219 40.261719 285.613281 41.3125 L 319.734375 66.675781 C 320.917969 67.554688 321.617188 68.945312 321.617188 70.421875 C 321.617188 71.898438 320.917969 73.289062 319.730469 74.167969 L 285.613281 99.515625 C 284.195312 100.566406 282.308594 100.730469 280.730469 99.9375 C 279.15625 99.144531 278.160156 97.53125 278.160156 95.765625 L 278.160156 88.632812 L 249.925781 88.632812 C 264.53125 106.386719 272.464844 128.421875 272.464844 151.722656 L 272.464844 151.902344 C 272.464844 154.480469 270.375 156.570312 267.796875 156.570312 C 265.21875 156.570312 263.128906 154.480469 263.128906 151.902344 L 263.128906 151.722656 C 263.128906 127.933594 254 105.609375 237.382812 88.632812 L 208.421875 88.632812 C 230.445312 101.082031 245.351562 124.710938 245.351562 151.722656 L 245.351562 151.902344 C 245.351562 154.480469 243.261719 156.570312 240.683594 156.570312 C 238.105469 156.570312 236.015625 154.480469 236.015625 151.902344 L 236.015625 151.722656 C 236.015625 117.027344 207.78125 88.726562 173.078125 88.632812 L 172.925781 88.632812 C 138.136719 88.632812 109.835938 116.933594 109.835938 151.722656 C 109.835938 186.507812 138.136719 214.808594 172.925781 214.808594 C 190.769531 214.808594 207.855469 207.207031 219.800781 193.957031 C 221.527344 192.039062 224.476562 191.886719 226.394531 193.613281 C 228.308594 195.339844 228.460938 198.292969 226.734375 200.207031 C 213.023438 215.421875 193.410156 224.148438 172.925781 224.148438 C 132.988281 224.148438 100.5 191.65625 100.5 151.722656 C 100.5 111.785156 132.988281 79.296875 172.925781 79.296875 L 282.832031 79.296875 C 285.410156 79.296875 287.5 81.386719 287.5 83.964844 L 287.5 86.484375 L 309.121094 70.421875 L 287.5 54.347656 L 287.5 56.863281 C 287.5 59.441406 285.410156 61.53125 282.832031 61.53125 L 172.925781 61.53125 C 123.195312 61.53125 82.738281 101.992188 82.738281 151.722656 C 82.738281 201.453125 123.195312 241.925781 172.925781 241.925781 C 191.921875 241.925781 210.09375 236.085938 225.476562 225.039062 C 227.570312 223.535156 230.488281 224.015625 231.992188 226.109375 C 233.496094 228.203125 233.015625 231.121094 230.921875 232.625 C 213.941406 244.816406 193.886719 251.261719 172.925781 251.261719 C 118.046875 251.261719 73.398438 206.609375 73.398438 151.722656 Z M 218.917969 297.621094 C 208.214844 300.925781 199.292969 304.183594 191.417969 307.0625 C 175.1875 312.992188 162.921875 317.472656 148.242188 317.472656 C 136.386719 317.472656 122.953125 314.550781 104.582031 307.109375 L 93.71875 312.550781 L 95.796875 317.910156 C 96.726562 320.316406 95.535156 323.019531 93.132812 323.949219 L 68.894531 333.355469 C 68.351562 333.566406 67.777344 333.671875 67.207031 333.671875 C 66.5625 333.671875 65.921875 333.539062 65.320312 333.273438 C 64.1875 332.773438 63.300781 331.84375 62.855469 330.6875 L 37.875 266.226562 C 37.425781 265.070312 37.457031 263.785156 37.957031 262.652344 C 38.457031 261.519531 39.386719 260.632812 40.539062 260.183594 L 64.777344 250.800781 C 67.179688 249.867188 69.882812 251.0625 70.816406 253.464844 L 73.289062 259.84375 C 82.472656 256.183594 89.261719 253.246094 94.402344 251.027344 C 112.613281 243.160156 113.898438 243.066406 128.820312 248.621094 C 135.128906 250.964844 144.660156 254.511719 160.3125 258.902344 C 165.257812 260.300781 169.195312 263.746094 171.269531 268.230469 L 206.472656 257.347656 C 219.613281 253.292969 229.613281 261.304688 232.703125 271.3125 C 235.789062 281.3125 232.046875 293.5625 218.917969 297.621094 Z M 85.402344 316.933594 L 63.796875 261.191406 L 48.265625 267.207031 L 69.871094 322.960938 Z M 223.78125 274.066406 C 222.058594 268.484375 216.890625 263.90625 209.230469 266.269531 L 172.738281 277.550781 C 172.628906 278.433594 172.457031 279.300781 172.210938 280.152344 C 170.101562 287.710938 163.175781 292.683594 155.652344 292.683594 C 154.121094 292.683594 152.570312 292.476562 151.023438 292.046875 L 117.976562 282.773438 C 115.496094 282.078125 114.046875 279.5 114.742188 277.019531 C 115.441406 274.535156 118.019531 273.085938 120.5 273.785156 L 153.542969 283.054688 C 157.714844 284.21875 162.0625 281.777344 163.230469 277.605469 C 163.507812 276.640625 163.589844 275.648438 163.484375 274.613281 C 163.121094 271.453125 160.828125 268.75 157.78125 267.886719 C 141.765625 263.398438 132.019531 259.769531 125.566406 257.371094 C 119.148438 254.984375 116.21875 253.894531 113.367188 254.105469 C 110.28125 254.335938 106.214844 256.09375 98.105469 259.597656 C 92.894531 261.851562 86.007812 264.824219 76.664062 268.550781 L 90.332031 303.804688 L 102.296875 297.8125 C 102.953125 297.484375 103.671875 297.316406 104.390625 297.316406 C 104.996094 297.316406 105.605469 297.433594 106.175781 297.671875 C 145.402344 313.9375 158.816406 309.035156 188.214844 298.292969 C 196.195312 295.378906 205.234375 292.074219 216.160156 288.699219 C 223.816406 286.335938 225.503906 279.648438 223.78125 274.066406 Z M 177.589844 107.46875 L 177.589844 99.507812 C 177.589844 96.929688 175.5 94.839844 172.921875 94.839844 C 170.34375 94.839844 168.253906 96.929688 168.253906 99.507812 L 168.253906 107.46875 C 168.253906 110.046875 170.34375 112.136719 172.921875 112.136719 C 175.5 112.136719 177.589844 110.046875 177.589844 107.46875 Z M 204.226562 125.101562 C 205.421875 125.101562 206.617188 124.644531 207.53125 123.734375 L 213.15625 118.105469 C 214.980469 116.28125 214.980469 113.328125 213.15625 111.503906 C 211.335938 109.679688 208.378906 109.679688 206.554688 111.503906 L 200.925781 117.132812 C 199.105469 118.957031 199.105469 121.910156 200.925781 123.734375 C 201.839844 124.644531 203.035156 125.101562 204.226562 125.101562 Z M 225.152344 156.390625 C 227.730469 156.390625 229.820312 154.300781 229.820312 151.722656 C 229.820312 149.144531 227.730469 147.054688 225.152344 147.054688 L 217.191406 147.054688 C 214.613281 147.054688 212.523438 149.144531 212.523438 151.722656 C 212.523438 154.300781 214.613281 156.390625 217.191406 156.390625 Z M 200.925781 186.324219 L 206.554688 191.953125 C 207.46875 192.867188 208.660156 193.320312 209.855469 193.320312 C 211.050781 193.320312 212.246094 192.867188 213.15625 191.953125 C 214.980469 190.132812 214.980469 187.175781 213.15625 185.351562 L 207.53125 179.722656 C 205.707031 177.902344 202.75 177.898438 200.925781 179.722656 C 199.105469 181.546875 199.105469 184.503906 200.925781 186.324219 Z M 168.253906 195.988281 L 168.253906 203.949219 C 168.253906 206.527344 170.34375 208.617188 172.921875 208.617188 C 175.5 208.617188 177.589844 206.527344 177.589844 203.949219 L 177.589844 195.988281 C 177.589844 193.410156 175.5 191.320312 172.921875 191.320312 C 170.34375 191.320312 168.253906 193.410156 168.253906 195.988281 Z M 136.007812 193.324219 C 137.203125 193.324219 138.398438 192.867188 139.308594 191.953125 L 144.9375 186.328125 C 146.761719 184.503906 146.757812 181.546875 144.9375 179.722656 C 143.113281 177.902344 140.15625 177.902344 138.335938 179.722656 L 132.707031 185.351562 C 130.882812 187.175781 130.882812 190.132812 132.707031 191.953125 C 133.617188 192.867188 134.8125 193.324219 136.007812 193.324219 Z M 128.671875 147.050781 L 120.710938 147.050781 C 118.132812 147.050781 116.042969 149.140625 116.042969 151.71875 C 116.042969 154.296875 118.132812 156.386719 120.710938 156.386719 L 128.671875 156.386719 C 131.25 156.386719 133.34375 154.296875 133.34375 151.71875 C 133.34375 149.140625 131.25 147.050781 128.671875 147.050781 Z M 144.9375 117.132812 L 139.308594 111.503906 C 137.484375 109.679688 134.53125 109.679688 132.707031 111.503906 C 130.882812 113.324219 130.882812 116.28125 132.707031 118.105469 L 138.335938 123.734375 C 139.246094 124.644531 140.441406 125.101562 141.636719 125.101562 C 142.832031 125.101562 144.023438 124.644531 144.9375 123.734375 C 146.757812 121.910156 146.761719 118.953125 144.9375 117.132812 Z M 199.425781 151.71875 C 199.425781 149.140625 197.335938 147.050781 194.757812 147.050781 L 177.59375 147.050781 L 177.59375 128.082031 C 177.59375 125.503906 175.503906 123.414062 172.925781 123.414062 C 170.347656 123.414062 168.257812 125.503906 168.257812 128.082031 L 168.257812 151.722656 C 168.257812 154.300781 170.347656 156.390625 172.925781 156.390625 L 194.757812 156.390625 C 197.339844 156.390625 199.425781 154.300781 199.425781 151.722656 Z M 330.671875 188.914062 C 332.085938 214.375 322.570312 233.710938 301.65625 247.90625 C 301.382812 248.09375 301.285156 248.273438 301.285156 248.613281 C 301.285156 248.976562 301.386719 249.167969 301.664062 249.355469 C 322.574219 263.539062 332.089844 282.871094 330.671875 308.34375 C 334.109375 309.664062 336.5625 312.992188 336.5625 316.882812 L 336.5625 324.5 C 336.5625 329.554688 332.449219 333.671875 327.394531 333.671875 L 235.730469 333.671875 C 230.675781 333.671875 226.558594 329.554688 226.558594 324.5 L 226.558594 316.882812 C 226.558594 312.988281 229.015625 309.664062 232.457031 308.34375 C 231.054688 282.867188 240.570312 263.535156 261.46875 249.351562 C 261.757812 249.160156 261.855469 248.972656 261.855469 248.628906 C 261.855469 248.277344 261.765625 248.105469 261.480469 247.914062 C 240.570312 233.710938 231.054688 214.378906 232.457031 188.917969 C 229.015625 187.59375 226.5625 184.261719 226.5625 180.359375 L 226.5625 172.761719 C 226.5625 167.703125 230.675781 163.589844 235.730469 163.589844 L 327.394531 163.589844 C 332.449219 163.589844 336.566406 167.703125 336.566406 172.761719 L 336.566406 180.359375 C 336.566406 184.261719 334.113281 187.59375 330.671875 188.914062 Z M 235.898438 180.195312 L 325.664062 180.195312 C 325.667969 180.195312 325.671875 180.195312 325.679688 180.195312 L 327.226562 180.195312 L 327.226562 172.925781 L 235.898438 172.925781 Z M 327.226562 317.066406 L 235.898438 317.066406 L 235.898438 324.332031 L 327.226562 324.332031 Z M 303.554688 307.730469 C 300.625 300.550781 295.933594 294.34375 289.324219 288.878906 C 289.292969 288.855469 289.261719 288.828125 289.234375 288.800781 C 283.589844 283.890625 279.179688 283.859375 274.015625 288.691406 C 273.945312 288.757812 273.875 288.820312 273.800781 288.878906 C 267.1875 294.347656 262.496094 300.554688 259.578125 307.730469 Z M 321.355469 189.53125 L 241.769531 189.53125 C 240.566406 211.675781 248.558594 227.851562 266.710938 240.183594 C 269.554688 242.097656 271.191406 245.175781 271.191406 248.613281 C 271.191406 252.082031 269.554688 255.164062 266.699219 257.085938 C 248.554688 269.398438 240.566406 285.570312 241.769531 307.730469 L 249.648438 307.730469 C 252.957031 297.640625 258.898438 289.117188 267.746094 281.773438 C 276.363281 273.789062 286.148438 273.769531 295.316406 281.722656 C 304.191406 289.074219 310.15625 297.613281 313.488281 307.730469 L 321.355469 307.730469 C 322.578125 285.574219 314.585938 269.402344 296.414062 257.078125 C 293.574219 255.144531 291.949219 252.066406 291.949219 248.628906 C 291.949219 245.191406 293.574219 242.117188 296.40625 240.1875 C 314.582031 227.847656 322.574219 211.675781 321.355469 189.53125 Z M 312.144531 208.699219 C 309.679688 218.96875 303.714844 227.335938 293.90625 234.253906 C 291.359375 236.136719 288.796875 237.4375 286.238281 238.171875 L 286.238281 248.628906 C 286.238281 251.210938 284.148438 253.300781 281.570312 253.300781 C 278.992188 253.300781 276.902344 251.210938 276.902344 248.628906 L 276.902344 238.265625 C 274.269531 237.550781 271.683594 236.199219 269.167969 234.207031 C 259.417969 227.316406 253.472656 218.996094 250.992188 208.777344 C 250.992188 208.773438 250.992188 208.773438 250.992188 208.773438 C 250.230469 205.625 251.085938 202.488281 253.339844 200.167969 C 255.558594 197.851562 258.664062 196.890625 261.839844 197.558594 C 274.648438 200.1875 287.953125 200.15625 301.363281 197.46875 C 304.523438 196.835938 307.609375 197.8125 309.839844 200.140625 C 312.03125 202.398438 312.902344 205.605469 312.144531 208.699219 Z M 260.058594 206.539062 L 255.53125 207.675781 L 260.058594 206.574219 C 260.058594 206.5625 260.058594 206.546875 260.058594 206.539062 Z M 303.035156 206.65625 C 288.492188 209.546875 274.058594 209.574219 260.105469 206.734375 C 262.089844 214.734375 266.714844 221.066406 274.65625 226.652344 C 274.734375 226.707031 274.8125 226.765625 274.886719 226.824219 C 277.113281 228.609375 279.222656 229.496094 281.386719 229.503906 C 281.449219 229.5 281.507812 229.492188 281.570312 229.492188 C 281.589844 229.492188 281.609375 229.496094 281.628906 229.496094 C 283.773438 229.4375 285.972656 228.515625 288.390625 226.71875 C 288.421875 226.699219 288.453125 226.675781 288.484375 226.652344 C 296.4375 221.050781 301.066406 214.695312 303.035156 206.65625 Z M 281.570312 257.097656 C 278.992188 257.097656 276.902344 259.195312 276.902344 261.773438 C 276.902344 264.351562 278.992188 266.441406 281.570312 266.441406 C 284.148438 266.441406 286.238281 264.351562 286.238281 261.773438 L 286.238281 261.757812 C 286.238281 259.179688 284.148438 257.097656 281.570312 257.097656 Z M 281.570312 257.097656 " fill-opacity="1" fill-rule="nonzero"/></g></svg>