<svg xmlns="http://www.w3.org/2000/svg" xmlns:xlink="http://www.w3.org/1999/xlink" width="500" zoomAndPan="magnify" viewBox="0 0 375.12 383.03998" height="500" preserveAspectRatio="xMidYMid meet" version="1.0"><defs><clipPath id="6a8a7522c2"><path d="M 74 264 L 122 264 L 122 336.65625 L 74 336.65625 Z M 74 264 " clip-rule="nonzero"/></clipPath><clipPath id="8dc03b4a10"><path d="M 133 242 L 181 242 L 181 336.65625 L 133 336.65625 Z M 133 242 " clip-rule="nonzero"/></clipPath><clipPath id="ed30941a29"><path d="M 193 215 L 241 215 L 241 336.65625 L 193 336.65625 Z M 193 215 " clip-rule="nonzero"/></clipPath><clipPath id="aafa753f3d"><path d="M 252 188 L 300 188 L 300 336.65625 L 252 336.65625 Z M 252 188 " clip-rule="nonzero"/></clipPath><clipPath id="cbcf1abec1"><path d="M 66.613281 148 L 284 148 L 284 243 L 66.613281 243 Z M 66.613281 148 " clip-rule="nonzero"/></clipPath><clipPath id="79aa143e30"><path d="M 259 124 L 307.507812 124 L 307.507812 172 L 259 172 Z M 259 124 " clip-rule="nonzero"/></clipPath><clipPath id="bd6815d018"><path d="M 127 37.40625 L 247 37.40625 L 247 156 L 127 156 Z M 127 37.40625 " clip-rule="nonzero"/></clipPath></defs><g clip-path="url(#6a8a7522c2)"><path fill="#000000" d="M 116.34375 336.65625 L 79.460938 336.65625 C 76.792969 336.65625 74.574219 334.496094 74.574219 331.769531 L 74.574219 269.621094 C 74.574219 266.953125 76.730469 264.730469 79.460938 264.730469 L 116.34375 264.730469 C 119.007812 264.730469 121.230469 266.890625 121.230469 269.621094 L 121.230469 331.769531 C 121.230469 334.433594 119.074219 336.65625 116.34375 336.65625 Z M 84.347656 326.878906 L 111.519531 326.878906 L 111.519531 274.507812 L 84.347656 274.507812 Z M 84.347656 326.878906 " fill-opacity="1" fill-rule="nonzero"/></g><g clip-path="url(#8dc03b4a10)"><path fill="#000000" d="M 175.761719 336.65625 L 138.878906 336.65625 C 136.210938 336.65625 133.992188 334.496094 133.992188 331.769531 L 133.992188 247.085938 C 133.992188 244.417969 136.148438 242.195312 138.878906 242.195312 L 175.761719 242.195312 C 178.429688 242.195312 180.648438 244.355469 180.648438 247.085938 L 180.648438 331.769531 C 180.648438 334.433594 178.492188 336.65625 175.761719 336.65625 Z M 143.765625 326.878906 L 170.875 326.878906 L 170.875 251.972656 L 143.765625 251.972656 Z M 143.765625 326.878906 " fill-opacity="1" fill-rule="nonzero"/></g><g clip-path="url(#ed30941a29)"><path fill="#000000" d="M 235.242188 336.65625 L 198.359375 336.65625 C 195.695312 336.65625 193.472656 334.496094 193.472656 331.769531 L 193.472656 220.421875 C 193.472656 217.757812 195.632812 215.535156 198.359375 215.535156 L 235.242188 215.535156 C 237.910156 215.535156 240.132812 217.691406 240.132812 220.421875 L 240.132812 331.769531 C 240.066406 334.433594 237.910156 336.65625 235.242188 336.65625 Z M 203.183594 326.878906 L 230.292969 326.878906 L 230.292969 225.308594 L 203.183594 225.308594 Z M 203.183594 326.878906 " fill-opacity="1" fill-rule="nonzero"/></g><g clip-path="url(#aafa753f3d)"><path fill="#000000" d="M 294.660156 336.65625 L 257.777344 336.65625 C 255.113281 336.65625 252.890625 334.496094 252.890625 331.769531 L 252.890625 193.125 C 252.890625 190.460938 255.050781 188.238281 257.777344 188.238281 L 294.660156 188.238281 C 297.328125 188.238281 299.550781 190.394531 299.550781 193.125 L 299.550781 331.769531 C 299.484375 334.433594 297.328125 336.65625 294.660156 336.65625 Z M 262.605469 326.878906 L 289.710938 326.878906 L 289.710938 198.011719 L 262.605469 198.011719 Z M 262.605469 326.878906 " fill-opacity="1" fill-rule="nonzero"/></g><g clip-path="url(#cbcf1abec1)"><path fill="#000000" d="M 114.121094 242.640625 C 113.867188 242.640625 113.550781 242.640625 113.296875 242.578125 L 70.890625 235.085938 C 68.222656 234.640625 66.445312 232.101562 66.953125 229.4375 C 67.398438 226.769531 69.9375 224.992188 72.605469 225.5 L 112.472656 232.546875 L 149.796875 195.21875 C 151.066406 193.949219 152.84375 193.507812 154.558594 193.949219 C 169.285156 198.140625 182.933594 201.570312 188.964844 203.027344 L 213.914062 166.71875 C 215.308594 164.6875 217.976562 163.988281 220.136719 165.128906 L 242.605469 176.683594 L 275.300781 149.386719 C 277.394531 147.671875 280.441406 147.925781 282.15625 150.023438 C 283.871094 152.117188 283.617188 155.164062 281.519531 156.878906 L 246.289062 186.207031 C 244.765625 187.476562 242.671875 187.667969 240.957031 186.777344 L 219.4375 175.730469 L 195.058594 211.28125 C 193.917969 212.929688 191.886719 213.757812 189.917969 213.25 C 189.726562 213.183594 173.347656 209.25 154.621094 204.042969 L 117.550781 241.117188 C 116.597656 242.132812 115.390625 242.640625 114.121094 242.640625 Z M 114.121094 242.640625 " fill-opacity="1" fill-rule="nonzero"/></g><g clip-path="url(#79aa143e30)"><path fill="#000000" d="M 292.25 171.859375 C 290.980469 171.859375 289.710938 171.351562 288.820312 170.460938 L 261.207031 142.847656 C 260 141.640625 259.492188 139.800781 259.9375 138.152344 C 260.382812 136.4375 261.714844 135.167969 263.367188 134.722656 L 301.074219 124.628906 C 302.722656 124.183594 304.566406 124.628906 305.769531 125.898438 C 306.976562 127.167969 307.484375 128.945312 307.039062 130.597656 L 296.945312 168.304688 C 296.503906 170.019531 295.167969 171.289062 293.519531 171.730469 C 293.074219 171.796875 292.695312 171.859375 292.25 171.859375 Z M 274.09375 141.894531 L 289.773438 157.574219 L 295.488281 136.183594 Z M 274.09375 141.894531 " fill-opacity="1" fill-rule="nonzero"/></g><path fill="#000000" d="M 187.0625 112.25 C 173.160156 112.25 161.796875 100.886719 161.796875 86.984375 C 161.796875 73.082031 173.160156 61.71875 187.0625 61.71875 C 200.964844 61.71875 212.328125 73.082031 212.328125 86.984375 C 212.328125 100.886719 200.964844 112.25 187.0625 112.25 Z M 187.0625 71.433594 C 178.492188 71.433594 171.570312 78.414062 171.570312 86.921875 C 171.570312 95.492188 178.554688 102.410156 187.0625 102.410156 C 195.632812 102.410156 202.550781 95.429688 202.550781 86.921875 C 202.550781 78.414062 195.632812 71.433594 187.0625 71.433594 Z M 187.0625 71.433594 " fill-opacity="1" fill-rule="nonzero"/><g clip-path="url(#bd6815d018)"><path fill="#000000" d="M 187.0625 155.734375 C 154.433594 155.734375 127.898438 129.199219 127.898438 96.570312 C 127.898438 63.941406 154.433594 37.40625 187.0625 37.40625 C 219.691406 37.40625 246.226562 63.941406 246.226562 96.570312 C 246.226562 129.199219 219.691406 155.734375 187.0625 155.734375 Z M 187.0625 47.183594 C 159.828125 47.183594 137.609375 69.335938 137.609375 96.632812 C 137.609375 123.929688 159.765625 146.085938 187.0625 146.085938 C 214.359375 146.085938 236.511719 123.929688 236.511719 96.632812 C 236.511719 69.335938 214.292969 47.183594 187.0625 47.183594 Z M 187.0625 47.183594 " fill-opacity="1" fill-rule="nonzero"/></g><path fill="#000000" d="M 148.402344 139.609375 C 145.734375 139.609375 143.511719 137.453125 143.511719 134.722656 L 143.511719 129.898438 C 143.511719 112.632812 151.957031 98.664062 166.621094 91.617188 C 169.03125 90.476562 171.953125 91.492188 173.09375 93.90625 C 174.238281 96.316406 173.222656 99.238281 170.808594 100.378906 C 164.207031 103.554688 153.226562 111.550781 153.226562 129.835938 L 153.226562 134.660156 C 153.289062 137.453125 151.132812 139.609375 148.402344 139.609375 Z M 225.722656 139.609375 C 223.054688 139.609375 220.832031 137.453125 220.832031 134.722656 L 220.832031 129.898438 C 220.832031 111.617188 209.789062 103.554688 203.25 100.441406 C 200.835938 99.300781 199.820312 96.378906 200.964844 93.96875 C 202.105469 91.554688 205.027344 90.539062 207.4375 91.683594 C 222.167969 98.730469 230.546875 112.695312 230.546875 129.960938 L 230.546875 134.785156 C 230.609375 137.453125 228.386719 139.609375 225.722656 139.609375 Z M 225.722656 139.609375 " fill-opacity="1" fill-rule="nonzero"/></svg>