<svg xmlns="http://www.w3.org/2000/svg" xmlns:xlink="http://www.w3.org/1999/xlink" width="500" zoomAndPan="magnify" viewBox="0 0 375.12 383.03998" height="500" preserveAspectRatio="xMidYMid meet" version="1.0"><defs><clipPath id="f688a65b77"><path d="M 104 291 L 135 291 L 135 329.921875 L 104 329.921875 Z M 104 291 " clip-rule="nonzero"/></clipPath><clipPath id="5a454fc8ae"><path d="M 37.4375 238 L 202 238 L 202 329.921875 L 37.4375 329.921875 Z M 37.4375 238 " clip-rule="nonzero"/></clipPath><clipPath id="b7a767e8cc"><path d="M 59 301 L 68 301 L 68 329.921875 L 59 329.921875 Z M 59 301 " clip-rule="nonzero"/></clipPath><clipPath id="d89ef6ba3a"><path d="M 171 301 L 180 301 L 180 329.921875 L 171 329.921875 Z M 171 301 " clip-rule="nonzero"/></clipPath><clipPath id="0bb78dc62e"><path d="M 178 134 L 336.6875 134 L 336.6875 293 L 178 293 Z M 178 134 " clip-rule="nonzero"/></clipPath><clipPath id="89a9cb50d6"><path d="M 253 44.140625 L 316 44.140625 L 316 124 L 253 124 Z M 253 44.140625 " clip-rule="nonzero"/></clipPath><clipPath id="d508bf740a"><path d="M 199 44.140625 L 262 44.140625 L 262 124 L 199 124 Z M 199 44.140625 " clip-rule="nonzero"/></clipPath><clipPath id="fd57cd2ef8"><path d="M 220 44.140625 L 295 44.140625 L 295 70 L 220 70 Z M 220 44.140625 " clip-rule="nonzero"/></clipPath></defs><path fill="#000000" d="M 119.628906 301.992188 C 113.625 301.992188 107.890625 298.214844 101.617188 289.984375 C 100.335938 288.296875 100.605469 285.867188 102.289062 284.519531 C 103.976562 283.238281 106.40625 283.507812 107.753906 285.195312 C 112.410156 291.199219 116.324219 294.167969 119.628906 294.167969 C 123.003906 294.167969 126.847656 291.265625 131.503906 285.195312 C 132.785156 283.507812 135.28125 283.167969 136.96875 284.519531 C 138.65625 285.800781 138.992188 288.296875 137.644531 289.984375 C 131.367188 298.214844 125.632812 301.992188 119.628906 301.992188 Z M 119.628906 301.992188 " fill-opacity="1" fill-rule="nonzero"/><path fill="#000000" d="M 124.285156 283.238281 L 115.042969 283.238281 C 112.882812 283.238281 111.128906 281.484375 111.128906 279.324219 C 111.128906 277.164062 112.882812 275.410156 115.042969 275.410156 L 124.285156 275.410156 C 126.445312 275.410156 128.199219 277.164062 128.199219 279.324219 C 128.199219 281.484375 126.445312 283.238281 124.285156 283.238281 Z M 124.285156 283.238281 " fill-opacity="1" fill-rule="nonzero"/><g clip-path="url(#f688a65b77)"><path fill="#000000" d="M 130.894531 329.921875 L 108.429688 329.921875 C 107.351562 329.921875 106.269531 329.449219 105.527344 328.640625 C 104.785156 327.832031 104.449219 326.683594 104.585938 325.605469 L 108.296875 294.910156 C 108.566406 292.75 110.523438 291.265625 112.613281 291.535156 C 114.773438 291.804688 116.257812 293.761719 115.988281 295.851562 L 112.816406 322.230469 L 126.511719 322.230469 L 123.339844 295.851562 C 123.070312 293.695312 124.621094 291.804688 126.714844 291.535156 C 128.871094 291.265625 130.761719 292.816406 131.03125 294.910156 L 134.742188 325.605469 C 134.875 326.683594 134.539062 327.832031 133.796875 328.640625 C 133.054688 329.449219 131.976562 329.921875 130.894531 329.921875 Z M 130.894531 329.921875 " fill-opacity="1" fill-rule="nonzero"/></g><path fill="#000000" d="M 119.496094 249.371094 C 103.4375 249.371094 85.625 239.925781 82.859375 219.347656 C 78.339844 217.253906 74.496094 212.601562 72.742188 206.796875 C 70.71875 200.1875 71.863281 193.507812 75.84375 188.652344 C 78.8125 174.484375 91.5625 169.21875 97.972656 168.410156 C 98.109375 168.410156 98.308594 168.410156 98.445312 168.410156 L 113.019531 168.410156 C 113.019531 168.410156 113.085938 168.410156 113.085938 168.410156 L 128.941406 168.75 C 129.410156 168.546875 130.695312 167.464844 131.910156 164.363281 C 132.71875 162.40625 134.945312 161.460938 136.902344 162.203125 C 148.773438 166.792969 152.550781 173.875 155.519531 179.542969 C 157.34375 182.984375 158.691406 185.480469 161.457031 186.964844 C 161.863281 187.167969 162.199219 187.4375 162.46875 187.773438 C 167.058594 192.699219 168.472656 199.851562 166.316406 206.867188 C 164.5625 212.601562 160.714844 217.253906 156.195312 219.414062 C 153.429688 239.992188 135.550781 249.371094 119.496094 249.371094 Z M 98.714844 176.101562 C 96.960938 176.371094 85.289062 178.800781 83.265625 191.011719 C 83.128906 191.753906 82.792969 192.429688 82.253906 193.035156 C 78.40625 197.152344 79.488281 202.414062 80.164062 204.503906 C 81.445312 208.6875 84.414062 212.0625 87.382812 212.667969 C 89.066406 213.074219 90.28125 214.488281 90.417969 216.175781 C 91.632812 233.71875 105.933594 241.542969 119.5625 241.542969 C 133.191406 241.542969 147.492188 233.71875 148.707031 216.175781 C 148.84375 214.488281 150.054688 213.003906 151.742188 212.667969 C 154.710938 211.992188 157.613281 208.621094 158.960938 204.503906 C 159.570312 202.480469 160.648438 197.488281 157.207031 193.441406 C 152.753906 190.808594 150.664062 186.894531 148.707031 183.117188 C 146.277344 178.53125 143.984375 174.210938 137.371094 170.839844 C 134 176.238281 130.085938 176.574219 128.667969 176.4375 L 113.019531 176.101562 Z M 129.410156 168.75 Z M 129.410156 168.75 Z M 129.410156 168.75 Z M 129.410156 168.75 " fill-opacity="1" fill-rule="nonzero"/><path fill="#000000" d="M 79.421875 194.316406 C 77.9375 194.316406 76.585938 193.507812 75.910156 192.089844 C 69.773438 179.003906 73.214844 165.441406 85.289062 154.984375 C 93.386719 147.96875 104.855469 142.707031 116.863281 140.546875 C 129.480469 138.253906 140.542969 139.738281 148.03125 144.59375 C 151.269531 146.6875 153.226562 149.789062 153.632812 153.367188 C 166.855469 161.058594 169.148438 174.078125 166.921875 183.253906 C 165.4375 189.460938 162.066406 193.304688 158.085938 193.304688 C 158.085938 193.304688 158.015625 193.304688 158.015625 193.304688 C 155.859375 193.304688 154.171875 191.550781 154.171875 189.390625 C 154.171875 187.4375 155.65625 185.816406 157.546875 185.613281 C 158.488281 184.738281 160.242188 181.027344 159.839844 175.765625 C 159.570312 171.648438 157.679688 163.957031 148.101562 159.234375 C 146.683594 158.5625 145.804688 157.007812 145.941406 155.457031 C 146.007812 154.242188 145.941406 152.554688 143.78125 151.140625 C 131.636719 143.179688 105.191406 148.035156 90.417969 160.855469 C 83.738281 166.65625 77.058594 176.167969 82.996094 188.785156 C 83.871094 190.742188 83.0625 193.035156 81.105469 193.980469 C 80.5 194.183594 79.960938 194.316406 79.421875 194.316406 Z M 79.421875 194.316406 " fill-opacity="1" fill-rule="nonzero"/><g clip-path="url(#5a454fc8ae)"><path fill="#000000" d="M 197.957031 329.921875 L 41.371094 329.921875 C 39.210938 329.921875 37.457031 328.167969 37.457031 326.011719 L 37.457031 316.566406 C 37.457031 298.417969 40.222656 286.136719 46.496094 276.761719 C 53.445312 266.371094 64.710938 259.625 81.917969 255.644531 C 94.328125 252.742188 100.265625 248.558594 101.144531 242.082031 C 101.277344 240.867188 102.019531 239.855469 103.101562 239.25 C 104.179688 238.640625 105.394531 238.574219 106.542969 239.046875 C 114.773438 242.554688 124.621094 242.488281 132.851562 238.914062 C 134 238.441406 135.28125 238.507812 136.292969 239.113281 C 137.371094 239.722656 138.046875 240.800781 138.25 242.015625 C 139.058594 248.558594 144.996094 252.808594 157.476562 255.710938 C 174.679688 259.691406 185.949219 266.4375 192.898438 276.828125 C 199.171875 286.207031 201.9375 298.417969 201.9375 316.632812 L 201.9375 326.078125 C 201.871094 328.167969 200.117188 329.921875 197.957031 329.921875 Z M 45.214844 322.097656 L 194.042969 322.097656 L 194.042969 316.496094 C 194.042969 283.304688 184.328125 269.8125 155.65625 263.199219 C 149.988281 261.917969 136.023438 258.679688 131.636719 247.546875 C 123.878906 249.910156 115.378906 249.910156 107.621094 247.613281 C 103.167969 258.613281 89.269531 261.851562 83.671875 263.199219 C 54.929688 269.878906 45.28125 283.304688 45.28125 316.496094 L 45.28125 322.097656 Z M 45.214844 322.097656 " fill-opacity="1" fill-rule="nonzero"/></g><path fill="#000000" d="M 99.863281 295.378906 C 99.523438 295.378906 99.121094 295.3125 98.78125 295.246094 C 97.566406 294.910156 96.625 293.964844 96.21875 292.75 C 94.398438 287.417969 85.085938 260.636719 84.683594 258.882812 C 84.144531 256.859375 85.289062 254.765625 87.246094 254.160156 C 93.789062 252.066406 97.90625 249.371094 99.863281 245.859375 C 100.605469 244.511719 102.089844 243.769531 103.640625 243.90625 C 105.191406 244.039062 106.472656 245.117188 106.945312 246.601562 L 109.441406 254.292969 L 118.683594 277.839844 C 119.292969 279.390625 118.820312 281.214844 117.46875 282.292969 L 102.289062 294.4375 C 101.617188 295.109375 100.738281 295.378906 99.863281 295.378906 Z M 93.25 260.296875 C 95.070312 265.628906 98.648438 276.019531 101.75 284.992188 L 110.386719 278.042969 L 102.089844 257.058594 C 102.089844 256.992188 102.019531 256.925781 102.019531 256.789062 L 101.617188 255.507812 C 99.324219 257.398438 96.554688 258.949219 93.25 260.296875 Z M 93.25 260.296875 " fill-opacity="1" fill-rule="nonzero"/><path fill="#000000" d="M 139.464844 295.378906 C 138.585938 295.378906 137.710938 295.109375 137.035156 294.503906 L 121.921875 282.359375 C 120.574219 281.28125 120.101562 279.457031 120.777344 277.90625 L 129.75 255.105469 L 132.921875 247.144531 C 133.460938 245.792969 134.742188 244.847656 136.160156 244.714844 C 137.574219 244.578125 138.992188 245.253906 139.800781 246.46875 C 141.894531 249.707031 145.941406 252.269531 152.148438 254.226562 C 154.105469 254.835938 155.25 256.925781 154.710938 258.949219 C 154.238281 260.703125 144.996094 287.417969 143.175781 292.816406 C 142.769531 294.03125 141.757812 294.910156 140.542969 295.3125 C 140.140625 295.3125 139.800781 295.378906 139.464844 295.378906 Z M 129.007812 278.109375 L 137.574219 284.992188 C 140.679688 276.019531 144.253906 265.628906 146.074219 260.296875 C 142.835938 259.015625 140.070312 257.464844 137.84375 255.710938 L 136.96875 258.003906 Z M 129.007812 278.109375 " fill-opacity="1" fill-rule="nonzero"/><g clip-path="url(#b7a767e8cc)"><path fill="#000000" d="M 63.835938 329.921875 C 61.675781 329.921875 59.921875 328.167969 59.921875 326.011719 L 59.921875 305.769531 C 59.921875 303.613281 61.675781 301.859375 63.835938 301.859375 C 65.996094 301.859375 67.75 303.613281 67.75 305.769531 L 67.75 326.011719 C 67.75 328.167969 65.996094 329.921875 63.835938 329.921875 Z M 63.835938 329.921875 " fill-opacity="1" fill-rule="nonzero"/></g><g clip-path="url(#d89ef6ba3a)"><path fill="#000000" d="M 175.421875 329.921875 C 173.265625 329.921875 171.511719 328.167969 171.511719 326.011719 L 171.511719 305.769531 C 171.511719 303.613281 173.265625 301.859375 175.421875 301.859375 C 177.582031 301.859375 179.335938 303.613281 179.335938 305.769531 L 179.335938 326.011719 C 179.335938 328.167969 177.582031 329.921875 175.421875 329.921875 Z M 175.421875 329.921875 " fill-opacity="1" fill-rule="nonzero"/></g><path fill="#000000" d="M 106.136719 198.90625 L 95.003906 198.90625 C 92.847656 198.90625 91.089844 197.152344 91.089844 194.992188 C 91.089844 192.832031 92.847656 191.078125 95.003906 191.078125 L 106.136719 191.078125 C 108.296875 191.078125 110.050781 192.832031 110.050781 194.992188 C 110.050781 197.152344 108.296875 198.90625 106.136719 198.90625 Z M 106.136719 198.90625 " fill-opacity="1" fill-rule="nonzero"/><path fill="#000000" d="M 100.605469 211.65625 L 100.535156 211.65625 C 98.378906 211.65625 96.625 209.902344 96.625 207.742188 C 96.625 205.585938 98.378906 203.832031 100.535156 203.832031 L 100.671875 203.832031 C 102.832031 203.832031 104.585938 205.585938 104.585938 207.742188 C 104.585938 209.902344 102.761719 211.65625 100.605469 211.65625 Z M 100.605469 211.65625 " fill-opacity="1" fill-rule="nonzero"/><path fill="#000000" d="M 144.050781 198.90625 L 132.921875 198.90625 C 130.761719 198.90625 129.007812 197.152344 129.007812 194.992188 C 129.007812 192.832031 130.761719 191.078125 132.921875 191.078125 L 144.050781 191.078125 C 146.210938 191.078125 147.964844 192.832031 147.964844 194.992188 C 147.964844 197.152344 146.144531 198.90625 144.050781 198.90625 Z M 144.050781 198.90625 " fill-opacity="1" fill-rule="nonzero"/><path fill="#000000" d="M 138.519531 211.65625 L 138.386719 211.65625 C 136.226562 211.65625 134.472656 209.902344 134.472656 207.742188 C 134.472656 205.585938 136.226562 203.832031 138.386719 203.832031 L 138.519531 203.832031 C 140.679688 203.832031 142.433594 205.585938 142.433594 207.742188 C 142.433594 209.902344 140.679688 211.65625 138.519531 211.65625 Z M 138.519531 211.65625 " fill-opacity="1" fill-rule="nonzero"/><path fill="#000000" d="M 119.496094 233.3125 C 115.917969 233.3125 112.546875 231.894531 110.050781 229.398438 C 108.566406 227.914062 108.566406 225.417969 110.050781 223.933594 C 111.535156 222.449219 114.03125 222.449219 115.515625 223.933594 C 116.59375 225.015625 117.941406 225.554688 119.496094 225.554688 C 121.046875 225.554688 122.394531 224.945312 123.476562 223.933594 C 124.960938 222.449219 127.457031 222.382812 128.941406 223.933594 C 130.425781 225.417969 130.425781 227.914062 128.941406 229.398438 C 126.445312 231.894531 123.070312 233.3125 119.496094 233.3125 Z M 119.496094 233.3125 " fill-opacity="1" fill-rule="nonzero"/><g clip-path="url(#0bb78dc62e)"><path fill="#000000" d="M 257.460938 292.480469 C 213.8125 292.480469 178.257812 256.925781 178.257812 213.273438 C 178.257812 169.625 213.8125 134.070312 257.460938 134.070312 C 301.113281 134.070312 336.664062 169.625 336.664062 213.273438 C 336.664062 256.925781 301.179688 292.480469 257.460938 292.480469 Z M 257.460938 141.898438 C 218.0625 141.898438 186.082031 173.941406 186.082031 213.34375 C 186.082031 252.742188 218.128906 284.789062 257.460938 284.789062 C 296.859375 284.789062 328.90625 252.742188 328.90625 213.34375 C 328.90625 173.941406 296.859375 141.898438 257.460938 141.898438 Z M 257.460938 141.898438 " fill-opacity="1" fill-rule="nonzero"/></g><path fill="#000000" d="M 257.460938 274.601562 C 223.660156 274.601562 196.136719 247.074219 196.136719 213.273438 C 196.136719 179.476562 223.660156 151.949219 257.460938 151.949219 C 291.261719 151.949219 318.789062 179.476562 318.789062 213.273438 C 318.789062 247.074219 291.328125 274.601562 257.460938 274.601562 Z M 257.460938 159.707031 C 227.910156 159.707031 203.894531 183.726562 203.894531 213.273438 C 203.894531 242.824219 227.910156 266.84375 257.460938 266.84375 C 287.011719 266.84375 311.027344 242.824219 311.027344 213.273438 C 311.027344 183.726562 287.011719 159.707031 257.460938 159.707031 Z M 257.460938 159.707031 " fill-opacity="1" fill-rule="nonzero"/><path fill="#000000" d="M 292.949219 150.734375 C 292.339844 150.734375 291.667969 150.601562 291.125 150.261719 C 280.871094 144.730469 269.199219 141.828125 257.460938 141.828125 C 245.722656 141.828125 234.117188 144.730469 223.796875 150.261719 C 222.582031 150.9375 221.164062 150.871094 219.949219 150.195312 C 218.804688 149.519531 218.0625 148.238281 218.0625 146.890625 L 218.0625 124.894531 C 218.0625 120.105469 221.976562 116.191406 226.765625 116.191406 L 288.089844 116.191406 C 292.878906 116.191406 296.792969 120.105469 296.792969 124.894531 L 296.792969 146.890625 C 296.792969 148.238281 296.050781 149.519531 294.90625 150.195312 C 294.363281 150.53125 293.691406 150.734375 292.949219 150.734375 Z M 257.460938 134.136719 C 268.324219 134.136719 279.117188 136.363281 289.035156 140.683594 L 289.035156 124.894531 C 289.035156 124.355469 288.5625 123.949219 288.089844 123.949219 L 226.832031 123.949219 C 226.292969 123.949219 225.886719 124.421875 225.886719 124.894531 L 225.886719 140.683594 C 235.804688 136.363281 246.597656 134.136719 257.460938 134.136719 Z M 257.460938 134.136719 " fill-opacity="1" fill-rule="nonzero"/><g clip-path="url(#89a9cb50d6)"><path fill="#000000" d="M 281.410156 123.882812 L 257.460938 123.882812 C 256.113281 123.882812 254.898438 123.207031 254.15625 122.0625 C 253.414062 120.914062 253.347656 119.566406 253.886719 118.351562 L 287.011719 46.433594 C 287.820312 44.746094 289.710938 43.800781 291.53125 44.273438 L 312.851562 50.007812 C 313.929688 50.277344 314.875 51.089844 315.347656 52.101562 C 315.820312 53.113281 315.820312 54.328125 315.347656 55.40625 L 284.851562 121.589844 C 284.3125 123.007812 282.964844 123.882812 281.410156 123.882812 Z M 263.535156 116.125 L 278.914062 116.125 L 306.441406 56.351562 L 292.746094 52.707031 Z M 263.535156 116.125 " fill-opacity="1" fill-rule="nonzero"/></g><g clip-path="url(#d508bf740a)"><path fill="#000000" d="M 257.460938 123.882812 L 233.511719 123.882812 C 232.027344 123.882812 230.609375 123.007812 230.003906 121.589844 L 199.507812 55.40625 C 199.035156 54.394531 199.035156 53.179688 199.507812 52.101562 C 199.980469 51.089844 200.925781 50.277344 202.003906 50.007812 L 223.324219 44.273438 C 225.144531 43.800781 227.035156 44.679688 227.84375 46.433594 L 261.039062 118.417969 C 261.578125 119.632812 261.507812 121.050781 260.765625 122.128906 C 260.023438 123.207031 258.8125 123.882812 257.460938 123.882812 Z M 236.074219 116.125 L 251.457031 116.125 L 222.246094 52.707031 L 208.550781 56.351562 Z M 236.074219 116.125 " fill-opacity="1" fill-rule="nonzero"/></g><g clip-path="url(#fd57cd2ef8)"><path fill="#000000" d="M 282.761719 69.101562 L 232.296875 69.101562 C 230.8125 69.101562 229.394531 68.222656 228.789062 66.808594 L 220.894531 49.738281 C 220.355469 48.523438 220.421875 47.109375 221.164062 46.027344 C 221.90625 44.882812 223.121094 44.207031 224.472656 44.207031 L 290.722656 44.207031 C 292.070312 44.207031 293.285156 44.882812 294.027344 46.027344 C 294.769531 47.175781 294.835938 48.523438 294.296875 49.738281 L 286.402344 66.808594 C 285.660156 68.222656 284.246094 69.101562 282.761719 69.101562 Z M 234.726562 61.277344 L 280.265625 61.277344 L 284.582031 51.964844 L 230.476562 51.964844 Z M 234.726562 61.277344 " fill-opacity="1" fill-rule="nonzero"/></g><path fill="#000000" d="M 277.835938 248.222656 C 276.757812 248.222656 275.609375 247.953125 274.53125 247.480469 L 257.460938 239.453125 L 240.394531 247.480469 C 237.828125 248.695312 234.929688 248.425781 232.632812 246.738281 C 230.339844 245.050781 229.195312 242.421875 229.53125 239.585938 L 231.890625 220.898438 L 218.9375 207.136719 C 216.980469 205.042969 216.375 202.210938 217.253906 199.511719 C 218.128906 196.8125 220.289062 194.855469 223.121094 194.386719 L 241.675781 190.875 L 250.78125 174.347656 C 252.132812 171.851562 254.628906 170.367188 257.527344 170.367188 C 260.363281 170.367188 262.859375 171.851562 264.277344 174.347656 L 273.382812 190.875 L 291.9375 194.386719 C 294.703125 194.925781 296.929688 196.8125 297.804688 199.511719 C 298.683594 202.210938 298.074219 205.042969 296.121094 207.136719 L 283.164062 220.898438 L 285.527344 239.585938 C 285.863281 242.421875 284.71875 245.050781 282.421875 246.738281 C 281.007812 247.75 279.457031 248.222656 277.835938 248.222656 Z M 257.460938 231.289062 C 258 231.289062 258.609375 231.421875 259.148438 231.625 L 277.699219 240.328125 L 275.136719 220.023438 C 275.003906 218.875 275.339844 217.726562 276.148438 216.851562 L 290.183594 201.941406 L 270.078125 198.09375 C 268.929688 197.894531 267.984375 197.152344 267.378906 196.140625 L 257.527344 178.191406 L 247.613281 196.207031 C 247.070312 197.21875 246.058594 197.960938 244.914062 198.164062 L 224.808594 202.007812 L 238.839844 216.917969 C 239.652344 217.796875 239.988281 218.941406 239.851562 220.089844 L 237.289062 240.394531 L 255.84375 231.695312 C 256.382812 231.421875 256.921875 231.289062 257.460938 231.289062 Z M 290.382812 202.007812 Z M 290.382812 202.007812 " fill-opacity="1" fill-rule="nonzero"/></svg>