<svg xmlns="http://www.w3.org/2000/svg" xmlns:xlink="http://www.w3.org/1999/xlink" width="500" zoomAndPan="magnify" viewBox="0 0 375.12 383.03998" height="500" preserveAspectRatio="xMidYMid meet" version="1.0"><defs><clipPath id="33d7f1266d"><path d="M 52.585938 37.40625 L 321.910156 37.40625 L 321.910156 336.65625 L 52.585938 336.65625 Z M 52.585938 37.40625 " clip-rule="nonzero"/></clipPath></defs><g clip-path="url(#33d7f1266d)"><path fill="#000000" d="M 75.300781 269.660156 C 76.066406 278.101562 80.542969 285.484375 87.082031 290.175781 C 70.203125 296.808594 58.222656 313.234375 58.222656 332.414062 C 58.222656 334.757812 60.125 336.65625 62.46875 336.65625 L 144.871094 336.65625 C 147.214844 336.65625 149.117188 334.757812 149.117188 332.414062 C 149.117188 329.449219 148.820312 326.550781 148.273438 323.742188 C 160.882812 327.546875 173.953125 329.476562 187.238281 329.476562 C 200.527344 329.476562 213.609375 327.546875 226.222656 323.738281 C 225.675781 326.546875 225.382812 329.449219 225.382812 332.414062 C 225.382812 334.757812 227.28125 336.65625 229.628906 336.65625 L 312.027344 336.65625 C 314.375 336.65625 316.273438 334.757812 316.273438 332.414062 C 316.273438 313.234375 304.289062 296.804688 287.410156 290.171875 C 293.9375 285.484375 298.40625 278.117188 299.179688 269.691406 C 313.976562 247.578125 321.796875 221.816406 321.796875 195.109375 C 321.796875 174.347656 316.980469 153.867188 307.820312 135.4375 L 312.027344 135.4375 C 314.375 135.4375 316.273438 133.539062 316.273438 131.199219 C 316.273438 112.015625 304.289062 95.585938 287.410156 88.953125 C 294.605469 83.789062 299.304688 75.363281 299.304688 65.859375 C 299.304688 50.171875 286.53125 37.40625 270.828125 37.40625 C 255.128906 37.40625 242.335938 50.171875 242.335938 65.859375 C 242.335938 68.289062 242.644531 70.652344 243.222656 72.90625 C 225.734375 64.917969 206.640625 60.742188 187.238281 60.742188 C 167.839844 60.742188 148.738281 64.921875 131.257812 72.910156 C 131.835938 70.652344 132.144531 68.292969 132.144531 65.859375 C 132.144531 50.171875 119.371094 37.40625 103.667969 37.40625 C 87.96875 37.40625 75.175781 50.171875 75.175781 65.859375 C 75.175781 75.367188 79.882812 83.792969 87.082031 88.957031 C 70.203125 95.589844 58.222656 112.015625 58.222656 131.199219 C 58.222656 133.539062 60.125 135.4375 62.46875 135.4375 L 66.664062 135.4375 C 57.511719 153.875 52.703125 174.359375 52.703125 195.109375 C 52.703125 221.808594 60.515625 247.558594 75.300781 269.660156 Z M 83.703125 268.1875 C 83.703125 268.132812 83.695312 268.078125 83.695312 268.023438 C 83.679688 267.710938 83.667969 267.394531 83.667969 267.078125 C 83.667969 256.066406 92.640625 247.105469 103.667969 247.105469 C 114.695312 247.105469 123.652344 256.066406 123.652344 267.078125 C 123.652344 278.089844 114.6875 287.03125 103.667969 287.03125 C 93.015625 287.03125 84.28125 278.675781 83.703125 268.1875 Z M 66.957031 328.175781 C 69.066406 309.816406 84.726562 295.511719 103.667969 295.511719 C 122.609375 295.511719 138.269531 309.816406 140.382812 328.175781 Z M 307.539062 328.175781 L 234.117188 328.175781 C 236.226562 309.816406 251.886719 295.511719 270.828125 295.511719 C 289.769531 295.511719 305.429688 309.816406 307.539062 328.175781 Z M 270.828125 287.03125 C 259.800781 287.03125 250.828125 278.082031 250.828125 267.078125 C 250.828125 256.074219 259.800781 247.105469 270.828125 247.105469 C 281.855469 247.105469 290.808594 256.066406 290.808594 267.078125 C 290.808594 278.089844 281.847656 287.03125 270.828125 287.03125 Z M 307.539062 126.957031 L 300.691406 126.957031 C 300.691406 126.957031 300.6875 126.957031 300.6875 126.957031 L 234.117188 126.957031 C 236.226562 108.597656 251.886719 94.292969 270.828125 94.292969 C 289.769531 94.292969 305.429688 108.597656 307.539062 126.957031 Z M 270.828125 45.886719 C 281.847656 45.886719 290.808594 54.847656 290.808594 65.859375 C 290.808594 76.871094 281.847656 85.8125 270.828125 85.8125 C 259.808594 85.8125 250.828125 76.863281 250.828125 65.859375 C 250.828125 54.855469 259.800781 45.886719 270.828125 45.886719 Z M 83.667969 65.859375 C 83.667969 54.847656 92.640625 45.886719 103.667969 45.886719 C 114.695312 45.886719 123.652344 54.847656 123.652344 65.859375 C 123.652344 76.871094 114.6875 85.8125 103.667969 85.8125 C 92.648438 85.8125 83.667969 76.863281 83.667969 65.859375 Z M 103.667969 94.292969 C 122.609375 94.292969 138.269531 108.597656 140.382812 126.957031 L 73.792969 126.957031 C 73.789062 126.957031 73.785156 126.957031 73.777344 126.957031 L 66.957031 126.957031 C 69.066406 108.597656 84.726562 94.292969 103.667969 94.292969 Z M 76.238281 135.4375 L 144.871094 135.4375 C 147.214844 135.4375 149.117188 133.539062 149.117188 131.199219 C 149.117188 112.015625 137.128906 95.585938 120.25 88.953125 C 121.136719 88.316406 121.992188 87.636719 122.800781 86.902344 C 142.234375 75.335938 164.503906 69.222656 187.238281 69.222656 C 209.972656 69.222656 232.222656 75.332031 251.664062 86.882812 C 252.480469 87.625 253.34375 88.3125 254.242188 88.957031 C 237.363281 95.589844 225.382812 112.015625 225.382812 131.199219 C 225.382812 133.539062 227.28125 135.4375 229.628906 135.4375 L 298.242188 135.4375 C 308.09375 153.652344 313.304688 174.226562 313.304688 195.109375 C 313.304688 216.816406 307.789062 237.855469 297.28125 256.570312 C 293.089844 246.070312 282.816406 238.625 270.828125 238.625 C 255.117188 238.625 242.335938 251.390625 242.335938 267.078125 C 242.335938 276.585938 247.039062 285.011719 254.242188 290.175781 C 243.210938 294.511719 234.28125 303.027344 229.410156 313.769531 C 215.871094 318.5625 201.695312 320.996094 187.238281 320.996094 C 172.785156 320.996094 158.625 318.5625 145.089844 313.777344 C 140.222656 303.03125 131.285156 294.507812 120.25 290.171875 C 127.445312 285.007812 132.144531 276.582031 132.144531 267.078125 C 132.144531 251.390625 119.371094 238.625 103.667969 238.625 C 91.679688 238.625 81.40625 246.0625 77.207031 256.554688 C 66.703125 237.84375 61.195312 216.8125 61.195312 195.109375 C 61.195312 174.234375 66.398438 153.664062 76.238281 135.4375 Z M 76.238281 135.4375 " fill-opacity="1" fill-rule="nonzero"/></g><path fill="#000000" d="M 135.089844 204.902344 C 148.6875 222.082031 164.65625 237.042969 184.453125 254.222656 C 185.253906 254.914062 186.246094 255.261719 187.238281 255.261719 C 188.234375 255.261719 189.222656 254.917969 190.023438 254.222656 C 209.808594 237.070312 225.777344 222.117188 239.410156 204.898438 C 245.144531 197.636719 248.414062 188.957031 248.621094 180.460938 C 248.84375 171.195312 245.542969 162.882812 239.078125 156.425781 C 225.585938 142.972656 203.644531 142.972656 190.175781 156.425781 L 187.246094 159.34375 L 184.328125 156.429688 C 170.84375 142.964844 148.902344 142.964844 135.417969 156.429688 C 128.953125 162.882812 125.65625 171.195312 125.878906 180.460938 C 126.082031 188.957031 129.351562 197.636719 135.089844 204.902344 Z M 141.425781 162.425781 C 146.511719 157.347656 153.191406 154.808594 159.875 154.808594 C 166.554688 154.808594 173.234375 157.347656 178.320312 162.425781 L 184.238281 168.332031 C 185.894531 169.988281 188.578125 169.988281 190.238281 168.335938 L 196.175781 162.425781 C 206.339844 152.273438 222.894531 152.273438 233.074219 162.425781 C 242.640625 171.980469 242.503906 187.285156 232.742188 199.640625 C 220.164062 215.535156 205.382812 229.5625 187.242188 245.398438 C 169.085938 229.539062 154.304688 215.503906 141.753906 199.644531 C 131.992188 187.285156 131.855469 171.980469 141.425781 162.425781 Z M 141.425781 162.425781 " fill-opacity="1" fill-rule="nonzero"/></svg>