<svg xmlns="http://www.w3.org/2000/svg" xmlns:xlink="http://www.w3.org/1999/xlink" width="500" zoomAndPan="magnify" viewBox="0 0 375.12 383.03998" height="500" preserveAspectRatio="xMidYMid meet" version="1.0"><defs><clipPath id="cd9eb5677f"><path d="M 37.4375 37.40625 L 336.6875 37.40625 L 336.6875 336.65625 L 37.4375 336.65625 Z M 37.4375 37.40625 " clip-rule="nonzero"/></clipPath></defs><g clip-path="url(#cd9eb5677f)"><path fill="#000000" d="M 66.828125 178.859375 C 66.523438 176.824219 67.925781 174.929688 69.960938 174.625 C 87.695312 171.988281 106.445312 171.988281 124.175781 174.625 C 126.210938 174.929688 127.613281 176.824219 127.3125 178.859375 C 127.039062 180.710938 125.449219 182.039062 123.628906 182.039062 C 123.449219 182.039062 123.261719 182.027344 123.078125 181.996094 C 106.058594 179.464844 88.074219 179.464844 71.054688 181.996094 C 69.019531 182.300781 67.125 180.898438 66.820312 178.859375 Z M 71.0625 204.730469 C 88.078125 202.199219 106.066406 202.199219 123.082031 204.730469 C 123.269531 204.757812 123.457031 204.773438 123.636719 204.773438 C 125.449219 204.773438 127.039062 203.445312 127.316406 201.597656 C 127.621094 199.558594 126.21875 197.667969 124.179688 197.363281 C 106.449219 194.722656 87.699219 194.722656 69.96875 197.363281 C 67.933594 197.667969 66.53125 199.558594 66.832031 201.597656 C 67.136719 203.632812 69.03125 205.042969 71.066406 204.730469 Z M 71.0625 227.460938 C 88.078125 224.929688 106.066406 224.929688 123.082031 227.460938 C 123.269531 227.484375 123.457031 227.503906 123.636719 227.503906 C 125.449219 227.503906 127.039062 226.175781 127.316406 224.324219 C 127.621094 222.289062 126.21875 220.394531 124.179688 220.089844 C 106.449219 217.453125 87.699219 217.453125 69.96875 220.089844 C 67.933594 220.394531 66.53125 222.289062 66.832031 224.324219 C 67.136719 226.363281 69.03125 227.765625 71.066406 227.460938 Z M 71.0625 250.195312 C 88.078125 247.664062 106.066406 247.664062 123.082031 250.195312 C 123.269531 250.222656 123.457031 250.238281 123.636719 250.238281 C 125.449219 250.238281 127.039062 248.910156 127.316406 247.0625 C 127.621094 245.023438 126.21875 243.132812 124.179688 242.828125 C 106.449219 240.1875 87.699219 240.1875 69.96875 242.828125 C 67.933594 243.132812 66.53125 245.023438 66.832031 247.0625 C 67.136719 249.097656 69.03125 250.5 71.066406 250.195312 Z M 153.609375 182.003906 C 170.628906 179.46875 188.613281 179.46875 205.632812 182.003906 C 205.816406 182.027344 206.003906 182.046875 206.183594 182.046875 C 207.996094 182.046875 209.585938 180.71875 209.863281 178.867188 C 210.167969 176.832031 208.765625 174.9375 206.730469 174.632812 C 189 171.996094 170.25 171.996094 152.515625 174.632812 C 150.480469 174.9375 149.078125 176.832031 149.382812 178.867188 C 149.6875 180.902344 151.578125 182.304688 153.617188 182.003906 Z M 153.609375 204.730469 C 170.628906 202.199219 188.613281 202.199219 205.632812 204.730469 C 205.816406 204.757812 206.003906 204.773438 206.183594 204.773438 C 207.996094 204.773438 209.585938 203.445312 209.863281 201.597656 C 210.167969 199.558594 208.765625 197.667969 206.730469 197.363281 C 189 194.722656 170.25 194.722656 152.515625 197.363281 C 150.480469 197.667969 149.078125 199.558594 149.382812 201.597656 C 149.6875 203.632812 151.578125 205.042969 153.617188 204.730469 Z M 153.058594 227.503906 C 153.238281 227.503906 153.421875 227.492188 153.609375 227.460938 C 164.976562 225.773438 176.722656 225.207031 188.519531 225.785156 C 190.582031 225.890625 192.320312 224.300781 192.425781 222.246094 C 192.523438 220.191406 190.941406 218.445312 188.886719 218.339844 C 176.605469 217.738281 164.371094 218.328125 152.515625 220.089844 C 150.480469 220.394531 149.078125 222.289062 149.382812 224.324219 C 149.65625 226.175781 151.246094 227.503906 153.0625 227.503906 Z M 153.058594 250.234375 C 153.238281 250.234375 153.421875 250.222656 153.609375 250.191406 C 162.425781 248.878906 171.550781 248.242188 180.742188 248.296875 C 182.789062 248.289062 184.476562 246.652344 184.492188 244.597656 C 184.503906 242.542969 182.84375 240.859375 180.789062 240.847656 C 171.230469 240.789062 161.710938 241.449219 152.515625 242.820312 C 150.480469 243.125 149.078125 245.019531 149.382812 247.054688 C 149.65625 248.90625 151.246094 250.234375 153.0625 250.234375 Z M 335.59375 210.566406 L 322.785156 223.375 C 330.066406 235.105469 333.921875 248.582031 333.921875 262.472656 C 333.921875 303.378906 300.644531 336.65625 259.738281 336.65625 C 235.941406 336.65625 214.734375 325.394531 201.148438 307.921875 C 201.035156 307.898438 200.925781 307.867188 200.8125 307.832031 C 181.878906 301.464844 166.242188 302.832031 153.019531 312.015625 C 148.582031 315.09375 143.78125 316.597656 138.34375 316.597656 C 132.90625 316.597656 128.105469 315.101562 123.667969 312.015625 C 105.039062 299.074219 81.300781 301.546875 51.101562 319.570312 C 49.65625 320.433594 48.066406 320.863281 46.46875 320.863281 C 44.875 320.863281 43.410156 320.464844 42.003906 319.667969 C 39.144531 318.042969 37.429688 315.105469 37.429688 311.808594 L 37.429688 187.484375 C 37.429688 184.101562 38.800781 181.019531 41.398438 178.582031 C 44.140625 176 48.101562 174.390625 52.0625 174.179688 L 52.0625 172.808594 C 52.0625 167.429688 54.894531 162.699219 59.632812 160.160156 C 82.273438 148.023438 118.195312 149.246094 138.335938 162.445312 C 158.476562 149.246094 194.40625 148.03125 217.042969 160.160156 C 221.777344 162.699219 224.609375 167.429688 224.609375 172.808594 L 224.609375 174.1875 C 228.550781 174.398438 232.488281 175.980469 235.234375 178.542969 C 237.820312 180.960938 239.242188 184.136719 239.242188 187.492188 L 239.242188 191.171875 C 245.75 189.296875 252.621094 188.292969 259.726562 188.292969 C 273.609375 188.292969 287.09375 192.148438 298.820312 199.429688 L 311.628906 186.621094 C 312.695312 185.554688 314.296875 185.238281 315.6875 185.8125 C 317.078125 186.390625 317.984375 187.75 317.984375 189.253906 L 317.984375 198.945312 L 324.019531 192.910156 C 325.472656 191.457031 327.832031 191.457031 329.292969 192.910156 C 330.746094 194.363281 330.746094 196.722656 329.292969 198.175781 L 323.257812 204.210938 L 332.949219 204.210938 C 334.457031 204.210938 335.8125 205.117188 336.386719 206.507812 C 336.964844 207.898438 336.648438 209.5 335.582031 210.566406 Z M 310.554688 198.242188 L 300 208.796875 L 300 216.945312 C 300 216.945312 310.554688 206.390625 310.554688 206.390625 Z M 268.566406 258.90625 L 262.371094 265.101562 C 261.644531 265.828125 260.6875 266.195312 259.738281 266.195312 C 258.789062 266.195312 257.832031 265.828125 257.105469 265.101562 C 255.652344 263.652344 255.652344 261.292969 257.105469 259.839844 L 263.300781 253.640625 C 262.203125 253.195312 261 252.945312 259.738281 252.945312 C 254.484375 252.945312 250.207031 257.21875 250.207031 262.476562 C 250.207031 267.734375 254.480469 272.007812 259.738281 272.007812 C 264.996094 272.007812 269.269531 267.734375 269.269531 262.476562 C 269.269531 261.214844 269.011719 260.019531 268.574219 258.914062 Z M 277.140625 239.796875 C 272.316406 236.085938 266.28125 233.867188 259.738281 233.867188 C 243.96875 233.867188 231.140625 246.695312 231.140625 262.464844 C 231.140625 278.234375 243.96875 291.0625 259.738281 291.0625 C 275.507812 291.0625 288.335938 278.234375 288.335938 262.464844 C 288.335938 255.921875 286.117188 249.886719 282.40625 245.0625 L 274.074219 253.394531 C 275.742188 256.019531 276.710938 259.128906 276.710938 262.464844 C 276.710938 271.828125 269.09375 279.445312 259.730469 279.445312 C 250.371094 279.445312 242.75 271.828125 242.75 262.464844 C 242.75 253.101562 250.371094 245.484375 259.730469 245.484375 C 263.066406 245.484375 266.175781 246.453125 268.800781 248.121094 L 277.132812 239.792969 Z M 290.679688 226.257812 C 282.347656 219.121094 271.539062 214.800781 259.738281 214.800781 C 233.457031 214.800781 212.070312 236.183594 212.070312 262.472656 C 212.070312 288.757812 233.453125 310.140625 259.738281 310.140625 C 286.023438 310.140625 307.40625 288.757812 307.40625 262.472656 C 307.40625 250.667969 303.085938 239.859375 295.953125 231.527344 L 287.714844 239.765625 C 292.753906 245.96875 295.789062 253.871094 295.789062 262.472656 C 295.789062 282.34375 279.617188 298.515625 259.746094 298.515625 C 239.871094 298.515625 223.699219 282.34375 223.699219 262.472656 C 223.699219 242.597656 239.871094 226.425781 259.746094 226.425781 C 268.34375 226.425781 276.246094 229.453125 282.449219 234.5 L 290.6875 226.261719 Z M 224.621094 181.648438 L 224.621094 197.140625 C 226.945312 195.882812 229.347656 194.753906 231.804688 193.75 L 231.804688 187.476562 C 231.804688 186.175781 231.253906 184.996094 230.160156 183.976562 C 228.769531 182.679688 226.703125 181.835938 224.621094 181.640625 Z M 142.019531 168.945312 C 142.050781 169.144531 142.074219 169.347656 142.074219 169.554688 L 142.074219 268.226562 C 153.621094 262.035156 169.511719 258.964844 185.601562 259.949219 C 186.410156 235.90625 198.707031 214.726562 217.171875 201.746094 L 217.171875 172.796875 C 217.171875 170.132812 215.882812 167.972656 213.535156 166.71875 C 193.195312 155.816406 159.730469 156.988281 142.019531 168.945312 Z M 59.519531 284.820312 C 59.519531 285.648438 59.863281 286.269531 60.558594 286.714844 C 61.253906 287.160156 61.960938 287.210938 62.710938 286.863281 C 84.144531 277.003906 115.222656 277.78125 135.015625 288.671875 C 137.1875 289.867188 139.492188 289.867188 141.664062 288.671875 C 153.882812 281.945312 170.855469 278.921875 187.730469 280.351562 C 186.695312 276.167969 186.011719 271.84375 185.714844 267.417969 C 168.132812 266.214844 150.945312 270.207031 140.566406 277.953125 C 139.90625 278.445312 139.121094 278.695312 138.335938 278.695312 C 137.554688 278.695312 136.773438 278.445312 136.109375 277.953125 C 127.160156 271.273438 113.25 267.363281 97.933594 267.214844 C 82.828125 267.082031 68.875 270.605469 59.515625 276.90625 L 59.515625 284.816406 Z M 59.519531 172.796875 L 59.519531 268.226562 C 69.8125 262.683594 83.515625 259.632812 98.011719 259.769531 C 111.863281 259.902344 124.796875 262.9375 134.617188 268.226562 L 134.617188 169.554688 C 134.617188 169.34375 134.636719 169.144531 134.675781 168.945312 C 116.960938 156.988281 83.496094 155.816406 63.15625 166.71875 C 60.8125 167.976562 59.519531 170.132812 59.519531 172.796875 Z M 194.839844 298.375 C 193.015625 295.089844 191.433594 291.652344 190.117188 288.085938 C 173.910156 286.164062 156.78125 288.863281 145.265625 295.203125 C 143.066406 296.414062 140.707031 297.015625 138.347656 297.015625 C 135.988281 297.015625 133.632812 296.414062 131.433594 295.203125 C 113.8125 285.503906 85 284.816406 65.832031 293.632812 C 62.765625 295.039062 59.382812 294.804688 56.546875 292.984375 C 53.707031 291.167969 52.074219 288.191406 52.074219 284.816406 L 52.074219 181.640625 C 49.984375 181.835938 47.902344 182.683594 46.511719 183.996094 C 45.433594 185.011719 44.886719 186.179688 44.886719 187.476562 L 44.886719 311.804688 C 44.886719 312.425781 45.148438 312.878906 45.6875 313.183594 C 46.226562 313.484375 46.75 313.484375 47.28125 313.164062 C 66.101562 301.933594 83.238281 296.324219 98.21875 296.457031 C 109.210938 296.5625 118.929688 299.648438 127.914062 305.886719 C 131.105469 308.101562 134.417969 309.132812 138.335938 309.132812 C 142.253906 309.132812 145.570312 308.101562 148.761719 305.886719 C 162.011719 296.6875 177.144531 294.203125 194.828125 298.367188 Z M 326.472656 262.472656 C 326.472656 250.558594 323.324219 238.976562 317.351562 228.785156 C 316.683594 229.347656 315.839844 229.660156 314.957031 229.660156 L 304 229.660156 C 310.816406 238.835938 314.855469 250.183594 314.855469 262.472656 C 314.855469 292.863281 290.136719 317.589844 259.738281 317.589844 C 229.339844 317.589844 204.617188 292.867188 204.617188 262.472656 C 204.617188 232.074219 229.339844 207.351562 259.738281 207.351562 C 272.019531 207.351562 283.375 211.394531 292.550781 218.210938 L 292.550781 207.253906 C 292.550781 206.371094 292.859375 205.527344 293.425781 204.855469 C 283.230469 198.882812 271.652344 195.734375 259.738281 195.734375 C 222.941406 195.734375 193.003906 225.671875 193.003906 262.472656 C 193.003906 299.269531 222.941406 329.207031 259.738281 329.207031 C 296.535156 329.207031 326.472656 299.269531 326.472656 262.472656 Z M 323.964844 211.660156 L 315.820312 211.660156 L 305.265625 222.214844 L 313.410156 222.214844 Z M 86.035156 98.195312 L 86.035156 81.238281 C 86.035156 79.402344 87.382812 77.835938 89.203125 77.558594 L 97.417969 76.300781 C 98.097656 74.230469 98.9375 72.203125 99.925781 70.253906 L 95 63.5625 C 93.910156 62.078125 94.0625 60.023438 95.367188 58.71875 L 107.355469 46.730469 C 108.660156 45.425781 110.714844 45.273438 112.199219 46.363281 L 118.890625 51.289062 C 120.839844 50.300781 122.867188 49.464844 124.9375 48.78125 L 126.191406 40.566406 C 126.472656 38.746094 128.035156 37.398438 129.875 37.398438 L 146.832031 37.398438 C 148.667969 37.398438 150.230469 38.746094 150.511719 40.566406 L 151.765625 48.78125 C 153.839844 49.457031 155.863281 50.300781 157.8125 51.289062 L 164.503906 46.363281 C 165.988281 45.273438 168.042969 45.425781 169.347656 46.730469 L 181.335938 58.71875 C 182.640625 60.023438 182.796875 62.078125 181.703125 63.5625 L 176.78125 70.253906 C 177.765625 72.203125 178.605469 74.230469 179.289062 76.300781 L 187.503906 77.558594 C 189.320312 77.835938 190.667969 79.402344 190.667969 81.238281 L 190.667969 98.195312 C 190.667969 100.03125 189.320312 101.597656 187.503906 101.875 L 179.289062 103.128906 C 178.613281 105.203125 177.773438 107.226562 176.78125 109.175781 L 181.703125 115.871094 C 182.796875 117.351562 182.640625 119.40625 181.335938 120.710938 L 169.347656 132.699219 C 168.042969 134.003906 165.988281 134.160156 164.503906 133.066406 L 157.8125 128.144531 C 155.863281 129.128906 153.839844 129.96875 151.765625 130.652344 L 150.511719 138.867188 C 150.230469 140.683594 148.667969 142.03125 146.832031 142.03125 L 129.875 142.03125 C 128.035156 142.03125 126.472656 140.683594 126.191406 138.867188 L 124.9375 130.652344 C 122.867188 129.96875 120.839844 129.128906 118.890625 128.144531 L 112.199219 133.066406 C 110.714844 134.160156 108.660156 134.003906 107.355469 132.699219 L 95.367188 120.710938 C 94.0625 119.40625 93.910156 117.351562 95 115.871094 L 99.925781 109.175781 C 98.9375 107.226562 98.097656 105.203125 97.417969 103.128906 L 89.203125 101.875 C 87.382812 101.597656 86.035156 100.03125 86.035156 98.195312 Z M 93.488281 94.988281 L 100.875 96.113281 C 102.339844 96.335938 103.539062 97.410156 103.917969 98.84375 C 104.730469 101.914062 105.945312 104.855469 107.542969 107.601562 C 108.289062 108.886719 108.199219 110.488281 107.324219 111.679688 L 102.898438 117.699219 L 110.363281 125.164062 L 116.382812 120.738281 C 117.582031 119.855469 119.183594 119.773438 120.460938 120.519531 C 123.207031 122.113281 126.148438 123.339844 129.214844 124.144531 C 130.652344 124.523438 131.726562 125.722656 131.949219 127.1875 L 133.070312 134.574219 L 143.625 134.574219 L 144.75 127.1875 C 144.972656 125.722656 146.046875 124.523438 147.480469 124.144531 C 150.550781 123.332031 153.492188 122.113281 156.234375 120.519531 C 157.519531 119.773438 159.121094 119.863281 160.316406 120.738281 L 166.335938 125.164062 L 173.800781 117.699219 L 169.375 111.679688 C 168.492188 110.488281 168.410156 108.878906 169.15625 107.601562 C 170.75 104.855469 171.972656 101.914062 172.78125 98.84375 C 173.160156 97.410156 174.351562 96.335938 175.824219 96.113281 L 183.210938 94.988281 L 183.210938 84.4375 L 175.824219 83.3125 C 174.359375 83.089844 173.160156 82.015625 172.78125 80.582031 C 171.96875 77.511719 170.75 74.570312 169.15625 71.828125 C 168.410156 70.542969 168.496094 68.9375 169.375 67.746094 L 173.800781 61.726562 L 166.335938 54.261719 L 160.316406 58.6875 C 159.117188 59.570312 157.515625 59.65625 156.234375 58.90625 C 153.492188 57.3125 150.542969 56.085938 147.480469 55.28125 C 146.046875 54.902344 144.972656 53.703125 144.75 52.238281 L 143.625 44.851562 L 133.070312 44.851562 L 131.949219 52.238281 C 131.726562 53.703125 130.652344 54.894531 129.214844 55.28125 C 126.148438 56.09375 123.207031 57.3125 120.460938 58.914062 C 119.175781 59.65625 117.574219 59.570312 116.382812 58.695312 L 110.363281 54.269531 L 102.898438 61.730469 L 107.324219 67.753906 C 108.207031 68.945312 108.289062 70.554688 107.542969 71.832031 C 105.945312 74.578125 104.722656 77.519531 103.910156 80.585938 C 103.53125 82.019531 102.339844 83.09375 100.867188 83.316406 L 93.480469 84.441406 L 93.480469 94.996094 Z M 109.367188 89.714844 C 109.367188 73.730469 122.367188 60.738281 138.34375 60.738281 C 154.316406 60.738281 167.316406 73.738281 167.316406 89.714844 C 167.316406 105.6875 154.316406 118.6875 138.34375 118.6875 C 122.367188 118.6875 109.367188 105.6875 109.367188 89.714844 Z M 116.816406 89.714844 C 116.816406 101.582031 126.472656 111.238281 138.34375 111.238281 C 150.214844 111.238281 159.867188 101.582031 159.867188 89.714844 C 159.867188 77.84375 150.214844 68.1875 138.34375 68.1875 C 126.472656 68.1875 116.816406 77.84375 116.816406 89.714844 Z M 116.816406 89.714844 " fill-opacity="1" fill-rule="nonzero"/></g></svg>