<svg xmlns="http://www.w3.org/2000/svg" xmlns:xlink="http://www.w3.org/1999/xlink" width="500" zoomAndPan="magnify" viewBox="0 0 375.12 383.03998" height="500" preserveAspectRatio="xMidYMid meet" version="1.0"><defs><clipPath id="014ad37401"><path d="M 57.261719 37.40625 L 316.859375 37.40625 L 316.859375 336.65625 L 57.261719 336.65625 Z M 57.261719 37.40625 " clip-rule="nonzero"/></clipPath></defs><g clip-path="url(#014ad37401)"><path fill="#000000" d="M 119.816406 246.140625 C 83.207031 232.023438 57.234375 196.503906 57.234375 154.917969 L 57.234375 122.855469 C 57.234375 120.191406 59.394531 118.03125 62.058594 118.03125 L 94.121094 118.03125 C 107.722656 118.03125 120.675781 120.8125 132.441406 125.832031 C 133.59375 102.457031 143.097656 79.417969 160.949219 61.566406 L 183.621094 38.894531 C 185.503906 37.011719 188.558594 37.011719 190.441406 38.894531 L 213.113281 61.566406 C 230.964844 79.417969 240.46875 102.457031 241.621094 125.832031 C 253.386719 120.8125 266.339844 118.03125 279.941406 118.03125 L 312.003906 118.03125 C 314.667969 118.03125 316.828125 120.191406 316.828125 122.855469 L 316.828125 154.917969 C 316.828125 196.503906 290.855469 232.023438 254.246094 246.140625 L 254.246094 265.011719 L 265.550781 268.039062 C 277.722656 271.300781 284.941406 283.808594 281.683594 295.976562 L 281.339844 297.25 C 284.59375 299.03125 287.332031 301.683594 289.21875 304.949219 C 291.921875 309.632812 292.65625 315.203125 291.253906 320.429688 L 290.980469 321.460938 C 289.578125 326.6875 286.160156 331.140625 281.472656 333.847656 C 276.789062 336.550781 271.21875 337.285156 265.996094 335.882812 L 187.03125 314.726562 L 108.066406 335.882812 C 102.84375 337.285156 97.273438 336.550781 92.589844 333.847656 C 87.902344 331.140625 84.484375 326.6875 83.082031 321.460938 L 82.808594 320.429688 C 81.40625 315.203125 82.140625 309.632812 84.84375 304.949219 C 86.730469 301.683594 89.46875 299.03125 92.722656 297.25 L 92.378906 295.976562 C 89.121094 283.808594 96.339844 271.300781 108.511719 268.039062 L 119.816406 265.011719 Z M 141.96875 130.527344 C 144.886719 132.167969 147.707031 133.953125 150.429688 135.875 C 154.539062 119.484375 169.378906 107.335938 187.03125 107.335938 C 204.683594 107.335938 219.523438 119.484375 223.632812 135.875 C 226.355469 133.953125 229.175781 132.167969 232.089844 130.527344 C 232.054688 108.035156 223.453125 85.550781 206.292969 68.390625 L 187.03125 49.128906 L 167.769531 68.390625 C 150.609375 85.550781 142.007812 108.035156 141.96875 130.527344 Z M 149.355469 147.144531 C 144.890625 143.546875 140.066406 140.375 134.945312 137.691406 C 122.742188 131.296875 108.855469 127.679688 94.121094 127.679688 L 66.882812 127.679688 L 66.882812 154.917969 C 66.882812 191.074219 88.660156 222.140625 119.816406 235.714844 L 119.816406 207.632812 C 119.816406 199.097656 123.207031 190.90625 129.242188 184.871094 C 135.28125 178.832031 143.46875 175.441406 152.007812 175.441406 L 164.648438 175.441406 C 155.863281 168.953125 149.984375 158.742188 149.355469 147.144531 Z M 254.246094 235.714844 C 285.402344 222.140625 307.179688 191.074219 307.179688 154.917969 L 307.179688 127.679688 L 279.941406 127.679688 C 265.207031 127.679688 251.320312 131.296875 239.113281 137.691406 C 233.996094 140.375 229.171875 143.546875 224.707031 147.144531 C 224.078125 158.742188 218.199219 168.953125 209.414062 175.441406 L 222.054688 175.441406 C 230.59375 175.441406 238.78125 178.832031 244.816406 184.871094 C 250.855469 190.90625 254.246094 199.097656 254.246094 207.632812 Z M 272.171875 294.195312 L 272.363281 293.480469 C 274.242188 286.460938 270.078125 279.242188 263.054688 277.359375 L 248.175781 273.371094 C 246.066406 272.808594 244.597656 270.898438 244.597656 268.714844 L 244.597656 207.632812 C 244.597656 201.65625 242.222656 195.921875 237.996094 191.691406 C 233.769531 187.464844 228.035156 185.089844 222.054688 185.089844 L 152.007812 185.089844 C 146.027344 185.089844 140.292969 187.464844 136.066406 191.691406 C 131.839844 195.921875 129.460938 201.65625 129.460938 207.632812 L 129.460938 268.714844 C 129.460938 270.898438 127.996094 272.808594 125.886719 273.371094 L 111.007812 277.359375 C 103.984375 279.242188 99.820312 286.460938 101.699219 293.480469 L 101.890625 294.195312 L 136.144531 285.015625 C 140.402344 283.875 143.367188 280.015625 143.367188 275.605469 L 143.367188 227.058594 C 143.367188 224.398438 145.527344 222.234375 148.191406 222.234375 C 150.851562 222.234375 153.011719 224.398438 153.011719 227.058594 L 153.011719 275.605469 C 153.011719 284.382812 147.117188 292.066406 138.640625 294.335938 L 99.730469 304.761719 C 96.972656 305.5 94.625 307.304688 93.199219 309.773438 C 91.773438 312.242188 91.390625 315.175781 92.125 317.929688 L 92.402344 318.960938 C 93.140625 321.71875 94.941406 324.066406 97.414062 325.492188 C 99.882812 326.917969 102.816406 327.304688 105.570312 326.566406 L 207.890625 299.148438 C 210.460938 298.460938 213.109375 299.988281 213.796875 302.558594 C 214.488281 305.132812 212.957031 307.78125 210.386719 308.46875 L 205.671875 309.730469 L 268.492188 326.566406 C 271.246094 327.304688 274.179688 326.917969 276.648438 325.492188 C 279.121094 324.066406 280.921875 321.71875 281.660156 318.960938 L 281.9375 317.929688 C 282.671875 315.175781 282.289062 312.242188 280.863281 309.773438 C 279.4375 307.304688 277.085938 305.5 274.332031 304.761719 L 235.421875 294.335938 C 226.941406 292.066406 221.046875 284.382812 221.046875 275.605469 L 221.046875 227.058594 C 221.046875 224.398438 223.210938 222.234375 225.871094 222.234375 C 228.535156 222.234375 230.695312 224.398438 230.695312 227.058594 L 230.695312 275.605469 C 230.695312 280.015625 233.660156 283.875 237.917969 285.015625 Z M 187.03125 116.984375 C 171.53125 116.984375 158.945312 129.570312 158.945312 145.070312 C 158.945312 160.570312 171.53125 173.152344 187.03125 173.152344 C 202.53125 173.152344 215.117188 160.570312 215.117188 145.070312 C 215.117188 129.570312 202.53125 116.984375 187.03125 116.984375 Z M 187.03125 116.984375 " fill-opacity="1" fill-rule="evenodd"/></g></svg>