<svg xmlns="http://www.w3.org/2000/svg" xmlns:xlink="http://www.w3.org/1999/xlink" width="500" zoomAndPan="magnify" viewBox="0 0 375.12 383.03998" height="500" preserveAspectRatio="xMidYMid meet" version="1.0"><defs><g/><clipPath id="55911e7d2d"><path d="M 89 141 L 285 141 L 285 307.480469 L 89 307.480469 Z M 89 141 " clip-rule="nonzero"/></clipPath><clipPath id="c75e5162f1"><path d="M 52 66.582031 L 322 66.582031 L 322 205 L 52 205 Z M 52 66.582031 " clip-rule="nonzero"/></clipPath><clipPath id="7adf3da906"><path d="M 37.4375 66.582031 L 211 66.582031 L 211 236 L 37.4375 236 Z M 37.4375 66.582031 " clip-rule="nonzero"/></clipPath><clipPath id="530d4e83b4"><path d="M 163 66.582031 L 336.6875 66.582031 L 336.6875 236 L 163 236 Z M 163 66.582031 " clip-rule="nonzero"/></clipPath></defs><path fill="#cfcfcf" d="M 119.226562 160.585938 L 254.898438 160.585938 L 254.898438 282.492188 L 119.226562 282.492188 Z M 119.226562 160.585938 " fill-opacity="1" fill-rule="nonzero"/><path fill="#57a4db" d="M 254.898438 160.585938 L 326.167969 160.585938 L 326.167969 293.390625 L 254.898438 293.390625 Z M 254.898438 160.585938 " fill-opacity="1" fill-rule="nonzero"/><path fill="#e48c5e" d="M 238.375 136.984375 L 325.066406 136.96875 L 332.972656 160.582031 L 238.367188 160.582031 Z M 238.375 136.984375 " fill-opacity="1" fill-rule="nonzero"/><path fill="#ffffff" d="M 296.757812 177.222656 L 306.621094 177.222656 L 306.621094 200.324219 L 296.757812 200.324219 Z M 296.757812 177.222656 " fill-opacity="1" fill-rule="nonzero"/><path fill="#ffffff" d="M 274.441406 177.222656 L 284.300781 177.222656 L 284.300781 200.324219 L 274.441406 200.324219 Z M 274.441406 177.222656 " fill-opacity="1" fill-rule="nonzero"/><path fill="#ffffff" d="M 296.757812 242.671875 L 306.621094 242.671875 L 306.621094 265.773438 L 296.757812 265.773438 Z M 296.757812 242.671875 " fill-opacity="1" fill-rule="nonzero"/><path fill="#ffffff" d="M 274.441406 242.671875 L 284.300781 242.671875 L 284.300781 265.773438 L 274.441406 265.773438 Z M 274.441406 242.671875 " fill-opacity="1" fill-rule="nonzero"/><path fill="#57a4db" d="M 47.957031 160.585938 L 119.226562 160.585938 L 119.226562 293.390625 L 47.957031 293.390625 Z M 47.957031 160.585938 " fill-opacity="1" fill-rule="nonzero"/><path fill="#e48c5e" d="M 135.75 136.984375 L 49.054688 136.96875 L 41.148438 160.582031 L 135.753906 160.582031 Z M 135.75 136.984375 " fill-opacity="1" fill-rule="nonzero"/><path fill="#e48c5e" d="M 127.488281 129.59375 L 127.488281 110.390625 L 187.054688 70.113281 L 246.617188 110.390625 L 246.617188 129.59375 Z M 127.488281 129.59375 " fill-opacity="1" fill-rule="nonzero"/><path fill="#57a4db" d="M 135.753906 129.59375 L 238.367188 129.59375 L 238.367188 144.371094 L 135.753906 144.371094 Z M 135.753906 129.59375 " fill-opacity="1" fill-rule="nonzero"/><path fill="#ffffff" d="M 110.289062 144.371094 L 263.816406 144.371094 L 263.816406 169.351562 L 110.289062 169.351562 Z M 110.289062 144.371094 " fill-opacity="1" fill-rule="nonzero"/><path fill="#cfcfcf" d="M 116.261719 169.355469 L 142.066406 169.355469 L 142.066406 177.734375 L 116.261719 177.734375 Z M 116.261719 169.355469 " fill-opacity="1" fill-rule="nonzero"/><path fill="#e48c5e" d="M 119.226562 177.734375 L 139.101562 177.734375 L 139.101562 274.179688 L 119.226562 274.179688 Z M 119.226562 177.734375 " fill-opacity="1" fill-rule="nonzero"/><path fill="#cfcfcf" d="M 116.261719 274.179688 L 142.066406 274.179688 L 142.066406 282.492188 L 116.261719 282.492188 Z M 116.261719 274.179688 " fill-opacity="1" fill-rule="nonzero"/><path fill="#cfcfcf" d="M 232.039062 169.355469 L 257.847656 169.355469 L 257.847656 177.734375 L 232.039062 177.734375 Z M 232.039062 169.355469 " fill-opacity="1" fill-rule="nonzero"/><path fill="#e48c5e" d="M 235.003906 177.734375 L 254.878906 177.734375 L 254.878906 274.179688 L 235.003906 274.179688 Z M 235.003906 177.734375 " fill-opacity="1" fill-rule="nonzero"/><path fill="#cfcfcf" d="M 232.039062 274.179688 L 257.847656 274.179688 L 257.847656 282.492188 L 232.039062 282.492188 Z M 232.039062 274.179688 " fill-opacity="1" fill-rule="nonzero"/><path fill="#cfcfcf" d="M 47.957031 216.976562 L 119.226562 216.976562 L 119.226562 225.953125 L 47.957031 225.953125 Z M 47.957031 216.976562 " fill-opacity="1" fill-rule="nonzero"/><path fill="#cfcfcf" d="M 254.898438 216.976562 L 326.167969 216.976562 L 326.167969 225.953125 L 254.898438 225.953125 Z M 254.898438 216.976562 " fill-opacity="1" fill-rule="nonzero"/><path fill="#ffffff" d="M 67.5 177.222656 L 77.359375 177.222656 L 77.359375 200.324219 L 67.5 200.324219 Z M 67.5 177.222656 " fill-opacity="1" fill-rule="nonzero"/><path fill="#ffffff" d="M 89.816406 177.222656 L 99.679688 177.222656 L 99.679688 200.324219 L 89.816406 200.324219 Z M 89.816406 177.222656 " fill-opacity="1" fill-rule="nonzero"/><path fill="#ffffff" d="M 67.5 242.671875 L 77.359375 242.671875 L 77.359375 265.773438 L 67.5 265.773438 Z M 67.5 242.671875 " fill-opacity="1" fill-rule="nonzero"/><path fill="#ffffff" d="M 89.816406 242.671875 L 99.679688 242.671875 L 99.679688 265.773438 L 89.816406 265.773438 Z M 89.816406 242.671875 " fill-opacity="1" fill-rule="nonzero"/><path fill="#cfcfcf" d="M 107.128906 282.492188 L 266.996094 282.492188 L 266.996094 293.390625 L 107.128906 293.390625 Z M 107.128906 282.492188 " fill-opacity="1" fill-rule="nonzero"/><path fill="#57a4db" d="M 41.148438 293.390625 L 332.972656 293.390625 L 332.972656 304.289062 L 41.148438 304.289062 Z M 41.148438 293.390625 " fill-opacity="1" fill-rule="nonzero"/><path fill="#57a4db" d="M 176.285156 216.976562 L 197.839844 216.976562 C 198.605469 216.976562 199.367188 217.050781 200.117188 217.199219 C 200.871094 217.347656 201.601562 217.570312 202.3125 217.863281 C 203.019531 218.15625 203.691406 218.519531 204.332031 218.945312 C 204.96875 219.371094 205.558594 219.855469 206.101562 220.398438 C 206.644531 220.941406 207.128906 221.53125 207.554688 222.167969 C 207.980469 222.804688 208.339844 223.480469 208.636719 224.1875 C 208.929688 224.898438 209.152344 225.628906 209.300781 226.378906 C 209.449219 227.132812 209.523438 227.894531 209.523438 228.660156 L 209.523438 282.492188 L 164.597656 282.492188 L 164.597656 228.660156 C 164.597656 227.894531 164.671875 227.132812 164.824219 226.378906 C 164.972656 225.628906 165.195312 224.898438 165.488281 224.1875 C 165.78125 223.480469 166.140625 222.804688 166.566406 222.167969 C 166.992188 221.53125 167.476562 220.941406 168.019531 220.398438 C 168.5625 219.855469 169.152344 219.371094 169.792969 218.945312 C 170.429688 218.519531 171.101562 218.15625 171.8125 217.863281 C 172.519531 217.570312 173.25 217.347656 174.003906 217.199219 C 174.757812 217.050781 175.515625 216.976562 176.285156 216.976562 Z M 176.285156 216.976562 " fill-opacity="1" fill-rule="nonzero"/><path fill="#ffffff" d="M 195.882812 192.003906 C 195.882812 192.582031 195.824219 193.15625 195.710938 193.726562 C 195.597656 194.292969 195.433594 194.847656 195.210938 195.382812 C 194.988281 195.917969 194.714844 196.425781 194.394531 196.90625 C 194.070312 197.390625 193.707031 197.835938 193.296875 198.246094 C 192.886719 198.65625 192.441406 199.023438 191.957031 199.34375 C 191.476562 199.664062 190.96875 199.9375 190.433594 200.160156 C 189.894531 200.382812 189.34375 200.550781 188.777344 200.660156 C 188.207031 200.773438 187.632812 200.832031 187.054688 200.832031 C 186.472656 200.832031 185.898438 200.773438 185.332031 200.660156 C 184.761719 200.550781 184.210938 200.382812 183.675781 200.160156 C 183.140625 199.9375 182.628906 199.664062 182.148438 199.34375 C 181.667969 199.023438 181.21875 198.65625 180.808594 198.246094 C 180.398438 197.835938 180.035156 197.390625 179.710938 196.90625 C 179.390625 196.425781 179.117188 195.917969 178.894531 195.382812 C 178.675781 194.847656 178.507812 194.292969 178.394531 193.726562 C 178.28125 193.15625 178.222656 192.582031 178.222656 192.003906 C 178.222656 191.421875 178.28125 190.847656 178.394531 190.28125 C 178.507812 189.710938 178.675781 189.160156 178.894531 188.625 C 179.117188 188.089844 179.390625 187.578125 179.710938 187.097656 C 180.035156 186.617188 180.398438 186.167969 180.808594 185.761719 C 181.21875 185.351562 181.667969 184.984375 182.148438 184.660156 C 182.628906 184.339844 183.140625 184.066406 183.675781 183.847656 C 184.210938 183.625 184.761719 183.457031 185.332031 183.34375 C 185.898438 183.230469 186.472656 183.175781 187.054688 183.175781 C 187.632812 183.175781 188.207031 183.230469 188.777344 183.34375 C 189.34375 183.457031 189.894531 183.625 190.433594 183.847656 C 190.96875 184.066406 191.476562 184.339844 191.957031 184.660156 C 192.441406 184.984375 192.886719 185.351562 193.296875 185.761719 C 193.707031 186.167969 194.070312 186.617188 194.394531 187.097656 C 194.714844 187.578125 194.988281 188.089844 195.210938 188.625 C 195.433594 189.160156 195.597656 189.710938 195.710938 190.28125 C 195.824219 190.847656 195.882812 191.421875 195.882812 192.003906 Z M 195.882812 192.003906 " fill-opacity="1" fill-rule="nonzero"/><path stroke-linecap="butt" transform="matrix(2.652925, 0, 0, 2.652925, 27.885726, 31.702462)" fill="none" stroke-linejoin="miter" d="M 33.312659 51.887254 L 43.03954 51.887254 L 43.03954 55.045619 L 33.312659 55.045619 Z M 33.312659 51.887254 " stroke="#000000" stroke-width="2" stroke-opacity="1" stroke-miterlimit="10"/><path stroke-linecap="butt" transform="matrix(2.652925, 0, 0, 2.652925, 27.885726, 31.702462)" fill="none" stroke-linejoin="miter" d="M 76.954048 51.887254 L 86.682402 51.887254 L 86.682402 55.045619 L 76.954048 55.045619 Z M 76.954048 51.887254 " stroke="#000000" stroke-width="2" stroke-opacity="1" stroke-miterlimit="10"/><path stroke-linecap="butt" transform="matrix(2.652925, 0, 0, 2.652925, 27.885726, 31.702462)" fill="none" stroke-linejoin="miter" d="M 33.312659 91.399947 L 43.03954 91.399947 L 43.03954 94.53328 L 33.312659 94.53328 Z M 33.312659 91.399947 " stroke="#000000" stroke-width="2" stroke-opacity="1" stroke-miterlimit="10"/><path stroke-linecap="butt" transform="matrix(2.652925, 0, 0, 2.652925, 27.885726, 31.702462)" fill="none" stroke-linejoin="miter" d="M 31.061311 42.469584 L 88.932276 42.469584 L 88.932276 51.885782 L 31.061311 51.885782 Z M 31.061311 42.469584 " stroke="#000000" stroke-width="2" stroke-opacity="1" stroke-miterlimit="10"/><path stroke-linecap="butt" transform="matrix(2.652925, 0, 0, 2.652925, 27.885726, 31.702462)" fill="none" stroke-linejoin="miter" d="M 40.658618 36.899377 L 79.336442 36.899377 L 79.336442 42.469584 L 40.658618 42.469584 Z M 40.658618 36.899377 " stroke="#000000" stroke-width="2" stroke-opacity="1" stroke-miterlimit="10"/><path stroke-linecap="butt" transform="matrix(2.652925, 0, 0, 2.652925, 27.885726, 31.702462)" fill="none" stroke-linejoin="miter" d="M 76.954048 91.399947 L 86.682402 91.399947 L 86.682402 94.53328 L 76.954048 94.53328 Z M 76.954048 91.399947 " stroke="#000000" stroke-width="2" stroke-opacity="1" stroke-miterlimit="10"/><path stroke-linecap="butt" transform="matrix(2.652925, 0, 0, 2.652925, 27.885726, 31.702462)" fill="none" stroke-linejoin="miter" d="M 34.430234 55.045619 L 41.921964 55.045619 L 41.921964 91.399947 L 34.430234 91.399947 Z M 34.430234 55.045619 " stroke="#000000" stroke-width="2" stroke-opacity="1" stroke-miterlimit="10"/><path stroke-linecap="butt" transform="matrix(2.652925, 0, 0, 2.652925, 27.885726, 31.702462)" fill="none" stroke-linejoin="miter" d="M 78.071624 55.045619 L 85.563354 55.045619 L 85.563354 91.399947 L 78.071624 91.399947 Z M 78.071624 55.045619 " stroke="#000000" stroke-width="2" stroke-opacity="1" stroke-miterlimit="10"/><path stroke-linecap="butt" transform="matrix(2.652925, 0, 0, 2.652925, 27.885726, 31.702462)" fill="none" stroke-linejoin="miter" d="M 31.059839 48.581646 L 7.570143 48.581646 L 7.570143 98.641363 L 112.429334 98.641363 L 112.429334 48.581646 L 88.929332 48.581646 " stroke="#000000" stroke-width="2" stroke-opacity="1" stroke-miterlimit="10"/><path stroke-linecap="butt" transform="matrix(2.652925, 0, 0, 2.652925, 27.885726, 31.702462)" fill="none" stroke-linejoin="miter" d="M 29.870115 94.53328 L 90.130835 94.53328 L 90.130835 98.641363 L 29.870115 98.641363 Z M 29.870115 94.53328 " stroke="#000000" stroke-width="2" stroke-opacity="1" stroke-miterlimit="10"/><path stroke-linecap="butt" transform="matrix(2.652925, 0, 0, 2.652925, 27.885726, 31.702462)" fill="none" stroke-linejoin="miter" d="M 4.999278 98.641363 L 115.000199 98.641363 L 115.000199 102.749447 L 4.999278 102.749447 Z M 4.999278 98.641363 " stroke="#000000" stroke-width="2" stroke-opacity="1" stroke-miterlimit="10"/><g clip-path="url(#55911e7d2d)"><path stroke-linecap="butt" transform="matrix(2.652925, 0, 0, 2.652925, 27.885726, 31.702462)" fill="none" stroke-linejoin="miter" d="M 55.913006 69.837664 L 64.086472 69.837664 C 64.375068 69.837664 64.659247 69.86564 64.941954 69.921592 C 65.223189 69.977544 65.497061 70.060001 65.763571 70.170433 C 66.028609 70.280865 66.281867 70.414857 66.520401 70.575352 C 66.758934 70.734374 66.981272 70.916956 67.184467 71.120151 C 67.387663 71.323347 67.568772 71.544211 67.729267 71.784218 C 67.888289 72.022751 68.023753 72.274537 68.134185 72.541047 C 68.243145 72.806085 68.327074 73.079957 68.383026 73.362664 C 68.438978 73.643898 68.466955 73.92955 68.466955 74.216674 L 68.466955 94.53328 L 51.532523 94.53328 L 51.532523 74.216674 C 51.532523 73.92955 51.560499 73.645371 51.616452 73.362664 C 51.672404 73.08143 51.756332 72.806085 51.865292 72.541047 C 51.975725 72.27601 52.111188 72.022751 52.270211 71.784218 C 52.430706 71.544211 52.611815 71.323347 52.815011 71.120151 C 53.018206 70.916956 53.240543 70.734374 53.479077 70.575352 C 53.719083 70.414857 53.970869 70.280865 54.235907 70.170433 C 54.502417 70.060001 54.776289 69.977544 55.058996 69.921592 C 55.34023 69.86564 55.625882 69.837664 55.913006 69.837664 Z M 55.913006 69.837664 " stroke="#000000" stroke-width="2" stroke-opacity="1" stroke-miterlimit="10"/></g><path stroke-linecap="butt" transform="matrix(2.652925, 0, 0, 2.652925, 27.885726, 31.702462)" fill="none" stroke-linejoin="miter" d="M 63.325225 60.424411 C 63.325225 60.64233 63.303138 60.858778 63.260438 61.073753 C 63.217737 61.287255 63.155895 61.496341 63.071967 61.698064 C 62.988038 61.899787 62.884968 62.091203 62.764228 62.272312 C 62.642017 62.454893 62.505081 62.62275 62.350475 62.777356 C 62.19587 62.931961 62.028013 63.07037 61.845431 63.191109 C 61.664322 63.311848 61.472906 63.414918 61.271183 63.498847 C 61.067988 63.582776 60.860375 63.64609 60.646872 63.687318 C 60.431897 63.730019 60.21545 63.752105 59.99753 63.752105 C 59.778138 63.752105 59.56169 63.730019 59.348188 63.687318 C 59.133213 63.64609 58.9256 63.582776 58.723877 63.498847 C 58.522154 63.414918 58.329266 63.311848 58.148157 63.191109 C 57.967047 63.07037 57.797718 62.931961 57.643113 62.777356 C 57.488507 62.62275 57.351571 62.454893 57.229359 62.272312 C 57.10862 62.091203 57.00555 61.899787 56.921621 61.698064 C 56.839165 61.496341 56.775851 61.287255 56.73315 61.073753 C 56.69045 60.858778 56.668363 60.64233 56.668363 60.424411 C 56.668363 60.205018 56.69045 59.988571 56.73315 59.775068 C 56.775851 59.560093 56.839165 59.352481 56.921621 59.150758 C 57.00555 58.949035 57.10862 58.756146 57.229359 58.575037 C 57.351571 58.393928 57.488507 58.224598 57.643113 58.071465 C 57.797718 57.91686 57.967047 57.778452 58.148157 57.65624 C 58.329266 57.535501 58.522154 57.43243 58.723877 57.349974 C 58.9256 57.266046 59.133213 57.202731 59.348188 57.160031 C 59.56169 57.11733 59.778138 57.096716 59.99753 57.096716 C 60.21545 57.096716 60.431897 57.11733 60.646872 57.160031 C 60.860375 57.202731 61.067988 57.266046 61.271183 57.349974 C 61.472906 57.43243 61.664322 57.535501 61.845431 57.65624 C 62.028013 57.778452 62.19587 57.91686 62.350475 58.071465 C 62.505081 58.224598 62.642017 58.393928 62.764228 58.575037 C 62.884968 58.756146 62.988038 58.949035 63.071967 59.150758 C 63.155895 59.352481 63.217737 59.560093 63.260438 59.775068 C 63.303138 59.988571 63.325225 60.205018 63.325225 60.424411 Z M 63.325225 60.424411 " stroke="#000000" stroke-width="2" stroke-opacity="1" stroke-miterlimit="10"/><path stroke-linecap="butt" transform="matrix(2.652925, 0, 0, 2.652925, 27.885726, 31.702462)" fill="none" stroke-linejoin="miter" d="M 14.9323 54.852731 L 18.648716 54.852731 L 18.648716 63.560689 L 14.9323 63.560689 Z M 14.9323 54.852731 " stroke="#000000" stroke-width="2" stroke-opacity="1" stroke-miterlimit="10"/><path stroke-linecap="butt" transform="matrix(2.652925, 0, 0, 2.652925, 27.885726, 31.702462)" fill="none" stroke-linejoin="miter" d="M 23.344299 54.852731 L 27.062188 54.852731 L 27.062188 63.560689 L 23.344299 63.560689 Z M 23.344299 54.852731 " stroke="#000000" stroke-width="2" stroke-opacity="1" stroke-miterlimit="10"/><path stroke-linecap="butt" transform="matrix(2.652925, 0, 0, 2.652925, 27.885726, 31.702462)" fill="none" stroke-linejoin="miter" d="M 7.565726 69.837664 L 34.430234 69.837664 L 34.430234 73.221311 L 7.565726 73.221311 Z M 7.565726 69.837664 " stroke="#000000" stroke-width="2" stroke-opacity="1" stroke-miterlimit="10"/><path stroke-linecap="butt" transform="matrix(2.652925, 0, 0, 2.652925, 27.885726, 31.702462)" fill="none" stroke-linejoin="miter" d="M 85.563354 69.837664 L 112.429334 69.837664 L 112.429334 73.221311 L 85.563354 73.221311 Z M 85.563354 69.837664 " stroke="#000000" stroke-width="2" stroke-opacity="1" stroke-miterlimit="10"/><path stroke-linecap="butt" transform="matrix(2.652925, 0, 0, 2.652925, 27.885726, 31.702462)" fill="none" stroke-linejoin="miter" d="M 14.9323 79.523316 L 18.648716 79.523316 L 18.648716 88.231275 L 14.9323 88.231275 Z M 14.9323 79.523316 " stroke="#000000" stroke-width="2" stroke-opacity="1" stroke-miterlimit="10"/><path stroke-linecap="butt" transform="matrix(2.652925, 0, 0, 2.652925, 27.885726, 31.702462)" fill="none" stroke-linejoin="miter" d="M 23.344299 79.523316 L 27.062188 79.523316 L 27.062188 88.231275 L 23.344299 88.231275 Z M 23.344299 79.523316 " stroke="#000000" stroke-width="2" stroke-opacity="1" stroke-miterlimit="10"/><path stroke-linecap="butt" transform="matrix(2.652925, 0, 0, 2.652925, 27.885726, 31.702462)" fill="none" stroke-linejoin="miter" d="M 92.9314 79.523316 L 96.647816 79.523316 L 96.647816 88.231275 L 92.9314 88.231275 Z M 92.9314 79.523316 " stroke="#000000" stroke-width="2" stroke-opacity="1" stroke-miterlimit="10"/><path stroke-linecap="butt" transform="matrix(2.652925, 0, 0, 2.652925, 27.885726, 31.702462)" fill="none" stroke-linejoin="miter" d="M 101.343399 79.523316 L 105.061288 79.523316 L 105.061288 88.231275 L 101.343399 88.231275 Z M 101.343399 79.523316 " stroke="#000000" stroke-width="2" stroke-opacity="1" stroke-miterlimit="10"/><path stroke-linecap="butt" transform="matrix(2.652925, 0, 0, 2.652925, 27.885726, 31.702462)" fill="none" stroke-linejoin="miter" d="M 92.9314 54.852731 L 96.647816 54.852731 L 96.647816 63.560689 L 92.9314 63.560689 Z M 92.9314 54.852731 " stroke="#000000" stroke-width="2" stroke-opacity="1" stroke-miterlimit="10"/><path stroke-linecap="butt" transform="matrix(2.652925, 0, 0, 2.652925, 27.885726, 31.702462)" fill="none" stroke-linejoin="miter" d="M 101.343399 54.852731 L 105.061288 54.852731 L 105.061288 63.560689 L 101.343399 63.560689 Z M 101.343399 54.852731 " stroke="#000000" stroke-width="2" stroke-opacity="1" stroke-miterlimit="10"/><g clip-path="url(#c75e5162f1)"><path stroke-linecap="butt" transform="matrix(2.652925, 0, 0, 2.652925, 27.885726, 31.702462)" fill="none" stroke-linejoin="miter" d="M 37.544426 29.660905 L 59.99753 14.478666 L 82.449162 29.660905 L 82.449162 36.899377 L 37.544426 36.899377 Z M 37.544426 29.660905 " stroke="#000000" stroke-width="2" stroke-opacity="1" stroke-miterlimit="10"/></g><g clip-path="url(#7adf3da906)"><path stroke-linecap="butt" transform="matrix(2.652925, 0, 0, 2.652925, 27.885726, 31.702462)" fill="none" stroke-linejoin="miter" d="M 31.059839 48.580174 L 4.999278 48.580174 L 7.979479 39.679327 L 40.660091 39.679327 L 40.660091 42.469584 " stroke="#000000" stroke-width="2" stroke-opacity="1" stroke-miterlimit="10"/></g><g clip-path="url(#530d4e83b4)"><path stroke-linecap="butt" transform="matrix(2.652925, 0, 0, 2.652925, 27.885726, 31.702462)" fill="none" stroke-linejoin="miter" d="M 88.929332 48.580174 L 114.989892 48.580174 L 112.019998 39.679327 L 79.339387 39.679327 L 79.339387 42.469584 " stroke="#000000" stroke-width="2" stroke-opacity="1" stroke-miterlimit="10"/></g><g fill="#000000" fill-opacity="1"><g transform="translate(125.380738, 161.199707)"><g><path d="M 6.078125 -0.890625 C 6.796875 -0.890625 7.351562 -1.09375 7.75 -1.5 C 8.144531 -1.90625 8.34375 -2.5 8.34375 -3.28125 L 8.34375 -9 L 7.046875 -9.1875 L 7.046875 -9.71875 L 10.34375 -9.71875 L 10.34375 -9.1875 L 9.25 -9 L 9.25 -3.34375 C 9.25 -2.21875 8.925781 -1.351562 8.28125 -0.75 C 7.632812 -0.15625 6.707031 0.140625 5.5 0.140625 C 4.195312 0.140625 3.195312 -0.160156 2.5 -0.765625 C 1.8125 -1.378906 1.46875 -2.257812 1.46875 -3.40625 L 1.46875 -9 L 0.375 -9.1875 L 0.375 -9.71875 L 5 -9.71875 L 5 -9.1875 L 3.75 -9 L 3.75 -3.296875 C 3.75 -2.515625 3.945312 -1.914062 4.34375 -1.5 C 4.738281 -1.09375 5.316406 -0.890625 6.078125 -0.890625 Z M 6.078125 -0.890625 "/></g></g></g><g fill="#000000" fill-opacity="1"><g transform="translate(139.073025, 161.199707)"><g><path d="M 8.375 -9 L 7.0625 -9.1875 L 7.0625 -9.71875 L 10.53125 -9.71875 L 10.53125 -9.1875 L 9.28125 -9 L 9.28125 0 L 8.421875 0 L 2.4375 -7.8125 L 2.4375 -0.71875 L 3.734375 -0.53125 L 3.734375 0 L 0.28125 0 L 0.28125 -0.53125 L 1.53125 -0.71875 L 1.53125 -9 L 0.28125 -9.1875 L 0.28125 -9.71875 L 3.609375 -9.71875 L 8.375 -3.515625 Z M 8.375 -9 "/></g></g></g><g fill="#000000" fill-opacity="1"><g transform="translate(155.025189, 161.199707)"><g><path d="M 4.03125 -0.71875 L 5.28125 -0.53125 L 5.28125 0 L 0.5 0 L 0.5 -0.53125 L 1.75 -0.71875 L 1.75 -9 L 0.5 -9.1875 L 0.5 -9.71875 L 5.28125 -9.71875 L 5.28125 -9.1875 L 4.03125 -9 Z M 4.03125 -0.71875 "/></g></g></g><g fill="#000000" fill-opacity="1"><g transform="translate(162.810364, 161.199707)"><g><path d="M 10.546875 -9.71875 L 10.546875 -9.1875 L 9.625 -9 L 5.875 0.21875 L 4.921875 0.21875 L 0.96875 -9 L 0.171875 -9.1875 L 0.171875 -9.71875 L 4.390625 -9.71875 L 4.390625 -9.1875 L 3.390625 -9 L 6.125 -2.625 L 8.671875 -9 L 7.6875 -9.1875 L 7.6875 -9.71875 Z M 10.546875 -9.71875 "/></g></g></g><g fill="#000000" fill-opacity="1"><g transform="translate(176.650675, 161.199707)"><g><path d="M 0.25 -0.53125 L 1.5 -0.71875 L 1.5 -9 L 0.25 -9.1875 L 0.25 -9.71875 L 8.53125 -9.71875 L 8.53125 -7.25 L 7.875 -7.25 L 7.640625 -8.828125 C 7.097656 -8.890625 6.316406 -8.921875 5.296875 -8.921875 L 3.78125 -8.921875 L 3.78125 -5.359375 L 6.328125 -5.359375 L 6.546875 -6.421875 L 7.203125 -6.421875 L 7.203125 -3.4375 L 6.546875 -3.4375 L 6.328125 -4.546875 L 3.78125 -4.546875 L 3.78125 -0.796875 L 5.609375 -0.796875 C 6.859375 -0.796875 7.675781 -0.832031 8.0625 -0.90625 L 8.484375 -2.703125 L 9.140625 -2.703125 L 9 0 L 0.25 0 Z M 0.25 -0.53125 "/></g></g></g><g fill="#000000" fill-opacity="1"><g transform="translate(189.523844, 161.199707)"><g><path d="M 3.796875 -4.109375 L 3.796875 -0.71875 L 5.03125 -0.53125 L 5.03125 0 L 0.34375 0 L 0.34375 -0.53125 L 1.5 -0.71875 L 1.5 -9 L 0.25 -9.1875 L 0.25 -9.71875 L 4.90625 -9.71875 C 6.332031 -9.71875 7.394531 -9.5 8.09375 -9.0625 C 8.800781 -8.625 9.15625 -7.9375 9.15625 -7 C 9.15625 -5.613281 8.503906 -4.71875 7.203125 -4.3125 L 9.796875 -0.71875 L 10.84375 -0.53125 L 10.84375 0 L 7.703125 0 L 5 -4.109375 Z M 6.90625 -6.984375 C 6.90625 -7.710938 6.753906 -8.21875 6.453125 -8.5 C 6.148438 -8.78125 5.601562 -8.921875 4.8125 -8.921875 L 3.796875 -8.921875 L 3.796875 -4.921875 L 4.84375 -4.921875 C 5.582031 -4.921875 6.109375 -5.070312 6.421875 -5.375 C 6.742188 -5.6875 6.90625 -6.222656 6.90625 -6.984375 Z M 6.90625 -6.984375 "/></g></g></g><g fill="#000000" fill-opacity="1"><g transform="translate(203.21613, 161.199707)"><g><path d="M 0.796875 -2.984375 L 1.421875 -2.984375 L 1.75 -1.421875 C 1.957031 -1.179688 2.265625 -0.984375 2.671875 -0.828125 C 3.085938 -0.671875 3.515625 -0.59375 3.953125 -0.59375 C 5.335938 -0.59375 6.03125 -1.160156 6.03125 -2.296875 C 6.03125 -2.648438 5.894531 -2.953125 5.625 -3.203125 C 5.363281 -3.453125 4.953125 -3.671875 4.390625 -3.859375 C 3.554688 -4.140625 2.957031 -4.363281 2.59375 -4.53125 C 2.226562 -4.707031 1.921875 -4.910156 1.671875 -5.140625 C 1.421875 -5.367188 1.21875 -5.648438 1.0625 -5.984375 C 0.914062 -6.316406 0.84375 -6.722656 0.84375 -7.203125 C 0.84375 -8.054688 1.132812 -8.707031 1.71875 -9.15625 C 2.300781 -9.601562 3.15625 -9.828125 4.28125 -9.828125 C 5.09375 -9.828125 5.988281 -9.722656 6.96875 -9.515625 L 6.96875 -7.203125 L 6.328125 -7.203125 L 6 -8.53125 C 5.507812 -8.894531 4.9375 -9.078125 4.28125 -9.078125 C 3.6875 -9.078125 3.226562 -8.96875 2.90625 -8.75 C 2.582031 -8.53125 2.421875 -8.191406 2.421875 -7.734375 C 2.421875 -7.410156 2.550781 -7.132812 2.8125 -6.90625 C 3.082031 -6.675781 3.503906 -6.472656 4.078125 -6.296875 C 5.179688 -5.929688 5.9375 -5.613281 6.34375 -5.34375 C 6.757812 -5.070312 7.078125 -4.738281 7.296875 -4.34375 C 7.515625 -3.945312 7.625 -3.484375 7.625 -2.953125 C 7.625 -0.890625 6.410156 0.140625 3.984375 0.140625 C 3.421875 0.140625 2.847656 0.09375 2.265625 0 C 1.691406 -0.09375 1.203125 -0.21875 0.796875 -0.375 Z M 0.796875 -2.984375 "/></g></g></g><g fill="#000000" fill-opacity="1"><g transform="translate(214.443815, 161.199707)"><g><path d="M 4.03125 -0.71875 L 5.28125 -0.53125 L 5.28125 0 L 0.5 0 L 0.5 -0.53125 L 1.75 -0.71875 L 1.75 -9 L 0.5 -9.1875 L 0.5 -9.71875 L 5.28125 -9.71875 L 5.28125 -9.1875 L 4.03125 -9 Z M 4.03125 -0.71875 "/></g></g></g><g fill="#000000" fill-opacity="1"><g transform="translate(223.770856, 161.199707)"><g><path d="M 2.25 0 L 2.25 -0.53125 L 3.796875 -0.71875 L 3.796875 -8.953125 L 3.421875 -8.953125 C 2.316406 -8.953125 1.539062 -8.90625 1.09375 -8.8125 L 0.890625 -7 L 0.234375 -7 L 0.234375 -9.71875 L 9.671875 -9.71875 L 9.671875 -7 L 9.015625 -7 L 8.8125 -8.8125 C 8.414062 -8.894531 7.625 -8.9375 6.4375 -8.9375 L 6.078125 -8.9375 L 6.078125 -0.71875 L 7.625 -0.53125 L 7.625 0 Z M 2.25 0 "/></g></g></g><g fill="#000000" fill-opacity="1"><g transform="translate(235.729165, 161.199707)"><g><path d="M 6.609375 -3.828125 L 6.609375 -0.71875 L 8.140625 -0.53125 L 8.140625 0 L 2.765625 0 L 2.765625 -0.53125 L 4.3125 -0.71875 L 4.3125 -3.78125 L 1.359375 -9 L 0.265625 -9.1875 L 0.265625 -9.71875 L 5.265625 -9.71875 L 5.265625 -9.1875 L 3.953125 -9 L 6.171875 -4.921875 L 8.328125 -9 L 7.125 -9.1875 L 7.125 -9.71875 L 10.4375 -9.71875 L 10.4375 -9.1875 L 9.40625 -9 Z M 6.609375 -3.828125 "/></g></g></g></svg>