<svg xmlns="http://www.w3.org/2000/svg" xmlns:xlink="http://www.w3.org/1999/xlink" width="500" zoomAndPan="magnify" viewBox="0 0 375.12 383.03998" height="500" preserveAspectRatio="xMidYMid meet" version="1.0"><defs><clipPath id="14de74a858"><path d="M 140 42.03125 L 148 42.03125 L 148 49 L 140 49 Z M 140 42.03125 " clip-rule="nonzero"/></clipPath><clipPath id="6193c82cbb"><path d="M 39 44 L 336.6875 44 L 336.6875 332 L 39 332 Z M 39 44 " clip-rule="nonzero"/></clipPath></defs><path fill="#8bcb8f" d="M 195.1875 185.304688 C 205.839844 186.960938 218.121094 205.730469 210.636719 218.140625 C 203.171875 230.554688 174.378906 228.78125 169.988281 213.320312 C 166.445312 200.835938 184.558594 183.671875 195.1875 185.304688 Z M 195.1875 185.304688 " fill-opacity="1" fill-rule="nonzero"/><path fill="#319f9f" d="M 288.035156 265 C 288.011719 265.023438 288.011719 265.046875 288.011719 265.046875 C 272.1875 277.601562 253.195312 286.324219 232.410156 289.800781 C 232.011719 289.871094 231.585938 289.941406 231.183594 289.988281 C 228.964844 290.367188 226.71875 290.652344 224.476562 290.863281 L 222.824219 291.078125 L 240.039062 275.566406 C 241.269531 274.457031 241.90625 272.921875 241.90625 271.359375 C 241.90625 270.011719 241.433594 268.664062 240.441406 267.578125 C 239 265.992188 236.804688 265.355469 234.726562 265.945312 L 205.109375 276.488281 L 189.78125 257.53125 C 189.78125 257.53125 189.78125 252.847656 192.355469 248.5 C 193.441406 246.679688 194.976562 244.929688 197.125 243.582031 C 197.90625 243.109375 198.730469 242.683594 199.675781 242.328125 C 203.667969 240.816406 207.871094 241.121094 210.140625 241.335938 C 215.359375 241.832031 220.507812 239.160156 223.128906 234.597656 C 225.917969 229.773438 230.5 224.171875 237.890625 223.4375 C 254.496094 221.785156 261.085938 234.832031 267.652344 242.636719 C 270.226562 245.707031 274.050781 247.503906 278.066406 247.527344 C 281.136719 247.554688 284.632812 248.144531 286.804688 250.367188 C 291.152344 254.835938 288.246094 264.316406 288.035156 265 Z M 288.035156 265 " fill-opacity="1" fill-rule="nonzero"/><path fill="#a7d276" d="M 169.515625 83.21875 C 171.898438 86.929688 173.695312 91.871094 172.277344 97.640625 C 170.601562 104.355469 164.199219 107.832031 158.460938 109.605469 C 153.148438 111.28125 149.179688 115.585938 147.550781 120.929688 C 146.558594 124.144531 144.808594 127.429688 141.691406 129.460938 C 137.0625 132.464844 131.464844 131.921875 127.664062 130.976562 C 124.472656 130.195312 121.144531 130.410156 118.074219 131.472656 C 114.175781 132.84375 108.933594 134.261719 105.578125 133.578125 C 99.863281 132.441406 98.1875 125.84375 98.066406 125.347656 C 98.066406 125.324219 98.066406 125.324219 98.066406 125.324219 C 110.375 93.292969 135.738281 67.734375 167.648438 55.25 C 168.804688 59.507812 168.828125 63.644531 167.554688 67.640625 C 165.878906 72.9375 166.515625 78.5625 169.515625 83.21875 Z M 169.515625 83.21875 " fill-opacity="1" fill-rule="nonzero"/><path fill="#349370" d="M 334.328125 169.179688 C 334.328125 189.605469 329.320312 208.875 320.460938 225.800781 C 314.109375 224.125 308.960938 221.027344 305.394531 216.015625 C 301.828125 211.027344 295 209.75 289.5 212.46875 C 282.460938 215.898438 272.800781 218.542969 262.289062 215.257812 C 250.410156 211.546875 243.960938 198.210938 240.632812 187.410156 C 238.152344 179.371094 230.972656 173.886719 222.609375 172.773438 C 215.785156 171.851562 209.691406 169.371094 204.304688 165.28125 C 202.511719 163.910156 200.761719 162.347656 199.109375 160.621094 C 198.304688 159.769531 197.503906 158.871094 196.722656 157.925781 L 202.839844 152.324219 C 205.015625 150.339844 205.179688 146.957031 203.242188 144.757812 L 200.714844 141.898438 C 199.464844 140.480469 197.574219 139.816406 195.707031 140.148438 C 195.707031 140.148438 195.28125 138.1875 195.402344 135.632812 C 195.472656 133.859375 195.824219 131.78125 196.769531 129.9375 C 197.03125 129.390625 197.363281 128.847656 197.738281 128.351562 C 198.777344 127.003906 200.03125 126.011719 201.328125 125.277344 C 205.15625 123.078125 207.660156 119.15625 208.722656 114.875 C 209.667969 111 211.601562 106.53125 215.523438 103.195312 C 220.71875 98.753906 234.394531 97.238281 244.363281 96.742188 C 250.265625 96.433594 255.464844 92.511719 257.070312 86.8125 C 259.527344 78.089844 265.5 70.617188 275.445312 64.566406 C 310.730469 85.984375 334.328125 124.828125 334.328125 169.179688 Z M 334.328125 169.179688 " fill-opacity="1" fill-rule="nonzero"/><path fill="#52a7d7" d="M 180.496094 287.625 C 176.71875 286.515625 171.996094 284.71875 171.996094 284.71875 C 170.316406 284.125 168.664062 283.511719 167.011719 282.851562 C 143.652344 273.558594 123.8125 257.222656 110.136719 236.488281 L 116.277344 231.074219 L 120.480469 227.339844 Z M 180.496094 287.625 " fill-opacity="1" fill-rule="nonzero"/><path fill="#52a7d7" d="M 305.394531 216.015625 C 301.828125 211.027344 295 209.75 289.5 212.46875 C 282.460938 215.898438 272.800781 218.542969 262.289062 215.257812 C 250.410156 211.546875 243.960938 198.210938 240.632812 187.410156 C 238.152344 179.371094 230.972656 173.886719 222.609375 172.773438 C 215.785156 171.851562 209.691406 169.371094 204.304688 165.28125 C 202.511719 163.910156 200.761719 162.347656 199.109375 160.621094 C 198.304688 159.769531 197.503906 158.871094 196.722656 157.925781 L 146.488281 203.980469 L 189.78125 257.53125 C 189.78125 257.53125 189.78125 252.847656 192.355469 248.5 C 193.441406 246.679688 194.976562 244.929688 197.125 243.582031 C 197.90625 243.109375 198.730469 242.683594 199.675781 242.328125 C 203.667969 240.816406 207.871094 241.121094 210.140625 241.335938 C 215.359375 241.832031 220.507812 239.160156 223.128906 234.597656 C 225.917969 229.773438 230.5 224.171875 237.890625 223.4375 C 254.496094 221.785156 261.085938 234.832031 267.652344 242.636719 C 270.226562 245.707031 274.050781 247.503906 278.066406 247.527344 C 281.136719 247.554688 284.632812 248.144531 286.804688 250.367188 C 291.152344 254.835938 288.246094 264.316406 288.035156 265 C 301.402344 254.410156 312.503906 241.050781 320.460938 225.800781 C 314.109375 224.125 308.960938 221.027344 305.394531 216.015625 Z M 210.636719 218.140625 C 205.886719 226.039062 192.472656 228.191406 182.246094 224.691406 C 176.386719 222.753906 171.59375 218.945312 169.988281 213.320312 C 169.941406 213.179688 169.917969 213.011719 169.894531 212.871094 C 166.871094 200.433594 184.679688 183.695312 195.1875 185.304688 C 205.839844 186.960938 218.121094 205.730469 210.636719 218.140625 Z M 210.636719 218.140625 " fill-opacity="1" fill-rule="nonzero"/><path fill="#52a7d7" d="M 275.445312 64.566406 C 265.5 70.617188 259.527344 78.089844 257.070312 86.8125 C 255.464844 92.511719 250.265625 96.433594 244.363281 96.742188 C 234.394531 97.238281 220.71875 98.753906 215.523438 103.195312 C 211.605469 106.53125 209.667969 111 208.722656 114.875 C 207.660156 119.15625 205.15625 123.078125 201.328125 125.277344 C 200.03125 126.011719 198.777344 127.003906 197.738281 128.351562 C 197.363281 128.847656 197.03125 129.390625 196.769531 129.9375 C 195.828125 131.78125 195.472656 133.859375 195.402344 135.632812 C 195.28125 138.1875 195.707031 140.148438 195.707031 140.148438 L 175.136719 143.835938 L 167.742188 135.5625 C 160.941406 136.839844 156.476562 140.667969 154.585938 147.359375 L 135.527344 151.6875 L 127.78125 142.984375 C 121.78125 144.617188 117.71875 148.398438 115.402344 154.121094 L 101.917969 154.332031 L 92.589844 143.929688 C 93.203125 141.023438 93.910156 138.164062 94.738281 135.347656 C 95.707031 131.945312 96.816406 128.613281 98.066406 125.347656 C 98.1875 125.84375 99.792969 132.179688 105.25 133.480469 C 105.367188 133.527344 105.460938 133.554688 105.578125 133.578125 C 108.933594 134.261719 114.175781 132.84375 118.074219 131.472656 C 121.144531 130.410156 124.472656 130.195312 127.664062 130.976562 C 131.464844 131.921875 137.0625 132.464844 141.691406 129.460938 C 144.808594 127.429688 146.558594 124.144531 147.550781 120.929688 C 149.179688 115.585938 153.148438 111.28125 158.460938 109.605469 C 164.199219 107.832031 170.601562 104.355469 172.277344 97.640625 C 173.695312 91.871094 171.898438 86.929688 169.515625 83.21875 C 166.515625 78.5625 165.878906 72.9375 167.554688 67.640625 C 168.828125 63.644531 168.804688 59.507812 167.648438 55.25 C 181.441406 49.835938 196.464844 46.882812 212.148438 46.882812 C 235.316406 46.882812 256.976562 53.335938 275.445312 64.566406 Z M 275.445312 64.566406 " fill-opacity="1" fill-rule="nonzero"/><path fill="#c2e6f9" d="M 180.496094 287.625 L 120.480469 227.339844 L 110.136719 236.488281 L 62.96875 278.121094 C 60.867188 279.964844 57.703125 279.800781 55.8125 277.742188 L 52.933594 274.574219 C 51.726562 273.25 51.304688 271.40625 51.800781 269.703125 L 57.703125 249.46875 L 50.261719 241.21875 C 52.863281 235.449219 57.183594 231.429688 63.371094 229.371094 L 69.726562 210.859375 L 61.90625 202.253906 C 63.984375 196.511719 67.976562 192.632812 74.308594 191.097656 L 75.9375 177.714844 L 48.042969 146.625 C 45.871094 144.214844 44.3125 141.378906 43.414062 138.28125 C 41.621094 131.945312 39.636719 121.402344 44.5 116.53125 C 49.554688 111.472656 60.632812 115.230469 66.773438 117.902344 C 69.488281 119.085938 71.875 120.882812 73.859375 123.078125 L 92.589844 143.929688 L 101.917969 154.332031 L 115.402344 154.121094 C 117.71875 148.398438 121.78125 144.617188 127.78125 142.984375 L 135.527344 151.6875 L 154.585938 147.359375 C 156.476562 140.667969 160.941406 136.839844 167.742188 135.5625 L 175.136719 143.835938 L 195.707031 140.148438 C 197.574219 139.816406 199.464844 140.480469 200.714844 141.898438 L 203.242188 144.757812 C 205.179688 146.957031 205.015625 150.339844 202.839844 152.324219 L 196.722656 157.925781 L 146.488281 203.980469 L 189.78125 257.53125 L 205.109375 276.488281 L 234.726562 265.945312 C 236.804688 265.355469 239 265.992188 240.441406 267.578125 C 241.433594 268.664062 241.90625 270.011719 241.90625 271.359375 C 241.90625 272.921875 241.269531 274.457031 240.039062 275.566406 L 222.824219 291.078125 L 217.933594 295.496094 L 223.011719 306.964844 L 218.832031 310.722656 L 214.625 314.480469 L 203.785156 308.21875 L 181.65625 328.101562 C 179.316406 330.179688 175.75 329.96875 173.671875 327.652344 C 172.726562 326.585938 172.230469 325.238281 172.230469 323.867188 C 172.230469 323.160156 172.371094 322.449219 172.632812 321.789062 L 186.285156 293.441406 Z M 180.496094 287.625 " fill-opacity="1" fill-rule="nonzero"/><path fill="#c3ddda" d="M 120.480469 227.339844 L 114.054688 233.03125 C 115.074219 234.015625 116.394531 235.742188 118.53125 238.335938 C 122.65625 243.34375 127.199219 248.015625 132.082031 252.285156 L 167.011719 282.851562 C 168.664062 283.511719 170.316406 284.125 171.996094 284.71875 C 171.996094 284.71875 176.71875 286.515625 180.496094 287.625 Z M 120.480469 227.339844 " fill-opacity="1" fill-rule="nonzero"/><path fill="#c3ddda" d="M 246.726562 260.390625 C 242.046875 256.085938 235.882812 256.132812 232.554688 256.160156 C 222.042969 256.277344 218.546875 262.046875 212.050781 260.390625 L 160.210938 205.46875 C 159.335938 201.121094 168.570312 197.574219 175.867188 190.976562 C 186.945312 181.023438 193.394531 175.730469 203.007812 166.53125 C 203.453125 166.105469 203.878906 165.707031 204.304688 165.28125 C 222.375 147.855469 222.800781 144.003906 222.304688 141.472656 C 221.027344 134.949219 212.027344 129.699219 204.210938 129.109375 C 201.496094 128.894531 199.039062 129.273438 196.769531 129.9375 C 189.472656 132.015625 184.394531 136.980469 179.503906 134.238281 C 179.457031 134.210938 179.410156 134.183594 179.363281 134.15625 C 169.851562 128.660156 157.847656 130.378906 150.855469 138.859375 L 148.445312 141.78125 L 148.402344 141.8125 C 143.1875 145.296875 136.253906 144.6875 131.726562 140.34375 L 129.28125 137.996094 C 125.714844 134.582031 120.242188 134.144531 116.1875 136.957031 C 112.714844 139.390625 112.574219 140.953125 111.367188 141.1875 C 109.453125 141.542969 107.398438 138.164062 105.25 133.480469 C 99.792969 132.179688 98.1875 125.84375 98.070312 125.347656 C 96.820312 128.613281 95.707031 131.945312 94.738281 135.347656 C 93.914062 138.164062 93.203125 141.023438 92.589844 143.929688 L 101.921875 154.332031 L 115.40625 154.121094 C 117.722656 148.398438 121.785156 144.617188 127.78125 142.984375 L 135.53125 151.6875 L 154.589844 147.359375 C 156.480469 140.667969 160.945312 136.839844 167.746094 135.5625 L 175.136719 143.835938 L 195.710938 140.148438 C 197.578125 139.816406 199.464844 140.480469 200.71875 141.898438 L 203.242188 144.757812 C 205.195312 146.964844 205.015625 150.332031 202.84375 152.324219 L 196.726562 157.925781 L 146.488281 203.980469 L 189.78125 257.53125 L 205.109375 276.488281 L 234.730469 265.945312 C 236.808594 265.355469 239.003906 265.992188 240.445312 267.578125 C 241.4375 268.664062 241.910156 270.011719 241.910156 271.359375 C 241.910156 272.921875 241.269531 274.457031 240.042969 275.566406 L 222.824219 291.078125 L 224.476562 290.863281 C 226.722656 290.652344 228.964844 290.367188 231.1875 289.988281 C 237.183594 282.328125 249.679688 282.824219 251.875 274.269531 C 253.195312 269.042969 249.960938 263.367188 246.726562 260.390625 Z M 246.726562 260.390625 " fill-opacity="1" fill-rule="nonzero"/><path fill="#3a322b" d="M 243.375 304.515625 C 242.089844 304.808594 240.796875 305.085938 239.496094 305.34375 C 238.214844 305.59375 237.382812 306.839844 237.636719 308.121094 C 237.859375 309.246094 238.84375 310.027344 239.949219 310.027344 C 240.101562 310.027344 240.253906 310.011719 240.410156 309.980469 C 241.757812 309.714844 243.097656 309.429688 244.429688 309.125 C 245.699219 308.835938 246.496094 307.566406 246.203125 306.292969 C 245.914062 305.019531 244.652344 304.222656 243.375 304.515625 Z M 243.375 304.515625 " fill-opacity="1" fill-rule="nonzero"/><path fill="#3a322b" d="M 331.566406 244.714844 C 330.472656 244 329.011719 244.308594 328.296875 245.402344 C 310.53125 272.589844 283.652344 292.71875 252.609375 302.078125 C 251.359375 302.453125 250.652344 303.773438 251.027344 305.023438 C 251.335938 306.046875 252.273438 306.707031 253.289062 306.707031 C 253.515625 306.707031 253.742188 306.671875 253.972656 306.605469 C 286.078125 296.925781 313.878906 276.109375 332.25 247.988281 C 332.964844 246.894531 332.660156 245.429688 331.566406 244.714844 Z M 331.566406 244.714844 " fill-opacity="1" fill-rule="nonzero"/><g clip-path="url(#14de74a858)"><path fill="#3a322b" d="M 142.707031 48.785156 C 143.101562 48.785156 143.503906 48.683594 143.875 48.472656 C 144.796875 47.949219 145.726562 47.433594 146.660156 46.929688 C 147.808594 46.308594 148.238281 44.878906 147.621094 43.730469 C 147.003906 42.578125 145.570312 42.140625 144.421875 42.769531 C 143.453125 43.289062 142.492188 43.824219 141.539062 44.367188 C 140.40625 45.011719 140.011719 46.453125 140.652344 47.589844 C 141.085938 48.351562 141.886719 48.785156 142.707031 48.785156 Z M 142.707031 48.785156 " fill-opacity="1" fill-rule="nonzero"/></g><path fill="#3a322b" d="M 81.339844 116.210938 C 81.644531 116.339844 81.957031 116.402344 82.265625 116.402344 C 83.1875 116.402344 84.058594 115.863281 84.441406 114.964844 C 95.308594 89.441406 113.472656 67.898438 136.96875 52.671875 C 138.0625 51.964844 138.375 50.5 137.667969 49.402344 C 136.957031 48.304688 135.5 47.992188 134.402344 48.703125 C 110.109375 64.445312 91.332031 86.714844 80.09375 113.109375 C 79.582031 114.3125 80.140625 115.699219 81.339844 116.210938 Z M 81.339844 116.210938 " fill-opacity="1" fill-rule="nonzero"/><g clip-path="url(#6193c82cbb)"><path fill="#3a322b" d="M 220.78125 296.105469 L 223.867188 293.324219 L 224.714844 293.214844 C 288.550781 286.8125 336.691406 233.492188 336.691406 169.183594 C 336.691406 124.191406 312.746094 84.691406 276.945312 62.773438 C 276.808594 62.65625 276.65625 62.574219 276.492188 62.492188 C 257.703125 51.097656 235.679688 44.527344 212.152344 44.527344 C 196.507812 44.527344 181.398438 47.519531 167.410156 52.957031 C 167.28125 52.96875 167.15625 52.945312 167.027344 52.980469 C 166.695312 53.070312 166.402344 53.238281 166.152344 53.441406 C 129.707031 68.058594 101.136719 99.511719 91.3125 138.980469 L 75.617188 121.5 C 73.355469 118.980469 70.695312 117.042969 67.707031 115.738281 C 59.53125 112.167969 48.578125 109.121094 42.835938 114.867188 C 37.355469 120.359375 38.894531 130.976562 41.148438 138.921875 C 42.132812 142.390625 43.859375 145.515625 46.277344 148.207031 L 73.460938 178.492188 L 72.144531 189.25 C 66.117188 191.164062 61.929688 195.261719 59.683594 201.445312 C 59.382812 202.269531 59.566406 203.195312 60.15625 203.84375 L 67.042969 211.425781 L 61.519531 227.539062 C 55.371094 229.878906 50.867188 234.148438 48.117188 240.25 C 47.730469 241.105469 47.886719 242.109375 48.515625 242.804688 L 55.066406 250.074219 L 49.535156 269.039062 C 48.8125 271.523438 49.445312 274.257812 51.191406 276.171875 L 54.078125 279.335938 C 56.804688 282.324219 61.496094 282.574219 64.523438 279.898438 L 109.699219 240.023438 C 124.695312 261.699219 146.429688 278.320312 171.164062 286.929688 C 171.359375 287.003906 175.5625 288.589844 179.253906 289.710938 L 183.4375 293.914062 L 170.453125 320.90625 C 169.316406 323.75 169.875 326.933594 171.914062 329.21875 C 173.335938 330.820312 175.300781 331.765625 177.4375 331.886719 C 177.585938 331.894531 177.742188 331.898438 177.890625 331.898438 C 179.863281 331.898438 181.742188 331.179688 183.222656 329.851562 L 204.097656 311.109375 L 213.453125 316.53125 C 214.335938 317.042969 215.453125 316.929688 216.214844 316.242188 L 224.585938 308.714844 C 225.34375 308.027344 225.578125 306.929688 225.164062 305.996094 Z M 242.199219 265.996094 C 240.144531 263.726562 237.042969 262.828125 233.945312 263.710938 L 205.898438 273.707031 L 192.1875 256.75 C 192.386719 254.355469 193.558594 247.144531 200.492188 244.546875 C 203.78125 243.308594 207.25 243.4375 209.910156 243.691406 C 216.070312 244.265625 222.058594 241.171875 225.171875 235.785156 C 228.769531 229.5625 233.007812 226.289062 238.132812 225.785156 C 250.785156 224.527344 257.074219 232.785156 262.613281 240.066406 C 263.714844 241.515625 264.773438 242.90625 265.832031 244.167969 C 268.871094 247.777344 273.328125 249.871094 278.058594 249.898438 C 280.339844 249.914062 283.417969 250.296875 285.109375 252.027344 C 287.832031 254.816406 286.683594 261.183594 285.886719 263.890625 C 270.078125 276.203125 251.023438 284.664062 230.003906 287.792969 L 241.617188 277.328125 C 243.210938 275.894531 244.144531 273.925781 244.253906 271.785156 C 244.363281 269.644531 243.636719 267.585938 242.199219 265.996094 Z M 291.503906 259.210938 C 291.738281 255.699219 291.261719 251.554688 288.488281 248.714844 C 286.21875 246.390625 282.722656 245.199219 278.09375 245.167969 C 274.75 245.144531 271.597656 243.667969 269.449219 241.117188 C 268.4375 239.914062 267.425781 238.582031 266.375 237.199219 C 260.398438 229.339844 252.949219 219.574219 237.671875 221.078125 C 231.019531 221.734375 225.4375 225.886719 221.085938 233.417969 C 218.894531 237.210938 214.691406 239.390625 210.359375 238.984375 C 208.5 238.808594 203.570312 238.34375 198.835938 240.117188 C 192.292969 242.574219 189.511719 247.851562 188.320312 251.964844 L 149.710938 204.214844 L 196.554688 161.28125 C 203.617188 169.078125 212.253906 173.753906 222.304688 175.109375 C 230.058594 176.15625 236.214844 181.140625 238.371094 188.117188 C 241.828125 199.296875 248.660156 213.476562 261.582031 217.515625 C 270.75 220.378906 280.761719 219.367188 290.53125 214.585938 C 295.222656 212.289062 300.664062 213.472656 303.46875 217.398438 C 306.6875 221.910156 311.269531 225.214844 317.121094 227.253906 C 310.472656 239.335938 301.789062 250.132812 291.503906 259.210938 Z M 331.964844 169.183594 C 331.964844 188.507812 327.445312 206.800781 319.359375 223.007812 C 314.070312 221.308594 310.109375 218.570312 307.3125 214.652344 C 303.164062 208.832031 295.234375 207.019531 288.457031 210.332031 C 279.667969 214.636719 271.097656 215.535156 262.992188 213 C 252.03125 209.574219 246.007812 196.816406 242.882812 186.71875 C 240.175781 177.960938 232.535156 171.71875 222.9375 170.421875 C 214.019531 169.21875 206.339844 165.046875 200.039062 158.085938 L 204.429688 154.058594 C 207.53125 151.21875 207.789062 146.339844 205.003906 143.1875 L 202.476562 140.320312 C 201.257812 138.9375 199.578125 138.066406 197.792969 137.796875 C 197.644531 135.691406 197.75 132.21875 199.625 129.777344 C 200.355469 128.820312 201.320312 127.996094 202.496094 127.320312 C 206.691406 124.910156 209.714844 120.6875 211.007812 115.429688 C 212.09375 110.992188 214.128906 107.476562 217.050781 104.988281 C 220.671875 101.90625 230.414062 99.8125 244.484375 99.097656 C 251.503906 98.742188 257.472656 94.0625 259.34375 87.453125 C 261.574219 79.570312 267.007812 72.84375 275.429688 67.40625 C 309.34375 88.613281 331.964844 126.292969 331.964844 169.183594 Z M 165.933594 58.636719 C 166.351562 61.523438 166.148438 64.257812 165.300781 66.933594 C 163.398438 72.949219 164.210938 79.351562 167.535156 84.5 C 170.195312 88.628906 171.019531 92.859375 169.976562 97.070312 C 168.542969 102.867188 162.546875 105.859375 157.773438 107.355469 C 151.839844 109.207031 147.175781 114.023438 145.285156 120.234375 C 144.261719 123.59375 142.617188 126.03125 140.394531 127.476562 C 136.503906 130.003906 131.628906 129.527344 128.226562 128.683594 C 124.671875 127.800781 120.886719 127.996094 117.289062 129.246094 C 112.269531 130.996094 108.277344 131.707031 106.042969 131.265625 C 102.609375 130.578125 101.074219 126.960938 100.574219 125.46875 C 112.496094 95.097656 136.410156 71.089844 165.933594 58.636719 Z M 98.414062 131.476562 C 99.855469 133.421875 101.992188 135.273438 105.117188 135.898438 C 105.839844 136.042969 106.636719 136.117188 107.515625 136.117188 C 110.445312 136.117188 114.242188 135.3125 118.839844 133.707031 C 121.570312 132.761719 124.421875 132.613281 127.089844 133.269531 C 131.402344 134.339844 137.65625 134.890625 142.96875 131.4375 C 146.148438 129.371094 148.445312 126.066406 149.800781 121.613281 C 151.234375 116.898438 154.742188 113.253906 159.175781 111.867188 C 167.6875 109.207031 173.007812 104.484375 174.5625 98.203125 C 175.910156 92.753906 174.851562 87.128906 171.5 81.933594 C 168.945312 77.972656 168.328125 73.027344 169.804688 68.359375 C 170.960938 64.699219 171.113281 60.839844 170.375 56.867188 C 183.476562 51.949219 197.574219 49.253906 212.152344 49.253906 C 233.496094 49.253906 253.535156 54.894531 270.914062 64.726562 C 262.597656 70.582031 257.171875 77.777344 254.796875 86.164062 C 253.476562 90.824219 249.238281 94.125 244.242188 94.378906 C 228.699219 95.167969 218.519531 97.527344 213.988281 101.390625 C 210.296875 104.539062 207.746094 108.882812 206.414062 114.304688 C 205.4375 118.292969 203.210938 121.460938 200.140625 123.222656 C 198.421875 124.207031 196.984375 125.445312 195.871094 126.902344 C 193.046875 130.589844 192.867188 135.371094 193.078125 138.21875 L 176.019531 141.277344 L 169.5 133.980469 C 168.949219 133.363281 168.117188 133.085938 167.300781 133.234375 C 159.945312 134.617188 155.046875 138.691406 152.734375 145.34375 L 136.347656 149.074219 L 129.550781 141.414062 C 128.957031 140.742188 128.027344 140.464844 127.167969 140.703125 C 121.039062 142.367188 116.5625 146.097656 113.839844 151.792969 L 102.953125 151.953125 L 95.15625 143.269531 C 96.046875 139.25 97.140625 135.320312 98.414062 131.476562 Z M 113.265625 236.875 L 120.386719 230.585938 L 171.636719 282.0625 C 148.082031 273.585938 127.472656 257.621094 113.265625 236.875 Z M 214.332031 311.578125 L 204.976562 306.160156 C 204.09375 305.648438 202.980469 305.765625 202.21875 306.445312 L 180.070312 326.332031 C 179.417969 326.921875 178.570312 327.222656 177.699219 327.167969 C 176.824219 327.117188 176.019531 326.730469 175.4375 326.074219 C 174.601562 325.140625 174.375 323.835938 174.773438 322.816406 L 188.417969 294.457031 C 188.851562 293.554688 188.667969 292.472656 187.964844 291.761719 L 122.167969 225.675781 C 121.707031 225.214844 121.097656 224.980469 120.492188 224.980469 C 119.9375 224.980469 119.378906 225.175781 118.933594 225.570312 L 61.398438 276.351562 C 60.285156 277.335938 58.5625 277.242188 57.5625 276.140625 L 54.679688 272.984375 C 54.039062 272.28125 53.804688 271.277344 54.070312 270.363281 L 59.972656 250.128906 C 60.199219 249.339844 60.007812 248.488281 59.457031 247.882812 L 53.09375 240.820312 C 55.503906 236.304688 59.125 233.289062 64.128906 231.621094 C 64.828125 231.390625 65.378906 230.84375 65.617188 230.144531 L 71.960938 211.628906 C 72.242188 210.8125 72.058594 209.910156 71.476562 209.273438 L 64.644531 201.753906 C 66.632812 197.316406 69.984375 194.578125 74.851562 193.394531 C 75.808594 193.164062 76.523438 192.363281 76.640625 191.386719 L 78.277344 177.992188 C 78.359375 177.3125 78.144531 176.632812 77.6875 176.125 L 49.789062 145.046875 C 47.859375 142.894531 46.480469 140.398438 45.695312 137.625 C 43.03125 128.257812 43.207031 121.183594 46.175781 118.210938 C 49.105469 115.28125 56.445312 115.980469 65.820312 120.070312 C 68.183594 121.101562 70.300781 122.644531 72.105469 124.660156 L 100.164062 155.914062 C 100.617188 156.417969 101.242188 156.691406 101.953125 156.699219 L 115.429688 156.496094 C 116.378906 156.484375 117.226562 155.902344 117.585938 155.019531 C 119.472656 150.339844 122.574219 147.273438 127.035156 145.691406 L 133.75 153.261719 C 134.320312 153.90625 135.195312 154.183594 136.039062 153.996094 L 155.105469 149.65625 C 155.949219 149.464844 156.625 148.824219 156.859375 147.992188 C 158.335938 142.734375 161.632812 139.511719 166.898438 138.164062 L 173.382812 145.414062 C 173.925781 146.023438 174.753906 146.300781 175.554688 146.164062 L 196.125 142.476562 C 197.152344 142.285156 198.234375 142.664062 198.933594 143.453125 L 201.464844 146.320312 C 202.554688 147.554688 202.453125 149.464844 201.238281 150.574219 L 144.886719 202.230469 C 143.964844 203.074219 143.859375 204.488281 144.644531 205.457031 L 203.28125 277.980469 C 203.910156 278.761719 204.964844 279.054688 205.910156 278.722656 L 235.378906 268.214844 C 236.589844 267.878906 237.859375 268.242188 238.703125 269.171875 C 239.289062 269.824219 239.589844 270.664062 239.542969 271.542969 C 239.5 272.417969 239.117188 273.226562 238.464844 273.8125 L 216.351562 293.738281 C 215.589844 294.425781 215.355469 295.519531 215.773438 296.457031 L 220.15625 306.34375 Z M 214.332031 311.578125 " fill-opacity="1" fill-rule="nonzero"/></g><path fill="#3a322b" d="M 195.558594 182.976562 C 188.433594 181.863281 179.851562 187.488281 174.503906 193.542969 C 168.457031 200.390625 165.984375 207.835938 167.726562 213.96875 C 169.863281 221.507812 177.492188 227.03125 187.632812 228.386719 C 189.105469 228.582031 190.640625 228.683594 192.195312 228.683594 C 200.164062 228.683594 208.6875 225.976562 212.667969 219.359375 C 216.1875 213.511719 216.160156 205.796875 212.605469 198.191406 C 208.816406 190.085938 201.964844 183.972656 195.558594 182.976562 Z M 208.621094 216.921875 C 205.507812 222.097656 197.140625 224.890625 188.257812 223.699219 C 181.792969 222.835938 174.199219 219.488281 172.269531 212.679688 C 170.996094 208.195312 173.15625 202.210938 178.042969 196.675781 C 182.863281 191.21875 189.230469 187.570312 193.71875 187.570312 C 194.105469 187.570312 194.476562 187.59375 194.835938 187.652344 C 199.601562 188.390625 205.273438 193.667969 208.328125 200.199219 C 211.203125 206.351562 211.3125 212.445312 208.621094 216.921875 Z M 208.621094 216.921875 " fill-opacity="1" fill-rule="nonzero"/></svg>