<svg xmlns="http://www.w3.org/2000/svg" xmlns:xlink="http://www.w3.org/1999/xlink" width="500" zoomAndPan="magnify" viewBox="0 0 375.12 383.03998" height="500" preserveAspectRatio="xMidYMid meet" version="1.0"><path fill="#fec4b9" d="M 282.753906 258.699219 L 282.53125 322.019531 L 245.238281 322.019531 L 246.078125 257.617188 C 242.9375 256.101562 240.953125 253.636719 239.699219 251.167969 C 237.664062 247.152344 237.585938 243.113281 237.585938 243.113281 L 235.136719 196.558594 C 234.390625 190.894531 241.179688 189.363281 242.339844 194.746094 L 245.292969 213.957031 C 245.742188 215.191406 247.050781 215.433594 247.949219 214.949219 C 248.0625 214.894531 248.15625 214.835938 248.230469 214.78125 C 251.503906 212.96875 255.1875 211.769531 258.722656 211.003906 C 258.757812 211.003906 258.796875 210.988281 258.851562 210.988281 C 263.566406 209.976562 268 209.695312 270.824219 209.660156 L 270.824219 209.640625 C 271.683594 209.640625 272.542969 209.097656 272.675781 207.996094 L 275.050781 183.195312 C 275.648438 175.4375 284.699219 174.691406 284.121094 181.738281 L 282.324219 207.847656 L 281.089844 225.734375 C 281.78125 229.453125 284.777344 229.132812 285.039062 229.097656 C 285.054688 229.097656 285.054688 229.097656 285.054688 229.097656 C 285.5625 228.332031 285.933594 227.414062 286.160156 226.273438 C 287.300781 218.628906 288.273438 214.96875 288.273438 214.96875 C 290.871094 207.042969 302.710938 209.359375 299.71875 216.984375 C 291.660156 236.480469 299.945312 255.132812 282.753906 258.699219 Z M 282.753906 258.699219 " fill-opacity="1" fill-rule="nonzero"/><path fill="#c43b58" d="M 285.375 203.082031 C 285.375 203.097656 285.375 203.097656 285.375 203.097656 C 284.421875 204.667969 283.390625 206.257812 282.324219 207.847656 L 284.121094 181.738281 C 284.699219 174.691406 275.648438 175.4375 275.050781 183.195312 L 272.675781 207.996094 C 272.542969 209.097656 271.683594 209.640625 270.824219 209.640625 C 269.945312 209.640625 269.066406 209.082031 268.953125 207.941406 C 268.335938 201.191406 269.4375 175.644531 269.4375 171.476562 C 269.4375 168.242188 267.4375 166.671875 265.304688 166.671875 C 262.894531 166.671875 260.292969 168.710938 260.292969 172.617188 C 260.386719 177.160156 260.6875 201.753906 260.3125 209.304688 C 260.257812 210.238281 259.601562 210.816406 258.851562 210.988281 C 258.796875 210.988281 258.757812 211.003906 258.722656 211.003906 C 257.804688 211.136719 256.816406 210.6875 256.609375 209.566406 L 254.851562 181.570312 C 254.101562 175.382812 247.050781 176.542969 247.050781 182.035156 C 247.050781 182.035156 248.230469 204.277344 248.902344 213.171875 C 248.960938 213.882812 248.679688 214.425781 248.230469 214.78125 C 248.15625 214.835938 248.0625 214.894531 247.949219 214.949219 C 247.050781 215.433594 245.742188 215.191406 245.292969 213.957031 L 242.339844 194.746094 C 241.179688 189.363281 234.390625 190.894531 235.136719 196.558594 L 237.585938 243.113281 C 237.585938 243.113281 237.664062 247.152344 239.703125 251.167969 C 238.390625 252.160156 237.046875 253.148438 235.679688 254.121094 C 229.152344 258.886719 222.046875 263.597656 214.339844 268.25 C 212.246094 269.523438 210.113281 270.792969 207.925781 272.046875 L 207.457031 236.40625 C 218.265625 231.300781 218.527344 217.828125 218.527344 217.828125 L 222.234375 157.589844 C 222.234375 146.246094 213.292969 147.851562 212.5625 155.160156 L 209.476562 184.746094 C 207.90625 183.476562 206.183594 182.355469 204.371094 181.382812 C 204.519531 179.457031 204.707031 175.980469 204.894531 171.8125 C 204.949219 170.691406 205.007812 169.515625 205.0625 168.316406 C 205.0625 168.316406 205.0625 168.300781 205.0625 168.28125 C 205.625 155.832031 206.222656 139.964844 206.222656 139.964844 C 206.222656 132.9375 197.019531 131.460938 196.046875 139.386719 L 194.832031 177.625 L 194.832031 177.644531 C 192.851562 177.082031 190.847656 176.636719 188.921875 176.296875 L 188.921875 176.28125 C 188.941406 174.074219 188.996094 171.308594 189.109375 168.207031 C 189.164062 165.625 189.277344 162.824219 189.371094 159.90625 C 189.800781 148.359375 190.398438 135.089844 190.566406 127.800781 C 190.566406 124.566406 189.164062 122.339844 187.3125 121.164062 C 188.191406 119.929688 189.070312 118.714844 189.96875 117.558594 C 242.058594 50.085938 336.789062 119.128906 285.375 203.082031 Z M 285.375 203.082031 " fill-opacity="1" fill-rule="nonzero"/><path fill="#fec4b9" d="M 270.824219 209.640625 L 270.824219 209.660156 C 268 209.695312 263.566406 209.976562 258.851562 210.988281 C 259.601562 210.816406 260.257812 210.238281 260.3125 209.304688 C 260.6875 201.753906 260.386719 177.160156 260.292969 172.617188 C 260.292969 168.710938 262.894531 166.671875 265.304688 166.671875 C 267.4375 166.671875 269.4375 168.242188 269.4375 171.476562 C 269.4375 175.644531 268.335938 201.191406 268.953125 207.941406 C 269.066406 209.082031 269.945312 209.640625 270.824219 209.640625 Z M 270.824219 209.640625 " fill-opacity="1" fill-rule="nonzero"/><path fill="#fec4b9" d="M 256.609375 209.566406 C 256.816406 210.6875 257.804688 211.136719 258.722656 211.003906 C 255.1875 211.769531 251.503906 212.96875 248.230469 214.78125 C 248.679688 214.425781 248.960938 213.882812 248.902344 213.171875 C 248.230469 204.277344 247.050781 182.035156 247.050781 182.035156 C 247.050781 176.542969 254.101562 175.382812 254.851562 181.570312 Z M 256.609375 209.566406 " fill-opacity="1" fill-rule="nonzero"/><path fill="#ffd7d2" d="M 207.925781 272.046875 L 208.558594 322.019531 L 159.933594 322.019531 L 159.765625 271.578125 L 159.652344 237.804688 L 159.652344 237.789062 C 137.226562 233.207031 148.054688 209.324219 137.527344 184.355469 C 133.636719 174.578125 149.066406 171.609375 152.449219 181.757812 C 152.449219 181.757812 153.722656 186.445312 155.199219 196.242188 C 155.480469 197.71875 155.984375 198.894531 156.660156 199.867188 C 156.660156 199.867188 160.867188 200.539062 161.800781 195.550781 L 161.222656 139.480469 C 161.222656 130.753906 173.023438 131.929688 173.023438 141.347656 L 173.023438 174.933594 C 174.445312 174.933594 176.578125 174.953125 179.195312 175.121094 C 182.019531 175.289062 185.367188 175.625 188.921875 176.296875 C 190.847656 176.636719 192.851562 177.082031 194.832031 177.644531 C 198.105469 178.558594 201.359375 179.773438 204.371094 181.382812 C 206.183594 182.355469 207.90625 183.476562 209.476562 184.746094 L 212.5625 155.160156 C 213.292969 147.851562 222.234375 146.246094 222.234375 157.589844 L 218.527344 217.828125 C 218.527344 217.828125 218.265625 231.300781 207.457031 236.402344 Z M 207.925781 272.046875 " fill-opacity="1" fill-rule="nonzero"/><path fill="#ffd7d2" d="M 206.222656 139.964844 C 206.222656 139.964844 204.949219 173.589844 204.371094 181.382812 C 201.359375 179.773438 198.105469 178.558594 194.832031 177.644531 L 194.832031 177.625 L 196.046875 139.386719 C 197.019531 131.460938 206.222656 132.9375 206.222656 139.964844 Z M 206.222656 139.964844 " fill-opacity="1" fill-rule="nonzero"/><path fill="#ffd7d2" d="M 187.3125 121.164062 C 189.164062 122.339844 190.566406 124.566406 190.566406 127.800781 C 190.304688 139.144531 189.015625 165.011719 188.921875 176.28125 L 188.921875 176.296875 C 185.367188 175.625 182.019531 175.289062 179.195312 175.121094 L 179.195312 175.101562 C 178.859375 166.335938 178.652344 138.039062 178.636719 126.324219 C 178.636719 123.726562 179.664062 121.96875 181.105469 121.015625 C 181.964844 120.453125 182.992188 120.171875 184.023438 120.171875 C 185.144531 120.171875 186.304688 120.511719 187.3125 121.164062 Z M 187.3125 121.164062 " fill-opacity="1" fill-rule="nonzero"/><path fill="#d14b62" d="M 178.636719 126.324219 C 178.652344 138.039062 178.859375 166.335938 179.195312 175.101562 L 179.195312 175.121094 C 176.578125 174.953125 174.445312 174.933594 173.023438 174.933594 L 173.023438 141.347656 C 173.023438 131.929688 161.222656 130.753906 161.222656 139.480469 L 161.800781 195.550781 C 160.867188 200.539062 156.660156 199.867188 156.660156 199.867188 C 155.984375 198.894531 155.480469 197.71875 155.199219 196.242188 C 153.722656 186.445312 152.449219 181.757812 152.449219 181.757812 C 149.066406 171.609375 133.636719 174.578125 137.527344 184.355469 C 148.054688 209.324219 137.226562 233.207031 159.652344 237.789062 L 159.652344 237.804688 L 159.765625 271.578125 C 157.125 270.046875 154.546875 268.511719 152.039062 266.941406 C 144.949219 262.605469 138.367188 258.195312 132.308594 253.765625 C 131.109375 252.90625 129.953125 252.027344 128.792969 251.167969 C 130.832031 247.152344 130.90625 243.113281 130.90625 243.113281 L 133.355469 196.558594 C 134.101562 190.894531 127.3125 189.363281 126.15625 194.746094 L 123.199219 213.957031 C 122.75 215.191406 121.460938 215.433594 120.5625 214.949219 C 120.449219 214.910156 120.355469 214.855469 120.261719 214.78125 C 119.8125 214.425781 119.535156 213.882812 119.589844 213.171875 C 120.261719 204.277344 121.441406 182.035156 121.441406 182.035156 C 121.441406 176.542969 114.390625 175.382812 113.640625 181.570312 L 111.882812 209.566406 C 111.679688 210.6875 110.6875 211.136719 109.769531 211.003906 C 109.734375 211.003906 109.695312 210.988281 109.640625 210.988281 C 108.890625 210.816406 108.238281 210.238281 108.179688 209.304688 C 107.808594 201.753906 108.105469 177.160156 108.199219 172.617188 C 108.199219 168.710938 105.601562 166.671875 103.1875 166.671875 C 101.054688 166.671875 99.054688 168.242188 99.054688 171.476562 C 99.054688 175.644531 100.15625 201.191406 99.539062 207.941406 C 99.429688 209.082031 98.546875 209.640625 97.667969 209.640625 C 96.808594 209.640625 95.949219 209.097656 95.816406 207.996094 L 93.441406 183.195312 C 92.824219 175.4375 83.792969 174.691406 84.371094 181.738281 L 86.167969 207.847656 C 83.4375 203.808594 81.0625 199.792969 78.984375 195.828125 C 37.464844 115.78125 126.734375 52.871094 177.53125 116.25 C 178.746094 117.761719 179.925781 119.351562 181.105469 121.015625 C 179.664062 121.96875 178.636719 123.726562 178.636719 126.324219 Z M 178.636719 126.324219 " fill-opacity="1" fill-rule="nonzero"/><path fill="#f7b6ad" d="M 97.667969 209.660156 C 100.492188 209.695312 104.925781 209.976562 109.640625 210.988281 C 109.695312 210.988281 109.734375 211.003906 109.769531 211.003906 C 113.304688 211.769531 116.988281 212.96875 120.261719 214.78125 C 120.355469 214.855469 120.449219 214.910156 120.5625 214.949219 C 121.460938 215.433594 122.75 215.191406 123.199219 213.957031 L 126.15625 194.746094 C 127.3125 189.363281 134.101562 190.894531 133.355469 196.558594 L 130.90625 243.113281 C 130.90625 243.113281 130.832031 247.152344 128.792969 251.167969 C 127.539062 253.636719 125.554688 256.101562 122.414062 257.617188 L 123.253906 322.019531 L 85.960938 322.019531 L 85.738281 258.699219 C 68.550781 255.132812 76.835938 236.480469 68.773438 216.984375 C 65.78125 209.359375 77.621094 207.042969 80.21875 214.96875 C 80.21875 214.96875 81.191406 218.628906 82.332031 226.273438 C 82.558594 227.414062 82.929688 228.332031 83.4375 229.097656 C 83.4375 229.097656 83.4375 229.097656 83.457031 229.097656 C 83.71875 229.132812 86.710938 229.453125 87.402344 225.734375 L 86.167969 207.847656 L 84.371094 181.738281 C 83.792969 174.691406 92.824219 175.4375 93.441406 183.195312 L 95.816406 207.996094 C 95.949219 209.097656 96.808594 209.640625 97.667969 209.640625 Z M 97.667969 209.660156 " fill-opacity="1" fill-rule="nonzero"/><path fill="#f7b6ad" d="M 121.441406 182.035156 C 121.441406 182.035156 120.261719 204.277344 119.589844 213.171875 C 119.535156 213.882812 119.8125 214.425781 120.261719 214.78125 C 116.988281 212.96875 113.304688 211.769531 109.769531 211.003906 C 110.6875 211.136719 111.679688 210.6875 111.882812 209.566406 L 113.640625 181.570312 C 114.390625 175.382812 121.441406 176.542969 121.441406 182.035156 Z M 121.441406 182.035156 " fill-opacity="1" fill-rule="nonzero"/><path fill="#f7b6ad" d="M 108.179688 209.304688 C 108.238281 210.238281 108.890625 210.816406 109.640625 210.988281 C 104.925781 209.976562 100.492188 209.695312 97.667969 209.660156 L 97.667969 209.640625 C 98.546875 209.640625 99.429688 209.082031 99.539062 207.941406 C 100.15625 201.191406 99.054688 175.644531 99.054688 171.476562 C 99.054688 168.242188 101.054688 166.671875 103.1875 166.671875 C 105.601562 166.671875 108.199219 168.710938 108.199219 172.617188 C 108.105469 177.160156 107.808594 201.753906 108.179688 209.304688 Z M 108.179688 209.304688 " fill-opacity="1" fill-rule="nonzero"/><path fill="#3a322b" d="M 300.664062 210.695312 C 299.015625 208.707031 296.09375 207.773438 293.226562 208.324219 C 290.0625 208.925781 287.542969 211.195312 286.464844 214.496094 C 286.425781 214.648438 285.453125 218.347656 284.328125 225.929688 C 284.242188 226.375 284.117188 226.761719 283.96875 227.125 C 283.59375 226.9375 283.195312 226.519531 282.980469 225.605469 L 284.15625 208.453125 C 314.898438 162.472656 302.148438 118.625 273.5625 99.007812 C 250.078125 82.898438 213.078125 82.390625 186.703125 118.816406 C 185.828125 118.496094 184.917969 118.304688 184.019531 118.304688 C 183.210938 118.304688 182.441406 118.460938 181.710938 118.707031 C 155.324219 82.363281 118.347656 82.917969 94.890625 99.039062 C 66.335938 118.660156 53.609375 162.5 84.335938 208.453125 L 85.507812 225.609375 C 85.304688 226.503906 84.921875 226.941406 84.515625 227.132812 C 84.378906 226.789062 84.253906 226.425781 84.175781 226.007812 C 83.035156 218.34375 82.066406 214.648438 81.996094 214.390625 C 80.945312 211.195312 78.429688 208.925781 75.265625 208.324219 C 72.398438 207.78125 69.476562 208.710938 67.828125 210.695312 C 66.28125 212.558594 66 215.035156 67.046875 217.707031 C 69.976562 224.785156 70.675781 231.839844 71.296875 238.058594 C 72.304688 248.167969 73.210938 257.183594 83.867188 260.160156 L 84.085938 322.027344 C 84.089844 323.058594 84.925781 323.890625 85.957031 323.890625 C 85.957031 323.890625 85.960938 323.890625 85.960938 323.890625 C 86.992188 323.886719 87.828125 323.046875 87.828125 322.015625 L 87.609375 260.867188 C 89.148438 261.066406 90.796875 261.199219 92.664062 261.199219 C 93.335938 261.199219 94.035156 261.183594 94.753906 261.15625 C 95.785156 261.117188 96.589844 260.25 96.550781 259.21875 C 96.511719 258.1875 95.671875 257.367188 94.609375 257.421875 C 77.0625 258.046875 76.285156 250.410156 75.019531 237.6875 C 74.375 231.207031 73.640625 223.867188 70.515625 216.3125 C 69.984375 214.957031 70.046875 213.871094 70.703125 213.078125 C 71.480469 212.140625 73.03125 211.703125 74.5625 211.996094 C 75.640625 212.199219 77.578125 212.9375 78.40625 215.453125 C 78.417969 215.488281 79.371094 219.136719 80.484375 226.632812 C 81.277344 230.753906 83.859375 232.464844 86.140625 233.976562 C 88.972656 235.851562 91.214844 237.335938 90.636719 243.710938 C 90.542969 244.738281 91.300781 245.648438 92.328125 245.742188 C 93.351562 245.851562 94.265625 245.078125 94.359375 244.046875 C 95.140625 235.449219 91.292969 232.902344 88.203125 230.859375 C 87.75 230.558594 87.324219 230.273438 86.925781 229.984375 C 87.976562 229.21875 88.871094 227.992188 89.226562 226.070312 C 89.253906 225.917969 89.261719 225.761719 89.25 225.605469 L 86.238281 181.585938 C 86.132812 180.347656 86.410156 179.4375 87.011719 179.019531 C 87.535156 178.660156 88.332031 178.664062 89.09375 179.023438 C 90.480469 179.6875 91.40625 181.300781 91.566406 183.375 L 93.929688 207.957031 C 93.175781 208.230469 92.644531 208.949219 92.691406 209.789062 C 92.753906 210.820312 93.652344 211.601562 94.664062 211.550781 C 94.863281 211.535156 114.820312 210.523438 124.160156 220.019531 C 124.527344 220.394531 125.011719 220.578125 125.492188 220.578125 C 125.964844 220.578125 126.4375 220.402344 126.804688 220.042969 C 127.539062 219.320312 127.550781 218.136719 126.828125 217.402344 C 126.117188 216.675781 125.351562 216.007812 124.550781 215.386719 C 124.707031 215.148438 124.847656 214.890625 124.953125 214.605469 C 124.996094 214.488281 125.027344 214.363281 125.046875 214.242188 L 127.980469 195.125 C 128.257812 193.828125 128.984375 193.140625 129.917969 193.304688 C 130.847656 193.464844 131.738281 194.476562 131.484375 196.464844 L 129.03125 243.078125 C 129.03125 243.152344 128.835938 250.316406 123.957031 254.410156 C 120.949219 256.933594 116.703125 257.789062 111.34375 256.949219 C 110.332031 256.796875 109.367188 257.488281 109.207031 258.507812 C 109.046875 259.527344 109.746094 260.484375 110.765625 260.644531 C 112.292969 260.882812 113.753906 261 115.140625 261 C 117.089844 261 118.894531 260.753906 120.558594 260.285156 L 121.378906 322.042969 C 121.390625 323.066406 122.226562 323.886719 123.25 323.886719 C 123.257812 323.886719 123.265625 323.886719 123.273438 323.886719 C 124.308594 323.871094 125.132812 323.023438 125.121094 321.992188 L 124.28125 258.722656 C 125.011719 258.296875 125.710938 257.820312 126.359375 257.269531 C 127.570312 256.253906 128.546875 255.101562 129.347656 253.910156 C 137.964844 260.304688 147.546875 266.59375 157.882812 272.636719 L 158.050781 322.023438 C 158.054688 323.054688 158.890625 323.882812 159.921875 323.882812 C 159.925781 323.882812 159.925781 323.882812 159.929688 323.882812 C 160.960938 323.882812 161.796875 323.042969 161.792969 322.007812 L 161.511719 239.964844 C 163.660156 240.273438 166.035156 240.445312 168.707031 240.445312 C 169.566406 240.445312 170.453125 240.429688 171.371094 240.394531 C 172.402344 240.355469 173.210938 239.492188 173.171875 238.460938 C 173.132812 237.429688 172.261719 236.546875 171.230469 236.664062 C 147.773438 237.515625 146.785156 227.511719 145.101562 210.90625 C 144.261719 202.640625 143.3125 193.273438 139.261719 183.652344 C 138.742188 182.355469 138.371094 180.5 139.558594 179.050781 C 140.691406 177.667969 142.953125 177.011719 145.167969 177.425781 C 147.777344 177.90625 149.78125 179.703125 150.636719 182.246094 C 150.644531 182.292969 151.890625 186.945312 153.351562 196.601562 C 153.695312 198.363281 154.324219 199.753906 155.105469 200.914062 C 155.121094 200.933594 155.128906 200.957031 155.144531 200.972656 C 156.609375 203.128906 158.625 204.460938 160.492188 205.671875 C 164.1875 208.074219 167.375 210.148438 166.59375 218.621094 C 166.5 219.648438 167.257812 220.558594 168.285156 220.652344 C 169.304688 220.746094 170.226562 219.992188 170.316406 218.964844 C 171.308594 208.25 166.441406 205.082031 162.53125 202.539062 C 161.707031 202.003906 160.945312 201.496094 160.253906 200.960938 C 161.773438 200.113281 163.132812 198.542969 163.628906 195.890625 C 163.652344 195.769531 163.664062 195.648438 163.660156 195.527344 L 163.078125 139.476562 C 163.078125 138.117188 163.4375 137.023438 164.121094 136.324219 C 164.683594 135.746094 165.484375 135.429688 166.375 135.429688 C 168.683594 135.429688 171.144531 137.5 171.144531 141.34375 L 171.144531 173.117188 C 171.105469 173.121094 171.058594 173.121094 171.039062 173.125 C 170.007812 173.179688 169.21875 174.0625 169.277344 175.09375 C 169.332031 176.121094 170.238281 176.902344 171.246094 176.855469 C 171.515625 176.84375 197.808594 175.542969 210.148438 187.871094 C 210.511719 188.238281 210.992188 188.421875 211.46875 188.421875 C 211.949219 188.421875 212.429688 188.238281 212.792969 187.871094 C 213.523438 187.140625 213.523438 185.960938 212.792969 185.230469 C 212.351562 184.789062 211.894531 184.363281 211.425781 183.957031 L 214.40625 155.351562 C 214.671875 152.734375 216.328125 151.246094 217.589844 151.246094 C 218.964844 151.316406 220.355469 153.304688 220.359375 157.46875 L 216.652344 217.777344 C 216.652344 217.875 216.363281 227.222656 209.941406 232.601562 C 205.878906 236.007812 200.15625 237.171875 192.9375 236.0625 C 191.914062 235.90625 190.957031 236.605469 190.804688 237.628906 C 190.648438 238.648438 191.347656 239.601562 192.367188 239.757812 C 194.328125 240.058594 196.199219 240.210938 197.976562 240.210938 C 200.746094 240.210938 203.285156 239.835938 205.605469 239.109375 L 206.679688 322.046875 C 206.691406 323.070312 207.527344 323.890625 208.550781 323.890625 C 208.558594 323.890625 208.566406 323.890625 208.574219 323.890625 C 209.609375 323.878906 210.433594 323.03125 210.421875 322 L 209.789062 273.117188 C 220.394531 266.957031 230.25 260.507812 239.128906 253.917969 C 239.925781 255.109375 240.902344 256.261719 242.117188 257.277344 C 242.765625 257.824219 243.464844 258.300781 244.195312 258.726562 L 243.355469 321.996094 C 243.34375 323.03125 244.167969 323.878906 245.203125 323.890625 C 245.210938 323.890625 245.21875 323.890625 245.226562 323.890625 C 246.25 323.890625 247.082031 323.070312 247.097656 322.050781 L 247.914062 260.292969 C 249.582031 260.757812 251.386719 261.007812 253.332031 261.007812 C 254.722656 261.007812 256.183594 260.886719 257.710938 260.648438 C 258.730469 260.488281 259.429688 259.535156 259.269531 258.515625 C 259.109375 257.492188 258.148438 256.804688 257.132812 256.957031 C 251.785156 257.789062 247.546875 256.941406 244.542969 254.429688 C 239.675781 250.367188 239.445312 243.152344 239.441406 243.019531 L 236.980469 196.328125 C 236.742188 194.480469 237.628906 193.46875 238.558594 193.308594 C 239.496094 193.144531 240.21875 193.828125 240.476562 195.023438 L 243.429688 214.242188 C 243.449219 214.367188 243.480469 214.488281 243.523438 214.605469 C 243.628906 214.890625 243.769531 215.148438 243.929688 215.390625 C 243.128906 216.011719 242.363281 216.675781 241.652344 217.402344 C 240.929688 218.140625 240.9375 219.320312 241.675781 220.046875 C 242.039062 220.402344 242.515625 220.582031 242.988281 220.582031 C 243.472656 220.582031 243.957031 220.394531 244.320312 220.023438 C 253.644531 210.542969 273.613281 211.542969 273.816406 211.550781 C 274.832031 211.601562 275.730469 210.820312 275.785156 209.789062 C 275.835938 208.949219 275.304688 208.234375 274.550781 207.957031 L 276.917969 183.34375 C 277.074219 181.304688 277.996094 179.691406 279.386719 179.027344 C 280.148438 178.664062 280.945312 178.664062 281.46875 179.023438 C 282.070312 179.4375 282.34375 180.347656 282.242188 181.613281 L 279.226562 225.605469 C 279.21875 225.761719 279.226562 225.917969 279.253906 226.074219 C 279.609375 227.992188 280.503906 229.21875 281.554688 229.984375 C 281.15625 230.277344 280.726562 230.5625 280.277344 230.859375 C 277.1875 232.90625 273.339844 235.449219 274.117188 244.050781 C 274.210938 245.078125 275.121094 245.859375 276.148438 245.742188 C 277.179688 245.648438 277.9375 244.742188 277.84375 243.714844 C 277.265625 237.335938 279.503906 235.851562 282.339844 233.976562 C 283.800781 233.011719 285.382812 231.949219 286.546875 230.214844 C 286.558594 230.195312 286.570312 230.171875 286.582031 230.152344 C 287.214844 229.191406 287.726562 228.035156 288.007812 226.558594 C 289.101562 219.203125 290.046875 215.554688 290.042969 215.554688 C 290.902344 212.9375 292.839844 212.203125 293.917969 211.996094 C 295.449219 211.703125 297 212.144531 297.777344 213.082031 C 298.433594 213.871094 298.5 214.960938 297.976562 216.28125 C 294.839844 223.871094 294.109375 231.210938 293.460938 237.691406 C 292.195312 250.410156 291.421875 258.054688 273.871094 257.425781 C 272.804688 257.359375 271.96875 258.1875 271.929688 259.21875 C 271.890625 260.253906 272.695312 261.121094 273.726562 261.160156 C 274.445312 261.1875 275.144531 261.199219 275.816406 261.199219 C 277.683594 261.199219 279.328125 261.070312 280.867188 260.871094 L 280.652344 322.015625 C 280.648438 323.050781 281.484375 323.886719 282.519531 323.890625 C 282.519531 323.890625 282.523438 323.890625 282.523438 323.890625 C 283.554688 323.890625 284.390625 323.058594 284.394531 322.03125 L 284.609375 260.160156 C 295.265625 257.179688 296.175781 248.164062 297.179688 238.058594 C 297.800781 231.839844 298.503906 224.785156 301.445312 217.675781 C 302.492188 215.035156 302.210938 212.558594 300.664062 210.695312 Z M 186.199219 122.683594 C 186.207031 122.6875 186.210938 122.699219 186.222656 122.707031 C 186.242188 122.722656 186.273438 122.722656 186.296875 122.738281 C 187.660156 123.609375 188.6875 125.289062 188.6875 127.757812 C 188.582031 132.59375 188.285156 140.070312 187.972656 147.980469 C 187.589844 157.566406 187.199219 167.4375 187.085938 174.050781 C 184.933594 173.722656 182.882812 173.496094 181.007812 173.34375 C 180.714844 163.246094 180.527344 137.664062 180.511719 126.328125 C 180.511719 124.898438 180.898438 123.75 181.628906 123.003906 C 181.765625 122.863281 181.921875 122.742188 182.082031 122.628906 C 182.117188 122.609375 182.15625 122.605469 182.1875 122.582031 C 182.207031 122.570312 182.214844 122.550781 182.230469 122.539062 C 182.75 122.222656 183.359375 122.046875 184.019531 122.046875 C 184.773438 122.042969 185.523438 122.273438 186.199219 122.683594 Z M 101.121094 178.972656 C 101.015625 175.40625 100.929688 172.621094 100.929688 171.472656 C 100.929688 170.460938 101.183594 169.65625 101.671875 169.152344 C 102.160156 168.648438 102.761719 168.539062 103.179688 168.539062 C 104.746094 168.539062 106.328125 169.941406 106.328125 172.582031 C 106.222656 177.496094 105.96875 200.109375 106.269531 208.46875 C 104.53125 208.214844 102.890625 208.042969 101.414062 207.941406 C 101.84375 202.8125 101.410156 188.492188 101.121094 178.972656 Z M 113.679688 210.074219 C 113.695312 210.007812 113.71875 209.949219 113.730469 209.886719 C 113.742188 209.816406 113.75 209.75 113.753906 209.683594 L 115.492188 181.800781 C 115.691406 180.15625 116.449219 179.226562 117.53125 179.277344 C 118.542969 179.335938 119.5625 180.300781 119.566406 181.933594 C 119.554688 182.144531 118.503906 202.003906 117.828125 211.546875 C 116.464844 210.972656 115.074219 210.484375 113.679688 210.074219 Z M 166.386719 131.691406 C 164.480469 131.691406 162.726562 132.410156 161.453125 133.714844 C 160.492188 134.699219 159.347656 136.5 159.347656 139.5 L 159.933594 195.375 C 159.523438 197.277344 158.523438 197.847656 157.71875 197.984375 C 157.433594 197.394531 157.199219 196.738281 157.046875 195.96875 C 155.566406 186.179688 154.308594 181.472656 154.226562 181.171875 C 152.898438 177.195312 149.847656 174.488281 145.859375 173.753906 C 142.28125 173.085938 138.679688 174.246094 136.675781 176.683594 C 134.847656 178.914062 134.535156 181.882812 135.8125 185.074219 C 139.65625 194.207031 140.578125 203.28125 141.386719 211.285156 C 142.691406 224.121094 143.859375 235.558594 157.777344 239.222656 L 157.875 268.289062 C 148.203125 262.558594 139.222656 256.613281 131.125 250.574219 C 132.679688 246.792969 132.773438 243.402344 132.777344 243.214844 L 135.210938 196.808594 C 135.75 192.707031 133.277344 190.085938 130.558594 189.621094 C 128.128906 189.199219 125.148438 190.507812 124.308594 194.453125 L 121.488281 212.816406 C 122.160156 203.703125 123.292969 182.34375 123.304688 182.027344 C 123.304688 178.027344 120.445312 175.699219 117.757812 175.539062 C 115.128906 175.414062 112.289062 177.117188 111.769531 181.453125 L 110.039062 209.132812 C 109.691406 201.664062 109.960938 177.722656 110.066406 172.617188 C 110.066406 167.539062 106.519531 164.796875 103.179688 164.796875 C 101.558594 164.796875 100.0625 165.421875 98.972656 166.558594 C 98.15625 167.40625 97.1875 168.945312 97.1875 171.472656 C 97.1875 172.636719 97.273438 175.460938 97.382812 179.078125 C 97.65625 188.007812 98.105469 202.933594 97.683594 207.773438 C 97.679688 207.773438 97.679688 207.773438 97.675781 207.773438 L 95.300781 183.050781 C 95.039062 179.660156 93.324219 176.894531 90.710938 175.648438 C 88.710938 174.691406 86.539062 174.804688 84.894531 175.941406 C 83.882812 176.640625 82.226562 178.34375 82.515625 181.863281 L 83.796875 200.539062 C 59.175781 158.78125 71.171875 119.875 97.007812 102.117188 C 118.976562 87.015625 153.683594 86.589844 178.601562 120.78125 C 177.695312 121.859375 176.769531 123.617188 176.769531 126.328125 C 176.789062 137.558594 176.972656 162.746094 177.261719 173.121094 C 176.394531 173.085938 175.609375 173.070312 174.898438 173.0625 L 174.898438 141.347656 C 174.894531 135.078125 170.511719 131.691406 166.386719 131.691406 Z M 202.691406 178.460938 C 200.753906 177.585938 198.757812 176.851562 196.746094 176.234375 L 197.910156 139.617188 C 198.203125 137.230469 199.476562 135.820312 201.175781 135.917969 C 202.753906 136.015625 204.351562 137.4375 204.355469 139.902344 C 204.34375 140.207031 203.304688 167.617188 202.691406 178.460938 Z M 248.929688 182.03125 C 248.929688 180.300781 249.949219 179.335938 250.960938 179.273438 C 252.027344 179.238281 252.800781 180.152344 252.992188 181.691406 L 254.738281 209.679688 C 254.742188 209.75 254.75 209.816406 254.761719 209.886719 C 254.773438 209.949219 254.796875 210.007812 254.8125 210.070312 C 253.417969 210.484375 252.027344 210.972656 250.664062 211.542969 C 249.988281 202.003906 248.9375 182.148438 248.929688 182.03125 Z M 262.164062 172.621094 C 262.164062 169.941406 263.746094 168.539062 265.3125 168.539062 C 265.730469 168.539062 266.335938 168.648438 266.824219 169.152344 C 267.308594 169.660156 267.566406 170.460938 267.566406 171.472656 C 267.5625 172.617188 267.480469 175.402344 267.371094 178.972656 C 267.082031 188.492188 266.652344 202.8125 267.078125 207.941406 C 265.601562 208.042969 263.960938 208.214844 262.222656 208.46875 C 262.523438 200.113281 262.269531 177.5 262.164062 172.621094 Z M 277.785156 175.652344 C 275.171875 176.898438 273.457031 179.664062 273.195312 183.019531 L 270.820312 207.773438 C 270.386719 203.015625 270.839844 188.035156 271.109375 179.082031 C 271.222656 175.464844 271.304688 172.640625 271.308594 171.472656 C 271.308594 168.949219 270.335938 167.410156 269.519531 166.5625 C 268.429688 165.425781 266.933594 164.800781 265.3125 164.800781 C 261.976562 164.800781 258.425781 167.542969 258.425781 172.660156 C 258.535156 177.722656 258.804688 201.621094 258.453125 209.132812 L 256.71875 181.351562 C 256.207031 177.121094 253.371094 175.421875 250.738281 175.542969 C 248.046875 175.707031 245.191406 178.035156 245.191406 182.128906 C 245.203125 182.347656 246.335938 203.722656 247.007812 212.828125 L 244.164062 194.347656 C 243.339844 190.507812 240.363281 189.207031 237.933594 189.621094 C 235.214844 190.089844 232.746094 192.707031 233.265625 196.667969 L 235.714844 243.15625 C 235.71875 243.378906 235.8125 246.785156 237.367188 250.578125 C 228.988281 256.824219 219.71875 262.945312 209.742188 268.816406 L 209.335938 237.535156 C 210.417969 236.9375 211.433594 236.242188 212.386719 235.445312 C 220.105469 228.953125 220.398438 218.304688 220.40625 217.933594 L 224.109375 157.585938 C 224.109375 150.394531 220.847656 147.667969 217.792969 147.515625 C 214.160156 147.308594 211.148438 150.542969 210.699219 154.96875 L 207.953125 181.332031 C 207.421875 180.984375 206.878906 180.648438 206.328125 180.328125 C 206.925781 170.949219 208.046875 141.351562 208.097656 139.972656 C 208.097656 135.179688 204.652344 132.382812 201.410156 132.183594 C 198.292969 131.964844 194.824219 134.078125 194.1875 139.328125 L 193.039062 175.21875 C 192.296875 175.039062 191.554688 174.871094 190.820312 174.71875 C 190.914062 168.160156 191.320312 157.992188 191.710938 148.128906 C 192.027344 140.199219 192.328125 132.703125 192.433594 127.796875 C 192.433594 124.777344 191.386719 122.449219 189.847656 120.851562 C 214.75 86.613281 249.457031 87.003906 271.449219 102.089844 C 297.316406 119.84375 309.335938 158.753906 284.699219 200.542969 L 285.976562 181.890625 C 286.273438 178.347656 284.613281 176.640625 283.601562 175.945312 C 281.957031 174.8125 279.78125 174.699219 277.785156 175.652344 Z M 277.785156 175.652344 " fill-opacity="1" fill-rule="nonzero"/></svg>