<svg xmlns="http://www.w3.org/2000/svg" xmlns:xlink="http://www.w3.org/1999/xlink" width="500" zoomAndPan="magnify" viewBox="0 0 375.12 383.03998" height="500" preserveAspectRatio="xMidYMid meet" version="1.0"><defs><clipPath id="aad429480a"><path d="M 44 37.40625 L 330 37.40625 L 330 336.65625 L 44 336.65625 Z M 44 37.40625 " clip-rule="nonzero"/></clipPath><clipPath id="834c92bf32"><path d="M 51 58 L 296 58 L 296 336.65625 L 51 336.65625 Z M 51 58 " clip-rule="nonzero"/></clipPath><clipPath id="c01c4af795"><path d="M 44 37.40625 L 330.496094 37.40625 L 330.496094 336.65625 L 44 336.65625 Z M 44 37.40625 " clip-rule="nonzero"/></clipPath></defs><g clip-path="url(#aad429480a)"><path fill="#f5f6f7" d="M 189.167969 239.402344 C 189.34375 239.152344 189.617188 238.980469 189.945312 238.980469 L 207.253906 238.980469 L 206.921875 232.464844 L 206.769531 230.863281 L 206.742188 230.804688 L 185.4375 225.101562 L 175.96875 203.207031 C 175.96875 203.207031 174.117188 197.191406 167.839844 193.285156 C 161.5625 189.378906 156.621094 187.734375 156.621094 187.734375 L 156.828125 181.257812 C 156.828125 181.257812 159.605469 181.71875 161.304688 181.359375 C 163 181 164.03125 180.589844 165.472656 174.78125 C 166.964844 174.011719 167.425781 172.777344 167.425781 172.777344 C 167.425781 172.777344 166.550781 171.082031 165.265625 169.746094 C 166.039062 165.785156 165.367188 162.136719 165.367188 162.136719 C 165.367188 162.136719 164.855469 163.113281 163.054688 162.496094 C 161.253906 161.878906 160.582031 162.394531 160.171875 162.652344 C 159.757812 162.910156 158.574219 164.757812 156.15625 163.21875 C 153.738281 161.675781 153.019531 160.234375 151.578125 160.957031 C 150.136719 161.675781 149.363281 163.472656 149.671875 166.558594 C 148.539062 165.785156 145.453125 165.273438 144.21875 168.046875 C 142.984375 170.824219 145.503906 174.164062 149.570312 173.238281 C 149.671875 177.144531 150.035156 179.613281 146.84375 180.640625 C 144.679688 181.207031 143.292969 180.382812 143.292969 180.382812 L 143.394531 187.785156 C 143.394531 187.785156 136.996094 188.265625 129.585938 192.855469 C 122.175781 197.449219 118.746094 199.777344 116.6875 219.652344 C 114.628906 239.527344 116.921875 250.269531 117.304688 251.109375 C 119.636719 256.25 130.546875 268.996094 130.546875 268.996094 L 126.910156 269.0625 C 126.910156 269.0625 124.164062 269.199219 123.617188 272.285156 C 123.066406 275.367188 123.890625 279.34375 123.890625 279.34375 C 123.890625 279.34375 124.921875 282.085938 128.417969 282.085938 C 128.625 283.867188 129.621094 285.992188 131.917969 285.992188 C 134.21875 285.992188 147.289062 286.128906 147.289062 286.128906 L 147.289062 336.226562 L 150.308594 336.226562 L 150.308594 285.855469 L 153.53125 285.855469 C 153.53125 285.855469 155.316406 286.917969 156.207031 286.710938 C 157.101562 286.503906 157.375 285.855469 157.375 285.855469 C 157.375 285.855469 158.644531 287.773438 160.1875 287.429688 C 161.730469 287.085938 161.664062 285.71875 161.664062 285.71875 C 161.664062 285.71875 162.691406 287.464844 163.585938 287.019531 C 164.476562 286.574219 164.339844 285.75 164.339844 285.75 C 164.339844 285.75 166.433594 286.539062 167.152344 285.238281 C 167.222656 286.949219 167.289062 287.292969 167.289062 287.292969 L 165.367188 320.394531 L 163.773438 332.679688 C 163.773438 332.679688 162.28125 336.171875 166.191406 336.429688 C 170.101562 336.6875 190.070312 336.480469 190.070312 336.480469 L 193.054688 336.328125 L 216.417969 336.328125 C 216.417969 336.328125 217.859375 336.191406 217.929688 334.476562 C 217.996094 332.765625 218.03125 332.320312 217.652344 331.667969 C 217.277344 331.015625 199.539062 323.582031 199.539062 323.582031 L 199.609375 320.257812 L 202.488281 320.222656 L 203.277344 308.195312 L 204.035156 292.089844 C 204.035156 292.089844 204.238281 276.875 203.621094 272.628906 C 203.003906 268.378906 201.5625 265.15625 199.503906 262.964844 C 199.5 262.957031 199.488281 262.949219 199.480469 262.941406 L 199.480469 248.984375 L 196.875 248.984375 L 196.875 260.445312 C 193.910156 257.789062 189.425781 254.242188 185.507812 252.410156 C 180.085938 249.875 167.875 244.050781 167.875 244.050781 L 168.011719 229.519531 C 168.011719 229.519531 171.097656 239.046875 172.882812 240.144531 C 174.667969 241.238281 188.664062 244.597656 188.664062 244.597656 L 188.984375 239.9375 C 188.984375 239.9375 188.914062 239.660156 189.167969 239.402344 Z M 177 320.3125 L 181.992188 320.1875 L 187.601562 288.320312 L 186.652344 320.1875 L 187.414062 320.257812 L 187.496094 327.128906 L 186.984375 327.796875 L 176.585938 323.679688 Z M 63.105469 322.714844 C 63.105469 322.714844 45.523438 328.667969 45.222656 330.75 C 45.109375 331.566406 45.082031 332.382812 45.09375 333.074219 C 45.113281 334.097656 45.945312 334.917969 46.96875 334.917969 L 72.648438 334.917969 C 73.796875 334.917969 74.726562 333.988281 74.726562 332.839844 L 74.726562 322.117188 L 75.398438 311.347656 L 62.007812 311.605469 Z M 270.660156 172.160156 C 270.660156 172.160156 268.445312 174.523438 268.652344 175.5 C 268.859375 176.476562 270.503906 177.09375 270.503906 177.09375 C 270.503906 177.09375 271.484375 183.570312 273.695312 183.777344 C 275.910156 183.980469 279.355469 183.777344 279.355469 183.777344 L 279.511719 190.40625 L 277.144531 190.972656 C 277.144531 190.972656 277.863281 196.730469 284.089844 195.546875 C 290.316406 194.363281 292.015625 190.613281 292.015625 190.613281 L 289.804688 189.789062 L 290.007812 180.796875 L 285.324219 180.898438 L 285.480469 177.96875 C 285.480469 177.96875 288.875 178.894531 290.421875 176.167969 C 291.964844 173.445312 290.523438 171.03125 288.875 170.667969 C 287.230469 170.308594 285.121094 171.132812 285.121094 171.132812 C 285.121094 171.132812 284.398438 168.921875 284.398438 166.25 C 280.796875 166.25 270.300781 166.710938 270.300781 166.710938 Z M 264.757812 119.324219 L 199.984375 119.324219 C 197.410156 119.324219 195.320312 121.410156 195.320312 123.984375 L 195.320312 135.769531 C 195.320312 138.34375 197.410156 140.429688 199.984375 140.429688 L 252.40625 140.429688 L 257.820312 153.109375 L 257.820312 140.429688 L 264.757812 140.429688 C 267.335938 140.429688 269.425781 138.34375 269.425781 135.769531 L 269.425781 123.984375 C 269.425781 121.410156 267.335938 119.324219 264.757812 119.324219 Z M 269.492188 103.765625 C 275.0625 103.765625 279.578125 99.253906 279.578125 93.691406 C 279.578125 88.128906 275.0625 83.617188 269.492188 83.617188 C 263.921875 83.617188 259.40625 88.128906 259.40625 93.691406 C 259.40625 99.253906 263.921875 103.765625 269.492188 103.765625 Z M 199.367188 77.863281 L 194.476562 82.75 L 201.148438 89.417969 L 206.039062 84.53125 C 207.765625 86.273438 210.570312 86.910156 213.128906 87.472656 L 213.128906 94.375 L 222.566406 94.375 L 222.566406 87.472656 C 225.128906 86.910156 227.515625 85.898438 229.65625 84.53125 L 234.546875 89.417969 L 241.222656 82.75 L 236.328125 77.863281 C 237.699219 75.726562 238.710938 73.34375 239.273438 70.785156 L 246.183594 70.785156 L 246.183594 61.359375 L 239.273438 61.359375 C 238.710938 58.800781 237.699219 56.417969 236.328125 54.277344 L 241.222656 49.390625 L 234.546875 42.726562 L 229.65625 47.613281 C 227.515625 46.246094 225.128906 45.234375 222.566406 44.671875 L 222.566406 37.769531 L 213.128906 37.769531 L 213.128906 44.671875 C 210.570312 45.234375 208.179688 46.246094 206.039062 47.613281 L 201.148438 42.726562 L 194.476562 49.390625 L 199.367188 54.277344 C 197.996094 56.417969 196.984375 58.800781 196.421875 61.359375 L 189.511719 61.359375 L 189.511719 70.785156 L 196.421875 70.785156 C 196.984375 73.34375 197.996094 75.726562 199.367188 77.863281 Z M 217.847656 51.75 C 225.753906 51.75 232.1875 58.175781 232.1875 66.070312 C 232.1875 73.96875 225.753906 80.394531 217.847656 80.394531 C 209.941406 80.394531 203.507812 73.96875 203.507812 66.070312 C 203.507812 58.175781 209.941406 51.75 217.847656 51.75 Z M 328.976562 238.980469 L 308.035156 238.980469 C 307.835938 239.070312 307.710938 239.117188 307.710938 239.117188 L 293.941406 238.980469 L 207.253906 238.980469 L 207.257812 239.046875 C 207.257812 239.046875 192.847656 238.980469 190.792969 238.980469 C 189.84375 238.980469 189.386719 239.183594 189.167969 239.402344 C 189.0625 239.558594 188.984375 239.734375 188.984375 239.9375 L 188.984375 244.597656 C 188.984375 245.128906 189.414062 245.558594 189.945312 245.558594 L 328.976562 245.558594 C 329.507812 245.558594 329.9375 245.128906 329.9375 244.597656 L 329.9375 239.9375 C 329.9375 239.410156 329.507812 238.980469 328.976562 238.980469 Z M 206.921875 232.464844 L 207.53125 238.980469 L 251.171875 238.910156 L 253.230469 208.480469 L 242.421875 206.773438 L 205.894531 206.773438 C 205.152344 206.773438 204.570312 207.40625 204.632812 208.144531 L 206.769531 230.863281 L 206.847656 231.027344 Z M 319.4375 336.292969 L 322.046875 336.292969 L 322.046875 248.984375 L 319.4375 248.984375 Z M 238.960938 258.820312 C 228.359375 266.835938 229.59375 270.023438 228.769531 279.070312 C 227.945312 288.117188 229.285156 320.085938 229.285156 320.085938 L 230.417969 320.1875 L 230.160156 323.992188 L 224.910156 327.4375 C 224.910156 327.4375 230.003906 325.070312 232.113281 327.898438 C 234.222656 330.726562 235.097656 330.519531 235.097656 330.519531 L 239.679688 326.511719 L 242.40625 324.558594 L 242.5625 320.035156 L 243.488281 320.035156 L 243.640625 324.09375 L 239.78125 327.128906 L 244.257812 329.542969 L 249.40625 334.527344 L 257.226562 331.1875 L 256.96875 320.238281 L 259.183594 320.085938 L 262.476562 291.355469 L 263.351562 282.875 C 263.351562 282.875 263.507812 285.957031 267.109375 286.007812 C 270.710938 286.058594 282.03125 286.058594 282.03125 286.058594 L 282.03125 336.328125 L 285.171875 336.328125 L 285.171875 285.855469 C 285.171875 285.855469 299.324219 285.855469 300.351562 285.855469 C 301.382812 285.855469 304.160156 285.855469 304.160156 282.257812 C 305.652344 282.257812 306.066406 282.257812 306.066406 282.257812 C 306.066406 282.257812 308.691406 281.382812 308.894531 278.710938 C 309.101562 276.035156 308.792969 272.128906 308.792969 272.128906 C 308.792969 272.128906 309.203125 269.148438 305.808594 268.894531 C 302.410156 268.636719 298.5 268.53125 298.5 268.53125 C 298.5 268.53125 302.152344 267.300781 302.925781 262.621094 C 303.699219 257.945312 304.046875 251.691406 303.390625 249.054688 C 302.769531 249.015625 301.917969 248.984375 300.890625 248.949219 L 257.527344 248.949219 C 254.269531 250.003906 246.863281 252.839844 238.960938 258.820312 Z M 96.574219 322.714844 L 97.671875 311.605469 L 84.28125 311.347656 L 84.949219 322.117188 L 84.949219 332.839844 C 84.949219 333.988281 85.882812 334.917969 87.03125 334.917969 L 112.710938 334.917969 C 113.734375 334.917969 114.566406 334.097656 114.585938 333.074219 C 114.597656 332.382812 114.570312 331.566406 114.453125 330.75 C 114.15625 328.667969 96.574219 322.714844 96.574219 322.714844 Z M 253.660156 208.144531 L 251.171875 238.910156 L 269.835938 238.773438 L 269.699219 231.304688 L 271.277344 230.960938 L 271.003906 229.246094 L 274.84375 231.304688 L 278.617188 220.476562 C 278.617188 220.476562 275.257812 216.5 270.453125 213.140625 C 270.796875 208.960938 271.207031 202.65625 271.207031 202.65625 C 271.207031 202.65625 272.167969 195.050781 274.570312 191.074219 C 271.484375 191.761719 263.796875 193.886719 263.113281 196.96875 C 259.886719 196.898438 240.125 199.914062 240.125 199.914062 L 241.085938 206.5625 L 242.421875 206.773438 L 252.398438 206.773438 C 253.140625 206.773438 253.722656 207.40625 253.660156 208.144531 Z M 313.542969 228.355469 C 313.957031 219.378906 309.425781 206.015625 309.425781 206.015625 C 309.425781 206.015625 306.132812 197.039062 302.429688 193.953125 C 300.371094 193.335938 295.292969 191.625 295.292969 191.625 C 295.292969 191.625 290.214844 206.5625 291.246094 223.351562 L 279.238281 220.132812 L 273.953125 234.386719 L 287.058594 238.910156 L 293.941406 238.980469 L 308.035156 238.980469 C 309.195312 238.4375 313.191406 236.027344 313.542969 228.355469 Z M 193.511719 248.949219 L 257.527344 248.949219 C 258.640625 248.589844 259.269531 248.4375 259.269531 248.4375 C 259.269531 248.4375 290.113281 248.605469 300.890625 248.949219 L 325.410156 248.949219 C 325.914062 248.949219 326.324219 248.542969 326.324219 248.039062 L 326.324219 245.761719 L 192.597656 245.558594 L 192.597656 248.039062 C 192.597656 248.542969 193.007812 248.949219 193.511719 248.949219 Z M 100.5625 201.148438 C 100.5625 201.148438 104.476562 201.082031 105.816406 193.046875 C 107.359375 183.792969 107.15625 173 105.363281 162.292969 C 103.375 150.378906 99.859375 149.957031 94.804688 147.570312 C 94.816406 146.460938 94.761719 143.402344 94.761719 143.402344 L 90.308594 143.378906 L 90.234375 140.5 C 90.234375 140.5 92.082031 140.847656 93.324219 140.085938 C 95.550781 138.71875 96.46875 132.871094 96.46875 132.871094 C 96.46875 132.871094 98.886719 131.847656 98.566406 130.886719 C 98.242188 129.925781 96.578125 127.78125 96.578125 127.78125 C 96.578125 127.78125 98.355469 122.75 97.359375 118.636719 C 96.554688 115.316406 91.910156 111.742188 84.582031 111.191406 C 77.257812 110.644531 72.46875 111.160156 69.445312 116.238281 C 66.421875 121.316406 66.550781 129.261719 66.460938 131.503906 C 66.367188 133.746094 66.046875 144.765625 64.039062 148.054688 C 59.871094 148.570312 56.738281 151.539062 55.089844 156.113281 C 54.632812 157.378906 54.191406 158.960938 53.777344 160.769531 C 54.332031 160.128906 54.675781 159.773438 54.675781 159.773438 L 54.796875 165.195312 C 53.957031 163.636719 53.457031 162.167969 53.777344 160.769531 C 51.203125 163.742188 44.535156 172.976562 44.691406 182.851562 C 44.796875 189.578125 49.351562 194.589844 53.464844 197.378906 C 53.734375 197.863281 54.019531 198.332031 54.332031 198.765625 C 57.355469 202.953125 61.476562 201.304688 61.476562 201.304688 L 60.996094 207.894531 L 62.523438 207.820312 C 62.523438 207.820312 57.429688 256.035156 57.429688 311.347656 L 79.617188 311.347656 C 79.617188 311.347656 80.636719 311.347656 84.28125 311.347656 C 87.90625 311.347656 94.125 311.347656 104.527344 311.347656 C 103.605469 293.324219 103.511719 274.386719 102.675781 258.273438 C 101.171875 229.207031 99.433594 207.820312 99.433594 207.820312 L 100.292969 207.617188 Z M 165.503906 81.390625 C 158.851562 81.390625 153.460938 86.773438 153.460938 93.417969 C 153.460938 94.394531 153.589844 95.335938 153.808594 96.242188 L 122.65625 96.242188 L 122.65625 112.742188 L 162.828125 112.742188 L 162.828125 105.136719 C 163.691406 105.332031 164.582031 105.445312 165.503906 105.445312 C 172.152344 105.445312 177.542969 100.058594 177.542969 93.417969 C 177.542969 86.773438 172.152344 81.390625 165.503906 81.390625 Z M 285.324219 180.898438 L 297.46875 181.023438 L 297.777344 177.058594 L 297.964844 165.785156 C 297.964844 165.785156 298.335938 157.792969 287.667969 155.375 C 277 152.960938 270.050781 158.535156 270.300781 166.710938 C 280.71875 166.28125 284.195312 166.464844 284.195312 166.464844 Z M 165.367188 162.136719 C 165.367188 162.136719 169.785156 159.773438 168.390625 153.828125 C 166.992188 147.878906 162.527344 148.390625 160.386719 148.113281 C 158.25 147.835938 156.851562 148.53125 155.550781 147.371094 C 154.246094 146.207031 152.757812 144.675781 149.734375 145.1875 C 146.710938 145.695312 146.105469 148.160156 142.664062 148.484375 C 139.222656 148.808594 136.757812 149.414062 135.871094 153.085938 C 134.988281 156.753906 135.222656 158.566406 133.21875 159.773438 C 131.21875 160.984375 129.546875 163.257812 130.570312 166.1875 C 131.59375 169.113281 134.570312 169.578125 134.710938 171.390625 C 134.847656 173.203125 131.824219 178.035156 134.523438 179.941406 C 137.222656 181.84375 139.40625 180.730469 140.429688 180.359375 C 141.453125 179.988281 142.011719 179.714844 143.292969 180.382812 C 144.570312 181.054688 149.316406 181.195312 149.59375 176.875 C 149.875 172.550781 164.90625 163.757812 165.367188 162.136719 Z M 217.847656 51.75 C 225.753906 51.75 232.1875 58.175781 232.1875 66.070312 C 232.1875 73.96875 225.753906 80.394531 217.847656 80.394531 C 209.941406 80.394531 203.507812 73.96875 203.507812 66.070312 C 203.507812 58.175781 209.941406 51.75 217.847656 51.75 Z M 217.847656 51.75 " fill-opacity="1" fill-rule="nonzero"/></g><g clip-path="url(#834c92bf32)"><path fill="#fe696e" d="M 255.753906 336.207031 C 254.203125 336.566406 238.488281 336.382812 235.386719 336.34375 L 221.546875 336.269531 C 221.546875 336.269531 218.882812 335.660156 219.386719 333.226562 C 219.890625 330.789062 223.378906 327.78125 225.972656 327.191406 C 228.570312 326.601562 231.339844 327.191406 231.339844 327.191406 C 231.339844 327.191406 234.207031 328.441406 234.1875 330.566406 L 235.039062 330.566406 C 235.074219 330.523438 235.113281 330.484375 235.148438 330.445312 C 236.640625 328.894531 238.394531 327.476562 238.394531 327.476562 C 238.394531 327.476562 245.183594 324.46875 248.039062 330.171875 C 251.847656 330.621094 256.730469 330.566406 256.730469 330.566406 L 257.351562 334.183594 C 257.351562 334.183594 257.480469 335.8125 255.753906 336.207031 Z M 217.847656 58.683594 L 212.195312 65.894531 L 223.5 65.894531 Z M 207.691406 127.9375 C 208.761719 129.007812 208.761719 130.746094 207.691406 131.816406 C 206.617188 132.886719 204.878906 132.886719 203.808594 131.816406 C 202.738281 130.746094 202.738281 129.007812 203.808594 127.9375 C 204.878906 126.867188 206.617188 126.867188 207.691406 127.9375 Z M 218.53125 127.9375 C 219.601562 129.007812 219.601562 130.746094 218.53125 131.816406 C 217.460938 132.886719 215.722656 132.886719 214.648438 131.816406 C 213.578125 130.746094 213.578125 129.007812 214.648438 127.9375 C 215.722656 126.867188 217.460938 126.867188 218.53125 127.9375 Z M 72.839844 150.503906 C 72.839844 150.503906 70.78125 151.738281 69.066406 150.984375 C 67.351562 150.230469 65.566406 147.285156 62.890625 148.378906 C 60.214844 149.476562 55.894531 151.394531 54.246094 158.589844 C 52.597656 165.785156 51.570312 175.519531 51.570312 175.519531 L 62.753906 175.65625 L 62.824219 183.8125 C 62.824219 183.8125 69.820312 176.476562 70.027344 174.96875 C 70.234375 173.460938 69.617188 164.964844 72.773438 162.976562 C 72.976562 151.257812 72.839844 150.503906 72.839844 150.503906 Z M 92.394531 177.230469 C 92.394531 177.230469 95.894531 182.917969 95.828125 183.742188 C 96.375 180.933594 96.171875 175.585938 96.171875 175.585938 L 106.667969 175.792969 C 106.667969 175.792969 105.980469 165.992188 104.335938 157.835938 C 102.6875 150.710938 96.445312 147.761719 94.796875 147.625 C 94.867188 154.753906 94.933594 177.164062 94.933594 177.164062 Z M 60.96875 201.835938 L 60.96875 207.726562 L 100.148438 207.726562 L 100.492188 207.386719 L 100.5625 201.148438 C 100.5625 201.148438 98.023438 202.453125 93.699219 199.640625 C 89.378906 196.832031 82.242188 185.179688 80.800781 179.628906 C 78.054688 184.839844 66.804688 203.066406 60.96875 201.835938 Z M 295.324219 191.632812 L 292.210938 190.707031 C 292.210938 190.707031 289.484375 195.925781 282.585938 195.589844 C 276.515625 194.769531 277.105469 190.683594 277.105469 190.683594 L 274.457031 191.402344 C 274.457031 191.402344 272.550781 194.792969 271.574219 202.144531 C 270.597656 209.492188 270.3125 213.066406 270.3125 213.066406 C 270.3125 213.066406 272.628906 214.324219 274.121094 216.023438 C 275.613281 217.71875 278.394531 220.46875 278.777344 220.417969 C 278.832031 220.210938 278.984375 220.054688 278.984375 220.054688 C 278.984375 220.054688 291.15625 223.371094 291.050781 223.371094 C 290.949219 223.371094 291.25 216.632812 291.542969 211.882812 C 291.875 206.410156 292.84375 198.476562 295.324219 191.632812 Z M 271.058594 229.488281 L 271.230469 230.996094 L 269.894531 231.371094 L 269.894531 239.082031 L 287.183594 239.046875 L 274.214844 234.320312 L 274.695312 231.097656 Z M 271.058594 229.488281 " fill-opacity="1" fill-rule="nonzero"/></g><g clip-path="url(#c01c4af795)"><path fill="#0a0147" d="M 329.070312 238.613281 L 308.984375 238.613281 C 312.636719 235.550781 314.40625 230.285156 313.96875 223.671875 C 313.316406 213.851562 307.015625 195.980469 302.433594 193.542969 C 301.585938 193.09375 300.515625 192.65625 299.253906 192.25 C 299.238281 192.246094 297.609375 191.699219 295.601562 191.203125 L 290.269531 189.671875 L 290.269531 181.246094 L 297.496094 181.21875 C 297.664062 181.21875 297.804688 181.109375 297.847656 180.949219 C 297.863281 180.890625 298.230469 179.394531 298.230469 167.257812 C 298.230469 159.34375 293.574219 155.015625 284.761719 154.746094 C 278.132812 154.542969 275.484375 155.980469 272.644531 158.886719 C 269.480469 162.128906 270 168.011719 270.378906 171.984375 C 269.933594 172.472656 268.484375 174.109375 268.335938 175.066406 C 268.167969 176.128906 269.734375 177.058594 270.363281 177.386719 C 270.597656 179.480469 271.363281 181.472656 272.699219 183.472656 C 273.652344 184.898438 277.785156 184.363281 279.210938 184.125 L 279.210938 190.128906 C 277.539062 190.34375 270 191.410156 265.988281 193.542969 C 265.035156 194.050781 263.988281 194.738281 262.804688 196.304688 C 262.777344 196.339844 262.757812 196.378906 262.746094 196.421875 L 240.039062 199.390625 C 239.945312 199.402344 239.855469 199.453125 239.796875 199.53125 C 239.738281 199.605469 239.710938 199.703125 239.726562 199.800781 L 240.613281 206.410156 L 205.894531 206.410156 C 205.441406 206.410156 205.003906 206.601562 204.695312 206.9375 C 204.386719 207.273438 204.234375 207.722656 204.269531 208.175781 L 206.136719 230.097656 L 185.691406 224.894531 C 184.261719 221.925781 182.542969 217.757812 180.878906 213.726562 C 178.453125 207.835938 175.941406 201.746094 174.085938 198.765625 C 169.671875 191.675781 157.535156 187.609375 157.019531 187.441406 C 157.011719 187.4375 157.003906 187.4375 156.996094 187.4375 L 156.996094 181.695312 C 158.421875 181.929688 162.554688 182.46875 163.507812 181.039062 C 164.84375 179.039062 165.609375 177.046875 165.84375 174.953125 C 166.472656 174.625 168.039062 173.695312 167.871094 172.632812 C 167.722656 171.675781 166.273438 170.039062 165.828125 169.550781 C 166.015625 167.421875 166.027344 164.3125 165.851562 162.125 C 167.949219 160.726562 169.101562 158.378906 169.011719 155.628906 C 168.917969 152.800781 167.558594 150.140625 165.710938 149.15625 C 163.613281 148.039062 162.316406 147.464844 158.042969 147.671875 C 156.246094 147.769531 155.554688 147.117188 154.761719 146.367188 C 153.835938 145.496094 152.789062 144.507812 149.917969 144.867188 C 148.078125 145.097656 147.167969 145.816406 146.289062 146.515625 C 145.28125 147.316406 144.238281 148.148438 141.574219 148.289062 C 135.828125 148.601562 135.074219 153.644531 134.714844 156.070312 C 134.394531 158.21875 133.945312 158.625 132.957031 159.515625 C 132.535156 159.898438 132.007812 160.375 131.371094 161.089844 C 130.351562 162.238281 129.933594 163.863281 130.21875 165.546875 C 130.539062 167.417969 131.671875 169.0625 133.25 169.941406 C 134.808594 170.8125 134.480469 172.292969 133.753906 174.632812 C 133.316406 176.054688 132.859375 177.523438 133.292969 178.726562 C 133.660156 179.753906 134.394531 180.519531 135.417969 180.945312 C 136.058594 181.214844 136.757812 181.328125 137.441406 181.328125 C 138.40625 181.328125 139.339844 181.101562 140.03125 180.78125 C 140.941406 180.359375 141.898438 180.464844 142.980469 180.65625 L 142.980469 187.484375 C 140.871094 187.898438 128.015625 190.707031 121.75 198.730469 C 113.703125 209.042969 115.679688 246.066406 116.742188 250.574219 C 117.398438 253.363281 124.191406 261.863281 129.761719 268.496094 L 127.445312 268.496094 C 125.203125 268.496094 123.375 270.316406 123.375 272.558594 L 123.375 278.316406 C 123.375 280.558594 125.203125 282.378906 127.445312 282.378906 L 128.089844 282.378906 C 128.136719 284.582031 129.941406 286.355469 132.15625 286.355469 L 146.945312 286.355469 L 146.945312 335.929688 L 141.769531 335.929688 C 141.566406 335.929688 141.40625 336.09375 141.40625 336.292969 C 141.40625 336.496094 141.566406 336.65625 141.769531 336.65625 L 155.9375 336.65625 C 156.140625 336.65625 156.304688 336.496094 156.304688 336.292969 C 156.304688 336.09375 156.140625 335.929688 155.9375 335.929688 L 150.761719 335.929688 L 150.761719 286.355469 L 154.019531 286.355469 C 154.890625 286.925781 155.652344 287.230469 156.261719 287.230469 C 156.390625 287.230469 156.511719 287.214844 156.625 287.191406 C 156.960938 287.113281 157.386719 286.890625 157.621094 286.28125 C 158.042969 286.617188 158.453125 286.910156 158.832031 287.125 C 159.433594 287.46875 159.960938 287.640625 160.417969 287.640625 C 160.683594 287.640625 160.921875 287.582031 161.132812 287.464844 C 161.511719 287.253906 161.714844 286.902344 161.828125 286.589844 C 161.832031 286.597656 161.839844 286.605469 161.84375 286.617188 C 162.171875 287.078125 162.71875 287.328125 163.265625 287.328125 C 163.589844 287.328125 163.917969 287.238281 164.199219 287.050781 C 164.4375 286.890625 164.632812 286.652344 164.757812 286.355469 L 165.554688 286.355469 C 166.042969 286.355469 166.511719 286.269531 166.960938 286.101562 C 166.597656 295.445312 165.578125 310.820312 164.902344 320.164062 C 164.902344 320.175781 164.90625 320.191406 164.90625 320.203125 C 164.90625 320.210938 164.90625 320.210938 164.902344 320.21875 L 163.273438 334.144531 C 163.273438 335.53125 164.402344 336.660156 165.792969 336.660156 L 216.109375 336.660156 C 217.359375 336.660156 218.390625 335.644531 218.410156 334.394531 C 218.425781 333.511719 218.382812 332.683594 218.273438 331.9375 C 217.960938 329.742188 203.496094 324.679688 199.847656 323.4375 L 199.847656 320.550781 L 202.59375 320.550781 C 202.785156 320.550781 202.941406 320.40625 202.957031 320.214844 C 203.085938 318.417969 206.082031 276.113281 203.027344 267.839844 C 202.457031 266.304688 201.417969 264.675781 199.941406 263.003906 C 199.914062 262.972656 199.878906 262.953125 199.847656 262.933594 L 199.847656 249.3125 L 255.589844 249.3125 C 250.390625 251.472656 233.386719 259.113281 230.175781 267.839844 C 226.488281 277.871094 229.015625 318.488281 229.125 320.210938 C 229.136719 320.402344 229.296875 320.550781 229.488281 320.550781 L 229.820312 320.550781 L 229.753906 323.835938 C 228.492188 324.613281 221.078125 329.253906 219.484375 331.90625 C 218.925781 332.835938 218.929688 333.769531 219.027344 334.390625 C 219.222656 335.605469 220.375 336.632812 221.546875 336.632812 L 255.21875 336.632812 C 256.570312 336.632812 257.671875 335.535156 257.671875 334.179688 L 257.441406 320.550781 L 259.269531 320.550781 C 259.453125 320.550781 259.609375 320.414062 259.632812 320.230469 C 259.664062 319.953125 262.359375 296.335938 263.699219 284.359375 C 264.417969 285.578125 265.71875 286.355469 267.191406 286.355469 L 281.980469 286.355469 L 281.980469 335.929688 L 276.804688 335.929688 C 276.601562 335.929688 276.441406 336.09375 276.441406 336.292969 C 276.441406 336.496094 276.601562 336.65625 276.804688 336.65625 L 290.972656 336.65625 C 291.175781 336.65625 291.339844 336.496094 291.339844 336.292969 C 291.339844 336.09375 291.175781 335.929688 290.972656 335.929688 L 285.796875 335.929688 L 285.796875 286.355469 L 300.589844 286.355469 C 302.800781 286.355469 304.605469 284.582031 304.652344 282.378906 L 305.296875 282.378906 C 307.539062 282.378906 309.367188 280.558594 309.367188 278.316406 L 309.367188 272.558594 C 309.367188 270.316406 307.539062 268.496094 305.296875 268.496094 L 299.664062 268.496094 C 300.007812 268.269531 300.308594 268.042969 300.546875 267.824219 C 305.21875 263.546875 304.035156 251.445312 303.789062 249.3125 L 319.074219 249.3125 L 319.074219 336.292969 C 319.074219 336.496094 319.238281 336.65625 319.4375 336.65625 L 322.046875 336.65625 C 322.25 336.65625 322.410156 336.496094 322.410156 336.292969 L 322.410156 249.3125 L 325.410156 249.3125 C 326.113281 249.3125 326.6875 248.742188 326.6875 248.039062 L 326.6875 245.921875 L 329.070312 245.921875 C 329.75 245.921875 330.300781 245.371094 330.300781 244.691406 L 330.300781 239.847656 C 330.300781 239.167969 329.75 238.613281 329.070312 238.613281 Z M 321.683594 335.929688 L 319.804688 335.929688 L 319.804688 249.347656 L 321.683594 249.347656 Z M 302.089844 194.1875 C 306.097656 196.316406 312.558594 213.429688 313.242188 223.722656 C 313.6875 230.449219 311.796875 235.707031 307.921875 238.527344 C 307.886719 238.550781 307.863281 238.582031 307.839844 238.613281 L 288.210938 238.613281 C 279.039062 235.890625 275.3125 234.515625 274.277344 234.113281 L 279.257812 220.503906 L 291.011719 223.703125 C 291.121094 223.734375 291.238281 223.710938 291.328125 223.644531 C 291.417969 223.574219 291.472656 223.46875 291.472656 223.351562 C 291.472656 223.125 291.523438 200.765625 295.699219 191.980469 C 297.546875 192.445312 299.003906 192.9375 299.023438 192.941406 C 300.25 193.335938 301.28125 193.753906 302.089844 194.1875 Z M 251.457031 238.324219 L 251.828125 233.96875 L 260.34375 232.859375 C 260.316406 235.855469 260.3125 238.035156 260.3125 238.613281 L 251.257812 238.613281 C 251.367188 238.558594 251.445312 238.453125 251.457031 238.324219 Z M 261.070312 232.761719 L 269.550781 231.65625 C 269.484375 236.214844 269.472656 238.105469 269.472656 238.613281 L 261.039062 238.613281 C 261.042969 238.03125 261.046875 235.808594 261.070312 232.761719 Z M 270.28125 231.558594 L 271.363281 231.417969 C 271.5625 231.390625 271.703125 231.207031 271.675781 231.007812 L 271.550781 230.050781 C 272.832031 230.867188 274.175781 231.382812 274.460938 231.488281 L 273.472656 234.195312 C 273.40625 234.375 273.492188 234.578125 273.671875 234.652344 C 273.785156 234.703125 276.417969 235.816406 285.671875 238.613281 L 270.203125 238.613281 C 270.203125 238.101562 270.214844 236.191406 270.28125 231.558594 Z M 258.96875 220.09375 C 258.980469 220.082031 258.984375 220.070312 258.992188 220.058594 C 261.800781 221.121094 265.546875 221.886719 265.746094 221.925781 C 265.773438 221.933594 265.796875 221.933594 265.820312 221.933594 C 265.988281 221.933594 266.140625 221.816406 266.175781 221.640625 C 266.214844 221.445312 266.089844 221.253906 265.890625 221.214844 C 265.828125 221.199219 259.683594 219.953125 257.332031 218.488281 C 256.644531 218.058594 256.28125 217.632812 256.285156 217.253906 C 256.289062 216.859375 256.703125 216.523438 256.863281 216.429688 C 256.898438 216.40625 256.925781 216.378906 256.953125 216.347656 C 262.148438 217.101562 266.40625 218.558594 266.453125 218.574219 C 266.492188 218.589844 266.53125 218.59375 266.570312 218.59375 C 266.722656 218.59375 266.863281 218.5 266.914062 218.351562 C 266.980469 218.160156 266.878906 217.953125 266.6875 217.886719 C 266.640625 217.871094 261.769531 216.203125 256.054688 215.488281 C 255.492188 215.421875 255.148438 214.871094 255.191406 214.417969 C 255.253906 213.765625 256.046875 213.40625 257.246094 213.488281 C 263.742188 213.917969 267.582031 215.886719 267.621094 215.910156 C 267.796875 216 268.015625 215.933594 268.109375 215.753906 C 268.203125 215.578125 268.136719 215.355469 267.957031 215.265625 C 267.800781 215.183594 264.195312 213.335938 257.933594 212.816406 C 257.90625 212.804688 257.882812 212.792969 257.855469 212.789062 C 256.929688 212.664062 256.472656 212.308594 256.496094 212.023438 C 256.539062 211.570312 257.589844 210.949219 259.757812 211.050781 C 263.257812 211.210938 267.65625 212.402344 269.890625 213.460938 C 272.589844 214.738281 274.332031 216.597656 275.875 218.234375 C 276.675781 219.089844 277.4375 219.898438 278.265625 220.566406 C 278.316406 220.609375 278.375 220.628906 278.433594 220.636719 L 274.714844 230.804688 C 274.382812 230.679688 272.300781 229.875 270.933594 228.695312 C 269.074219 227.097656 267.371094 224.589844 267.355469 224.5625 C 267.300781 224.480469 267.214844 224.425781 267.117188 224.410156 C 261.660156 223.417969 258.925781 221.925781 258.636719 220.882812 C 258.589844 220.710938 258.574219 220.4375 258.96875 220.09375 Z M 274.753906 191.605469 C 275.476562 191.460938 276.15625 191.339844 276.765625 191.234375 C 276.953125 192.191406 278 195.808594 283.214844 195.808594 C 289.414062 195.808594 291.839844 192.117188 292.414062 191.046875 L 294.988281 191.785156 C 291.082031 200.167969 290.769531 219.503906 290.746094 222.878906 L 279.125 219.714844 C 278.941406 219.664062 278.753906 219.761719 278.6875 219.9375 L 278.679688 219.964844 C 277.90625 219.332031 277.175781 218.558594 276.402344 217.738281 C 274.929688 216.164062 273.257812 214.40625 270.75 213.085938 C 271.21875 205.984375 272.285156 196.589844 274.726562 191.71875 C 274.742188 191.679688 274.75 191.640625 274.753906 191.605469 Z M 273.167969 159.394531 C 275.539062 156.960938 277.757812 155.253906 284.738281 155.472656 C 293.089844 155.730469 297.5 159.804688 297.5 167.257812 C 297.5 176.808594 297.277344 179.703125 297.183594 180.492188 L 285.671875 180.53125 L 285.671875 178.140625 C 287.785156 178.554688 289.632812 177.988281 290.675781 176.585938 C 291.6875 175.222656 291.734375 173.351562 290.792969 171.816406 C 289.488281 169.683594 286.898438 170.101562 285.460938 170.710938 C 284.355469 168.621094 284.800781 166.574219 284.804688 166.554688 C 284.832031 166.445312 284.804688 166.332031 284.734375 166.246094 C 284.667969 166.160156 284.5625 166.109375 284.449219 166.109375 L 270.847656 166.109375 C 270.96875 163.558594 271.539062 161.0625 273.167969 159.394531 Z M 279.617188 190.8125 C 279.804688 190.789062 279.941406 190.632812 279.941406 190.449219 L 279.941406 183.691406 C 279.941406 183.585938 279.890625 183.480469 279.808594 183.414062 C 279.726562 183.34375 279.613281 183.316406 279.507812 183.335938 C 277.441406 183.726562 273.925781 184 273.304688 183.070312 C 271.996094 181.109375 271.265625 179.160156 271.070312 177.113281 C 271.058594 176.988281 270.980469 176.875 270.863281 176.820312 C 270.089844 176.449219 268.980469 175.667969 269.054688 175.179688 C 269.15625 174.539062 270.316406 173.113281 271.023438 172.363281 C 271.097656 172.285156 271.132812 172.183594 271.121094 172.078125 C 270.972656 170.542969 270.796875 168.695312 270.828125 166.835938 L 284.023438 166.835938 C 283.929688 167.664062 283.882812 169.515625 284.996094 171.371094 C 285.09375 171.535156 285.300781 171.59375 285.472656 171.507812 C 285.605469 171.441406 288.761719 169.894531 290.171875 172.195312 C 290.957031 173.476562 290.925781 175.03125 290.09375 176.152344 C 289.144531 177.429688 287.433594 177.859375 285.402344 177.332031 C 285.289062 177.300781 285.175781 177.328125 285.085938 177.394531 C 284.996094 177.464844 284.945312 177.570312 284.945312 177.683594 L 284.945312 180.898438 C 284.945312 180.996094 284.984375 181.085938 285.050781 181.15625 C 285.121094 181.222656 285.226562 181.265625 285.308594 181.261719 L 289.542969 181.246094 L 289.542969 189.945312 C 289.542969 190.105469 289.648438 190.25 289.804688 190.292969 L 291.699219 190.839844 C 291.085938 191.917969 288.824219 195.078125 283.214844 195.078125 C 278.476562 195.078125 277.621094 191.910156 277.480469 191.117188 C 278.753906 190.914062 279.59375 190.8125 279.617188 190.8125 Z M 266.332031 194.1875 C 268.320312 193.128906 271.273438 192.332031 273.894531 191.78125 C 271.566406 196.777344 270.515625 205.777344 270.046875 212.730469 C 269.796875 212.617188 269.527344 212.5 269.238281 212.386719 L 267.117188 196.21875 C 267.089844 196.019531 266.902344 195.875 266.710938 195.902344 L 263.742188 196.292969 C 264.632812 195.222656 265.433594 194.664062 266.332031 194.1875 Z M 240.496094 200.066406 L 266.441406 196.671875 L 268.464844 212.097656 C 266.0625 211.246094 262.714844 210.457031 259.792969 210.324219 C 257.132812 210.191406 255.851562 211.054688 255.769531 211.957031 C 255.746094 212.234375 255.847656 212.546875 256.117188 212.824219 C 255.007812 213.035156 254.527344 213.695312 254.464844 214.347656 C 254.382812 215.246094 255.066406 216.101562 255.964844 216.210938 C 255.976562 216.214844 255.988281 216.214844 255.996094 216.214844 C 255.773438 216.460938 255.5625 216.808594 255.554688 217.238281 C 255.546875 217.898438 256.015625 218.523438 256.945312 219.105469 C 257.3125 219.332031 257.769531 219.554688 258.265625 219.769531 C 257.839844 220.261719 257.84375 220.742188 257.933594 221.078125 C 258.371094 222.648438 261.695312 224.148438 266.835938 225.097656 C 267.214844 225.640625 268.746094 227.773438 270.457031 229.25 C 270.546875 229.328125 270.644531 229.40625 270.742188 229.480469 L 270.90625 230.742188 L 251.890625 233.226562 L 254.023438 208.175781 C 254.0625 207.722656 253.90625 207.273438 253.601562 206.9375 C 253.292969 206.601562 252.855469 206.410156 252.398438 206.410156 L 241.347656 206.410156 Z M 167.152344 172.746094 C 167.230469 173.234375 166.117188 174.015625 165.34375 174.386719 C 165.226562 174.445312 165.152344 174.554688 165.136719 174.683594 C 164.941406 176.726562 164.210938 178.675781 162.902344 180.636719 C 162.28125 181.566406 158.765625 181.292969 156.699219 180.902344 C 156.589844 180.882812 156.480469 180.910156 156.398438 180.980469 C 156.316406 181.050781 156.265625 181.152344 156.265625 181.261719 L 156.269531 188.070312 C 156.273438 188.101562 156.6875 190.914062 155.320312 192.5 C 154.699219 193.222656 153.785156 193.589844 152.605469 193.589844 C 148.234375 193.589844 144.265625 188.421875 143.707031 187.667969 L 143.707031 180.785156 C 144.539062 180.9375 145.402344 181.074219 146.347656 181.019531 C 147.996094 180.929688 149.972656 180.042969 150.011719 176.324219 L 150.011719 173.109375 C 150.011719 172.996094 149.960938 172.890625 149.871094 172.820312 C 149.78125 172.753906 149.664062 172.726562 149.554688 172.757812 C 147.523438 173.285156 145.8125 172.855469 144.863281 171.574219 C 144.03125 170.457031 144 168.902344 144.785156 167.621094 C 146.195312 165.320312 149.351562 166.867188 149.484375 166.933594 C 149.601562 166.992188 149.746094 166.984375 149.855469 166.910156 C 149.964844 166.832031 150.023438 166.703125 150.011719 166.574219 C 149.726562 163.804688 150.800781 162.113281 150.824219 162.074219 C 150.828125 162.070312 151.242188 161.363281 151.960938 161.25 C 152.503906 161.164062 153.113281 161.417969 153.769531 162.011719 C 156.105469 164.136719 158.058594 164.425781 160.507812 163.019531 C 161.472656 162.464844 162.019531 162.597656 162.652344 162.75 C 163.304688 162.910156 164.03125 163.085938 165.148438 162.542969 C 165.296875 164.726562 165.277344 167.660156 165.085938 169.644531 C 165.074219 169.75 165.113281 169.851562 165.183594 169.929688 C 165.890625 170.679688 167.050781 172.109375 167.152344 172.746094 Z M 139.726562 180.121094 C 138.6875 180.601562 137.042969 180.835938 135.699219 180.277344 C 134.859375 179.925781 134.28125 179.320312 133.976562 178.480469 C 133.628906 177.507812 134.046875 176.15625 134.453125 174.847656 C 135.078125 172.820312 135.789062 170.523438 133.605469 169.308594 C 132.21875 168.53125 131.21875 167.082031 130.9375 165.425781 C 130.6875 163.960938 131.046875 162.554688 131.917969 161.574219 C 132.527344 160.886719 133.035156 160.425781 133.445312 160.054688 C 134.496094 159.105469 135.078125 158.585938 135.4375 156.179688 C 135.933594 152.847656 136.859375 149.273438 141.613281 149.019531 C 144.507812 148.863281 145.695312 147.917969 146.742188 147.085938 C 147.582031 146.421875 148.371094 145.792969 150.011719 145.589844 C 150.398438 145.539062 150.75 145.519531 151.066406 145.519531 C 152.796875 145.519531 153.511719 146.191406 154.261719 146.898438 C 155.101562 147.6875 155.960938 148.503906 158.078125 148.402344 C 162.167969 148.199219 163.332031 148.710938 165.367188 149.796875 C 166.972656 150.652344 168.199219 153.113281 168.28125 155.652344 C 168.332031 157.160156 168.007812 159.945312 165.28125 161.640625 C 164.121094 162.359375 163.523438 162.214844 162.828125 162.042969 C 162.140625 161.878906 161.359375 161.6875 160.144531 162.386719 C 157.964844 163.640625 156.371094 163.390625 154.257812 161.472656 C 153.429688 160.722656 152.617188 160.40625 151.84375 160.53125 C 150.769531 160.703125 150.210938 161.679688 150.199219 161.699219 C 150.152344 161.769531 149.132812 163.363281 149.242188 166.035156 C 147.773438 165.488281 145.394531 165.230469 144.164062 167.242188 C 143.222656 168.777344 143.269531 170.648438 144.277344 172.011719 C 145.324219 173.414062 147.167969 173.980469 149.285156 173.566406 L 149.285156 176.320312 C 149.253906 178.886719 148.28125 180.183594 146.308594 180.292969 C 145.34375 180.347656 144.4375 180.179688 143.558594 180.019531 C 142.226562 179.777344 140.96875 179.546875 139.726562 180.121094 Z M 124.105469 278.316406 L 124.105469 272.558594 C 124.105469 270.71875 125.605469 269.222656 127.445312 269.222656 L 130.378906 269.222656 C 133.917969 273.414062 136.832031 276.710938 137.136719 277.050781 C 137.207031 277.128906 137.308594 277.171875 137.410156 277.171875 C 137.488281 277.171875 137.566406 277.148438 137.632812 277.09375 L 138.53125 276.386719 C 138.6875 276.542969 141.527344 279.3125 143.480469 280.058594 C 145.589844 280.863281 148.195312 281.195312 148.855469 281.269531 C 148.960938 281.402344 149.066406 281.527344 149.171875 281.652344 L 127.445312 281.652344 C 125.605469 281.652344 124.105469 280.15625 124.105469 278.316406 Z M 150.035156 335.929688 L 147.675781 335.929688 L 147.675781 286.355469 L 150.035156 286.355469 Z M 132.15625 285.628906 C 130.34375 285.628906 128.871094 284.179688 128.824219 282.378906 L 149.78125 282.378906 C 150.941406 283.726562 152.042969 284.824219 153.035156 285.628906 Z M 163.792969 286.445312 C 163.417969 286.695312 162.769531 286.65625 162.4375 286.195312 C 159.101562 281.507812 155.320312 278.015625 155.28125 277.980469 C 155.132812 277.847656 154.902344 277.855469 154.765625 278.003906 C 154.632812 278.152344 154.640625 278.378906 154.789062 278.515625 C 154.824219 278.550781 158.128906 281.601562 161.257812 285.8125 C 161.246094 285.851562 161.230469 285.886719 161.230469 285.929688 C 161.222656 286.113281 161.125 286.640625 160.777344 286.828125 C 160.445312 287.011719 159.898438 286.898438 159.191406 286.492188 C 156.789062 285.121094 152.769531 280.308594 152.730469 280.261719 C 152.601562 280.105469 152.371094 280.085938 152.214844 280.214844 C 152.0625 280.34375 152.039062 280.570312 152.167969 280.726562 C 152.300781 280.882812 154.75 283.816406 157.019531 285.777344 C 157.011719 285.792969 157.003906 285.800781 157 285.816406 C 156.882812 286.328125 156.636719 286.441406 156.460938 286.480469 C 156.027344 286.582031 155.328125 286.347656 154.414062 285.742188 C 154.375 285.703125 154.332031 285.671875 154.277344 285.652344 C 152.988281 284.765625 151.296875 283.15625 149.332031 280.699219 C 149.269531 280.621094 149.179688 280.574219 149.082031 280.5625 C 149.050781 280.558594 146.035156 280.253906 143.742188 279.378906 C 142.074219 278.742188 139.550781 276.359375 139.109375 275.933594 L 147.699219 269.175781 C 148.609375 269.535156 149.585938 269.796875 150.621094 270.070312 C 152.25 270.503906 154.046875 270.980469 155.855469 271.9375 C 155.878906 272.054688 155.949219 272.160156 156.070312 272.210938 C 156.347656 272.324219 156.636719 272.445312 156.933594 272.570312 C 157.179688 272.730469 157.421875 272.890625 157.667969 273.066406 C 159.660156 274.527344 162.796875 277.832031 164.597656 280.832031 C 165.707031 282.679688 165.664062 283.910156 165.285156 284.160156 C 165.046875 284.320312 164.515625 284.085938 163.964844 283.328125 C 163.949219 283.304688 163.925781 283.289062 163.902344 283.273438 C 160.476562 278.015625 157.136719 275.71875 156.992188 275.621094 C 156.828125 275.507812 156.601562 275.554688 156.488281 275.71875 C 156.375 275.886719 156.417969 276.113281 156.585938 276.226562 C 156.621094 276.25 160.175781 278.691406 163.636719 284.195312 C 164.277344 285.21875 164.339844 286.078125 163.792969 286.445312 Z M 167.089844 281.652344 L 165.824219 281.652344 C 165.667969 281.28125 165.480469 280.886719 165.222656 280.457031 C 163.75 278.003906 161.53125 275.492188 159.664062 273.785156 C 163.160156 275.40625 166.75 277.335938 166.972656 278.273438 C 167.082031 278.679688 167.113281 279.882812 167.089844 281.652344 Z M 165.554688 285.628906 L 164.882812 285.628906 C 164.878906 285.398438 164.84375 285.152344 164.757812 284.878906 C 164.886719 284.914062 165.007812 284.933594 165.121094 284.933594 C 165.339844 284.933594 165.535156 284.871094 165.6875 284.769531 C 166.207031 284.425781 166.425781 283.597656 166.082031 282.378906 L 167.078125 282.378906 C 167.058594 283.25 167.03125 284.226562 166.992188 285.300781 C 166.542969 285.515625 166.058594 285.628906 165.554688 285.628906 Z M 167.679688 278.09375 C 167.257812 276.335938 160.207031 273.171875 157.285156 271.929688 C 155.039062 270.496094 152.804688 269.898438 150.808594 269.367188 C 149.949219 269.140625 149.128906 268.921875 148.367188 268.652344 L 148.613281 268.460938 C 148.753906 268.347656 148.792969 268.152344 148.707031 267.996094 L 136.097656 245.089844 L 167.871094 244.484375 L 175.847656 247.945312 C 175.972656 248.003906 188.609375 253.628906 196.511719 260.625 L 196.511719 319.824219 L 187.027344 319.824219 L 188.097656 283.054688 C 188.648438 276.960938 188.714844 271.9375 187.832031 269.816406 C 184.707031 262.285156 165.191406 251.84375 164.363281 251.402344 C 164.1875 251.308594 163.964844 251.375 163.871094 251.554688 C 163.773438 251.730469 163.84375 251.953125 164.019531 252.046875 C 164.222656 252.152344 184.132812 262.804688 187.160156 270.09375 C 187.929688 271.945312 187.925781 276.214844 187.496094 281.519531 C 187.445312 281.578125 187.410156 281.648438 187.40625 281.730469 L 187.371094 282.984375 C 186.082031 297.066406 182.210938 317.15625 181.691406 319.824219 L 165.65625 319.824219 C 165.96875 315.5 168.425781 280.867188 167.679688 278.09375 Z M 199.117188 321.195312 C 199.085938 321.25 199.066406 321.304688 199.066406 321.371094 L 199.066406 323.679688 C 199.066406 323.742188 199.089844 323.792969 199.117188 323.84375 L 199.117188 335.929688 L 197.238281 335.929688 L 197.238281 249.347656 L 199.117188 249.347656 Z M 194.5 331.9375 C 194.375 331.070312 192.15625 329.757812 189.308594 328.410156 L 193.207031 328.410156 L 196.015625 329.867188 C 196.070312 329.894531 196.125 329.910156 196.183594 329.910156 C 196.273438 329.910156 196.363281 329.878906 196.429688 329.816406 C 196.472656 329.777344 196.492188 329.726562 196.511719 329.675781 L 196.511719 335.929688 L 194.015625 335.929688 C 194.390625 335.53125 194.625 334.996094 194.636719 334.394531 C 194.652344 333.511719 194.605469 332.6875 194.5 331.9375 Z M 177.335938 320.550781 L 181.992188 320.550781 C 182.164062 320.550781 182.316406 320.429688 182.347656 320.261719 C 182.550781 319.242188 185.363281 304.976562 187.117188 291.714844 L 186.285156 320.179688 C 186.285156 320.277344 186.320312 320.371094 186.390625 320.441406 C 186.457031 320.511719 186.550781 320.554688 186.652344 320.554688 L 187.132812 320.554688 L 187.132812 327.421875 C 183.167969 325.691406 178.742188 324.066406 176.984375 323.4375 Z M 196.511719 329.382812 L 195.476562 326.878906 L 196.511719 326.15625 Z M 196.511719 325.269531 L 194.820312 326.449219 C 194.679688 326.546875 194.628906 326.726562 194.691406 326.886719 L 195.46875 328.761719 L 193.464844 327.722656 C 193.414062 327.695312 193.355469 327.679688 193.296875 327.679688 L 188.011719 327.679688 C 187.957031 327.679688 187.90625 327.695312 187.863281 327.714844 L 187.863281 320.550781 L 196.511719 320.550781 Z M 165.597656 320.550781 L 176.601562 320.550781 L 176.25 323.457031 L 171.070312 326.429688 C 170.914062 326.523438 170.847656 326.71875 170.917969 326.886719 L 171.691406 328.761719 L 169.6875 327.722656 C 169.636719 327.695312 169.578125 327.679688 169.519531 327.679688 L 164.761719 327.679688 Z M 189.566406 335.929688 L 165.792969 335.929688 C 164.804688 335.929688 164.003906 335.128906 164 334.1875 L 164.679688 328.410156 L 169.433594 328.410156 L 172.242188 329.867188 C 172.292969 329.894531 172.351562 329.910156 172.410156 329.910156 C 172.496094 329.910156 172.585938 329.878906 172.65625 329.816406 C 172.769531 329.710938 172.804688 329.546875 172.746094 329.40625 L 171.710938 326.902344 L 176.625 324.078125 C 184.949219 327.058594 193.605469 330.835938 193.777344 332.039062 C 193.878906 332.75 193.921875 333.539062 193.910156 334.382812 C 193.894531 335.25 193.203125 335.929688 192.335938 335.929688 Z M 217.554688 332.039062 C 217.65625 332.746094 217.699219 333.535156 217.683594 334.382812 C 217.667969 335.25 216.976562 335.929688 216.109375 335.929688 L 199.847656 335.929688 L 199.847656 324.207031 C 208.511719 327.167969 217.382812 330.855469 217.554688 332.039062 Z M 202.34375 268.09375 C 205.203125 275.835938 202.539062 315.71875 202.253906 319.824219 L 199.847656 319.824219 L 199.847656 264.015625 C 201.027344 265.433594 201.867188 266.800781 202.34375 268.09375 Z M 196.511719 259.664062 C 188.507812 252.785156 176.265625 247.335938 176.140625 247.28125 L 168.304688 243.878906 L 168.304688 231.605469 C 169.351562 234.398438 171.339844 239.28125 172.859375 240.496094 C 174.828125 242.066406 186.640625 244.496094 188.640625 244.902344 C 188.742188 245.480469 189.246094 245.921875 189.851562 245.921875 L 192.234375 245.921875 L 192.234375 248.039062 C 192.234375 248.742188 192.808594 249.3125 193.511719 249.3125 L 196.511719 249.3125 Z M 230.304688 324.351562 C 230.410156 324.285156 230.476562 324.171875 230.480469 324.046875 L 230.550781 320.550781 L 242.089844 320.550781 L 242.042969 324.726562 C 240.011719 326.035156 236.535156 328.382812 234.496094 330.363281 C 233.769531 328.511719 232.621094 327.277344 231.070312 326.695312 C 229.644531 326.164062 228.136719 326.277344 226.90625 326.554688 C 228.761719 325.292969 230.269531 324.375 230.304688 324.351562 Z M 243.445312 323.839844 C 243.300781 323.929688 243.066406 324.074219 242.777344 324.257812 L 242.820312 320.554688 L 243.429688 320.554688 C 243.425781 320.574219 243.417969 320.59375 243.417969 320.617188 Z M 219.746094 334.277344 C 219.667969 333.777344 219.664062 333.023438 220.109375 332.28125 C 220.792969 331.140625 222.714844 329.554688 224.703125 328.097656 C 224.910156 327.992188 228.128906 326.375 230.816406 327.378906 C 232.183594 327.890625 233.203125 329.007812 233.847656 330.695312 C 233.875 330.773438 233.929688 330.832031 233.996094 330.871094 C 233.65625 331.238281 233.378906 331.585938 233.183594 331.90625 C 232.625 332.839844 232.628906 333.769531 232.726562 334.390625 C 232.820312 334.96875 233.136719 335.503906 233.5625 335.90625 L 221.546875 335.90625 C 220.726562 335.90625 219.886719 335.144531 219.746094 334.277344 Z M 255.222656 335.90625 L 235.246094 335.90625 C 234.425781 335.90625 233.585938 335.144531 233.449219 334.277344 C 233.367188 333.777344 233.363281 333.023438 233.808594 332.28125 C 234.488281 331.15625 236.371094 329.589844 238.339844 328.144531 C 238.398438 328.148438 238.460938 328.140625 238.519531 328.109375 C 238.550781 328.089844 241.886719 326.347656 244.652344 327.378906 C 246.015625 327.890625 247.035156 329.007812 247.679688 330.695312 C 247.734375 330.835938 247.871094 330.929688 248.019531 330.929688 L 256.886719 330.929688 L 256.941406 334.1875 C 256.941406 335.132812 256.171875 335.90625 255.222656 335.90625 Z M 256.875 330.203125 L 248.269531 330.203125 C 247.539062 328.4375 246.410156 327.257812 244.902344 326.695312 C 243.402344 326.136719 241.800781 326.289062 240.535156 326.601562 C 242.421875 325.316406 243.96875 324.375 244.003906 324.351562 C 244.113281 324.285156 244.179688 324.164062 244.179688 324.039062 L 244.148438 320.609375 C 244.148438 320.589844 244.136719 320.570312 244.136719 320.550781 L 256.710938 320.550781 Z M 285.070312 335.929688 L 282.710938 335.929688 L 282.710938 286.355469 L 285.070312 286.355469 Z M 300.589844 285.628906 L 267.191406 285.628906 C 265.707031 285.628906 264.421875 284.675781 263.992188 283.261719 C 263.96875 283.175781 263.910156 283.113281 263.839844 283.066406 C 263.867188 282.832031 263.894531 282.605469 263.917969 282.378906 L 303.921875 282.378906 C 303.871094 284.179688 302.398438 285.628906 300.589844 285.628906 Z M 305.296875 269.222656 C 307.140625 269.222656 308.636719 270.71875 308.636719 272.558594 L 308.636719 278.316406 C 308.636719 280.15625 307.140625 281.652344 305.296875 281.652344 L 264 281.652344 C 264.082031 280.90625 264.15625 280.242188 264.214844 279.679688 C 264.316406 278.761719 264.996094 278.027344 265.902344 277.851562 C 282.621094 274.621094 293.515625 271.726562 298.398438 269.222656 Z M 325.957031 248.039062 C 325.957031 248.339844 325.710938 248.585938 325.410156 248.585938 L 193.511719 248.585938 C 193.210938 248.585938 192.964844 248.339844 192.964844 248.039062 L 192.964844 245.921875 L 325.957031 245.921875 Z M 329.574219 244.691406 C 329.574219 244.96875 329.347656 245.195312 329.070312 245.195312 L 189.851562 245.195312 C 189.574219 245.195312 189.347656 244.96875 189.347656 244.691406 L 189.347656 239.847656 C 189.347656 239.570312 189.574219 239.34375 189.851562 239.34375 L 329.070312 239.34375 C 329.347656 239.34375 329.574219 239.570312 329.574219 239.847656 Z M 275.117188 177.175781 C 274.628906 177.308594 274.242188 177.6875 274.039062 178.246094 C 273.847656 178.757812 273.835938 179.371094 273.996094 179.964844 C 274.160156 180.5625 274.484375 181.078125 274.910156 181.421875 C 275.253906 181.703125 275.632812 181.847656 276.003906 181.847656 C 276.132812 181.847656 276.261719 181.828125 276.386719 181.792969 C 277.355469 181.527344 277.859375 180.277344 277.507812 179.003906 C 277.15625 177.730469 276.085938 176.90625 275.117188 177.175781 Z M 276.195312 181.09375 C 275.9375 181.164062 275.644531 181.082031 275.371094 180.859375 C 275.0625 180.609375 274.824219 180.222656 274.699219 179.773438 C 274.578125 179.320312 274.585938 178.867188 274.722656 178.496094 C 274.84375 178.167969 275.050781 177.945312 275.3125 177.875 C 275.371094 177.859375 275.433594 177.851562 275.496094 177.851562 C 276.023438 177.851562 276.589844 178.417969 276.804688 179.195312 C 277.042969 180.066406 276.765625 180.9375 276.195312 181.09375 Z M 161.089844 174.742188 C 160.105469 174.472656 159.054688 175.273438 158.699219 176.570312 C 158.34375 177.867188 158.835938 179.089844 159.820312 179.359375 C 159.945312 179.394531 160.074219 179.414062 160.203125 179.414062 C 160.574219 179.414062 160.953125 179.269531 161.296875 178.992188 C 161.722656 178.644531 162.046875 178.128906 162.210938 177.53125 C 162.566406 176.238281 162.074219 175.011719 161.089844 174.742188 Z M 161.507812 177.339844 C 161.382812 177.789062 161.144531 178.175781 160.835938 178.425781 C 160.566406 178.648438 160.269531 178.730469 160.011719 178.660156 C 159.441406 178.503906 159.164062 177.632812 159.402344 176.761719 C 159.617188 175.984375 160.183594 175.417969 160.710938 175.417969 C 160.773438 175.417969 160.835938 175.425781 160.894531 175.441406 C 161.464844 175.597656 161.746094 176.46875 161.507812 177.339844 Z M 264.757812 118.957031 L 199.984375 118.957031 C 197.210938 118.957031 194.957031 121.210938 194.957031 123.984375 L 194.957031 135.769531 C 194.957031 138.539062 197.210938 140.792969 199.984375 140.792969 L 252.167969 140.792969 L 257.484375 153.25 C 257.542969 153.386719 257.679688 153.472656 257.820312 153.472656 C 257.847656 153.472656 257.871094 153.46875 257.894531 153.464844 C 258.0625 153.429688 258.1875 153.28125 258.1875 153.109375 L 258.1875 140.792969 L 264.757812 140.792969 C 267.53125 140.792969 269.789062 138.539062 269.789062 135.769531 L 269.789062 123.984375 C 269.789062 121.210938 267.53125 118.957031 264.757812 118.957031 Z M 269.058594 135.769531 C 269.058594 138.140625 267.128906 140.066406 264.757812 140.066406 L 257.820312 140.066406 C 257.621094 140.066406 257.457031 140.230469 257.457031 140.429688 L 257.457031 151.328125 L 252.742188 140.289062 C 252.683594 140.152344 252.554688 140.066406 252.40625 140.066406 L 199.984375 140.066406 C 197.613281 140.066406 195.683594 138.140625 195.683594 135.769531 L 195.683594 123.984375 C 195.683594 121.613281 197.613281 119.6875 199.984375 119.6875 L 264.757812 119.6875 C 267.128906 119.6875 269.058594 121.613281 269.058594 123.984375 Z M 269.492188 104.128906 C 275.253906 104.128906 279.945312 99.449219 279.945312 93.691406 C 279.945312 87.9375 275.253906 83.253906 269.492188 83.253906 C 263.730469 83.253906 259.042969 87.9375 259.042969 93.691406 C 259.042969 99.449219 263.730469 104.128906 269.492188 104.128906 Z M 269.492188 83.980469 C 274.855469 83.980469 279.214844 88.335938 279.214844 93.691406 C 279.214844 99.046875 274.855469 103.402344 269.492188 103.402344 C 264.132812 103.402344 259.769531 99.046875 259.769531 93.691406 C 259.769531 88.335938 264.132812 83.980469 269.492188 83.980469 Z M 267.800781 100.078125 L 272.890625 87.847656 L 271.667969 87.847656 L 266.574219 100.078125 Z M 266.960938 94.644531 C 268.167969 94.644531 268.816406 93.945312 268.816406 92.6875 L 268.816406 89.632812 C 268.816406 88.371094 268.167969 87.675781 266.960938 87.675781 C 265.753906 87.675781 265.105469 88.371094 265.105469 89.632812 L 265.105469 92.6875 C 265.105469 93.945312 265.753906 94.644531 266.960938 94.644531 Z M 266.332031 89.542969 C 266.332031 89 266.558594 88.773438 266.960938 88.773438 C 267.347656 88.773438 267.589844 89 267.589844 89.542969 L 267.589844 92.777344 C 267.589844 93.316406 267.347656 93.542969 266.960938 93.542969 C 266.558594 93.542969 266.332031 93.316406 266.332031 92.777344 Z M 270.652344 95.238281 L 270.652344 98.296875 C 270.652344 99.554688 271.300781 100.253906 272.507812 100.253906 C 273.714844 100.253906 274.359375 99.554688 274.359375 98.296875 L 274.359375 95.238281 C 274.359375 93.980469 273.714844 93.28125 272.507812 93.28125 C 271.300781 93.28125 270.652344 93.980469 270.652344 95.238281 Z M 273.136719 95.152344 L 273.136719 98.382812 C 273.136719 98.925781 272.890625 99.152344 272.507812 99.152344 C 272.105469 99.152344 271.875 98.925781 271.875 98.382812 L 271.875 95.152344 C 271.875 94.609375 272.105469 94.382812 272.507812 94.382812 C 272.890625 94.382812 273.136719 94.609375 273.136719 95.152344 Z M 142.742188 100.273438 C 138.671875 100.273438 135.484375 102.128906 135.484375 104.492188 C 135.484375 106.859375 138.671875 108.710938 142.742188 108.710938 C 146.8125 108.710938 150.003906 106.859375 150.003906 104.492188 C 150.003906 102.128906 146.8125 100.273438 142.742188 100.273438 Z M 142.742188 107.984375 C 139.203125 107.984375 136.210938 106.386719 136.210938 104.492188 C 136.210938 102.601562 139.203125 101.003906 142.742188 101.003906 C 146.285156 101.003906 149.273438 102.601562 149.273438 104.492188 C 149.273438 106.386719 146.285156 107.984375 142.742188 107.984375 Z M 164.699219 99.269531 L 164.699219 100.230469 L 166.273438 100.230469 L 166.273438 99.269531 C 167.617188 98.957031 168.492188 97.835938 168.492188 96.351562 C 168.492188 94.796875 167.355469 93.714844 166.253906 92.769531 C 165.328125 91.96875 164.503906 91.25 164.503906 90.394531 C 164.503906 89.625 164.871094 89.222656 165.519531 89.222656 C 166.167969 89.222656 166.535156 89.714844 166.535156 90.65625 L 166.535156 91.007812 L 168.320312 90.8125 L 168.320312 90.5 C 168.320312 88.945312 167.566406 87.863281 166.273438 87.5625 L 166.273438 86.601562 L 164.699219 86.601562 L 164.699219 87.5625 C 163.421875 87.878906 162.6875 88.960938 162.6875 90.480469 C 162.6875 92.035156 163.804688 93.136719 164.925781 94.0625 C 165.871094 94.851562 166.675781 95.582031 166.675781 96.441406 C 166.675781 97.15625 166.21875 97.609375 165.484375 97.609375 C 164.75 97.609375 164.296875 97.070312 164.296875 96.175781 L 164.296875 95.722656 L 162.511719 95.914062 L 162.511719 96.351562 C 162.511719 97.820312 163.367188 98.9375 164.699219 99.269531 Z M 165.503906 103.003906 C 170.792969 103.003906 175.097656 98.703125 175.097656 93.417969 C 175.097656 88.132812 170.792969 83.832031 165.503906 83.832031 C 160.210938 83.832031 155.90625 88.132812 155.90625 93.417969 C 155.90625 98.703125 160.210938 103.003906 165.503906 103.003906 Z M 165.503906 84.558594 C 170.390625 84.558594 174.371094 88.535156 174.371094 93.417969 C 174.371094 98.300781 170.390625 102.273438 165.503906 102.273438 C 160.613281 102.273438 156.632812 98.300781 156.632812 93.417969 C 156.632812 88.535156 160.613281 84.558594 165.503906 84.558594 Z M 189.511719 71.148438 L 196.132812 71.148438 C 196.679688 73.5 197.613281 75.742188 198.90625 77.8125 L 194.21875 82.496094 C 194.148438 82.5625 194.109375 82.65625 194.109375 82.75 C 194.109375 82.847656 194.148438 82.941406 194.21875 83.007812 L 200.890625 89.675781 C 201.03125 89.816406 201.261719 89.816406 201.40625 89.675781 L 206.046875 85.039062 C 207.816406 86.628906 210.507812 87.269531 212.765625 87.765625 L 212.765625 94.375 C 212.765625 94.574219 212.929688 94.738281 213.128906 94.738281 L 222.566406 94.738281 C 222.769531 94.738281 222.929688 94.574219 222.929688 94.375 L 222.929688 87.761719 C 225.285156 87.214844 227.527344 86.28125 229.605469 84.992188 L 234.289062 89.675781 C 234.425781 89.808594 234.667969 89.808594 234.804688 89.675781 L 241.480469 83.007812 C 241.621094 82.867188 241.621094 82.636719 241.480469 82.496094 L 236.792969 77.8125 C 238.085938 75.742188 239.015625 73.5 239.566406 71.148438 L 246.183594 71.148438 C 246.386719 71.148438 246.550781 70.984375 246.550781 70.785156 L 246.550781 61.359375 C 246.550781 61.15625 246.386719 60.996094 246.183594 60.996094 L 239.566406 60.996094 C 239.015625 58.644531 238.085938 56.402344 236.792969 54.332031 L 241.480469 49.648438 C 241.621094 49.507812 241.621094 49.277344 241.480469 49.132812 L 234.804688 42.46875 C 234.664062 42.328125 234.433594 42.328125 234.289062 42.46875 L 229.605469 47.152344 C 227.527344 45.859375 225.285156 44.929688 222.929688 44.382812 L 222.929688 37.769531 C 222.929688 37.570312 222.769531 37.40625 222.566406 37.40625 L 213.128906 37.40625 C 212.929688 37.40625 212.765625 37.570312 212.765625 37.769531 L 212.765625 44.382812 C 210.410156 44.929688 208.167969 45.859375 206.09375 47.152344 L 201.40625 42.46875 C 201.261719 42.328125 201.03125 42.328125 200.890625 42.46875 L 194.21875 49.132812 C 194.148438 49.203125 194.109375 49.296875 194.109375 49.390625 C 194.109375 49.488281 194.148438 49.582031 194.21875 49.648438 L 198.90625 54.332031 C 197.613281 56.402344 196.679688 58.640625 196.132812 60.996094 L 189.511719 60.996094 C 189.308594 60.996094 189.148438 61.15625 189.148438 61.359375 L 189.148438 70.785156 C 189.148438 70.984375 189.3125 71.148438 189.511719 71.148438 Z M 189.875 61.722656 L 196.421875 61.722656 C 196.59375 61.722656 196.742188 61.605469 196.777344 61.4375 C 197.320312 58.96875 198.292969 56.628906 199.675781 54.476562 C 199.765625 54.332031 199.746094 54.140625 199.625 54.019531 L 194.988281 49.390625 L 201.148438 43.242188 L 205.785156 47.871094 C 205.90625 47.992188 206.09375 48.011719 206.238281 47.921875 C 208.390625 46.542969 210.738281 45.570312 213.207031 45.027344 C 213.375 44.992188 213.492188 44.84375 213.492188 44.671875 L 213.492188 38.132812 L 222.203125 38.132812 L 222.203125 44.671875 C 222.203125 44.84375 222.320312 44.992188 222.488281 45.027344 C 224.960938 45.570312 227.304688 46.542969 229.460938 47.921875 C 229.605469 48.011719 229.792969 47.992188 229.914062 47.871094 L 234.546875 43.242188 L 240.707031 49.390625 L 236.070312 54.019531 C 235.949219 54.140625 235.929688 54.332031 236.023438 54.476562 C 237.402344 56.628906 238.375 58.96875 238.917969 61.4375 C 238.953125 61.605469 239.101562 61.722656 239.273438 61.722656 L 245.820312 61.722656 L 245.820312 70.421875 L 239.273438 70.421875 C 239.101562 70.421875 238.953125 70.539062 238.917969 70.707031 C 238.375 73.175781 237.402344 75.515625 236.023438 77.667969 C 235.929688 77.8125 235.949219 78 236.070312 78.121094 L 240.707031 82.75 L 234.546875 88.902344 L 229.914062 84.273438 C 229.792969 84.152344 229.605469 84.128906 229.460938 84.222656 C 227.304688 85.601562 224.960938 86.574219 222.488281 87.117188 C 222.320312 87.152344 222.203125 87.300781 222.203125 87.472656 L 222.203125 94.007812 L 213.492188 94.007812 L 213.492188 87.472656 C 213.492188 87.300781 213.375 87.152344 213.207031 87.117188 C 210.753906 86.578125 207.976562 85.96875 206.300781 84.273438 C 206.234375 84.203125 206.148438 84.175781 206.042969 84.164062 C 205.945312 84.164062 205.851562 84.203125 205.785156 84.273438 L 201.148438 88.902344 L 194.988281 82.75 L 199.625 78.121094 C 199.746094 78 199.765625 77.8125 199.675781 77.667969 C 198.292969 75.515625 197.320312 73.175781 196.777344 70.707031 C 196.742188 70.539062 196.59375 70.421875 196.421875 70.421875 L 189.875 70.421875 Z M 217.847656 80.757812 C 225.957031 80.757812 232.550781 74.167969 232.550781 66.070312 C 232.550781 57.972656 225.957031 51.386719 217.847656 51.386719 C 209.742188 51.386719 203.144531 57.972656 203.144531 66.070312 C 203.144531 74.167969 209.742188 80.757812 217.847656 80.757812 Z M 217.847656 52.113281 C 225.554688 52.113281 231.824219 58.375 231.824219 66.070312 C 231.824219 73.769531 225.554688 80.03125 217.847656 80.03125 C 210.140625 80.03125 203.875 73.769531 203.875 66.070312 C 203.875 58.375 210.140625 52.113281 217.847656 52.113281 Z M 212.195312 66.257812 L 217.484375 66.257812 L 217.484375 73.460938 C 217.484375 73.664062 217.648438 73.824219 217.847656 73.824219 C 218.050781 73.824219 218.210938 73.664062 218.210938 73.460938 L 218.210938 66.257812 L 223.5 66.257812 C 223.640625 66.257812 223.769531 66.179688 223.828125 66.050781 C 223.890625 65.925781 223.875 65.777344 223.789062 65.667969 L 218.136719 58.457031 C 217.996094 58.28125 217.699219 58.28125 217.5625 58.457031 L 211.90625 65.667969 C 211.820312 65.777344 211.804688 65.925781 211.867188 66.050781 C 211.929688 66.179688 212.054688 66.257812 212.195312 66.257812 Z M 217.847656 59.273438 L 222.753906 65.527344 L 212.941406 65.527344 Z M 207.992188 127.734375 C 207.976562 127.71875 207.964844 127.699219 207.949219 127.679688 C 206.734375 126.46875 204.761719 126.472656 203.550781 127.679688 C 202.339844 128.890625 202.339844 130.863281 203.550781 132.070312 C 203.550781 132.074219 203.554688 132.074219 203.554688 132.078125 C 203.558594 132.078125 203.558594 132.078125 203.558594 132.078125 C 203.558594 132.082031 203.5625 132.082031 203.566406 132.082031 C 204.167969 132.679688 204.957031 132.980469 205.75 132.980469 C 206.546875 132.980469 207.339844 132.675781 207.949219 132.070312 C 209.140625 130.878906 209.152344 128.953125 207.992188 127.738281 C 207.992188 127.738281 207.992188 127.734375 207.992188 127.734375 Z M 207.433594 131.558594 C 206.589844 132.398438 205.273438 132.46875 204.339844 131.78125 C 205.464844 130.597656 206.988281 129.035156 207.640625 128.449219 C 208.34375 129.378906 208.28125 130.710938 207.433594 131.558594 Z M 218.835938 127.734375 C 218.835938 127.734375 218.832031 127.734375 218.832031 127.734375 C 218.816406 127.71875 218.804688 127.699219 218.789062 127.679688 C 217.578125 126.46875 215.605469 126.46875 214.390625 127.679688 C 213.179688 128.890625 213.179688 130.863281 214.390625 132.070312 C 214.394531 132.074219 214.394531 132.074219 214.398438 132.078125 C 214.402344 132.082031 214.402344 132.082031 214.40625 132.082031 C 215.011719 132.679688 215.800781 132.980469 216.589844 132.980469 C 217.386719 132.980469 218.183594 132.675781 218.789062 132.070312 C 219.984375 130.878906 219.996094 128.953125 218.835938 127.738281 C 218.835938 127.738281 218.835938 127.734375 218.835938 127.734375 Z M 218.273438 131.558594 C 217.429688 132.398438 216.113281 132.46875 215.183594 131.78125 C 216.308594 130.597656 217.828125 129.035156 218.480469 128.449219 C 219.183594 129.378906 219.121094 130.710938 218.273438 131.558594 Z M 225.234375 127.679688 C 224.019531 128.890625 224.019531 130.863281 225.234375 132.070312 C 225.839844 132.675781 226.636719 132.980469 227.433594 132.980469 C 228.226562 132.980469 229.023438 132.675781 229.628906 132.070312 C 230.84375 130.863281 230.84375 128.890625 229.628906 127.679688 C 228.417969 126.46875 226.445312 126.46875 225.234375 127.679688 Z M 229.113281 131.558594 C 228.1875 132.484375 226.675781 132.484375 225.75 131.558594 C 224.820312 130.628906 224.820312 129.121094 225.75 128.195312 C 226.210938 127.730469 226.824219 127.5 227.433594 127.5 C 228.042969 127.5 228.652344 127.730469 229.113281 128.195312 C 230.042969 129.121094 230.042969 130.628906 229.113281 131.558594 Z M 236.074219 127.679688 C 234.863281 128.890625 234.863281 130.863281 236.074219 132.070312 C 236.679688 132.675781 237.476562 132.980469 238.273438 132.980469 C 239.070312 132.980469 239.863281 132.675781 240.472656 132.070312 C 241.683594 130.863281 241.683594 128.890625 240.472656 127.679688 C 239.257812 126.46875 237.289062 126.46875 236.074219 127.679688 Z M 239.957031 131.558594 C 239.027344 132.484375 237.519531 132.484375 236.589844 131.558594 C 235.660156 130.628906 235.660156 129.121094 236.589844 128.195312 C 237.054688 127.730469 237.664062 127.5 238.273438 127.5 C 238.882812 127.5 239.492188 127.730469 239.957031 128.195312 C 240.882812 129.121094 240.882812 130.628906 239.957031 131.558594 Z M 261.839844 126.789062 L 247.695312 126.789062 C 247.019531 126.789062 246.46875 127.335938 246.46875 128.011719 L 246.46875 131.742188 C 246.46875 132.414062 247.019531 132.964844 247.695312 132.964844 L 261.839844 132.964844 C 262.515625 132.964844 263.066406 132.414062 263.066406 131.742188 L 263.066406 128.011719 C 263.066406 127.335938 262.515625 126.789062 261.839844 126.789062 Z M 262.335938 131.742188 C 262.335938 132.015625 262.113281 132.238281 261.839844 132.238281 L 247.695312 132.238281 C 247.421875 132.238281 247.199219 132.015625 247.199219 131.742188 L 247.199219 128.011719 C 247.199219 127.738281 247.421875 127.515625 247.695312 127.515625 L 261.839844 127.515625 C 262.113281 127.515625 262.335938 127.738281 262.335938 128.011719 Z M 122.65625 113.105469 L 162.832031 113.105469 C 163.03125 113.105469 163.195312 112.945312 163.195312 112.742188 L 163.195312 105.585938 C 163.941406 105.726562 164.714844 105.808594 165.503906 105.808594 C 166.398438 105.808594 167.292969 105.710938 168.164062 105.523438 C 173.808594 104.289062 177.910156 99.199219 177.910156 93.417969 C 177.910156 86.585938 172.34375 81.027344 165.503906 81.027344 C 158.660156 81.027344 153.097656 86.585938 153.097656 93.417969 C 153.097656 94.261719 153.183594 95.082031 153.34375 95.878906 L 122.65625 95.878906 C 122.453125 95.878906 122.292969 96.042969 122.292969 96.242188 L 122.292969 112.742188 C 122.292969 112.945312 122.453125 113.105469 122.65625 113.105469 Z M 165.503906 81.753906 C 171.941406 81.753906 177.179688 86.988281 177.179688 93.417969 C 177.179688 98.859375 173.320312 103.652344 168.007812 104.8125 C 167.191406 104.992188 166.347656 105.082031 165.503906 105.082031 C 164.570312 105.082031 163.664062 104.960938 162.796875 104.75 C 162.359375 104.648438 161.929688 104.519531 161.511719 104.363281 C 161.4375 104.335938 161.355469 104.308594 161.28125 104.28125 C 161.066406 104.195312 160.851562 104.105469 160.644531 104.007812 C 160.597656 103.988281 160.554688 103.96875 160.511719 103.945312 C 158.117188 102.804688 156.160156 100.867188 155 98.480469 C 154.992188 98.464844 154.984375 98.445312 154.976562 98.429688 C 154.636719 97.730469 154.371094 96.988281 154.179688 96.222656 C 153.957031 95.320312 153.824219 94.386719 153.824219 93.417969 C 153.824219 86.988281 159.0625 81.753906 165.503906 81.753906 Z M 154.402344 98.917969 C 154.40625 98.921875 154.40625 98.925781 154.410156 98.933594 C 155.621094 101.355469 157.601562 103.324219 160.03125 104.523438 C 160.105469 104.558594 160.175781 104.589844 160.246094 104.625 C 160.886719 104.925781 161.554688 105.171875 162.25 105.363281 C 162.320312 105.382812 162.390625 105.40625 162.464844 105.425781 L 162.464844 108.328125 C 160.273438 108.445312 158.511719 110.191406 158.378906 112.378906 L 127.019531 112.378906 C 126.890625 110.222656 125.171875 108.488281 123.019531 108.332031 L 123.019531 100.601562 C 125.15625 100.445312 126.863281 98.742188 127.019531 96.609375 L 153.523438 96.609375 C 153.53125 96.628906 153.539062 96.648438 153.542969 96.671875 C 153.757812 97.453125 154.046875 98.203125 154.402344 98.917969 Z M 93.847656 135.078125 C 92.75 134.535156 90.542969 133.546875 88.066406 132.988281 C 87.914062 132.953125 87.75 133.023438 87.671875 133.160156 C 87.160156 134.042969 87.46875 135.902344 88.632812 136.980469 C 89.054688 137.367188 89.757812 137.8125 90.777344 137.8125 C 91.613281 137.8125 92.667969 137.515625 93.949219 136.636719 C 94.21875 136.449219 94.367188 136.144531 94.34375 135.816406 C 94.320312 135.496094 94.132812 135.21875 93.847656 135.078125 Z M 93.535156 136.035156 C 91.738281 137.265625 90.175781 137.414062 89.128906 136.445312 C 88.292969 135.671875 88.035156 134.4375 88.207031 133.769531 C 90.488281 134.320312 92.5 135.226562 93.523438 135.730469 C 93.597656 135.765625 93.613281 135.832031 93.617188 135.871094 C 93.617188 135.902344 93.613281 135.980469 93.535156 136.035156 Z M 114.945312 332.96875 C 114.957031 332.15625 114.914062 331.390625 114.816406 330.699219 C 114.515625 328.605469 101.429688 323.980469 96.964844 322.460938 L 98.027344 311.710938 L 104.527344 311.710938 C 104.625 311.710938 104.71875 311.671875 104.789062 311.601562 C 104.855469 311.53125 104.894531 311.4375 104.890625 311.335938 C 103.078125 247.625 100.175781 212.238281 99.832031 208.183594 L 100.613281 208.183594 C 100.816406 208.183594 100.980469 208.019531 100.980469 207.820312 L 100.980469 201.472656 C 100.980469 201.445312 100.96875 201.417969 100.960938 201.390625 C 101.691406 201.089844 102.386719 200.65625 103.035156 200.085938 C 109.730469 194.160156 107.328125 160.035156 102.585938 152.613281 C 101.101562 150.292969 98.589844 148.507812 95.128906 147.304688 L 95.128906 143.402344 C 95.128906 143.203125 94.964844 143.039062 94.765625 143.039062 L 90.515625 143.039062 L 90.515625 141.054688 C 92.054688 141.054688 93.457031 140.851562 93.941406 140.179688 C 95.285156 138.300781 96.46875 135.367188 96.804688 133.117188 C 97.445312 132.808594 99.058594 131.921875 98.925781 130.84375 C 98.808594 129.894531 97.453125 128.238281 96.988281 127.699219 C 97.988281 124.523438 99.046875 118.855469 95.617188 115.101562 C 92.839844 112.066406 88.484375 110.613281 81.902344 110.53125 C 81.789062 110.527344 81.679688 110.527344 81.570312 110.527344 C 66.917969 110.527344 66.425781 123.335938 66.1875 129.515625 C 66.175781 129.898438 66.160156 130.257812 66.144531 130.59375 C 65.730469 139.410156 65.261719 146.273438 63.402344 147.800781 C 60.464844 148.65625 58.125 150.269531 56.445312 152.597656 C 55.390625 154.058594 54.386719 156.6875 53.515625 159.980469 C 52.890625 160.753906 44.410156 171.449219 44.277344 181.40625 C 44.125 192.609375 52.617188 197.179688 52.703125 197.222656 C 52.757812 197.25 52.816406 197.265625 52.875 197.265625 C 52.90625 197.265625 52.933594 197.246094 52.964844 197.238281 C 53.628906 198.640625 54.433594 199.664062 55.378906 200.285156 C 57.023438 201.363281 58.660156 201.894531 60.339844 201.894531 C 60.460938 201.894531 60.582031 201.878906 60.703125 201.871094 L 60.703125 207.820312 C 60.703125 208.019531 60.867188 208.183594 61.070312 208.183594 L 62.105469 208.183594 C 61.609375 211.789062 58.148438 239.320312 57.066406 311.34375 C 57.066406 311.441406 57.101562 311.535156 57.171875 311.601562 C 57.238281 311.671875 57.332031 311.710938 57.429688 311.710938 L 61.652344 311.710938 L 62.714844 322.464844 C 58.25 323.980469 45.164062 328.605469 44.863281 330.699219 C 44.765625 331.390625 44.722656 332.15625 44.734375 332.96875 C 44.730469 332.976562 44.730469 332.980469 44.730469 332.988281 C 44.730469 332.992188 44.730469 332.996094 44.730469 333 C 44.730469 333.027344 44.730469 333.054688 44.730469 333.082031 C 44.753906 334.292969 45.757812 335.28125 46.96875 335.28125 L 72.648438 335.28125 C 73.894531 335.28125 74.917969 334.339844 75.0625 333.128906 C 75.082031 333.085938 75.09375 333.039062 75.09375 332.988281 C 75.09375 332.96875 75.085938 332.953125 75.082031 332.9375 C 75.085938 332.902344 75.09375 332.871094 75.09375 332.839844 L 75.09375 329.191406 C 75.09375 329.191406 75.09375 329.191406 75.09375 329.1875 L 75.09375 322.140625 L 75.742188 311.710938 L 83.9375 311.710938 L 84.585938 322.117188 L 84.585938 332.839844 C 84.585938 332.871094 84.59375 332.902344 84.597656 332.9375 C 84.59375 332.953125 84.585938 332.96875 84.585938 332.988281 C 84.585938 333.039062 84.597656 333.085938 84.617188 333.128906 C 84.761719 334.339844 85.785156 335.28125 87.03125 335.28125 L 112.710938 335.28125 C 113.921875 335.28125 114.925781 334.292969 114.949219 333.082031 C 114.949219 333.054688 114.945312 333.027344 114.949219 333 C 114.949219 332.996094 114.949219 332.992188 114.949219 332.988281 C 114.949219 332.980469 114.945312 332.976562 114.945312 332.96875 Z M 102.550781 199.539062 C 100.945312 200.960938 99.023438 201.453125 96.992188 200.972656 C 91.769531 199.730469 86.175781 192.222656 81.238281 179.828125 C 81.222656 179.789062 81.195312 179.753906 81.167969 179.722656 C 81.503906 179.078125 81.839844 178.417969 82.175781 177.742188 L 91.964844 177.742188 C 94.019531 180.015625 95.640625 184.222656 95.660156 184.265625 C 95.660156 184.269531 95.660156 184.269531 95.660156 184.269531 C 95.6875 184.332031 95.730469 184.382812 95.78125 184.421875 C 95.792969 184.429688 95.804688 184.4375 95.816406 184.445312 C 95.871094 184.476562 95.929688 184.5 96 184.5 C 96.042969 184.5 96.085938 184.492188 96.128906 184.476562 C 96.132812 184.476562 96.132812 184.472656 96.132812 184.472656 C 96.160156 184.460938 96.183594 184.445312 96.207031 184.425781 C 96.222656 184.414062 96.242188 184.410156 96.253906 184.394531 C 96.269531 184.378906 96.28125 184.359375 96.292969 184.335938 C 96.308594 184.320312 96.324219 184.300781 96.332031 184.28125 C 96.339844 184.265625 96.339844 184.246094 96.34375 184.230469 C 96.351562 184.199219 96.363281 184.171875 96.363281 184.140625 C 96.363281 184.140625 96.363281 184.136719 96.363281 184.136719 L 96.363281 175.988281 L 106.292969 175.988281 C 106.75 186.324219 105.796875 196.667969 102.550781 199.539062 Z M 101.96875 153.003906 C 104.121094 156.367188 105.78125 165.738281 106.257812 175.261719 L 96 175.261719 C 95.796875 175.261719 95.632812 175.421875 95.632812 175.625 L 95.632812 182.359375 C 95.023438 181.035156 94.0625 179.171875 92.917969 177.742188 L 94.761719 177.742188 C 94.964844 177.742188 95.128906 177.582031 95.128906 177.378906 L 95.128906 148.078125 C 98.304688 149.226562 100.613281 150.878906 101.96875 153.003906 Z M 94.398438 177.015625 L 82.535156 177.015625 C 82.707031 176.671875 82.875 176.324219 83.046875 175.976562 C 85.257812 171.457031 87.636719 165.683594 86.429688 163.839844 C 86.25 163.566406 85.898438 163.261719 85.28125 163.226562 C 85.363281 162.777344 85.421875 162.355469 85.433594 161.996094 C 85.460938 160.945312 85.222656 160.253906 84.714844 159.941406 C 84.421875 159.761719 84.109375 159.75 83.847656 159.792969 C 83.988281 158.945312 83.523438 157.953125 82.824219 157.699219 C 82.488281 157.578125 81.914062 157.546875 81.308594 158.273438 C 81.199219 158.050781 81.042969 157.882812 80.851562 157.792969 C 80.207031 157.488281 79.15625 157.910156 78.152344 160.019531 C 77.101562 162.226562 76.519531 163.9375 76.050781 165.3125 C 75.59375 166.644531 75.265625 167.609375 74.738281 168.382812 C 74.570312 168.632812 74.253906 168.863281 74.046875 168.8125 C 73.785156 168.742188 73.457031 168.171875 73.328125 166.777344 C 73.324219 166.738281 73.308594 166.703125 73.296875 166.671875 C 73.300781 166.648438 73.308594 166.632812 73.308594 166.609375 L 73.308594 143.765625 L 94.398438 143.765625 C 94.398438 143.765625 94.398438 177.015625 94.398438 177.015625 Z M 85.925781 143.039062 L 85.929688 140.644531 C 86.757812 140.777344 88.277344 140.984375 89.785156 141.042969 L 89.785156 143.039062 Z M 98.203125 130.933594 C 98.265625 131.429688 97.117188 132.183594 96.320312 132.535156 C 96.203125 132.589844 96.125 132.695312 96.105469 132.824219 C 95.828125 134.992188 94.667969 137.90625 93.347656 139.753906 C 92.71875 140.636719 88.453125 140.34375 85.628906 139.855469 C 85.523438 139.839844 85.414062 139.867188 85.332031 139.9375 C 85.25 140.003906 85.203125 140.109375 85.203125 140.214844 L 85.195312 143.039062 L 82.394531 143.039062 C 83.699219 137.988281 79.308594 133.902344 79.265625 133.859375 C 79.175781 133.78125 79.054688 133.75 78.941406 133.773438 C 76.933594 134.207031 75.519531 133.179688 74.863281 132.074219 C 74.105469 130.796875 74.21875 129.285156 75.144531 128.21875 C 77.1875 125.875 79.808594 127.550781 79.917969 127.621094 C 79.976562 127.660156 80.039062 127.679688 80.105469 127.679688 C 80.144531 127.683594 80.183594 127.683594 80.222656 127.683594 C 84.132812 127.683594 85.621094 120.578125 86 118.28125 C 86.707031 119.078125 87.984375 121.070312 87.984375 125.078125 C 87.984375 125.265625 88.125 125.421875 88.308594 125.441406 L 96.621094 126.328125 C 96.496094 126.8125 96.363281 127.265625 96.234375 127.671875 C 96.195312 127.792969 96.222656 127.925781 96.308594 128.023438 C 96.996094 128.804688 98.121094 130.285156 98.203125 130.933594 Z M 66.871094 130.628906 C 66.890625 130.289062 66.902344 129.925781 66.917969 129.542969 C 67.164062 123.089844 67.628906 111.082031 81.894531 111.257812 C 88.257812 111.339844 92.445312 112.71875 95.078125 115.59375 C 97.683594 118.441406 97.476562 122.554688 96.792969 125.613281 L 88.710938 124.75 C 88.613281 119.058594 86.050781 117.308594 85.941406 117.238281 C 85.835938 117.167969 85.703125 117.15625 85.589844 117.210938 C 85.472656 117.261719 85.394531 117.371094 85.378906 117.496094 C 85.367188 117.589844 84.148438 126.953125 80.222656 126.957031 C 79.667969 126.632812 76.820312 125.1875 74.59375 127.742188 C 73.457031 129.046875 73.316406 130.894531 74.234375 132.445312 C 75.1875 134.054688 77.003906 134.855469 78.902344 134.523438 C 79.601562 135.226562 82.859375 138.808594 81.640625 143.039062 L 72.945312 143.039062 C 72.742188 143.039062 72.578125 143.203125 72.578125 143.402344 L 72.578125 150.355469 C 72.558594 150.359375 72.542969 150.359375 72.523438 150.363281 C 69.515625 151.339844 68.390625 150.378906 67.199219 149.359375 C 66.429688 148.695312 65.628906 148.023438 64.363281 147.820312 C 65.898438 145.761719 66.40625 140.574219 66.871094 130.628906 Z M 57.039062 153.019531 C 58.625 150.820312 60.847656 149.292969 63.640625 148.484375 C 65.078125 148.503906 65.878906 149.183594 66.726562 149.910156 C 67.609375 150.667969 68.574219 151.496094 70.308594 151.496094 C 70.949219 151.496094 71.695312 151.375 72.578125 151.105469 L 72.578125 162.714844 C 72.003906 163.132812 70.203125 164.652344 70.109375 167.523438 C 70.082031 168.386719 70.078125 169.257812 70.070312 170.09375 C 70.058594 172.214844 70.046875 174.222656 69.640625 174.96875 C 69.207031 175.757812 65.496094 180.28125 63.125 183.128906 L 63.152344 175.625 C 63.152344 175.53125 63.117188 175.4375 63.046875 175.367188 C 62.980469 175.300781 62.886719 175.261719 62.789062 175.261719 L 51.800781 175.261719 C 52.59375 165.683594 54.714844 156.246094 57.039062 153.019531 Z M 45.003906 181.417969 C 45.109375 173.472656 50.703125 165 53.074219 161.765625 C 50.964844 170.832031 49.898438 183.800781 51.46875 192.28125 C 51.753906 193.8125 52.113281 195.144531 52.550781 196.277344 C 50.789062 195.132812 44.882812 190.605469 45.003906 181.417969 Z M 55.78125 199.675781 C 54.121094 198.589844 52.910156 196.054688 52.1875 192.148438 C 51.359375 187.6875 51.296875 181.839844 51.742188 175.988281 L 62.421875 175.988281 L 62.390625 184.136719 C 62.390625 184.289062 62.484375 184.425781 62.628906 184.476562 C 62.671875 184.492188 62.710938 184.5 62.753906 184.5 C 62.859375 184.5 62.964844 184.453125 63.035156 184.371094 C 63.304688 184.046875 69.652344 176.464844 70.277344 175.316406 C 70.773438 174.410156 70.785156 172.410156 70.800781 170.097656 C 70.804688 169.269531 70.808594 168.402344 70.835938 167.546875 C 70.902344 165.527344 71.921875 164.265625 72.578125 163.65625 L 72.578125 166.609375 C 72.578125 166.660156 72.589844 166.710938 72.609375 166.753906 C 72.605469 166.785156 72.597656 166.8125 72.601562 166.84375 C 72.75 168.460938 73.164062 169.335938 73.867188 169.515625 C 73.949219 169.539062 74.03125 169.546875 74.113281 169.546875 C 74.601562 169.546875 75.066406 169.195312 75.339844 168.792969 C 75.921875 167.9375 76.285156 166.882812 76.738281 165.546875 C 77.203125 164.191406 77.777344 162.5 78.8125 160.332031 C 79.59375 158.683594 80.324219 158.351562 80.539062 158.453125 C 80.699219 158.527344 80.78125 158.917969 80.605469 159.476562 C 79.492188 162.023438 77.921875 167.4375 77.855469 167.667969 C 77.796875 167.863281 77.910156 168.066406 78.101562 168.121094 C 78.296875 168.175781 78.5 168.066406 78.554688 167.871094 C 78.570312 167.816406 80.015625 162.832031 81.097656 160.179688 C 81.105469 160.167969 81.117188 160.15625 81.125 160.144531 C 81.199219 159.984375 81.257812 159.835938 81.304688 159.691406 C 81.726562 158.753906 82.210938 158.253906 82.578125 158.382812 C 82.972656 158.527344 83.257812 159.269531 83.113281 159.78125 C 82.066406 163.40625 80.164062 168.472656 80.144531 168.523438 C 80.074219 168.714844 80.167969 168.921875 80.359375 168.992188 C 80.398438 169.007812 80.445312 169.015625 80.488281 169.015625 C 80.632812 169.015625 80.773438 168.925781 80.828125 168.78125 C 80.847656 168.734375 82.550781 164.191406 83.628906 160.609375 C 83.632812 160.605469 83.636719 160.605469 83.640625 160.605469 C 83.644531 160.601562 84.058594 160.390625 84.332031 160.5625 C 84.59375 160.722656 84.726562 161.226562 84.703125 161.976562 C 84.636719 164.285156 82.578125 169.355469 82.558594 169.40625 C 82.484375 169.59375 82.574219 169.804688 82.757812 169.882812 C 82.804688 169.898438 82.851562 169.90625 82.898438 169.90625 C 83.039062 169.90625 83.175781 169.820312 83.234375 169.679688 C 83.300781 169.515625 84.542969 166.445312 85.128906 163.9375 C 85.570312 163.925781 85.730469 164.101562 85.820312 164.238281 C 86.59375 165.417969 85.3125 169.6875 82.390625 175.65625 C 80.996094 178.511719 79.628906 181.25 78.253906 183.382812 C 78.253906 183.386719 78.253906 183.390625 78.25 183.394531 C 78.25 183.398438 78.246094 183.398438 78.246094 183.402344 C 72.257812 194.03125 67.003906 199.765625 62.175781 200.941406 C 61.816406 201.027344 61.460938 201.082031 61.105469 201.117188 C 61.089844 201.117188 61.082031 201.109375 61.070312 201.109375 C 61.039062 201.109375 61.011719 201.121094 60.984375 201.125 C 59.21875 201.277344 57.503906 200.808594 55.78125 199.675781 Z M 61.433594 201.816406 C 61.738281 201.773438 62.042969 201.722656 62.347656 201.648438 C 67.378906 200.425781 72.785156 194.578125 78.871094 183.773438 C 79.496094 182.800781 80.117188 181.703125 80.738281 180.539062 C 87.117188 196.347656 92.996094 200.769531 96.820312 201.679688 C 97.386719 201.8125 97.945312 201.882812 98.496094 201.882812 C 99.09375 201.882812 99.679688 201.796875 100.25 201.636719 L 100.25 207.457031 L 61.433594 207.457031 Z M 62.839844 208.183594 L 99.101562 208.183594 C 99.417969 211.90625 102.328125 247.179688 104.152344 310.984375 L 57.800781 310.984375 C 58.898438 238.507812 62.40625 211.289062 62.839844 208.183594 Z M 72.644531 334.554688 L 46.96875 334.554688 C 46.234375 334.554688 45.632812 334.042969 45.492188 333.351562 L 74.277344 333.351562 C 74.058594 334.046875 73.414062 334.554688 72.644531 334.554688 Z M 74.363281 322.117188 L 74.363281 328.828125 L 62.097656 328.828125 L 58.109375 324.867188 C 59.78125 324.25 61.507812 323.640625 63.222656 323.058594 C 63.382812 323.003906 63.484375 322.847656 63.46875 322.679688 L 62.382812 311.710938 L 75.011719 311.710938 Z M 97.292969 311.710938 L 96.210938 322.679688 C 96.195312 322.847656 96.296875 323.003906 96.457031 323.058594 C 97.878906 323.539062 99.308594 324.042969 100.707031 324.554688 L 96.390625 328.828125 L 85.316406 328.828125 L 85.316406 322.097656 L 84.667969 311.710938 Z M 112.710938 334.554688 L 87.03125 334.554688 C 86.265625 334.554688 85.621094 334.046875 85.402344 333.351562 L 114.1875 333.351562 C 114.046875 334.042969 113.445312 334.554688 112.710938 334.554688 Z M 112.710938 334.554688 " fill-opacity="1" fill-rule="nonzero"/></g></svg>