<svg xmlns="http://www.w3.org/2000/svg" xmlns:xlink="http://www.w3.org/1999/xlink" width="500" zoomAndPan="magnify" viewBox="0 0 375.12 383.03998" height="500" preserveAspectRatio="xMidYMid meet" version="1.0"><defs><clipPath id="97b1adcc9c"><path d="M 40.054688 37.40625 L 334.066406 37.40625 L 334.066406 336.65625 L 40.054688 336.65625 Z M 40.054688 37.40625 " clip-rule="nonzero"/></clipPath></defs><path fill="#f8be9b" d="M 146.398438 235.476562 L 146.398438 181.785156 C 159.027344 174.59375 167.328125 166.367188 173.242188 155.425781 C 178.628906 145.457031 179.355469 134.753906 175.375 124.136719 L 156.941406 74.992188 C 153.9375 68.386719 141.652344 72.246094 136.792969 76.15625 L 113.746094 44.707031 C 107.816406 38.335938 97.566406 47.523438 94.214844 54.261719 C 84.402344 51.34375 75.59375 58.902344 73.46875 68.914062 C 62.308594 68.929688 55.503906 77.773438 56.59375 88.894531 C 49.273438 94.339844 42.050781 99.578125 47.417969 108.332031 L 53.769531 118.300781 L 58.574219 169.375 C 59.246094 176.488281 62.304688 182.390625 67.730469 187.042969 C 69.640625 188.664062 71.714844 190.101562 73.9375 191.300781 L 73.9375 235.457031 L 146.398438 235.457031 Z M 146.398438 235.476562 " fill-opacity="1" fill-rule="evenodd"/><path fill="#f8be9b" d="M 73.460938 68.917969 C 62.304688 68.9375 55.496094 77.78125 56.589844 88.902344 L 91.023438 128.304688 C 98.195312 135.824219 113.644531 119.824219 105.476562 110.488281 C 98.742188 106.628906 96.738281 99.824219 96.738281 99.824219 Z M 73.460938 68.917969 " fill-opacity="1" fill-rule="evenodd"/><path fill="#f8be9b" d="M 116.617188 86.050781 L 94.214844 54.273438 C 84.402344 51.359375 75.59375 58.914062 73.46875 68.925781 L 96.75 99.828125 C 96.078125 97.84375 95.75 95.769531 95.75 93.640625 C 95.75 90.871094 98.023438 88.726562 100.789062 88.617188 C 108.027344 88.285156 109.375 87.996094 116.617188 86.050781 Z M 116.617188 86.050781 " fill-opacity="1" fill-rule="evenodd"/><path fill="#f8be9b" d="M 136.785156 76.167969 C 130.703125 80.808594 123.859375 83.738281 116.746094 86.019531 L 94.214844 54.273438 C 97.566406 47.539062 107.808594 38.347656 113.746094 44.71875 Z M 136.785156 76.167969 " fill-opacity="1" fill-rule="evenodd"/><path fill="#f8be9b" d="M 87.242188 124.085938 C 90.933594 131.113281 78.996094 141.308594 72.957031 136.03125 L 53.769531 118.320312 L 47.417969 108.347656 C 42.050781 99.597656 49.273438 94.351562 56.59375 88.914062 Z M 87.242188 124.085938 " fill-opacity="1" fill-rule="evenodd"/><path fill="#f8be9b" d="M 175.40625 331.507812 L 151.65625 331.507812 C 151.507812 320.933594 151.65625 292.429688 151.65625 281.835938 C 151.65625 259.335938 169.710938 248.035156 192.152344 247.453125 L 192.132812 247.433594 L 194.863281 238.128906 C 200.851562 240.859375 207.402344 241.839844 213.503906 241.75 C 218.015625 241.699219 222.570312 240.441406 226.789062 238.257812 L 228.699219 247.433594 L 228.679688 247.453125 C 251.160156 248.015625 269.269531 259.316406 269.269531 281.835938 C 269.269531 292.429688 269.414062 320.933594 269.269531 331.507812 Z M 175.40625 331.507812 " fill-opacity="1" fill-rule="evenodd"/><path fill="#218380" d="M 151.65625 331.507812 C 151.507812 320.933594 151.65625 292.429688 151.65625 281.835938 C 151.65625 260.648438 167.671875 249.402344 188.273438 247.671875 L 188.332031 247.945312 C 190.007812 258.027344 197.429688 266.933594 210.59375 274.644531 C 223.75 266.925781 231.160156 258.027344 232.835938 247.945312 L 232.925781 247.691406 C 253.402344 249.507812 269.273438 260.757812 269.273438 281.835938 C 269.273438 292.429688 269.421875 320.933594 269.273438 331.507812 C 230.070312 331.507812 190.863281 331.507812 151.65625 331.507812 Z M 151.65625 331.507812 " fill-opacity="1" fill-rule="evenodd"/><path fill="#f8be9b" d="M 246.320312 187.023438 C 245.714844 194.742188 246.597656 202.261719 246.597656 206.023438 C 246.597656 225.882812 229.796875 241.53125 213.507812 241.75 C 197.199219 241.988281 177.617188 234.617188 174.140625 206.023438 C 174.105469 205.625 174.050781 205.242188 174.015625 204.84375 C 187.390625 202.621094 195.015625 195.101562 196.871094 182.253906 C 209.375 187.132812 234.324219 191.941406 246.320312 187.023438 Z M 246.320312 187.023438 " fill-opacity="1" fill-rule="evenodd"/><path fill="#803011" d="M 210.375 161.347656 C 219.859375 161.347656 220.625 166.625 239.601562 160.78125 C 245.375 159.015625 249.832031 168.023438 247.15625 180.96875 C 247.066406 181.425781 246.976562 181.902344 246.898438 182.371094 C 246.621094 183.917969 246.441406 185.484375 246.3125 187.03125 C 234.320312 191.941406 209.367188 187.140625 196.859375 182.261719 C 195.003906 195.109375 187.375 202.628906 174 204.847656 C 173.960938 204.484375 173.929688 204.125 173.910156 203.757812 C 171.734375 176.578125 190.902344 161.347656 210.375 161.347656 Z M 210.375 161.347656 " fill-opacity="1" fill-rule="evenodd"/><path fill="#ffcc00" d="M 222.679688 63.441406 L 234.304688 81.863281 L 255.4375 87.230469 L 241.496094 103.976562 L 242.917969 125.722656 L 222.679688 117.648438 L 202.4375 125.722656 L 203.878906 103.976562 L 189.929688 87.230469 L 211.0625 81.863281 Z M 222.679688 63.441406 " fill-opacity="1" fill-rule="evenodd"/><path fill="#219ebc" d="M 314.316406 162.054688 L 314.316406 232.53125 L 280.03125 232.53125 L 280.03125 162.054688 L 265.414062 162.054688 L 297.171875 119.007812 L 328.9375 162.054688 Z M 314.316406 162.054688 " fill-opacity="1" fill-rule="evenodd"/><g clip-path="url(#97b1adcc9c)"><path fill="#000000" d="M 319.453125 167.191406 L 319.453125 232.53125 C 319.453125 235.367188 317.160156 237.660156 314.324219 237.660156 L 280.035156 237.660156 C 277.199219 237.660156 274.886719 235.367188 274.886719 232.53125 L 274.886719 167.191406 L 265.421875 167.191406 C 261.363281 167.191406 258.527344 162.457031 261.542969 158.6875 L 293.070312 115.972656 C 295.164062 113.132812 299.351562 113.292969 301.351562 116.0625 L 333.058594 159.015625 C 335.570312 162.417969 333.019531 167.191406 328.945312 167.171875 L 328.945312 167.191406 Z M 309.1875 227.398438 L 309.1875 162.054688 C 309.1875 159.214844 311.480469 156.921875 314.316406 156.921875 L 318.773438 156.921875 L 297.167969 127.636719 L 275.558594 156.921875 L 280.015625 156.921875 C 282.835938 156.921875 285.148438 159.214844 285.148438 162.054688 L 285.148438 227.394531 L 309.1875 227.394531 Z M 227.042969 60.785156 L 237.53125 77.402344 L 256.65625 82.242188 C 260.207031 83.132812 262.023438 87.558594 259.097656 90.792969 L 246.738281 105.664062 L 248.027344 125.398438 C 248.265625 129.019531 244.625 132.074219 240.695312 130.347656 L 222.679688 123.15625 L 204.332031 130.476562 C 200.820312 131.875 197.109375 129.058594 197.328125 125.398438 L 198.617188 105.664062 L 186.007812 90.488281 C 183.566406 87.570312 185.117188 83.152344 188.703125 82.261719 L 188.6875 82.242188 L 207.8125 77.402344 L 218.351562 60.710938 C 220.386719 57.457031 225.117188 57.566406 227.042969 60.785156 Z M 229.960938 84.59375 L 222.679688 73.035156 L 215.523438 84.375 C 214.871094 85.554688 213.722656 86.484375 212.300781 86.847656 L 199.050781 90.199219 L 207.570312 100.445312 C 208.53125 101.445312 209.078125 102.816406 208.988281 104.304688 L 208.078125 117.957031 L 220.785156 112.894531 C 221.945312 112.421875 223.292969 112.386719 224.554688 112.894531 L 237.261719 117.957031 L 236.367188 104.304688 L 236.386719 104.304688 C 236.296875 103.046875 236.675781 101.753906 237.546875 100.703125 L 246.289062 90.199219 L 233.054688 86.847656 L 233.054688 86.828125 C 231.816406 86.523438 230.703125 85.753906 229.960938 84.59375 Z M 210.355469 156.199219 C 221.1875 156.199219 220.515625 161.296875 238.074219 155.890625 C 244.722656 153.855469 249.910156 158.695312 251.90625 165.207031 C 253.234375 169.539062 253.523438 175.382812 252.164062 181.992188 C 250.890625 188.488281 251.199219 195.367188 251.527344 201.285156 C 251.636719 203.25 251.726562 204.964844 251.726562 206.035156 C 251.726562 220.414062 243.9375 233.410156 232.539062 240.820312 L 232.886719 242.566406 C 255.65625 244.421875 274.386719 257.367188 274.386719 281.84375 C 274.386719 302.535156 274.566406 316.566406 274.367188 331.566406 C 274.328125 334.371094 272.054688 336.625 269.25 336.625 L 269.25 336.636719 C 230.042969 336.636719 190.835938 336.636719 151.648438 336.636719 C 148.703125 336.636719 146.421875 334.308594 146.519531 331.121094 C 146.429688 323.367188 146.460938 307.042969 146.5 294.484375 C 146.5 293.324219 146.5 292.152344 146.5 281.835938 C 146.5 257.261719 165.339844 244.304688 188.21875 242.519531 L 188.761719 240.703125 C 177.222656 233.75 170.378906 221.429688 168.851562 204.738281 L 168.832031 204.738281 C 167.683594 190.050781 171.492188 177.933594 180.339844 168.796875 C 188.273438 160.582031 199.273438 156.199219 210.355469 156.199219 Z M 240.972656 193.652344 C 228.6875 195.46875 211.972656 192.46875 200.601562 188.957031 C 197.4375 199.222656 190.175781 205.851562 179.742188 208.816406 C 183.214844 227.945312 195.851562 236.902344 213.433594 236.644531 C 220.839844 236.535156 228.015625 232.550781 233.015625 227.144531 C 238.074219 221.664062 241.441406 214.273438 241.441406 206.03125 C 241.441406 202.28125 241.023438 198.242188 240.972656 193.652344 Z M 216.46875 167.410156 C 213.226562 166.585938 211.351562 166.296875 207.769531 166.574219 C 200.289062 167.179688 193.066406 170.375 187.730469 175.890625 C 182.578125 181.207031 179.15625 188.757812 178.882812 198.332031 C 186.527344 195.546875 190.546875 190.03125 191.785156 181.546875 C 192.242188 178.34375 195.664062 176.308594 198.703125 177.488281 C 208.730469 181.367188 229.714844 185.882812 241.566406 183.164062 L 242.132812 179.921875 C 244.265625 169.496094 240.914062 165.835938 240.914062 165.726562 C 226.792969 170.046875 221.636719 168.738281 216.46875 167.410156 Z M 223.003906 245.328125 C 215.269531 247.746094 206.0625 247.203125 198.214844 244.851562 L 197.03125 248.871094 C 196.6875 250.070312 195.902344 251.113281 194.851562 251.765625 C 197.886719 259.226562 203.699219 264.308594 210.574219 268.640625 C 217.398438 264.292969 223.5 258.808594 226.355469 252.023438 C 223.679688 250.65625 223.589844 248.164062 223.003906 245.328125 Z M 239.820312 289.753906 C 239.820312 286.914062 242.132812 284.621094 244.953125 284.621094 C 247.789062 284.621094 250.101562 286.914062 250.101562 289.753906 L 250.101562 326.371094 L 264.167969 326.371094 L 264.113281 281.835938 C 264.113281 264.832031 252.207031 255.914062 236.773438 253.332031 C 233.167969 264.542969 224.066406 272.519531 213.238281 278.996094 C 211.671875 279.960938 209.667969 280.039062 207.980469 279.050781 C 197.207031 272.730469 188.449219 265.25 184.46875 253.257812 C 168.871094 255.746094 156.785156 264.6875 156.785156 281.828125 L 156.714844 326.363281 L 170.804688 326.363281 L 170.804688 289.746094 C 170.804688 286.910156 173.097656 284.617188 175.933594 284.617188 C 178.773438 284.617188 181.0625 286.910156 181.0625 289.746094 L 181.0625 326.363281 L 239.816406 326.363281 L 239.816406 289.753906 Z M 90.753906 134.394531 C 86.332031 141.308594 76.269531 145.878906 69.476562 139.800781 L 60.101562 131.15625 L 63.652344 168.945312 C 64.433594 177.246094 69.257812 182.960938 76.371094 186.820312 C 76.519531 186.890625 76.679688 187 76.828125 187.09375 C 80.230469 189.316406 84.816406 190.679688 88.859375 190.863281 C 91.679688 190.992188 93.867188 193.394531 93.738281 196.214844 C 93.59375 199.050781 91.210938 201.234375 88.371094 201.09375 C 85.167969 200.945312 82.039062 200.367188 79.074219 199.398438 L 79.074219 230.359375 L 141.25 230.359375 L 141.25 189.117188 C 137.625 190.210938 133.929688 191.011719 130.164062 191.488281 C 127.359375 191.851562 124.796875 189.871094 124.449219 187.0625 C 124.085938 184.257812 126.070312 181.695312 128.875 181.347656 C 132.992188 180.820312 140.582031 179.054688 144.183594 177.164062 C 157.832031 169.683594 171.632812 155.316406 172.703125 139.703125 C 173.011719 135.167969 172.304688 130.546875 170.574219 125.941406 L 152.1875 77.003906 C 151.882812 76.617188 150.898438 76.507812 149.660156 76.585938 C 146.4375 76.734375 142.488281 78.261719 139.90625 80.265625 C 129.875 87.945312 113.734375 93.734375 100.847656 93.75 C 100.867188 98.789062 103.597656 103.519531 108.019531 106.050781 C 113.695312 109.292969 124.417969 106.796875 128.914062 102.0625 C 131.246094 99.625 135.230469 100.058594 136.976562 102.886719 L 145.53125 116.554688 C 147.535156 119.777344 145.472656 124.203125 141.292969 124.382812 C 129.425781 125.039062 119.777344 135.136719 119.6875 147.28125 C 119.667969 150.097656 117.355469 152.378906 114.539062 152.359375 C 111.699219 152.320312 109.4375 150.007812 109.457031 147.191406 C 109.566406 132.554688 119.179688 119.886719 132.847656 115.613281 L 131.28125 113.121094 C 125.945312 116.324219 119.21875 118.03125 112.9375 117.683594 C 112.140625 128.492188 100.039062 138.847656 90.753906 134.394531 Z M 57.707031 114.96875 L 76.398438 132.222656 C 77.339844 132.96875 80.949219 131.113281 82.347656 128.421875 C 82.714844 127.746094 82.894531 127.09375 82.765625 126.636719 L 55.882812 95.875 C 52.003906 99.039062 49.582031 102.09375 51.875 105.832031 Z M 102.023438 114.371094 C 98.582031 112.226562 95.832031 109.292969 93.90625 105.960938 C 93.214844 104.78125 92.636719 103.539062 92.160156 102.269531 L 71.0625 74.234375 C 64.890625 75.289062 61.578125 80.40625 61.578125 86.613281 C 61.578125 86.683594 61.578125 86.761719 61.578125 86.851562 L 94.722656 124.78125 C 95.761719 125.910156 98.492188 123.996094 99.542969 122.964844 C 101.714844 120.863281 103.738281 117.101562 102.023438 114.371094 Z M 93.304688 86.757812 C 95.160156 84.734375 97.835938 83.480469 100.785156 83.480469 C 103.074219 83.5 105.535156 83.261719 108.066406 82.828125 L 91.160156 58.839844 C 85.445312 58.113281 80.910156 62.625 79.074219 67.867188 Z M 118.621094 80.007812 C 122.5 78.628906 126.210938 76.875 129.503906 74.910156 L 109.832031 48.042969 C 108.5 46.554688 104.316406 49.847656 103.132812 50.941406 C 102.082031 51.921875 101.128906 52.996094 100.328125 54.074219 Z M 117.4375 41.179688 L 117.875 41.6875 L 138.132812 69.335938 C 145.464844 65.753906 157.480469 63.78125 161.578125 72.867188 C 161.628906 72.976562 161.667969 73.085938 161.722656 73.195312 L 180.160156 122.339844 C 184.671875 134.375 183.839844 146.585938 177.738281 157.867188 C 171.496094 169.425781 162.9375 177.738281 151.507812 184.695312 L 151.507812 235.476562 C 151.507812 238.316406 149.214844 240.605469 146.378906 240.605469 L 73.917969 240.605469 C 71.082031 240.605469 68.789062 238.316406 68.789062 235.476562 L 68.789062 194.214844 C 59.941406 188.445312 54.484375 180.566406 53.460938 169.863281 L 48.78125 120.027344 L 43.027344 111 C 35.835938 99.265625 42.96875 92.746094 51.34375 86.410156 C 51.414062 75.179688 58.335938 65.914062 69.507812 64.117188 C 72.929688 54.820312 81.5 47.679688 91.660156 48.589844 C 96.351562 41.894531 105.65625 34.464844 114.03125 38.617188 C 115.257812 39.234375 116.398438 40.074219 117.4375 41.179688 Z M 117.4375 41.179688 " fill-opacity="1" fill-rule="nonzero"/></g></svg>