<svg xmlns="http://www.w3.org/2000/svg" xmlns:xlink="http://www.w3.org/1999/xlink" width="500" zoomAndPan="magnify" viewBox="0 0 375.12 383.03998" height="500" preserveAspectRatio="xMidYMid meet" version="1.0"><defs><clipPath id="82273fa2b2"><path d="M 219 258 L 290 258 L 290 303.535156 L 219 303.535156 Z M 219 258 " clip-rule="nonzero"/></clipPath><clipPath id="661052ac62"><path d="M 277 248 L 336.6875 248 L 336.6875 293 L 277 293 Z M 277 248 " clip-rule="nonzero"/></clipPath><clipPath id="d326ba273d"><path d="M 37.4375 140 L 211 140 L 211 264 L 37.4375 264 Z M 37.4375 140 " clip-rule="nonzero"/></clipPath></defs><path fill="#fbbd80" d="M 225.332031 213.976562 C 225.332031 204.457031 217.566406 196.660156 208.0625 196.660156 C 198.558594 196.660156 190.792969 204.457031 190.792969 213.976562 C 190.792969 245.484375 225.339844 245.484375 225.339844 213.976562 Z M 225.332031 213.976562 " fill-opacity="1" fill-rule="nonzero"/><path fill="#ffab02" d="M 211.707031 131.355469 L 220.855469 131.355469 L 220.855469 140.140625 L 220.875 140.140625 C 220.875 140.859375 221.050781 141.59375 221.441406 142.257812 C 222.597656 144.269531 225.171875 144.957031 227.179688 143.796875 L 238.425781 137.285156 L 238.40625 137.285156 L 248.640625 131.363281 L 291.347656 131.363281 C 293.613281 131.363281 295.675781 130.445312 297.171875 128.9375 C 298.65625 127.453125 299.574219 125.390625 299.574219 123.125 L 299.574219 79.296875 C 299.574219 77.023438 298.65625 74.960938 297.171875 73.480469 C 295.675781 71.984375 293.613281 71.058594 291.347656 71.058594 L 211.710938 71.058594 C 209.445312 71.058594 207.382812 71.976562 205.90625 73.480469 C 204.410156 74.964844 203.488281 77.03125 203.488281 79.296875 L 203.488281 123.125 C 203.488281 125.394531 204.40625 127.460938 205.90625 128.9375 C 207.390625 130.4375 209.453125 131.363281 211.710938 131.363281 Z M 221.722656 84.171875 L 281.339844 84.171875 C 283.652344 84.171875 285.546875 86.0625 285.546875 88.386719 C 285.546875 90.710938 283.660156 92.601562 281.339844 92.601562 L 221.722656 92.601562 C 219.386719 92.601562 217.511719 90.710938 217.511719 88.386719 C 217.511719 86.0625 219.386719 84.171875 221.722656 84.171875 Z M 221.722656 96.996094 L 281.339844 96.996094 C 283.652344 96.996094 285.546875 98.875 285.546875 101.195312 C 285.546875 103.511719 283.660156 105.410156 281.339844 105.410156 L 221.722656 105.410156 C 219.386719 105.410156 217.511719 103.53125 217.511719 101.195312 C 217.511719 98.855469 219.386719 96.996094 221.722656 96.996094 Z M 221.722656 109.8125 L 281.339844 109.8125 C 283.652344 109.8125 285.546875 111.703125 285.546875 114.027344 C 285.546875 116.351562 283.660156 118.242188 281.339844 118.242188 L 221.722656 118.242188 C 219.386719 118.242188 217.511719 116.351562 217.511719 114.027344 C 217.511719 111.703125 219.386719 109.8125 221.722656 109.8125 Z M 221.722656 109.8125 " fill-opacity="1" fill-rule="nonzero"/><path fill="#fbbd80" d="M 284.355469 213.976562 C 284.355469 245.484375 318.917969 245.484375 318.917969 213.976562 C 318.917969 204.457031 311.148438 196.660156 301.648438 196.660156 C 292.144531 196.660156 284.355469 204.457031 284.355469 213.976562 Z M 284.355469 213.976562 " fill-opacity="1" fill-rule="nonzero"/><path fill="#fe3d50" d="M 173.003906 273.277344 L 173.003906 292.601562 L 211.378906 292.601562 L 211.378906 283.953125 C 211.378906 269.84375 220.152344 257.710938 232.5 252.730469 C 228.378906 249.777344 223.351562 248.054688 217.9375 248.054688 L 198.179688 248.054688 C 184.347656 248.054688 173.003906 259.394531 173.003906 273.269531 Z M 173.003906 273.277344 " fill-opacity="1" fill-rule="nonzero"/><path fill="#fbbd80" d="M 138.933594 104.996094 C 138.933594 88.804688 125.703125 75.550781 109.535156 75.550781 C 93.371094 75.550781 80.148438 88.804688 80.148438 104.996094 C 80.148438 158.597656 138.933594 158.597656 138.933594 104.996094 Z M 138.933594 104.996094 " fill-opacity="1" fill-rule="nonzero"/><g clip-path="url(#82273fa2b2)"><path fill="#3e8ffa" d="M 264.734375 258.742188 L 244.976562 258.742188 C 231.125 258.742188 219.800781 270.085938 219.800781 283.957031 L 219.800781 303.285156 L 289.910156 303.285156 L 289.910156 283.957031 C 289.910156 270.085938 278.566406 258.742188 264.734375 258.742188 Z M 264.734375 258.742188 " fill-opacity="1" fill-rule="nonzero"/></g><path fill="#fe3d50" d="M 115.46875 171.136719 L 117.234375 158.429688 L 101.835938 158.429688 L 103.605469 171.105469 C 107.554688 172.175781 111.511719 172.230469 115.460938 171.136719 Z M 115.46875 171.136719 " fill-opacity="1" fill-rule="nonzero"/><g clip-path="url(#661052ac62)"><path fill="#ffab02" d="M 311.507812 248.0625 L 291.765625 248.0625 C 286.347656 248.0625 281.324219 249.785156 277.203125 252.734375 C 289.550781 257.71875 298.308594 269.84375 298.308594 283.957031 L 298.308594 292.609375 L 336.6875 292.609375 L 336.6875 273.28125 C 336.6875 259.410156 325.359375 248.066406 311.507812 248.066406 Z M 311.507812 248.0625 " fill-opacity="1" fill-rule="nonzero"/></g><g clip-path="url(#d326ba273d)"><path fill="#3e8ffa" d="M 42.492188 240.488281 C 47.324219 243.285156 53.507812 241.632812 56.300781 236.785156 L 78.121094 198.910156 L 78.121094 263.652344 L 140.945312 263.652344 L 140.945312 179.429688 L 162.730469 192.121094 C 166.679688 194.40625 171.6875 193.742188 174.90625 190.519531 L 207.476562 157.917969 C 211.425781 153.960938 211.425781 147.546875 207.496094 143.605469 C 203.546875 139.648438 197.144531 139.648438 193.1875 143.605469 L 166.101562 170.730469 L 156.207031 164.996094 C 147.566406 160.015625 145.1875 158.429688 134.707031 158.429688 L 125.714844 158.429688 C 125.070312 163.105469 124.40625 167.78125 123.753906 172.457031 C 123.480469 174.652344 122.304688 176.378906 120.535156 177.644531 L 126.511719 213.457031 C 126.699219 214.515625 126.460938 215.640625 125.792969 216.578125 L 113 234.5625 C 112.726562 234.953125 112.367188 235.328125 111.960938 235.621094 C 110.074219 236.964844 107.449219 236.527344 106.105469 234.628906 L 93.363281 216.710938 C 92.664062 215.824219 92.339844 214.648438 92.542969 213.457031 L 98.542969 177.609375 C 96.808594 176.367188 95.628906 174.671875 95.324219 172.542969 C 94.679688 167.832031 94.015625 163.144531 93.347656 158.4375 L 86.074219 158.4375 C 81.015625 158.4375 76.671875 160.960938 74.132812 165.34375 L 38.785156 226.65625 C 35.992188 231.496094 37.640625 237.691406 42.484375 240.488281 Z M 42.492188 240.488281 " fill-opacity="1" fill-rule="nonzero"/></g><path fill="#fbbd80" d="M 254.851562 207.359375 C 245.347656 207.359375 237.582031 215.140625 237.582031 224.65625 C 237.582031 256.164062 272.128906 256.164062 272.128906 224.65625 C 272.128906 215.140625 264.359375 207.359375 254.859375 207.359375 Z M 254.851562 207.359375 " fill-opacity="1" fill-rule="nonzero"/><path fill="#fe3d50" d="M 109.535156 224.945312 L 117.96875 213.121094 L 112.46875 180.300781 C 111.582031 180.386719 110.679688 180.433594 109.761719 180.433594 C 108.703125 180.453125 107.648438 180.402344 106.609375 180.28125 L 101.125 213.121094 Z M 109.535156 224.945312 " fill-opacity="1" fill-rule="nonzero"/></svg>