<svg xmlns="http://www.w3.org/2000/svg" xmlns:xlink="http://www.w3.org/1999/xlink" width="500" zoomAndPan="magnify" viewBox="0 0 375.12 383.03998" height="500" preserveAspectRatio="xMidYMid meet" version="1.0"><defs><clipPath id="62589f7c1c"><path d="M 37.4375 141 L 336.6875 141 L 336.6875 329.550781 L 37.4375 329.550781 Z M 37.4375 141 " clip-rule="nonzero"/></clipPath><clipPath id="a387e8af5b"><path d="M 114 44.511719 L 261 44.511719 L 261 167 L 114 167 Z M 114 44.511719 " clip-rule="nonzero"/></clipPath></defs><g clip-path="url(#62589f7c1c)"><path fill="#000000" d="M 302.769531 245.765625 L 282.136719 253.234375 C 280.71875 254.640625 279.285156 256.042969 277.734375 257.417969 C 275.917969 259.027344 274.046875 260.496094 272.066406 261.675781 C 269.84375 263.003906 267.597656 263.917969 265.335938 264.65625 C 266 266.105469 266.457031 267.632812 266.699219 269.199219 C 267.355469 273.402344 266.460938 277.851562 263.871094 281.589844 C 263.726562 281.835938 263.558594 282.074219 263.359375 282.292969 C 260.578125 285.902344 256.609375 288.109375 252.402344 288.765625 C 250.925781 288.996094 249.417969 289.035156 247.921875 288.875 C 247.730469 292.515625 246.554688 295.578125 244.75 298.050781 C 243.339844 299.980469 241.5625 301.515625 239.574219 302.660156 C 237.625 303.785156 235.492188 304.535156 233.332031 304.910156 C 231.777344 305.179688 230.191406 305.261719 228.632812 305.152344 C 228.152344 308.09375 227.09375 310.6875 225.589844 312.828125 C 225.535156 312.917969 225.472656 313.007812 225.410156 313.09375 C 223.976562 315.058594 222.160156 316.621094 220.074219 317.707031 C 218 318.78125 215.660156 319.367188 213.167969 319.378906 C 211.175781 319.390625 209.097656 319.027344 207.003906 318.246094 C 206.398438 320.402344 205.472656 322.5625 204.117188 324.394531 C 202.953125 325.964844 201.484375 327.300781 199.648438 328.234375 C 197.820312 329.160156 195.6875 329.65625 193.207031 329.53125 C 189.105469 329.328125 183.980469 327.367188 177.625 322.65625 L 169.710938 316.792969 C 168.46875 317.644531 167.097656 318.269531 165.660156 318.65625 C 162.414062 319.523438 158.832031 319.160156 155.695312 317.347656 L 154.703125 316.773438 C 152.3125 315.394531 150.519531 313.367188 149.417969 311.039062 C 146.054688 313.199219 142.039062 314.058594 137.542969 311.890625 L 137.457031 311.890625 L 135.523438 310.773438 L 135.507812 310.773438 C 132.386719 308.972656 130.285156 306.070312 129.410156 302.839844 C 126.109375 303.648438 122.457031 303.230469 119.347656 301.433594 L 118.355469 300.863281 L 118.339844 300.863281 C 115.207031 299.054688 113.101562 296.136719 112.230469 292.886719 C 112.011719 292.066406 111.871094 291.226562 111.8125 290.375 C 109.195312 290.585938 106.480469 290.03125 104.058594 288.632812 L 103.066406 288.058594 L 103.070312 288.054688 C 99.933594 286.238281 97.828125 283.320312 96.960938 280.085938 C 96.089844 276.847656 96.457031 273.269531 98.269531 270.136719 L 98.269531 270.121094 L 101.796875 264.007812 C 100.855469 263.089844 100.167969 262.394531 99.617188 261.832031 C 98.792969 260.996094 98.3125 260.511719 97.722656 260.046875 C 96.84375 259.351562 95.160156 258.253906 91.136719 255.625 L 89.925781 254.832031 C 84.5625 254.191406 79.960938 253.0625 76.132812 251.453125 L 76.125 251.464844 C 73.285156 250.273438 70.859375 248.804688 68.851562 247.0625 C 67.488281 247.816406 65.996094 248.277344 64.472656 248.445312 C 61.523438 248.769531 58.441406 247.964844 55.945312 245.960938 L 41.847656 234.644531 C 39.351562 232.640625 37.902344 229.800781 37.578125 226.835938 C 37.253906 223.886719 38.058594 220.804688 40.0625 218.308594 L 98.441406 145.585938 C 100.445312 143.089844 103.285156 141.640625 106.25 141.316406 C 109.199219 140.996094 112.28125 141.796875 114.777344 143.800781 L 129.113281 155.308594 L 129.148438 155.347656 C 131.476562 157.335938 132.832031 160.074219 133.144531 162.929688 C 133.46875 165.878906 132.664062 168.957031 130.660156 171.457031 L 129.550781 172.835938 C 133.320312 174.328125 136.710938 175.734375 139.785156 177.007812 C 151.214844 181.746094 157.988281 184.554688 166.207031 184.097656 C 169.71875 182.445312 173.789062 180.660156 177.945312 179.148438 C 184.523438 176.761719 191.28125 175.125 196.449219 175.859375 C 208.660156 177.59375 216.90625 177.699219 224.34375 176.539062 C 230.355469 175.605469 236.035156 173.800781 242.953125 171.339844 C 241.320312 168.976562 240.679688 166.179688 240.976562 163.492188 C 241.289062 160.640625 242.640625 157.898438 244.96875 155.910156 L 245.007812 155.875 L 245.242188 155.683594 L 259.339844 144.367188 C 261.839844 142.363281 264.917969 141.558594 267.867188 141.882812 C 270.832031 142.207031 273.675781 143.65625 275.675781 146.148438 L 334.054688 218.871094 C 336.0625 221.371094 336.863281 224.449219 336.542969 227.398438 C 336.21875 230.363281 334.769531 233.207031 332.273438 235.207031 L 318.175781 246.527344 C 315.679688 248.53125 312.597656 249.332031 309.648438 249.011719 C 307.117188 248.734375 304.671875 247.636719 302.765625 245.765625 Z M 302.769531 245.765625 " fill-opacity="1" fill-rule="evenodd"/></g><g clip-path="url(#a387e8af5b)"><path fill="#000000" d="M 177.683594 47.765625 C 180.972656 49.066406 184.121094 50.75 187.0625 52.777344 C 189.960938 50.777344 193.097656 49.105469 196.40625 47.792969 C 199.855469 46.429688 203.449219 45.46875 207.117188 44.957031 C 210.71875 44.453125 214.414062 44.371094 218.136719 44.742188 C 221.652344 45.09375 225.175781 45.855469 228.652344 47.046875 C 228.753906 47.074219 228.855469 47.109375 228.960938 47.144531 C 228.960938 47.144531 228.957031 47.15625 228.957031 47.15625 C 234.890625 49.238281 240.140625 52.410156 244.5625 56.363281 C 249.152344 60.472656 252.84375 65.429688 255.472656 70.898438 C 258.105469 76.371094 259.671875 82.351562 260.011719 88.496094 C 260.339844 94.421875 259.53125 100.507812 257.445312 106.457031 L 257.445312 106.460938 C 254.414062 115.105469 245.484375 124.402344 234.632812 133.34375 C 224.261719 141.882812 212.070312 150.179688 201.777344 157.171875 C 201.671875 157.253906 201.5625 157.335938 201.449219 157.414062 L 201.4375 157.398438 C 197.039062 160.390625 192.996094 163.136719 189.433594 165.679688 C 188.089844 166.683594 186.199219 166.753906 184.761719 165.730469 C 183.160156 164.585938 181.261719 163.269531 179.167969 161.828125 C 175.695312 159.445312 174.207031 158.433594 172.660156 157.382812 C 162.300781 150.347656 149.964844 141.96875 139.492188 133.34375 C 128.636719 124.402344 119.707031 115.105469 116.675781 106.460938 C 114.589844 100.511719 113.785156 94.421875 114.113281 88.5 C 114.453125 82.351562 116.019531 76.371094 118.648438 70.898438 C 121.28125 65.429688 124.972656 60.472656 129.5625 56.363281 C 133.992188 52.402344 139.25 49.226562 145.191406 47.144531 C 148.757812 45.894531 152.375 45.105469 155.988281 44.742188 C 159.707031 44.367188 163.402344 44.453125 167.007812 44.957031 C 170.703125 45.472656 174.285156 46.421875 177.683594 47.765625 Z M 177.683594 47.765625 " fill-opacity="1" fill-rule="evenodd"/></g><path fill="#d13219" d="M 182.839844 59.523438 C 180.335938 57.761719 177.621094 56.300781 174.757812 55.167969 C 171.902344 54.039062 168.933594 53.246094 165.917969 52.824219 C 162.910156 52.40625 159.839844 52.335938 156.761719 52.644531 C 153.777344 52.941406 150.773438 53.597656 147.804688 54.640625 C 142.867188 56.371094 138.507812 59 134.847656 62.273438 C 131.039062 65.683594 127.980469 69.789062 125.800781 74.320312 C 123.625 78.855469 122.324219 83.820312 122.042969 88.933594 C 121.769531 93.855469 122.4375 98.910156 124.171875 103.847656 C 126.644531 110.902344 134.667969 119.097656 144.527344 127.21875 C 154.769531 135.648438 166.910156 143.898438 177.105469 150.820312 C 180.125 152.875 183.027344 154.84375 183.644531 155.269531 C 184.816406 156.074219 185.957031 156.863281 187.0625 157.636719 C 189.929688 155.636719 193.355469 153.308594 197.015625 150.824219 L 197.039062 150.808594 L 197.03125 150.792969 C 197.125 150.730469 197.222656 150.671875 197.320312 150.617188 C 207.453125 143.734375 219.457031 135.566406 229.59375 127.21875 C 239.453125 119.097656 247.476562 110.902344 249.953125 103.851562 L 249.953125 103.847656 C 251.683594 98.910156 252.355469 93.855469 252.082031 88.9375 C 251.796875 83.820312 250.5 78.855469 248.320312 74.324219 C 246.144531 69.792969 243.082031 65.683594 239.273438 62.277344 C 235.613281 59 231.253906 56.375 226.316406 54.640625 L 226.289062 54.632812 L 226.289062 54.640625 L 226.285156 54.640625 C 226.207031 54.613281 226.128906 54.582031 226.054688 54.550781 C 223.171875 53.5625 220.257812 52.933594 217.359375 52.644531 C 214.28125 52.335938 211.210938 52.40625 208.207031 52.828125 C 205.136719 53.253906 202.160156 54.046875 199.332031 55.167969 C 196.496094 56.289062 193.773438 57.765625 191.230469 59.5625 C 189.949219 60.460938 188.46875 60.886719 187 60.875 C 185.515625 60.859375 184.054688 60.394531 182.839844 59.523438 Z M 182.839844 59.523438 " fill-opacity="1" fill-rule="evenodd"/><path fill="#f24125" d="M 182.839844 59.523438 C 180.335938 57.761719 177.621094 56.300781 174.757812 55.167969 C 171.902344 54.039062 168.933594 53.246094 165.917969 52.824219 C 163.417969 52.476562 160.875 52.367188 158.320312 52.519531 C 150.707031 68.542969 146.441406 86.464844 146.441406 105.386719 C 146.441406 114.121094 147.355469 122.640625 149.082031 130.863281 C 158.242188 138.007812 168.386719 144.898438 177.105469 150.820312 C 180.125 152.875 183.023438 154.84375 183.644531 155.269531 C 184.816406 156.074219 185.957031 156.863281 187.0625 157.636719 C 189.929688 155.636719 193.355469 153.308594 197.015625 150.824219 L 197.039062 150.804688 L 197.03125 150.792969 L 197.03125 150.789062 C 197.125 150.726562 197.222656 150.671875 197.320312 150.617188 C 207.453125 143.734375 219.457031 135.566406 229.59375 127.21875 C 239.453125 119.097656 247.476562 110.902344 249.949219 103.847656 C 251.683594 98.910156 252.351562 93.855469 252.082031 88.933594 C 251.796875 83.820312 250.5 78.855469 248.320312 74.320312 C 246.140625 69.792969 243.082031 65.683594 239.273438 62.273438 C 235.613281 59 231.253906 56.371094 226.316406 54.640625 L 226.289062 54.632812 L 226.285156 54.640625 C 226.207031 54.613281 226.128906 54.582031 226.054688 54.550781 C 223.171875 53.5625 220.257812 52.933594 217.359375 52.644531 C 214.28125 52.335938 211.210938 52.40625 208.207031 52.824219 C 205.136719 53.253906 202.160156 54.046875 199.332031 55.164062 C 196.496094 56.289062 193.773438 57.765625 191.230469 59.5625 C 189.949219 60.460938 188.46875 60.886719 187 60.871094 C 185.515625 60.859375 184.054688 60.394531 182.839844 59.523438 Z M 182.839844 59.523438 " fill-opacity="1" fill-rule="evenodd"/><path fill="#e8c3ac" d="M 278.675781 246.046875 L 297.433594 239.253906 L 248.179688 177.898438 C 239.691406 180.964844 233.035156 183.210938 225.558594 184.375 C 217.308594 185.660156 208.367188 185.570312 195.359375 183.726562 C 191.660156 183.199219 186.183594 184.601562 180.648438 186.613281 C 176.589844 188.085938 172.492188 189.914062 168.980469 191.582031 L 168.898438 191.625 C 167.417969 192.328125 166.042969 193.003906 164.824219 193.613281 C 161.914062 195.0625 159.71875 197.9375 156.980469 201.519531 L 156.488281 202.164062 C 154.695312 204.503906 152.636719 207.140625 150.609375 209.632812 C 148.9375 211.691406 147.355469 213.574219 146.066406 214.988281 C 145.835938 215.242188 145.175781 215.933594 144.535156 216.605469 C 144.46875 216.683594 144.402344 216.757812 144.332031 216.832031 C 142.976562 218.25 142.15625 219.101562 141.917969 220.167969 C 141.699219 221.160156 141.683594 222.523438 141.988281 223.910156 C 142.210938 224.941406 142.605469 225.910156 143.207031 226.605469 C 143.832031 227.320312 144.789062 227.878906 145.894531 228.285156 C 147.417969 228.851562 149.117188 229.101562 150.652344 229.097656 C 152.007812 229.09375 153.253906 228.878906 154.621094 228.394531 C 156.171875 227.847656 157.878906 226.980469 159.992188 225.734375 C 160.496094 225.4375 161.492188 224.828125 162.546875 224.1875 C 167.089844 221.410156 172.695312 217.988281 178.824219 216.300781 C 200.65625 210.292969 227.824219 232.292969 247.742188 248.425781 C 252.167969 252.007812 256.222656 255.292969 259.578125 257.761719 C 259.691406 257.828125 259.800781 257.902344 259.910156 257.980469 C 262.753906 257.210938 265.539062 256.328125 267.992188 254.867188 C 269.515625 253.957031 271.007812 252.785156 272.476562 251.480469 C 273.984375 250.140625 275.574219 248.5625 277.164062 246.984375 C 277.605469 246.546875 278.125 246.234375 278.675781 246.042969 Z M 278.675781 246.046875 " fill-opacity="1" fill-rule="evenodd"/><path fill="#f5dccc" d="M 287.929688 227.410156 L 248.179688 177.898438 C 239.691406 180.964844 233.035156 183.210938 225.558594 184.375 C 217.308594 185.660156 208.367188 185.570312 195.363281 183.726562 C 191.660156 183.199219 186.183594 184.601562 180.652344 186.613281 C 179.730469 186.945312 178.8125 187.296875 177.898438 187.660156 C 200.484375 212.871094 233.285156 228.742188 269.796875 228.742188 C 275.957031 228.742188 282.011719 228.28125 287.929688 227.410156 Z M 287.929688 227.410156 " fill-opacity="1" fill-rule="evenodd"/><path fill="#69a3d8" d="M 123.664062 161.117188 L 109.804688 149.992188 C 109.019531 149.363281 108.039062 149.113281 107.089844 149.214844 C 106.160156 149.316406 105.261719 149.773438 104.632812 150.558594 L 46.253906 223.28125 C 45.625 224.066406 45.375 225.046875 45.476562 225.996094 C 45.582031 226.929688 46.035156 227.824219 46.824219 228.453125 L 60.921875 239.773438 C 61.703125 240.398438 62.683594 240.648438 63.632812 240.546875 C 64.566406 240.445312 65.460938 239.988281 66.09375 239.203125 L 119.816406 172.277344 C 119.910156 172.148438 120.007812 172.027344 120.113281 171.910156 L 124.476562 166.476562 C 125.101562 165.695312 125.351562 164.714844 125.246094 163.765625 C 125.144531 162.832031 124.6875 161.9375 123.902344 161.308594 Z M 123.664062 161.117188 " fill-opacity="1" fill-rule="evenodd"/><path fill="#e8c3ac" d="M 124.339844 179.332031 L 74.492188 241.421875 C 75.785156 242.449219 77.355469 243.347656 79.207031 244.128906 L 79.199219 244.140625 L 79.207031 244.144531 C 82.480469 245.519531 86.59375 246.480469 91.550781 247.023438 C 92.222656 247.0625 92.894531 247.273438 93.5 247.667969 L 95.492188 248.972656 C 99.546875 251.621094 101.246094 252.730469 102.640625 253.828125 C 103.6875 254.65625 104.273438 255.25 105.277344 256.265625 C 105.464844 256.457031 105.671875 256.667969 105.902344 256.898438 L 107.773438 253.660156 C 109.582031 250.527344 112.5 248.421875 115.75 247.550781 C 118.992188 246.683594 122.574219 247.050781 125.714844 248.859375 L 126.707031 249.433594 L 126.703125 249.441406 C 130.070312 251.390625 132.207031 254.738281 132.675781 258.871094 C 132.71875 259.246094 132.746094 259.625 132.757812 260.011719 C 135.511719 259.660156 138.398438 260.171875 140.984375 261.664062 L 141.976562 262.234375 C 145.0625 264.019531 147.246094 266.953125 148.207031 270.207031 L 148.222656 270.257812 C 151.457031 269.398438 155.027344 269.769531 158.152344 271.574219 L 158.148438 271.582031 L 159.140625 272.152344 L 159.144531 272.148438 L 159.296875 272.238281 L 159.363281 272.269531 L 159.359375 272.273438 C 161.507812 273.570312 163.167969 275.421875 164.261719 277.550781 C 165.246094 276.988281 166.296875 276.558594 167.382812 276.265625 C 170.621094 275.398438 174.199219 275.765625 177.332031 277.574219 L 177.34375 277.582031 L 177.347656 277.574219 L 178.820312 278.425781 L 178.882812 278.488281 C 181.71875 280.320312 183.632812 283.078125 184.449219 286.125 C 185.316406 289.367188 184.953125 292.949219 183.140625 296.089844 L 174.738281 310.640625 L 182.355469 316.285156 C 187.3125 319.960938 190.945312 321.472656 193.582031 321.605469 C 194.59375 321.652344 195.414062 321.480469 196.074219 321.144531 C 196.722656 320.816406 197.277344 320.296875 197.742188 319.671875 C 198.898438 318.109375 199.53125 315.976562 199.832031 313.992188 L 188.679688 305.847656 C 186.910156 304.5625 186.523438 302.082031 187.808594 300.3125 C 189.097656 298.542969 191.578125 298.15625 193.347656 299.441406 L 206.136719 308.785156 C 206.269531 308.871094 206.394531 308.960938 206.515625 309.058594 C 208.847656 310.71875 211.117188 311.464844 213.136719 311.453125 C 214.320312 311.449219 215.4375 311.167969 216.433594 310.648438 C 217.417969 310.140625 218.292969 309.375 219.003906 308.402344 C 219.046875 308.34375 219.089844 308.289062 219.136719 308.234375 C 220.109375 306.824219 220.75 305 220.933594 302.851562 C 220.523438 302.605469 220.125 302.347656 219.742188 302.066406 L 200.738281 288.1875 C 198.96875 286.898438 198.578125 284.421875 199.867188 282.652344 C 201.15625 280.882812 203.632812 280.492188 205.402344 281.78125 L 224.40625 295.660156 C 226.355469 297.085938 229.207031 297.5625 231.996094 297.074219 C 233.289062 296.851562 234.53125 296.421875 235.625 295.792969 C 236.6875 295.179688 237.621094 294.378906 238.34375 293.390625 C 239.644531 291.613281 240.304688 289.109375 239.851562 285.824219 C 239.785156 285.777344 239.722656 285.734375 239.660156 285.6875 L 217.441406 269.457031 C 215.671875 268.171875 215.28125 265.691406 216.570312 263.921875 C 217.859375 262.152344 220.335938 261.765625 222.105469 263.050781 L 244.324219 279.28125 C 246.371094 280.773438 248.847656 281.296875 251.191406 280.929688 C 253.429688 280.582031 255.539062 279.421875 257.023438 277.535156 C 257.136719 277.351562 257.261719 277.179688 257.398438 277.015625 C 258.75 275.023438 259.214844 272.65625 258.863281 270.414062 C 258.503906 268.082031 257.25 265.886719 255.199219 264.390625 C 255.128906 264.335938 255.058594 264.28125 254.988281 264.226562 C 251.277344 261.5 247.195312 258.195312 242.738281 254.585938 C 224.160156 239.542969 198.824219 219.023438 180.910156 223.957031 C 175.921875 225.328125 170.820312 228.441406 166.683594 230.96875 C 165.898438 231.449219 165.144531 231.910156 164.007812 232.578125 C 161.421875 234.101562 159.292969 235.183594 157.265625 235.894531 C 155.050781 236.675781 152.976562 237.027344 150.652344 237.03125 C 148.234375 237.039062 145.5625 236.644531 143.15625 235.753906 C 140.886719 234.914062 138.789062 233.625 137.207031 231.800781 C 135.644531 230 134.695312 227.796875 134.214844 225.59375 C 133.667969 223.09375 133.726562 220.476562 134.175781 218.460938 C 134.90625 215.199219 136.300781 213.746094 138.609375 211.332031 C 138.675781 211.265625 138.742188 211.199219 138.808594 211.136719 C 139.074219 210.859375 139.433594 210.472656 140.191406 209.644531 C 141.464844 208.242188 142.9375 206.492188 144.453125 204.628906 C 146.320312 202.332031 148.351562 199.734375 150.175781 197.347656 L 150.671875 196.703125 C 152.273438 194.605469 153.722656 192.707031 155.292969 191.046875 C 149.84375 189.78125 144.195312 187.4375 136.742188 184.347656 C 133.148438 182.859375 129.109375 181.1875 124.34375 179.332031 Z M 124.339844 179.332031 " fill-opacity="1" fill-rule="evenodd"/><path fill="#e8c3ac" d="M 140.210938 276.371094 C 140.898438 275.1875 140.980469 273.765625 140.589844 272.445312 C 140.183594 271.074219 139.277344 269.84375 138 269.109375 L 137.003906 268.535156 C 135.78125 267.828125 134.367188 267.6875 133.074219 268.035156 C 131.785156 268.378906 130.628906 269.210938 129.917969 270.441406 C 129.882812 270.5 129.847656 270.558594 129.808594 270.617188 L 122.1875 283.820312 L 122.128906 283.9375 C 122.054688 284.0625 121.980469 284.1875 121.902344 284.3125 L 120.414062 286.886719 L 120.414062 286.902344 C 119.707031 288.128906 119.570312 289.542969 119.914062 290.835938 C 120.261719 292.125 121.089844 293.277344 122.320312 293.988281 L 122.316406 293.996094 L 123.296875 294.5625 C 124.585938 295.304688 126.128906 295.46875 127.542969 295.121094 C 128.863281 294.792969 130.035156 294.015625 130.707031 292.847656 L 130.707031 292.832031 Z M 140.210938 276.371094 " fill-opacity="1" fill-rule="evenodd"/><path fill="#e8c3ac" d="M 123.046875 266.460938 L 123.089844 266.386719 C 124.480469 263.890625 124.988281 261.605469 124.777344 259.742188 C 124.597656 258.179688 123.871094 256.957031 122.738281 256.304688 L 122.722656 256.304688 L 121.730469 255.730469 C 120.507812 255.023438 119.09375 254.886719 117.800781 255.230469 C 116.511719 255.578125 115.355469 256.40625 114.644531 257.640625 L 105.140625 274.101562 L 105.136719 274.097656 C 104.429688 275.324219 104.296875 276.738281 104.640625 278.03125 C 104.988281 279.328125 105.8125 280.484375 107.03125 281.1875 L 107.046875 281.1875 L 108.039062 281.761719 C 109.289062 282.480469 110.753906 282.636719 112.097656 282.296875 C 113.394531 281.96875 114.554688 281.164062 115.253906 279.957031 L 115.261719 279.960938 L 122.941406 266.65625 C 122.953125 266.636719 123.042969 266.46875 123.042969 266.460938 Z M 123.046875 266.460938 " fill-opacity="1" fill-rule="evenodd"/><path fill="#e8c3ac" d="M 163.917969 290.449219 L 156.777344 302.816406 L 156.769531 302.8125 C 156.066406 304.035156 155.929688 305.453125 156.277344 306.746094 C 156.621094 308.035156 157.453125 309.191406 158.683594 309.902344 L 159.675781 310.472656 C 160.902344 311.183594 162.316406 311.320312 163.605469 310.972656 C 164.894531 310.628906 166.050781 309.796875 166.761719 308.566406 L 176.269531 292.097656 C 176.972656 290.875 177.113281 289.460938 176.765625 288.175781 C 176.417969 286.878906 175.59375 285.722656 174.375 285.019531 L 174.363281 285.011719 L 174.359375 285.019531 L 173.148438 284.320312 C 171.976562 283.722656 170.652344 283.621094 169.4375 283.945312 C 168.148438 284.292969 166.992188 285.121094 166.28125 286.351562 C 165.507812 287.710938 164.652344 289.082031 163.917969 290.449219 Z M 163.917969 290.449219 " fill-opacity="1" fill-rule="evenodd"/><path fill="#e8c3ac" d="M 157.027344 286.496094 C 157.105469 286.335938 157.195312 286.183594 157.292969 286.03125 L 157.300781 286.023438 C 157.890625 284.851562 157.976562 283.503906 157.636719 282.261719 C 157.269531 280.933594 156.414062 279.738281 155.164062 279.019531 L 154.945312 278.894531 L 154.949219 278.886719 L 154.1875 278.445312 L 154.171875 278.445312 C 152.945312 277.738281 151.53125 277.601562 150.238281 277.945312 C 148.949219 278.292969 147.796875 279.121094 147.085938 280.351562 L 137.582031 296.816406 L 137.574219 296.8125 C 136.871094 298.035156 136.734375 299.453125 137.082031 300.746094 C 137.425781 302.035156 138.253906 303.191406 139.488281 303.902344 L 139.484375 303.910156 L 140.464844 304.472656 C 142.300781 305.535156 143.957031 305.15625 145.328125 304.222656 C 147.261719 302.90625 148.847656 300.671875 149.882812 298.886719 L 149.90625 298.851562 L 149.90625 298.835938 Z M 157.027344 286.496094 " fill-opacity="1" fill-rule="evenodd"/><path fill="#69a3d8" d="M 264.316406 150.554688 L 250.21875 161.871094 C 249.433594 162.503906 248.976562 163.398438 248.875 164.332031 C 248.773438 165.277344 249.019531 166.257812 249.648438 167.039062 L 252.589844 170.703125 L 252.609375 170.730469 L 308.03125 239.765625 C 308.660156 240.550781 309.554688 241.007812 310.488281 241.109375 C 311.4375 241.214844 312.417969 240.964844 313.199219 240.335938 L 327.300781 229.019531 C 328.085938 228.386719 328.542969 227.492188 328.644531 226.558594 C 328.746094 225.609375 328.496094 224.628906 327.867188 223.847656 L 269.488281 151.125 C 268.859375 150.339844 267.964844 149.882812 267.03125 149.78125 C 266.082031 149.675781 265.101562 149.925781 264.316406 150.554688 Z M 264.316406 150.554688 " fill-opacity="1" fill-rule="evenodd"/><path fill="#87b9e3" d="M 264.316406 150.554688 L 250.21875 161.871094 C 249.433594 162.503906 248.976562 163.398438 248.875 164.332031 C 248.773438 165.277344 249.019531 166.257812 249.648438 167.039062 L 252.589844 170.703125 L 252.609375 170.730469 L 296.792969 225.769531 C 305.722656 223.777344 314.289062 220.8125 322.371094 217 L 269.488281 151.125 C 268.859375 150.339844 267.964844 149.882812 267.03125 149.78125 C 266.082031 149.675781 265.101562 149.925781 264.316406 150.554688 Z M 264.316406 150.554688 " fill-opacity="1" fill-rule="evenodd"/></svg>