<svg xmlns="http://www.w3.org/2000/svg" xmlns:xlink="http://www.w3.org/1999/xlink" width="500" zoomAndPan="magnify" viewBox="0 0 375.12 383.03998" height="500" preserveAspectRatio="xMidYMid meet" version="1.0"><defs><clipPath id="d5e99a8b7e"><path d="M 284 200 L 331.855469 200 L 331.855469 248 L 284 248 Z M 284 200 " clip-rule="nonzero"/></clipPath><clipPath id="7012db8e8d"><path d="M 126 37.40625 L 231 37.40625 L 231 142 L 126 142 Z M 126 37.40625 " clip-rule="nonzero"/></clipPath><clipPath id="9f2ef531d3"><path d="M 42.332031 127 L 129 127 L 129 215 L 42.332031 215 Z M 42.332031 127 " clip-rule="nonzero"/></clipPath><clipPath id="55fa0f2537"><path d="M 112 253 L 244 253 L 244 336.65625 L 112 336.65625 Z M 112 253 " clip-rule="nonzero"/></clipPath></defs><path fill="#ffd23b" d="M 83.21875 176.179688 L 87.800781 176.179688 L 87.800781 214.183594 L 83.21875 214.183594 Z M 83.21875 176.179688 " fill-opacity="1" fill-rule="nonzero"/><path fill="#ffd23b" d="M 238.511719 214.023438 L 298.773438 153.773438 L 314.410156 169.402344 L 254.144531 229.652344 Z M 238.511719 214.023438 " fill-opacity="1" fill-rule="nonzero"/><path fill="#405163" d="M 85.519531 251.644531 C 89.949219 251.644531 93.679688 248.492188 94.566406 244.300781 L 76.453125 244.300781 C 77.335938 248.492188 81.070312 251.644531 85.519531 251.644531 Z M 85.519531 251.644531 " fill-opacity="1" fill-rule="nonzero"/><path fill="#405163" d="M 67.574219 222.59375 L 67.574219 230.296875 C 67.574219 233.363281 70.09375 235.882812 73.160156 235.882812 L 97.851562 235.882812 C 100.917969 235.882812 103.4375 233.363281 103.4375 230.296875 L 103.4375 222.59375 Z M 67.574219 222.59375 " fill-opacity="1" fill-rule="nonzero"/><path fill="#fe3d50" d="M 324.238281 159.574219 C 328.546875 155.285156 328.546875 148.25 324.238281 143.9375 C 319.949219 139.648438 312.910156 139.648438 308.613281 143.9375 L 304.710938 147.84375 L 320.347656 163.464844 L 324.230469 159.578125 Z M 324.238281 159.574219 " fill-opacity="1" fill-rule="nonzero"/><path fill="#ffd23b" d="M 74.804688 167.800781 L 74.804688 166.382812 C 74.804688 166.011719 74.648438 165.652344 74.398438 165.410156 C 74.144531 165.160156 73.796875 164.988281 73.425781 164.988281 C 73.054688 164.988281 72.695312 165.160156 72.433594 165.410156 C 72.183594 165.652344 72.027344 166.011719 72.027344 166.382812 C 72.027344 166.753906 72.183594 167.113281 72.433594 167.355469 C 72.6875 167.605469 73.035156 167.78125 73.425781 167.78125 L 73.425781 167.800781 Z M 74.804688 167.800781 " fill-opacity="1" fill-rule="nonzero"/><g clip-path="url(#d5e99a8b7e)"><path fill="#3e8ffa" d="M 302.515625 207.792969 L 295.222656 200.484375 L 284.441406 211.265625 L 291.75 218.550781 C 288.445312 226.148438 290.136719 235.550781 296.113281 241.527344 C 302.09375 247.507812 310.15625 248.957031 317.378906 246.554688 L 306.679688 235.84375 L 302.878906 232.058594 L 304.277344 226.863281 L 305.652344 221.683594 L 310.835938 220.289062 L 316.03125 218.910156 L 319.816406 222.707031 L 330.53125 233.410156 C 332.933594 226.1875 331.480469 218.125 325.503906 212.148438 C 319.523438 206.167969 310.117188 204.480469 302.519531 207.785156 Z M 302.515625 207.792969 " fill-opacity="1" fill-rule="nonzero"/></g><path fill="#405163" d="M 178.1875 67.265625 C 172.121094 67.265625 166.636719 69.730469 162.652344 73.703125 C 158.679688 77.671875 156.226562 83.171875 156.226562 89.238281 C 156.226562 95.300781 158.679688 100.800781 162.652344 104.769531 C 166.636719 108.753906 172.121094 111.207031 178.1875 111.207031 C 184.253906 111.207031 189.757812 108.753906 193.726562 104.769531 C 197.710938 100.800781 200.164062 95.300781 200.164062 89.238281 C 200.164062 83.171875 197.710938 77.671875 193.726562 73.703125 C 189.757812 69.730469 184.269531 67.265625 178.1875 67.265625 Z M 178.1875 67.265625 " fill-opacity="1" fill-rule="nonzero"/><g clip-path="url(#7012db8e8d)"><path fill="#fe3d50" d="M 219.523438 57.949219 C 216.660156 54.164062 213.269531 50.792969 209.484375 47.914062 L 204.542969 50.859375 L 200.484375 53.28125 C 196.632812 50.890625 192.390625 49.105469 187.839844 48.054688 L 186.695312 43.472656 L 185.28125 37.898438 C 182.964844 37.574219 180.597656 37.40625 178.175781 37.40625 C 175.753906 37.40625 173.40625 37.578125 171.085938 37.898438 L 169.667969 43.472656 L 168.511719 48.054688 C 163.980469 49.109375 159.71875 50.898438 155.886719 53.28125 L 151.828125 50.859375 L 146.886719 47.914062 C 143.089844 50.792969 139.714844 54.164062 136.835938 57.949219 L 139.800781 62.890625 L 142.222656 66.945312 C 139.820312 70.796875 138.03125 75.050781 136.976562 79.585938 L 132.414062 80.746094 L 126.824219 82.140625 C 126.5 84.476562 126.332031 86.84375 126.332031 89.242188 C 126.332031 91.644531 126.503906 94.011719 126.824219 96.34375 L 132.414062 97.742188 L 136.976562 98.898438 C 138.03125 103.425781 139.835938 107.691406 142.222656 111.539062 L 139.800781 115.597656 L 136.835938 120.539062 C 139.714844 124.320312 143.089844 127.691406 146.886719 130.574219 L 151.828125 127.625 L 155.886719 125.207031 C 159.71875 127.59375 163.980469 129.382812 168.511719 130.433594 L 169.667969 135.015625 L 171.085938 140.585938 C 173.398438 140.914062 175.765625 141.078125 178.175781 141.078125 C 180.582031 141.078125 182.964844 140.90625 185.28125 140.585938 L 186.695312 135.015625 L 187.839844 130.433594 C 192.390625 129.375 196.632812 127.585938 200.484375 125.207031 L 204.542969 127.625 L 209.484375 130.574219 C 213.269531 127.691406 216.65625 124.320312 219.523438 120.539062 L 216.574219 115.597656 L 214.152344 111.539062 C 216.542969 107.691406 218.332031 103.433594 219.402344 98.898438 L 223.964844 97.742188 L 229.550781 96.34375 C 229.859375 94.011719 230.03125 91.644531 230.03125 89.242188 C 230.03125 86.84375 229.859375 84.476562 229.550781 82.140625 L 223.964844 80.746094 L 219.402344 79.585938 C 218.332031 75.058594 216.542969 70.796875 214.152344 66.945312 L 216.574219 62.890625 Z M 199.6875 110.722656 C 194.1875 116.222656 186.582031 119.632812 178.183594 119.632812 C 169.78125 119.632812 162.199219 116.230469 156.699219 110.722656 C 151.195312 105.234375 147.804688 97.640625 147.804688 89.242188 C 147.804688 80.84375 151.195312 73.261719 156.699219 67.761719 C 162.199219 62.265625 169.800781 58.851562 178.183594 58.851562 C 186.5625 58.851562 194.179688 62.257812 199.6875 67.761719 C 205.175781 73.261719 208.578125 80.84375 208.578125 89.242188 C 208.578125 97.640625 205.175781 105.234375 199.6875 110.722656 Z M 199.6875 110.722656 " fill-opacity="1" fill-rule="nonzero"/></g><g clip-path="url(#9f2ef531d3)"><path fill="#ffd23b" d="M 85.519531 127.023438 C 61.800781 127.023438 42.570312 146.253906 42.570312 169.960938 C 42.570312 192.257812 57.167969 201.234375 65.277344 214.183594 L 74.804688 214.183594 L 74.804688 176.179688 L 73.425781 176.179688 L 73.425781 176.199219 C 70.71875 176.199219 68.265625 175.085938 66.488281 173.320312 C 64.71875 171.53125 63.609375 169.097656 63.609375 166.382812 C 63.609375 163.667969 64.710938 161.234375 66.488281 159.445312 C 68.257812 157.679688 70.710938 156.566406 73.425781 156.566406 C 76.140625 156.566406 78.574219 157.679688 80.34375 159.445312 C 82.113281 161.234375 83.222656 163.667969 83.222656 166.382812 L 83.222656 167.800781 L 87.808594 167.800781 L 87.808594 166.382812 C 87.808594 163.675781 88.910156 161.234375 90.6875 159.445312 C 92.457031 157.679688 94.910156 156.566406 97.625 156.566406 C 100.339844 156.566406 102.773438 157.679688 104.542969 159.445312 C 106.3125 161.234375 107.421875 163.667969 107.421875 166.382812 C 107.421875 169.097656 106.316406 171.53125 104.542969 173.320312 C 102.773438 175.085938 100.316406 176.199219 97.625 176.199219 L 97.625 176.179688 L 96.226562 176.179688 L 96.226562 214.183594 L 105.753906 214.183594 C 113.859375 201.234375 128.460938 192.257812 128.460938 169.960938 C 128.460938 146.246094 109.246094 127.023438 85.523438 127.023438 Z M 85.519531 127.023438 " fill-opacity="1" fill-rule="nonzero"/></g><path fill="#3e8ffa" d="M 227.476562 240.691406 L 246.726562 234.148438 L 234.023438 221.4375 Z M 227.476562 240.691406 " fill-opacity="1" fill-rule="nonzero"/><g clip-path="url(#55fa0f2537)"><path fill="#3e8ffa" d="M 196.71875 253.238281 L 159.664062 253.238281 C 133.695312 253.238281 112.4375 274.480469 112.4375 300.453125 L 112.4375 336.648438 L 137.402344 336.648438 L 137.402344 309.683594 C 137.402344 307.371094 139.289062 305.472656 141.613281 305.472656 C 143.933594 305.472656 145.820312 307.363281 145.820312 309.683594 L 145.820312 336.648438 L 210.582031 336.648438 L 210.582031 309.683594 C 210.582031 307.371094 212.457031 305.472656 214.792969 305.472656 C 217.128906 305.472656 219.003906 307.363281 219.003906 309.683594 L 219.003906 336.648438 L 243.964844 336.648438 L 243.964844 300.453125 C 243.964844 274.480469 222.703125 253.238281 196.738281 253.238281 Z M 196.71875 253.238281 " fill-opacity="1" fill-rule="nonzero"/></g><path fill="#ffd23b" d="M 97.609375 167.785156 C 97.984375 167.785156 98.328125 167.613281 98.582031 167.359375 C 98.835938 167.121094 98.988281 166.761719 98.988281 166.390625 C 98.988281 166.015625 98.835938 165.65625 98.582031 165.417969 C 98.328125 165.167969 97.984375 164.992188 97.609375 164.992188 C 97.238281 164.992188 96.878906 165.167969 96.621094 165.417969 C 96.367188 165.65625 96.214844 166.015625 96.214844 166.390625 L 96.214844 167.804688 L 97.609375 167.804688 Z M 97.609375 167.785156 " fill-opacity="1" fill-rule="nonzero"/><path fill="#fbbd80" d="M 178.1875 161.636719 C 160.367188 161.636719 145.78125 176.21875 145.78125 194.046875 C 145.78125 253.050781 210.609375 253.050781 210.609375 194.046875 C 210.609375 176.210938 196.023438 161.636719 178.1875 161.636719 Z M 178.1875 161.636719 " fill-opacity="1" fill-rule="nonzero"/><path fill="#3e8ffa" d="M 246.472656 162.539062 L 241.277344 163.914062 L 236.097656 165.3125 L 232.300781 161.515625 L 221.597656 150.816406 C 219.195312 158.039062 220.644531 166.078125 226.625 172.054688 C 232.605469 178.035156 242.011719 179.722656 249.605469 176.429688 L 256.898438 183.71875 L 267.679688 172.953125 L 260.371094 165.644531 C 263.675781 158.050781 261.984375 148.660156 256.007812 142.683594 C 250.007812 136.703125 241.964844 135.253906 234.742188 137.65625 L 245.441406 148.355469 L 249.242188 152.152344 L 247.84375 157.332031 L 246.46875 162.527344 Z M 246.472656 162.539062 " fill-opacity="1" fill-rule="nonzero"/></svg>