<svg xmlns="http://www.w3.org/2000/svg" xmlns:xlink="http://www.w3.org/1999/xlink" width="500" zoomAndPan="magnify" viewBox="0 0 375.12 383.03998" height="500" preserveAspectRatio="xMidYMid meet" version="1.0"><defs><clipPath id="0c2fdeb5fa"><path d="M 42.113281 37.40625 L 332 37.40625 L 332 336.65625 L 42.113281 336.65625 Z M 42.113281 37.40625 " clip-rule="nonzero"/></clipPath></defs><g clip-path="url(#0c2fdeb5fa)"><path fill="#ffffff" d="M 177.777344 295.695312 C 177.636719 295.628906 177.496094 295.550781 177.363281 295.460938 C 175.722656 294.574219 173.851562 294.410156 172.148438 294.863281 C 170.394531 295.335938 168.820312 296.460938 167.847656 298.132812 L 159.414062 312.738281 C 158.441406 314.417969 158.25 316.359375 158.722656 318.125 C 159.195312 319.890625 160.332031 321.472656 162.007812 322.441406 C 163.6875 323.410156 165.632812 323.605469 167.402344 323.128906 C 169.171875 322.660156 170.753906 321.523438 171.722656 319.847656 L 172.554688 318.410156 C 172.597656 318.3125 172.648438 318.21875 172.707031 318.125 C 172.746094 318.050781 172.792969 317.984375 172.835938 317.914062 L 180.136719 305.269531 C 181.109375 303.585938 181.300781 301.640625 180.828125 299.871094 C 180.378906 298.1875 179.324219 296.671875 177.777344 295.695312 Z M 231.367188 81.683594 L 291.769531 81.683594 C 293.847656 81.683594 295.53125 83.367188 295.53125 85.445312 L 295.53125 98.371094 C 295.53125 100.449219 293.847656 102.132812 291.769531 102.132812 L 284.195312 102.132812 L 284.195312 162.289062 L 289.113281 159.8125 C 290.964844 158.878906 293.222656 159.621094 294.152344 161.472656 L 331.460938 235.566406 C 332.394531 237.417969 331.652344 239.671875 329.800781 240.605469 L 295.683594 257.785156 C 293.832031 258.71875 291.574219 257.976562 290.644531 256.125 L 289.449219 253.753906 C 285.882812 255.46875 282.800781 257.4375 280.210938 259.660156 C 277.796875 261.726562 275.800781 264.019531 274.230469 266.539062 C 276.261719 268.496094 277.671875 270.945312 278.375 273.578125 C 279.355469 277.234375 278.984375 281.257812 277.046875 284.820312 C 276.957031 285.023438 276.847656 285.21875 276.71875 285.410156 C 274.605469 288.917969 271.273438 291.285156 267.578125 292.273438 C 265.007812 292.964844 262.25 292.984375 259.601562 292.261719 C 259.734375 294.96875 259.152344 297.746094 257.773438 300.285156 C 257.679688 300.503906 257.5625 300.710938 257.429688 300.902344 C 255.320312 304.40625 251.992188 306.765625 248.300781 307.753906 C 244.863281 308.675781 241.09375 308.402344 237.691406 306.75 C 237.730469 309.285156 237.136719 311.863281 235.851562 314.238281 C 235.753906 314.453125 235.636719 314.660156 235.507812 314.851562 C 233.394531 318.355469 230.066406 320.71875 226.375 321.707031 C 223.1875 322.5625 219.714844 322.386719 216.515625 321.039062 C 216.570312 323.605469 215.976562 326.222656 214.671875 328.625 C 214.574219 328.839844 214.460938 329.046875 214.328125 329.238281 C 212.21875 332.742188 208.890625 335.101562 205.199219 336.089844 C 201.550781 337.070312 197.535156 336.699219 193.972656 334.769531 C 193.742188 334.667969 193.519531 334.539062 193.316406 334.394531 C 188.066406 331.363281 182.625 328.011719 177.265625 325.027344 C 175.25 327.726562 172.425781 329.5625 169.34375 330.390625 C 165.742188 331.355469 161.757812 330.945312 158.273438 328.9375 C 154.78125 326.917969 152.429688 323.667969 151.464844 320.0625 C 151.398438 319.816406 151.339844 319.566406 151.285156 319.3125 C 151.039062 319.394531 150.792969 319.464844 150.542969 319.535156 C 146.9375 320.5 142.957031 320.09375 139.472656 318.082031 L 139.390625 318.03125 C 135.941406 316.011719 133.621094 312.785156 132.664062 309.207031 C 132.558594 308.820312 132.46875 308.425781 132.398438 308.03125 C 132.144531 308.113281 131.886719 308.191406 131.628906 308.261719 C 127.765625 309.292969 123.5 308.855469 119.765625 306.703125 L 119.691406 306.660156 C 115.988281 304.496094 113.5 301.035156 112.472656 297.195312 C 112.402344 296.9375 112.339844 296.679688 112.285156 296.417969 C 111.902344 296.554688 111.519531 296.675781 111.128906 296.78125 C 107.648438 297.714844 103.8125 297.363281 100.414062 295.523438 C 100.164062 295.414062 99.925781 295.277344 99.703125 295.113281 C 96.40625 293.085938 94.183594 289.933594 93.25 286.453125 C 92.285156 282.847656 92.691406 278.867188 94.703125 275.382812 C 95.644531 273.816406 96.566406 272.214844 97.480469 270.601562 C 96.113281 260.902344 91.6875 257.953125 84.476562 254.046875 L 83.480469 256.03125 C 82.546875 257.878906 80.289062 258.625 78.441406 257.691406 L 44.320312 240.507812 C 42.46875 239.578125 41.726562 237.320312 42.660156 235.46875 L 79.96875 161.375 C 80.902344 159.527344 83.160156 158.78125 85.007812 159.714844 L 89.929688 162.191406 L 89.929688 102.132812 L 82.351562 102.132812 C 80.277344 102.132812 78.589844 100.449219 78.589844 98.371094 L 78.589844 85.445312 C 78.589844 83.367188 80.277344 81.683594 82.351562 81.683594 L 142.753906 81.683594 L 142.753906 60.296875 C 142.753906 58.21875 144.4375 56.535156 146.515625 56.535156 L 156.308594 56.535156 L 156.308594 41.136719 C 156.308594 39.0625 157.992188 37.375 160.070312 37.375 L 214.054688 37.375 C 216.128906 37.375 217.8125 39.0625 217.8125 41.136719 L 217.8125 56.535156 L 227.605469 56.535156 C 229.683594 56.535156 231.367188 58.21875 231.367188 60.296875 Z M 280.429688 94.609375 L 288.007812 94.609375 L 288.007812 89.207031 L 231.367188 89.207031 L 231.367188 94.609375 Z M 142.753906 89.207031 L 86.113281 89.207031 L 86.113281 94.609375 L 142.753906 94.609375 Z M 244.363281 140.257812 C 242.285156 140.257812 240.601562 141.941406 240.601562 144.019531 L 240.601562 163.332031 C 240.601562 165.40625 242.285156 167.09375 244.363281 167.09375 L 263.675781 167.09375 C 265.753906 167.09375 267.4375 165.40625 267.4375 163.332031 L 267.4375 144.019531 C 267.4375 141.941406 265.753906 140.257812 263.675781 140.257812 Z M 259.914062 147.78125 L 248.125 147.78125 L 248.125 159.570312 L 259.914062 159.570312 Z M 244.363281 107.113281 C 242.285156 107.113281 240.601562 108.796875 240.601562 110.875 L 240.601562 130.1875 C 240.601562 132.261719 242.285156 133.949219 244.363281 133.949219 L 263.675781 133.949219 C 265.753906 133.949219 267.4375 132.261719 267.4375 130.1875 L 267.4375 110.875 C 267.4375 108.796875 265.753906 107.113281 263.675781 107.113281 Z M 259.914062 114.632812 L 248.125 114.632812 L 248.125 126.425781 L 259.914062 126.425781 Z M 110.445312 140.257812 C 108.371094 140.257812 106.683594 141.941406 106.683594 144.019531 L 106.683594 163.332031 C 106.683594 165.40625 108.371094 167.09375 110.445312 167.09375 L 129.757812 167.09375 C 131.835938 167.09375 133.519531 165.40625 133.519531 163.332031 L 133.519531 144.019531 C 133.519531 141.941406 131.835938 140.257812 129.757812 140.257812 Z M 125.996094 147.78125 L 114.207031 147.78125 L 114.207031 159.570312 L 125.996094 159.570312 Z M 110.445312 107.113281 C 108.371094 107.113281 106.683594 108.796875 106.683594 110.875 L 106.683594 130.1875 C 106.683594 132.261719 108.371094 133.949219 110.445312 133.949219 L 129.757812 133.949219 C 131.835938 133.949219 133.519531 132.261719 133.519531 130.1875 L 133.519531 110.875 C 133.519531 108.796875 131.835938 107.113281 129.757812 107.113281 Z M 125.996094 114.632812 L 114.207031 114.632812 L 114.207031 126.425781 L 125.996094 126.425781 Z M 195.28125 140.257812 C 193.203125 140.257812 191.519531 141.941406 191.519531 144.019531 L 191.519531 163.332031 C 191.519531 165.40625 193.203125 167.09375 195.28125 167.09375 L 214.59375 167.09375 C 216.671875 167.09375 218.355469 165.40625 218.355469 163.332031 L 218.355469 144.019531 C 218.355469 141.941406 216.671875 140.257812 214.59375 140.257812 Z M 210.832031 147.78125 L 199.042969 147.78125 L 199.042969 159.570312 L 210.832031 159.570312 Z M 159.527344 140.257812 C 157.453125 140.257812 155.765625 141.941406 155.765625 144.019531 L 155.765625 163.332031 C 155.765625 165.40625 157.453125 167.09375 159.527344 167.09375 L 178.839844 167.09375 C 180.917969 167.09375 182.601562 165.40625 182.601562 163.332031 L 182.601562 144.019531 C 182.601562 141.941406 180.917969 140.257812 178.839844 140.257812 Z M 175.078125 147.78125 L 163.289062 147.78125 L 163.289062 159.570312 L 175.078125 159.570312 Z M 195.28125 107.113281 C 193.203125 107.113281 191.519531 108.796875 191.519531 110.875 L 191.519531 130.1875 C 191.519531 132.261719 193.203125 133.949219 195.28125 133.949219 L 214.59375 133.949219 C 216.671875 133.949219 218.355469 132.261719 218.355469 130.1875 L 218.355469 110.875 C 218.355469 108.796875 216.671875 107.113281 214.59375 107.113281 Z M 210.832031 114.632812 L 199.042969 114.632812 L 199.042969 126.425781 L 210.832031 126.425781 Z M 159.527344 107.113281 C 157.453125 107.113281 155.765625 108.796875 155.765625 110.875 L 155.765625 130.1875 C 155.765625 132.261719 157.453125 133.949219 159.527344 133.949219 L 178.839844 133.949219 C 180.917969 133.949219 182.601562 132.261719 182.601562 130.1875 L 182.601562 110.875 C 182.601562 108.796875 180.917969 107.113281 178.839844 107.113281 Z M 175.078125 114.632812 L 163.289062 114.632812 L 163.289062 126.425781 L 175.078125 126.425781 Z M 195.28125 73.964844 C 193.203125 73.964844 191.519531 75.652344 191.519531 77.726562 L 191.519531 97.039062 C 191.519531 99.117188 193.203125 100.800781 195.28125 100.800781 L 214.59375 100.800781 C 216.671875 100.800781 218.355469 99.117188 218.355469 97.039062 L 218.355469 77.726562 C 218.355469 75.652344 216.671875 73.964844 214.59375 73.964844 Z M 210.832031 81.488281 L 199.042969 81.488281 L 199.042969 93.277344 L 210.832031 93.277344 Z M 159.527344 73.964844 C 157.453125 73.964844 155.765625 75.652344 155.765625 77.726562 L 155.765625 97.039062 C 155.765625 99.117188 157.453125 100.800781 159.527344 100.800781 L 178.839844 100.800781 C 180.917969 100.800781 182.601562 99.117188 182.601562 97.039062 L 182.601562 77.726562 C 182.601562 75.652344 180.917969 73.964844 178.839844 73.964844 Z M 175.078125 81.488281 L 163.289062 81.488281 L 163.289062 93.277344 L 175.078125 93.277344 Z M 210.292969 44.898438 L 163.832031 44.898438 L 163.832031 56.535156 L 210.292969 56.535156 Z M 92.238281 171.757812 C 92.078125 171.691406 91.929688 171.617188 91.785156 171.527344 L 84.984375 168.105469 L 51.050781 235.496094 L 78.464844 249.300781 L 79.746094 246.757812 C 90.414062 225.019531 101.519531 203.511719 112.398438 181.910156 Z M 142.753906 102.132812 L 97.453125 102.132812 L 97.453125 165.980469 L 119.128906 176.894531 C 120.980469 177.828125 121.722656 180.085938 120.789062 181.933594 L 119.257812 184.972656 C 124.375 187.460938 129.101562 189.179688 133.539062 189.300781 C 136.601562 189.382812 139.644531 188.683594 142.753906 186.902344 Z M 148.789062 191.960938 C 150.597656 190.6875 152.410156 189.136719 154.230469 187.277344 C 155.945312 185.980469 157.484375 185.019531 158.835938 184.410156 C 159.785156 183.980469 160.59375 183.734375 161.253906 183.679688 L 166.132812 185.007812 L 135.777344 211.070312 C 135.386719 211.382812 135.054688 211.777344 134.808594 212.246094 C 133.078125 215.542969 133.007812 218.609375 134.601562 221.445312 C 135.929688 223.804688 138.421875 225.757812 142.074219 227.300781 C 142.324219 227.421875 142.589844 227.515625 142.871094 227.578125 C 146.457031 228.398438 150.230469 228.621094 154.191406 228.253906 C 158.09375 227.886719 162.132812 226.957031 166.296875 225.46875 C 168.148438 224.878906 170.273438 223.992188 172.667969 222.804688 C 174.476562 221.910156 176.488281 220.8125 178.699219 219.515625 L 267.683594 270.890625 C 269.429688 271.957031 270.617188 273.640625 271.117188 275.519531 C 271.613281 277.367188 271.445312 279.386719 270.503906 281.167969 L 270.246094 281.601562 C 269.175781 283.339844 267.5 284.519531 265.640625 285.015625 C 263.773438 285.515625 261.726562 285.335938 259.929688 284.359375 L 236.222656 270.675781 C 234.429688 269.636719 232.132812 270.25 231.09375 272.042969 C 230.058594 273.835938 230.667969 276.132812 232.460938 277.171875 L 248.507812 286.4375 C 250.199219 287.503906 251.34375 289.164062 251.839844 291 C 252.355469 292.933594 252.144531 295.054688 251.082031 296.890625 C 250.015625 298.734375 248.285156 299.980469 246.359375 300.496094 C 244.429688 301.015625 242.308594 300.804688 240.472656 299.742188 L 230.066406 293.734375 L 216.945312 286.15625 L 216.863281 286.109375 L 216.859375 286.109375 C 215.066406 285.074219 212.773438 285.683594 211.734375 287.476562 C 210.695312 289.269531 211.308594 291.566406 213.101562 292.605469 L 226.304688 300.230469 L 226.394531 300.28125 C 228.191406 301.351562 229.40625 303.054688 229.914062 304.953125 C 230.429688 306.882812 230.222656 309.003906 229.15625 310.84375 C 228.09375 312.6875 226.363281 313.933594 224.433594 314.449219 C 222.503906 314.964844 220.382812 314.757812 218.546875 313.691406 L 199.675781 302.796875 C 199.597656 302.75 199.523438 302.710938 199.445312 302.671875 L 197.707031 301.671875 C 195.914062 300.640625 193.625 301.257812 192.59375 303.050781 C 191.5625 304.84375 192.183594 307.136719 193.976562 308.164062 L 195.738281 309.183594 L 195.914062 309.292969 L 204.90625 314.484375 C 205.050781 314.578125 205.195312 314.667969 205.347656 314.742188 L 205.367188 314.75 L 205.429688 314.785156 C 207.109375 315.855469 208.246094 317.507812 208.738281 319.335938 C 209.230469 321.183594 209.0625 323.207031 208.117188 324.988281 C 208.027344 325.125 207.945312 325.265625 207.871094 325.410156 C 206.800781 327.152344 205.121094 328.332031 203.257812 328.832031 C 201.324219 329.351562 199.199219 329.140625 197.355469 328.078125 C 191.949219 325.09375 186.429688 321.867188 181.039062 318.6875 L 186.632812 309.003906 C 188.644531 305.515625 189.050781 301.535156 188.085938 297.933594 C 187.152344 294.449219 184.929688 291.300781 181.632812 289.273438 C 181.441406 289.128906 181.234375 289.007812 181.011719 288.902344 C 178.136719 287.324219 174.9375 286.816406 171.902344 287.257812 C 171.910156 285.953125 171.738281 284.65625 171.40625 283.40625 C 170.460938 279.882812 168.207031 276.703125 164.863281 274.683594 C 164.667969 274.550781 164.460938 274.433594 164.246094 274.339844 C 161.515625 272.859375 158.5 272.339844 155.613281 272.679688 C 155.726562 270.957031 155.554688 269.238281 155.113281 267.589844 C 154.078125 263.734375 151.585938 260.265625 147.875 258.109375 L 147.832031 258.082031 C 144.09375 255.925781 139.824219 255.492188 135.957031 256.527344 C 134.308594 256.96875 132.730469 257.679688 131.292969 258.640625 C 130.140625 255.972656 128.183594 253.617188 125.535156 251.988281 C 125.34375 251.847656 125.136719 251.726562 124.917969 251.621094 C 121.5 249.746094 117.625 249.382812 114.113281 250.328125 C 110.59375 251.269531 107.414062 253.527344 105.390625 256.882812 C 104.511719 258.277344 103.660156 259.699219 102.820312 261.144531 C 99.980469 254.183594 94.953125 251.167969 87.855469 247.339844 L 115.882812 191.675781 C 121.886719 194.597656 127.578125 196.636719 133.335938 196.792969 C 138.492188 196.9375 143.503906 195.605469 148.535156 192.136719 L 148.539062 192.132812 L 148.542969 192.132812 L 148.554688 192.121094 L 148.570312 192.113281 L 148.589844 192.101562 L 148.605469 192.09375 L 148.617188 192.082031 L 148.621094 192.082031 L 148.652344 192.058594 L 148.667969 192.050781 L 148.683594 192.039062 L 148.691406 192.03125 L 148.699219 192.027344 L 148.746094 191.992188 L 148.757812 191.984375 L 148.765625 191.976562 L 148.773438 191.972656 Z M 223.84375 98.371094 L 223.84375 64.058594 L 150.277344 64.058594 L 150.277344 180.863281 C 152.230469 179.429688 154.054688 178.328125 155.75 177.5625 C 157.800781 176.636719 159.722656 176.171875 161.515625 176.167969 C 161.917969 176.140625 162.335938 176.179688 162.75 176.289062 L 173.027344 179.085938 L 174.269531 178.019531 L 174.507812 177.832031 C 175.972656 176.761719 177.59375 175.964844 179.359375 175.445312 C 181.0625 174.945312 182.890625 174.714844 184.839844 174.753906 C 192.945312 175.261719 202.230469 174.867188 210.484375 174.988281 C 212.328125 175.042969 214.175781 175.488281 216.023438 176.3125 C 217.714844 177.070312 219.402344 178.140625 221.070312 179.507812 L 223.84375 181.398438 Z M 261.722656 182.003906 L 295.65625 249.398438 L 323.074219 235.59375 L 289.140625 168.199219 C 280 172.800781 270.863281 177.402344 261.722656 182.003906 Z M 225.695312 191.75 L 225.671875 191.734375 L 225.65625 191.726562 L 225.644531 191.714844 L 225.632812 191.710938 L 225.617188 191.699219 L 225.605469 191.691406 L 225.589844 191.683594 L 225.566406 191.667969 L 225.550781 191.660156 L 225.539062 191.652344 L 225.527344 191.640625 L 225.503906 191.625 L 225.5 191.625 L 225.464844 191.601562 L 225.449219 191.589844 L 225.4375 191.582031 L 225.429688 191.574219 L 225.425781 191.574219 L 225.414062 191.5625 L 225.402344 191.554688 L 225.386719 191.546875 L 225.375 191.539062 L 225.363281 191.527344 L 225.355469 191.523438 L 225.339844 191.507812 L 225.316406 191.492188 L 225.300781 191.480469 L 225.289062 191.472656 L 225.285156 191.464844 L 216.800781 185.683594 C 216.660156 185.597656 216.523438 185.5 216.394531 185.390625 C 215.179688 184.382812 214.035156 183.640625 212.964844 183.160156 C 212.011719 182.734375 211.117188 182.507812 210.28125 182.480469 L 184.691406 182.246094 C 183.53125 182.226562 182.457031 182.359375 181.476562 182.648438 C 180.589844 182.90625 179.761719 183.308594 178.996094 183.851562 L 176.59375 185.914062 C 176.472656 186.03125 176.34375 186.144531 176.210938 186.246094 L 141.195312 216.308594 C 140.960938 216.917969 140.949219 217.40625 141.15625 217.773438 C 141.636719 218.628906 142.863281 219.480469 144.828125 220.324219 C 147.570312 220.917969 150.46875 221.074219 153.515625 220.789062 C 156.710938 220.492188 160.132812 219.6875 163.769531 218.386719 L 163.917969 218.34375 C 165.453125 217.867188 167.265625 217.109375 169.351562 216.074219 C 171.546875 214.988281 173.976562 213.636719 176.625 212.03125 C 177.765625 211.292969 179.273438 211.199219 180.535156 211.925781 L 267.964844 262.402344 C 269.921875 259.300781 272.378906 256.488281 275.328125 253.957031 C 278.183594 251.511719 282.160156 248.914062 286.027344 246.960938 L 258.453125 192.203125 L 240.824219 196.453125 L 240.472656 196.511719 C 238.390625 196.773438 236.414062 196.707031 234.542969 196.3125 C 232.613281 195.910156 230.808594 195.167969 229.136719 194.09375 L 225.703125 191.75 Z M 276.671875 166.078125 L 276.671875 102.132812 L 231.367188 102.132812 L 231.367188 186.527344 L 233.230469 187.800781 C 234.125 188.367188 235.074219 188.757812 236.074219 188.96875 C 237.089844 189.179688 238.179688 189.226562 239.335938 189.097656 L 255.089844 185.519531 L 253.335938 182.03125 C 252.402344 180.179688 253.144531 177.921875 254.996094 176.992188 Z M 161.03125 281.136719 C 162.617188 282.117188 163.691406 283.648438 164.144531 285.347656 C 164.617188 287.117188 164.425781 289.058594 163.453125 290.742188 L 161.558594 294.03125 L 161.484375 294.144531 C 161.378906 294.300781 161.28125 294.464844 161.199219 294.636719 L 152.917969 308.992188 L 152.917969 308.996094 L 152.902344 309.019531 C 151.9375 310.679688 150.359375 311.804688 148.601562 312.273438 C 146.917969 312.726562 145.074219 312.574219 143.449219 311.722656 C 143.296875 311.617188 143.136719 311.523438 142.96875 311.445312 C 141.421875 310.46875 140.371094 308.953125 139.921875 307.269531 C 139.449219 305.503906 139.636719 303.5625 140.609375 301.886719 L 151.242188 283.460938 C 152.214844 281.871094 153.753906 280.796875 155.464844 280.339844 C 157.148438 279.886719 158.992188 280.039062 160.617188 280.894531 Z M 137.640625 292.023438 C 139.96875 287.875 142.269531 283.671875 144.746094 279.722656 L 147.058594 275.71875 C 148.175781 273.785156 148.394531 271.558594 147.851562 269.53125 C 147.328125 267.574219 146.089844 265.8125 144.253906 264.6875 L 143.890625 264.476562 C 142.003906 263.453125 139.855469 263.261719 137.894531 263.785156 C 135.929688 264.3125 134.15625 265.554688 133.042969 267.390625 L 127.046875 277.773438 C 124.824219 281.738281 122.625 285.753906 120.273438 289.546875 C 119.378906 291.363281 119.230469 293.394531 119.730469 295.253906 C 120.25 297.195312 121.46875 298.945312 123.257812 300.0625 C 123.429688 300.144531 123.59375 300.238281 123.75 300.347656 C 125.621094 301.339844 127.746094 301.519531 129.6875 301 C 131.707031 300.460938 133.523438 299.152344 134.640625 297.21875 Z M 113.828125 285.675781 L 114.027344 285.320312 L 117.855469 278.695312 L 124.042969 267.976562 C 125.015625 266.296875 125.207031 264.359375 124.734375 262.589844 C 124.277344 260.882812 123.199219 259.347656 121.613281 258.371094 L 121.433594 258.273438 C 119.753906 257.304688 117.816406 257.113281 116.054688 257.585938 C 114.34375 258.042969 112.804688 259.117188 111.832031 260.707031 L 104.671875 273.113281 L 104.546875 273.328125 L 101.199219 279.128906 C 100.226562 280.808594 100.035156 282.746094 100.507812 284.511719 C 100.980469 286.273438 102.105469 287.851562 103.769531 288.816406 L 103.792969 288.832031 C 105.476562 289.800781 107.417969 289.996094 109.1875 289.519531 C 110.898438 289.0625 112.4375 287.984375 113.410156 286.398438 Z M 113.828125 285.675781 " fill-opacity="1" fill-rule="evenodd"/><path fill="#ffffff" d="M 177.777344 295.695312 C 177.636719 295.628906 177.496094 295.550781 177.363281 295.460938 C 175.722656 294.574219 173.851562 294.410156 172.148438 294.863281 C 170.394531 295.335938 168.820312 296.460938 167.847656 298.132812 L 159.414062 312.738281 C 158.441406 314.417969 158.25 316.359375 158.722656 318.125 C 159.195312 319.890625 160.332031 321.472656 162.007812 322.441406 C 163.6875 323.410156 165.632812 323.605469 167.402344 323.128906 C 169.171875 322.660156 170.753906 321.523438 171.722656 319.847656 L 172.554688 318.410156 C 172.597656 318.3125 172.648438 318.21875 172.707031 318.125 C 172.746094 318.050781 172.792969 317.984375 172.835938 317.914062 L 180.136719 305.269531 C 181.109375 303.585938 181.300781 301.640625 180.828125 299.871094 C 180.378906 298.1875 179.324219 296.671875 177.777344 295.695312 Z M 231.367188 81.683594 L 291.769531 81.683594 C 293.847656 81.683594 295.53125 83.367188 295.53125 85.445312 L 295.53125 98.371094 C 295.53125 100.449219 293.847656 102.132812 291.769531 102.132812 L 284.195312 102.132812 L 284.195312 162.289062 L 289.113281 159.8125 C 290.964844 158.878906 293.222656 159.621094 294.152344 161.472656 L 331.460938 235.566406 C 332.394531 237.417969 331.652344 239.671875 329.800781 240.605469 L 295.683594 257.785156 C 293.832031 258.71875 291.574219 257.976562 290.644531 256.125 L 289.449219 253.753906 C 285.882812 255.46875 282.800781 257.4375 280.210938 259.660156 C 277.796875 261.726562 275.800781 264.019531 274.230469 266.539062 C 276.261719 268.496094 277.671875 270.945312 278.375 273.578125 C 279.355469 277.234375 278.984375 281.257812 277.046875 284.820312 C 276.957031 285.023438 276.847656 285.21875 276.71875 285.410156 C 274.605469 288.917969 271.273438 291.285156 267.578125 292.273438 C 265.007812 292.964844 262.25 292.984375 259.601562 292.261719 C 259.734375 294.96875 259.152344 297.746094 257.773438 300.285156 C 257.679688 300.503906 257.5625 300.710938 257.429688 300.902344 C 255.320312 304.40625 251.992188 306.765625 248.300781 307.753906 C 244.863281 308.675781 241.09375 308.402344 237.691406 306.75 C 237.730469 309.285156 237.136719 311.863281 235.851562 314.238281 C 235.753906 314.453125 235.636719 314.660156 235.507812 314.851562 C 233.394531 318.355469 230.066406 320.71875 226.375 321.707031 C 223.1875 322.5625 219.714844 322.386719 216.515625 321.039062 C 216.570312 323.605469 215.976562 326.222656 214.671875 328.625 C 214.574219 328.839844 214.460938 329.046875 214.328125 329.238281 C 212.21875 332.742188 208.890625 335.101562 205.199219 336.089844 C 201.550781 337.070312 197.535156 336.699219 193.972656 334.769531 C 193.742188 334.667969 193.519531 334.539062 193.316406 334.394531 C 188.066406 331.363281 182.625 328.011719 177.265625 325.027344 C 175.25 327.726562 172.425781 329.5625 169.34375 330.390625 C 165.742188 331.355469 161.757812 330.945312 158.273438 328.9375 C 154.78125 326.917969 152.429688 323.667969 151.464844 320.0625 C 151.398438 319.816406 151.339844 319.566406 151.285156 319.3125 C 151.039062 319.394531 150.792969 319.464844 150.542969 319.535156 C 146.9375 320.5 142.957031 320.09375 139.472656 318.082031 L 139.390625 318.03125 C 135.941406 316.011719 133.621094 312.785156 132.664062 309.207031 C 132.558594 308.820312 132.46875 308.425781 132.398438 308.03125 C 132.144531 308.113281 131.886719 308.191406 131.628906 308.261719 C 127.765625 309.292969 123.5 308.855469 119.765625 306.703125 L 119.691406 306.660156 C 115.988281 304.496094 113.5 301.035156 112.472656 297.195312 C 112.402344 296.9375 112.339844 296.679688 112.285156 296.417969 C 111.902344 296.554688 111.519531 296.675781 111.128906 296.78125 C 107.648438 297.714844 103.8125 297.363281 100.414062 295.523438 C 100.164062 295.414062 99.925781 295.277344 99.703125 295.113281 C 96.40625 293.085938 94.183594 289.933594 93.25 286.453125 C 92.285156 282.847656 92.691406 278.867188 94.703125 275.382812 C 95.644531 273.816406 96.566406 272.214844 97.480469 270.601562 C 96.113281 260.902344 91.6875 257.953125 84.476562 254.046875 L 83.480469 256.03125 C 82.546875 257.878906 80.289062 258.625 78.441406 257.691406 L 44.320312 240.507812 C 42.46875 239.578125 41.726562 237.320312 42.660156 235.46875 L 79.96875 161.375 C 80.902344 159.527344 83.160156 158.78125 85.007812 159.714844 L 89.929688 162.191406 L 89.929688 102.132812 L 82.351562 102.132812 C 80.277344 102.132812 78.589844 100.449219 78.589844 98.371094 L 78.589844 85.445312 C 78.589844 83.367188 80.277344 81.683594 82.351562 81.683594 L 142.753906 81.683594 L 142.753906 60.296875 C 142.753906 58.21875 144.4375 56.535156 146.515625 56.535156 L 156.308594 56.535156 L 156.308594 41.136719 C 156.308594 39.0625 157.992188 37.375 160.070312 37.375 L 214.054688 37.375 C 216.128906 37.375 217.8125 39.0625 217.8125 41.136719 L 217.8125 56.535156 L 227.605469 56.535156 C 229.683594 56.535156 231.367188 58.21875 231.367188 60.296875 Z M 280.429688 94.609375 L 288.007812 94.609375 L 288.007812 89.207031 L 231.367188 89.207031 L 231.367188 94.609375 Z M 142.753906 89.207031 L 86.113281 89.207031 L 86.113281 94.609375 L 142.753906 94.609375 Z M 244.363281 140.257812 C 242.285156 140.257812 240.601562 141.941406 240.601562 144.019531 L 240.601562 163.332031 C 240.601562 165.40625 242.285156 167.09375 244.363281 167.09375 L 263.675781 167.09375 C 265.753906 167.09375 267.4375 165.40625 267.4375 163.332031 L 267.4375 144.019531 C 267.4375 141.941406 265.753906 140.257812 263.675781 140.257812 Z M 259.914062 147.78125 L 248.125 147.78125 L 248.125 159.570312 L 259.914062 159.570312 Z M 244.363281 107.113281 C 242.285156 107.113281 240.601562 108.796875 240.601562 110.875 L 240.601562 130.1875 C 240.601562 132.261719 242.285156 133.949219 244.363281 133.949219 L 263.675781 133.949219 C 265.753906 133.949219 267.4375 132.261719 267.4375 130.1875 L 267.4375 110.875 C 267.4375 108.796875 265.753906 107.113281 263.675781 107.113281 Z M 259.914062 114.632812 L 248.125 114.632812 L 248.125 126.425781 L 259.914062 126.425781 Z M 110.445312 140.257812 C 108.371094 140.257812 106.683594 141.941406 106.683594 144.019531 L 106.683594 163.332031 C 106.683594 165.40625 108.371094 167.09375 110.445312 167.09375 L 129.757812 167.09375 C 131.835938 167.09375 133.519531 165.40625 133.519531 163.332031 L 133.519531 144.019531 C 133.519531 141.941406 131.835938 140.257812 129.757812 140.257812 Z M 125.996094 147.78125 L 114.207031 147.78125 L 114.207031 159.570312 L 125.996094 159.570312 Z M 110.445312 107.113281 C 108.371094 107.113281 106.683594 108.796875 106.683594 110.875 L 106.683594 130.1875 C 106.683594 132.261719 108.371094 133.949219 110.445312 133.949219 L 129.757812 133.949219 C 131.835938 133.949219 133.519531 132.261719 133.519531 130.1875 L 133.519531 110.875 C 133.519531 108.796875 131.835938 107.113281 129.757812 107.113281 Z M 125.996094 114.632812 L 114.207031 114.632812 L 114.207031 126.425781 L 125.996094 126.425781 Z M 195.28125 140.257812 C 193.203125 140.257812 191.519531 141.941406 191.519531 144.019531 L 191.519531 163.332031 C 191.519531 165.40625 193.203125 167.09375 195.28125 167.09375 L 214.59375 167.09375 C 216.671875 167.09375 218.355469 165.40625 218.355469 163.332031 L 218.355469 144.019531 C 218.355469 141.941406 216.671875 140.257812 214.59375 140.257812 Z M 210.832031 147.78125 L 199.042969 147.78125 L 199.042969 159.570312 L 210.832031 159.570312 Z M 159.527344 140.257812 C 157.453125 140.257812 155.765625 141.941406 155.765625 144.019531 L 155.765625 163.332031 C 155.765625 165.40625 157.453125 167.09375 159.527344 167.09375 L 178.839844 167.09375 C 180.917969 167.09375 182.601562 165.40625 182.601562 163.332031 L 182.601562 144.019531 C 182.601562 141.941406 180.917969 140.257812 178.839844 140.257812 Z M 175.078125 147.78125 L 163.289062 147.78125 L 163.289062 159.570312 L 175.078125 159.570312 Z M 195.28125 107.113281 C 193.203125 107.113281 191.519531 108.796875 191.519531 110.875 L 191.519531 130.1875 C 191.519531 132.261719 193.203125 133.949219 195.28125 133.949219 L 214.59375 133.949219 C 216.671875 133.949219 218.355469 132.261719 218.355469 130.1875 L 218.355469 110.875 C 218.355469 108.796875 216.671875 107.113281 214.59375 107.113281 Z M 210.832031 114.632812 L 199.042969 114.632812 L 199.042969 126.425781 L 210.832031 126.425781 Z M 159.527344 107.113281 C 157.453125 107.113281 155.765625 108.796875 155.765625 110.875 L 155.765625 130.1875 C 155.765625 132.261719 157.453125 133.949219 159.527344 133.949219 L 178.839844 133.949219 C 180.917969 133.949219 182.601562 132.261719 182.601562 130.1875 L 182.601562 110.875 C 182.601562 108.796875 180.917969 107.113281 178.839844 107.113281 Z M 175.078125 114.632812 L 163.289062 114.632812 L 163.289062 126.425781 L 175.078125 126.425781 Z M 195.28125 73.964844 C 193.203125 73.964844 191.519531 75.652344 191.519531 77.726562 L 191.519531 97.039062 C 191.519531 99.117188 193.203125 100.800781 195.28125 100.800781 L 214.59375 100.800781 C 216.671875 100.800781 218.355469 99.117188 218.355469 97.039062 L 218.355469 77.726562 C 218.355469 75.652344 216.671875 73.964844 214.59375 73.964844 Z M 210.832031 81.488281 L 199.042969 81.488281 L 199.042969 93.277344 L 210.832031 93.277344 Z M 159.527344 73.964844 C 157.453125 73.964844 155.765625 75.652344 155.765625 77.726562 L 155.765625 97.039062 C 155.765625 99.117188 157.453125 100.800781 159.527344 100.800781 L 178.839844 100.800781 C 180.917969 100.800781 182.601562 99.117188 182.601562 97.039062 L 182.601562 77.726562 C 182.601562 75.652344 180.917969 73.964844 178.839844 73.964844 Z M 175.078125 81.488281 L 163.289062 81.488281 L 163.289062 93.277344 L 175.078125 93.277344 Z M 210.292969 44.898438 L 163.832031 44.898438 L 163.832031 56.535156 L 210.292969 56.535156 Z M 92.238281 171.757812 C 92.078125 171.691406 91.929688 171.617188 91.785156 171.527344 L 84.984375 168.105469 L 51.050781 235.496094 L 78.464844 249.300781 L 79.746094 246.757812 C 90.414062 225.019531 101.519531 203.511719 112.398438 181.910156 Z M 142.753906 102.132812 L 97.453125 102.132812 L 97.453125 165.980469 L 119.128906 176.894531 C 120.980469 177.828125 121.722656 180.085938 120.789062 181.933594 L 119.257812 184.972656 C 124.375 187.460938 129.101562 189.179688 133.539062 189.300781 C 136.601562 189.382812 139.644531 188.683594 142.753906 186.902344 Z M 148.789062 191.960938 C 150.597656 190.6875 152.410156 189.136719 154.230469 187.277344 C 155.945312 185.980469 157.484375 185.019531 158.835938 184.410156 C 159.785156 183.980469 160.59375 183.734375 161.253906 183.679688 L 166.132812 185.007812 L 135.777344 211.070312 C 135.386719 211.382812 135.054688 211.777344 134.808594 212.246094 C 133.078125 215.542969 133.007812 218.609375 134.601562 221.445312 C 135.929688 223.804688 138.421875 225.757812 142.074219 227.300781 C 142.324219 227.421875 142.589844 227.515625 142.871094 227.578125 C 146.457031 228.398438 150.230469 228.621094 154.191406 228.253906 C 158.09375 227.886719 162.132812 226.957031 166.296875 225.46875 C 168.148438 224.878906 170.273438 223.992188 172.667969 222.804688 C 174.476562 221.910156 176.488281 220.8125 178.699219 219.515625 L 267.683594 270.890625 C 269.429688 271.957031 270.617188 273.640625 271.117188 275.519531 C 271.613281 277.367188 271.445312 279.386719 270.503906 281.167969 L 270.246094 281.601562 C 269.175781 283.339844 267.5 284.519531 265.640625 285.015625 C 263.773438 285.515625 261.726562 285.335938 259.929688 284.359375 L 236.222656 270.675781 C 234.429688 269.636719 232.132812 270.25 231.09375 272.042969 C 230.058594 273.835938 230.667969 276.132812 232.460938 277.171875 L 248.507812 286.4375 C 250.199219 287.503906 251.34375 289.164062 251.839844 291 C 252.355469 292.933594 252.144531 295.054688 251.082031 296.890625 C 250.015625 298.734375 248.285156 299.980469 246.359375 300.496094 C 244.429688 301.015625 242.308594 300.804688 240.472656 299.742188 L 230.066406 293.734375 L 216.945312 286.15625 L 216.863281 286.109375 L 216.859375 286.109375 C 215.066406 285.074219 212.773438 285.683594 211.734375 287.476562 C 210.695312 289.269531 211.308594 291.566406 213.101562 292.605469 L 226.304688 300.230469 L 226.394531 300.28125 C 228.191406 301.351562 229.40625 303.054688 229.914062 304.953125 C 230.429688 306.882812 230.222656 309.003906 229.15625 310.84375 C 228.09375 312.6875 226.363281 313.933594 224.433594 314.449219 C 222.503906 314.964844 220.382812 314.757812 218.546875 313.691406 L 199.675781 302.796875 C 199.597656 302.75 199.523438 302.710938 199.445312 302.671875 L 197.707031 301.671875 C 195.914062 300.640625 193.625 301.257812 192.59375 303.050781 C 191.5625 304.84375 192.183594 307.136719 193.976562 308.164062 L 195.738281 309.183594 L 195.914062 309.292969 L 204.90625 314.484375 C 205.050781 314.578125 205.195312 314.667969 205.347656 314.742188 L 205.367188 314.75 L 205.429688 314.785156 C 207.109375 315.855469 208.246094 317.507812 208.738281 319.335938 C 209.230469 321.183594 209.0625 323.207031 208.117188 324.988281 C 208.027344 325.125 207.945312 325.265625 207.871094 325.410156 C 206.800781 327.152344 205.121094 328.332031 203.257812 328.832031 C 201.324219 329.351562 199.199219 329.140625 197.355469 328.078125 C 191.949219 325.09375 186.429688 321.867188 181.039062 318.6875 L 186.632812 309.003906 C 188.644531 305.515625 189.050781 301.535156 188.085938 297.933594 C 187.152344 294.449219 184.929688 291.300781 181.632812 289.273438 C 181.441406 289.128906 181.234375 289.007812 181.011719 288.902344 C 178.136719 287.324219 174.9375 286.816406 171.902344 287.257812 C 171.910156 285.953125 171.738281 284.65625 171.40625 283.40625 C 170.460938 279.882812 168.207031 276.703125 164.863281 274.683594 C 164.667969 274.550781 164.460938 274.433594 164.246094 274.339844 C 161.515625 272.859375 158.5 272.339844 155.613281 272.679688 C 155.726562 270.957031 155.554688 269.238281 155.113281 267.589844 C 154.078125 263.734375 151.585938 260.265625 147.875 258.109375 L 147.832031 258.082031 C 144.09375 255.925781 139.824219 255.492188 135.957031 256.527344 C 134.308594 256.96875 132.730469 257.679688 131.292969 258.640625 C 130.140625 255.972656 128.183594 253.617188 125.535156 251.988281 C 125.34375 251.847656 125.136719 251.726562 124.917969 251.621094 C 121.5 249.746094 117.625 249.382812 114.113281 250.328125 C 110.59375 251.269531 107.414062 253.527344 105.390625 256.882812 C 104.511719 258.277344 103.660156 259.699219 102.820312 261.144531 C 99.980469 254.183594 94.953125 251.167969 87.855469 247.339844 L 115.882812 191.675781 C 121.886719 194.597656 127.578125 196.636719 133.335938 196.792969 C 138.492188 196.9375 143.503906 195.605469 148.535156 192.136719 L 148.539062 192.132812 L 148.542969 192.132812 L 148.554688 192.121094 L 148.570312 192.113281 L 148.589844 192.101562 L 148.605469 192.09375 L 148.617188 192.082031 L 148.621094 192.082031 L 148.652344 192.058594 L 148.667969 192.050781 L 148.683594 192.039062 L 148.691406 192.03125 L 148.699219 192.027344 L 148.746094 191.992188 L 148.757812 191.984375 L 148.765625 191.976562 L 148.773438 191.972656 Z M 223.84375 98.371094 L 223.84375 64.058594 L 150.277344 64.058594 L 150.277344 180.863281 C 152.230469 179.429688 154.054688 178.328125 155.75 177.5625 C 157.800781 176.636719 159.722656 176.171875 161.515625 176.167969 C 161.917969 176.140625 162.335938 176.179688 162.75 176.289062 L 173.027344 179.085938 L 174.269531 178.019531 L 174.507812 177.832031 C 175.972656 176.761719 177.59375 175.964844 179.359375 175.445312 C 181.0625 174.945312 182.890625 174.714844 184.839844 174.753906 C 192.945312 175.261719 202.230469 174.867188 210.484375 174.988281 C 212.328125 175.042969 214.175781 175.488281 216.023438 176.3125 C 217.714844 177.070312 219.402344 178.140625 221.070312 179.507812 L 223.84375 181.398438 Z M 261.722656 182.003906 L 295.65625 249.398438 L 323.074219 235.59375 L 289.140625 168.199219 C 280 172.800781 270.863281 177.402344 261.722656 182.003906 Z M 225.695312 191.75 L 225.671875 191.734375 L 225.65625 191.726562 L 225.644531 191.714844 L 225.632812 191.710938 L 225.617188 191.699219 L 225.605469 191.691406 L 225.589844 191.683594 L 225.566406 191.667969 L 225.550781 191.660156 L 225.539062 191.652344 L 225.527344 191.640625 L 225.503906 191.625 L 225.5 191.625 L 225.464844 191.601562 L 225.449219 191.589844 L 225.4375 191.582031 L 225.429688 191.574219 L 225.425781 191.574219 L 225.414062 191.5625 L 225.402344 191.554688 L 225.386719 191.546875 L 225.375 191.539062 L 225.363281 191.527344 L 225.355469 191.523438 L 225.339844 191.507812 L 225.316406 191.492188 L 225.300781 191.480469 L 225.289062 191.472656 L 225.285156 191.464844 L 216.800781 185.683594 C 216.660156 185.597656 216.523438 185.5 216.394531 185.390625 C 215.179688 184.382812 214.035156 183.640625 212.964844 183.160156 C 212.011719 182.734375 211.117188 182.507812 210.28125 182.480469 L 184.691406 182.246094 C 183.53125 182.226562 182.457031 182.359375 181.476562 182.648438 C 180.589844 182.90625 179.761719 183.308594 178.996094 183.851562 L 176.59375 185.914062 C 176.472656 186.03125 176.34375 186.144531 176.210938 186.246094 L 141.195312 216.308594 C 140.960938 216.917969 140.949219 217.40625 141.15625 217.773438 C 141.636719 218.628906 142.863281 219.480469 144.828125 220.324219 C 147.570312 220.917969 150.46875 221.074219 153.515625 220.789062 C 156.710938 220.492188 160.132812 219.6875 163.769531 218.386719 L 163.917969 218.34375 C 165.453125 217.867188 167.265625 217.109375 169.351562 216.074219 C 171.546875 214.988281 173.976562 213.636719 176.625 212.03125 C 177.765625 211.292969 179.273438 211.199219 180.535156 211.925781 L 267.964844 262.402344 C 269.921875 259.300781 272.378906 256.488281 275.328125 253.957031 C 278.183594 251.511719 282.160156 248.914062 286.027344 246.960938 L 258.453125 192.203125 L 240.824219 196.453125 L 240.472656 196.511719 C 238.390625 196.773438 236.414062 196.707031 234.542969 196.3125 C 232.613281 195.910156 230.808594 195.167969 229.136719 194.09375 L 225.703125 191.75 Z M 276.671875 166.078125 L 276.671875 102.132812 L 231.367188 102.132812 L 231.367188 186.527344 L 233.230469 187.800781 C 234.125 188.367188 235.074219 188.757812 236.074219 188.96875 C 237.089844 189.179688 238.179688 189.226562 239.335938 189.097656 L 255.089844 185.519531 L 253.335938 182.03125 C 252.402344 180.179688 253.144531 177.921875 254.996094 176.992188 Z M 161.03125 281.136719 C 162.617188 282.117188 163.691406 283.648438 164.144531 285.347656 C 164.617188 287.117188 164.425781 289.058594 163.453125 290.742188 L 161.558594 294.03125 L 161.484375 294.144531 C 161.378906 294.300781 161.28125 294.464844 161.199219 294.636719 L 152.917969 308.992188 L 152.917969 308.996094 L 152.902344 309.019531 C 151.9375 310.679688 150.359375 311.804688 148.601562 312.273438 C 146.917969 312.726562 145.074219 312.574219 143.449219 311.722656 C 143.296875 311.617188 143.136719 311.523438 142.96875 311.445312 C 141.421875 310.46875 140.371094 308.953125 139.921875 307.269531 C 139.449219 305.503906 139.636719 303.5625 140.609375 301.886719 L 151.242188 283.460938 C 152.214844 281.871094 153.753906 280.796875 155.464844 280.339844 C 157.148438 279.886719 158.992188 280.039062 160.617188 280.894531 Z M 137.640625 292.023438 C 139.96875 287.875 142.269531 283.671875 144.746094 279.722656 L 147.058594 275.71875 C 148.175781 273.785156 148.394531 271.558594 147.851562 269.53125 C 147.328125 267.574219 146.089844 265.8125 144.253906 264.6875 L 143.890625 264.476562 C 142.003906 263.453125 139.855469 263.261719 137.894531 263.785156 C 135.929688 264.3125 134.15625 265.554688 133.042969 267.390625 L 127.046875 277.773438 C 124.824219 281.738281 122.625 285.753906 120.273438 289.546875 C 119.378906 291.363281 119.230469 293.394531 119.730469 295.253906 C 120.25 297.195312 121.46875 298.945312 123.257812 300.0625 C 123.429688 300.144531 123.59375 300.238281 123.75 300.347656 C 125.621094 301.339844 127.746094 301.519531 129.6875 301 C 131.707031 300.460938 133.523438 299.152344 134.640625 297.21875 Z M 113.828125 285.675781 L 114.027344 285.320312 L 117.855469 278.695312 L 124.042969 267.976562 C 125.015625 266.296875 125.207031 264.359375 124.734375 262.589844 C 124.277344 260.882812 123.199219 259.347656 121.613281 258.371094 L 121.433594 258.273438 C 119.753906 257.304688 117.816406 257.113281 116.054688 257.585938 C 114.34375 258.042969 112.804688 259.117188 111.832031 260.707031 L 104.671875 273.113281 L 104.546875 273.328125 L 101.199219 279.128906 C 100.226562 280.808594 100.035156 282.746094 100.507812 284.511719 C 100.980469 286.273438 102.105469 287.851562 103.769531 288.816406 L 103.792969 288.832031 C 105.476562 289.800781 107.417969 289.996094 109.1875 289.519531 C 110.898438 289.0625 112.4375 287.984375 113.410156 286.398438 Z M 113.828125 285.675781 " fill-opacity="1" fill-rule="evenodd"/></g></svg>