<svg xmlns="http://www.w3.org/2000/svg" xmlns:xlink="http://www.w3.org/1999/xlink" width="500" zoomAndPan="magnify" viewBox="0 0 375.12 383.03998" height="500" preserveAspectRatio="xMidYMid meet" version="1.0"><defs><clipPath id="94b08d329c"><path d="M 42.671875 37.40625 L 331.449219 37.40625 L 331.449219 336.65625 L 42.671875 336.65625 Z M 42.671875 37.40625 " clip-rule="nonzero"/></clipPath></defs><g clip-path="url(#94b08d329c)"><path fill="#000000" d="M 331.113281 307.832031 C 329.515625 286.558594 314.882812 268.96875 295.460938 262.679688 C 304.027344 257.394531 309.75 247.925781 309.75 237.144531 C 309.75 220.605469 296.292969 207.152344 279.757812 207.152344 C 263.21875 207.152344 249.765625 220.605469 249.765625 237.144531 C 249.765625 247.917969 255.476562 257.378906 264.027344 262.667969 C 251.410156 266.738281 240.683594 275.601562 234.328125 287.488281 C 226.136719 278.796875 215.609375 272.355469 203.832031 269.171875 C 215.980469 263.015625 224.332031 250.410156 224.332031 235.886719 C 224.332031 215.320312 207.597656 198.589844 187.03125 198.589844 C 166.46875 198.589844 149.734375 215.320312 149.734375 235.886719 C 149.734375 250.410156 158.085938 263.015625 170.234375 269.171875 C 158.457031 272.355469 147.929688 278.796875 139.734375 287.488281 C 133.382812 275.601562 122.65625 266.738281 110.039062 262.667969 C 118.589844 257.375 124.300781 247.917969 124.300781 237.144531 C 124.300781 220.605469 110.847656 207.152344 94.308594 207.152344 C 77.773438 207.152344 64.316406 220.605469 64.316406 237.144531 C 64.316406 247.925781 70.039062 257.394531 78.605469 262.679688 C 59.183594 268.96875 44.546875 286.558594 42.953125 307.832031 C 42.789062 310.039062 43.550781 312.230469 45.050781 313.84375 C 46.550781 315.457031 48.675781 316.386719 50.890625 316.386719 L 123.914062 316.386719 C 123.054688 319.851562 122.472656 323.425781 122.195312 327.085938 C 122.011719 329.558594 122.867188 332.007812 124.542969 333.816406 C 126.21875 335.621094 128.597656 336.65625 131.074219 336.65625 L 242.992188 336.65625 C 245.46875 336.65625 247.847656 335.621094 249.523438 333.816406 C 251.199219 332.007812 252.054688 329.558594 251.871094 327.085938 C 251.597656 323.425781 251.015625 319.851562 250.15625 316.386719 L 323.179688 316.386719 C 325.390625 316.386719 327.519531 315.457031 329.015625 313.84375 C 330.515625 312.230469 331.28125 310.039062 331.117188 307.832031 Z M 279.757812 216.539062 C 291.117188 216.539062 300.359375 225.78125 300.359375 237.144531 C 300.359375 248.503906 291.117188 257.746094 279.757812 257.746094 C 268.394531 257.746094 259.152344 248.503906 259.152344 237.144531 C 259.152344 225.78125 268.394531 216.539062 279.757812 216.539062 Z M 159.121094 235.886719 C 159.121094 220.496094 171.644531 207.976562 187.03125 207.976562 C 202.421875 207.976562 214.941406 220.496094 214.941406 235.886719 C 214.941406 251.277344 202.421875 263.796875 187.03125 263.796875 C 171.644531 263.796875 159.121094 251.277344 159.121094 235.886719 Z M 94.308594 216.539062 C 105.667969 216.539062 114.910156 225.78125 114.910156 237.144531 C 114.910156 248.503906 105.667969 257.746094 94.308594 257.746094 C 82.945312 257.746094 73.703125 248.503906 73.703125 237.144531 C 73.703125 225.78125 82.945312 216.539062 94.308594 216.539062 Z M 52.457031 306.996094 C 54.820312 285.890625 72.914062 269.578125 94.308594 269.578125 C 111.351562 269.578125 126.691406 279.953125 133.207031 295.617188 C 130.789062 299.175781 128.714844 302.984375 127.03125 306.996094 Z M 131.597656 327.269531 C 134.015625 298.664062 158.265625 276.332031 187.03125 276.332031 C 215.800781 276.332031 240.046875 298.664062 242.464844 327.269531 Z M 247.035156 306.996094 C 245.347656 302.984375 243.277344 299.175781 240.859375 295.617188 C 247.371094 279.953125 262.714844 269.578125 279.757812 269.578125 C 301.148438 269.578125 319.242188 285.894531 321.609375 306.996094 Z M 182.335938 68.160156 L 182.335938 42.101562 C 182.335938 39.507812 184.441406 37.40625 187.03125 37.40625 C 189.625 37.40625 191.726562 39.507812 191.726562 42.101562 L 191.726562 68.160156 C 191.726562 70.753906 189.625 72.855469 187.03125 72.855469 C 184.441406 72.855469 182.335938 70.753906 182.335938 68.160156 Z M 119.507812 72.015625 C 117.671875 70.183594 117.671875 67.210938 119.507812 65.375 C 121.339844 63.542969 124.3125 63.542969 126.144531 65.375 L 144.570312 83.804688 C 146.40625 85.636719 146.40625 88.609375 144.570312 90.441406 C 143.65625 91.359375 142.453125 91.816406 141.253906 91.816406 C 140.050781 91.816406 138.851562 91.359375 137.933594 90.441406 Z M 91.535156 132.902344 C 91.535156 130.308594 93.636719 128.207031 96.230469 128.207031 L 122.289062 128.207031 C 124.882812 128.207031 126.984375 130.308594 126.984375 132.902344 C 126.984375 135.492188 124.882812 137.597656 122.289062 137.597656 L 96.230469 137.597656 C 93.636719 137.597656 91.535156 135.492188 91.535156 132.902344 Z M 229.492188 90.441406 C 227.660156 88.609375 227.660156 85.636719 229.492188 83.804688 L 247.917969 65.375 C 249.75 63.542969 252.722656 63.542969 254.558594 65.375 C 256.390625 67.210938 256.390625 70.183594 254.558594 72.015625 L 236.128906 90.441406 C 235.214844 91.359375 234.011719 91.816406 232.8125 91.816406 C 231.609375 91.816406 230.40625 91.359375 229.492188 90.441406 Z M 251.773438 128.207031 L 277.832031 128.207031 C 280.425781 128.207031 282.527344 130.308594 282.527344 132.902344 C 282.527344 135.492188 280.425781 137.597656 277.832031 137.597656 L 251.773438 137.597656 C 249.179688 137.597656 247.078125 135.492188 247.078125 132.902344 C 247.078125 130.308594 249.179688 128.207031 251.773438 128.207031 Z M 138.488281 117.128906 C 137.90625 118.925781 138.457031 120.898438 139.886719 122.132812 L 161.84375 141.085938 L 155.21875 169.324219 C 154.789062 171.164062 155.503906 173.082031 157.03125 174.191406 C 158.558594 175.304688 160.605469 175.390625 162.222656 174.410156 L 187.03125 159.386719 L 211.839844 174.410156 C 212.589844 174.863281 213.433594 175.089844 214.273438 175.089844 C 215.242188 175.089844 216.210938 174.789062 217.03125 174.191406 C 218.558594 173.082031 219.273438 171.164062 218.84375 169.324219 L 212.21875 141.085938 L 234.175781 122.132812 C 235.605469 120.898438 236.15625 118.925781 235.574219 117.128906 C 234.988281 115.332031 233.386719 114.0625 231.503906 113.902344 L 202.597656 111.476562 L 191.359375 84.738281 C 190.628906 82.996094 188.921875 81.859375 187.03125 81.859375 C 185.140625 81.859375 183.4375 82.996094 182.707031 84.738281 L 171.464844 111.476562 L 142.5625 113.902344 C 140.679688 114.058594 139.074219 115.332031 138.492188 117.128906 Z M 175.082031 120.59375 C 176.824219 120.445312 178.339844 119.34375 179.019531 117.734375 L 187.03125 98.667969 L 195.046875 117.734375 C 195.722656 119.34375 197.238281 120.445312 198.980469 120.59375 L 219.589844 122.324219 L 203.933594 135.835938 C 202.609375 136.976562 202.03125 138.761719 202.429688 140.460938 L 207.152344 160.597656 L 189.464844 149.882812 C 188.714844 149.429688 187.875 149.203125 187.03125 149.203125 C 186.1875 149.203125 185.347656 149.429688 184.597656 149.882812 L 166.910156 160.597656 L 171.632812 140.460938 C 172.03125 138.761719 171.453125 136.976562 170.128906 135.835938 L 154.472656 122.324219 Z M 175.082031 120.59375 " fill-opacity="1" fill-rule="nonzero"/></g></svg>