<svg xmlns="http://www.w3.org/2000/svg" xmlns:xlink="http://www.w3.org/1999/xlink" width="500" zoomAndPan="magnify" viewBox="0 0 375.12 383.03998" height="500" preserveAspectRatio="xMidYMid meet" version="1.0"><defs><clipPath id="4f5d914663"><path d="M 42.484375 206 L 93 206 L 93 336.65625 L 42.484375 336.65625 Z M 42.484375 206 " clip-rule="nonzero"/></clipPath><clipPath id="8fd1356edd"><path d="M 138 37.40625 L 274 37.40625 L 274 97 L 138 97 Z M 138 37.40625 " clip-rule="nonzero"/></clipPath><clipPath id="bedcc13e47"><path d="M 187 37.40625 L 267 37.40625 L 267 182 L 187 182 Z M 187 37.40625 " clip-rule="nonzero"/></clipPath><clipPath id="d1ea12857f"><path d="M 52 37.40625 L 163 37.40625 L 163 148 L 52 148 Z M 52 37.40625 " clip-rule="nonzero"/></clipPath><clipPath id="918396e61b"><path d="M 252 77 L 332.011719 77 L 332.011719 158 L 252 158 Z M 252 77 " clip-rule="nonzero"/></clipPath></defs><g clip-path="url(#4f5d914663)"><path fill="#000000" d="M 74.933594 336.589844 L 59.957031 336.589844 C 50.324219 336.589844 42.484375 328.765625 42.484375 319.144531 L 42.484375 224.421875 C 42.484375 214.800781 50.324219 206.972656 59.957031 206.972656 L 74.933594 206.972656 C 84.566406 206.972656 92.402344 214.800781 92.402344 224.421875 L 92.402344 319.144531 C 92.402344 328.765625 84.566406 336.589844 74.933594 336.589844 Z M 59.957031 216.941406 C 55.828125 216.941406 52.46875 220.296875 52.46875 224.421875 L 52.46875 319.144531 C 52.46875 323.265625 55.828125 326.621094 59.957031 326.621094 L 74.933594 326.621094 C 79.0625 326.621094 82.421875 323.265625 82.421875 319.144531 L 82.421875 224.421875 C 82.421875 220.296875 79.0625 216.941406 74.933594 216.941406 Z M 59.957031 216.941406 " fill-opacity="1" fill-rule="nonzero"/></g><path fill="#000000" d="M 154.664062 276.765625 C 153.121094 276.765625 151.601562 276.054688 150.625 274.714844 C 149.003906 272.488281 149.496094 269.371094 151.726562 267.75 L 192.164062 238.378906 C 198.105469 234.0625 199.566406 225.898438 195.492188 219.792969 C 191.367188 213.617188 183.203125 211.863281 176.902344 215.796875 L 152.316406 231.140625 C 150.957031 231.988281 149.273438 232.136719 147.789062 231.53125 C 128 223.484375 106.554688 225.941406 90.421875 238.101562 C 88.21875 239.761719 85.089844 239.324219 83.429688 237.128906 C 81.769531 234.929688 82.207031 231.804688 84.40625 230.144531 C 102.714844 216.34375 126.738281 213.128906 149.144531 221.363281 L 171.609375 207.339844 C 182.519531 200.53125 196.660156 203.570312 203.796875 214.261719 C 210.855469 224.835938 208.324219 238.96875 198.035156 246.441406 L 157.597656 275.8125 C 156.710938 276.457031 155.683594 276.765625 154.664062 276.765625 Z M 154.664062 276.765625 " fill-opacity="1" fill-rule="nonzero"/><path fill="#000000" d="M 138.835938 321.261719 C 132.78125 321.261719 126.695312 320.71875 120.625 319.617188 L 86.519531 313.421875 C 83.808594 312.929688 82.007812 310.335938 82.5 307.625 C 82.996094 304.917969 85.59375 303.121094 88.304688 303.613281 L 122.410156 309.804688 C 145.722656 314.039062 169.421875 309.140625 189.136719 296.015625 L 275.660156 238.40625 C 282.011719 234.175781 283.980469 225.628906 280.046875 219.351562 C 276.183594 213.183594 268.136719 211.050781 261.730469 214.496094 L 185.5 255.492188 C 183.070312 256.796875 180.046875 255.890625 178.738281 253.464844 C 177.429688 251.042969 178.339844 248.019531 180.765625 246.710938 L 256.996094 205.71875 C 268.023438 199.789062 281.867188 203.453125 288.511719 214.0625 C 295.28125 224.867188 292 239.507812 281.199219 246.699219 L 194.671875 304.308594 C 177.925781 315.460938 158.585938 321.261719 138.835938 321.261719 Z M 138.835938 321.261719 " fill-opacity="1" fill-rule="nonzero"/><path fill="#000000" d="M 67.445312 246.855469 C 64.6875 246.855469 62.453125 244.625 62.453125 241.871094 L 62.453125 236.882812 C 62.453125 234.132812 64.6875 231.898438 67.445312 231.898438 C 70.203125 231.898438 72.4375 234.132812 72.4375 236.882812 L 72.4375 241.871094 C 72.4375 244.625 70.203125 246.855469 67.445312 246.855469 Z M 67.445312 246.855469 " fill-opacity="1" fill-rule="nonzero"/><path fill="#000000" d="M 152.300781 206.992188 C 151.507812 206.992188 150.703125 206.804688 149.953125 206.402344 C 138.140625 200.101562 127.703125 191.058594 119.761719 180.253906 C 111.6875 169.269531 106.160156 156.394531 103.777344 143.019531 C 103.296875 140.308594 105.105469 137.71875 107.820312 137.238281 C 110.535156 136.757812 113.125 138.5625 113.609375 141.273438 C 117.851562 165.097656 133.195312 186.15625 154.660156 197.609375 C 157.089844 198.910156 158.007812 201.929688 156.710938 204.355469 C 155.808594 206.035156 154.085938 206.992188 152.300781 206.992188 Z M 152.300781 206.992188 " fill-opacity="1" fill-rule="nonzero"/><g clip-path="url(#8fd1356edd)"><path fill="#000000" d="M 269.003906 96.015625 C 267.136719 96.015625 265.34375 94.960938 264.488281 93.160156 C 258.109375 79.683594 248.097656 68.273438 235.53125 60.164062 C 222.636719 51.839844 207.667969 47.441406 192.238281 47.441406 C 175.6875 47.441406 159.8125 52.449219 146.328125 61.929688 C 144.074219 63.515625 140.960938 62.972656 139.375 60.722656 C 137.785156 58.46875 138.328125 55.359375 140.582031 53.773438 C 155.757812 43.109375 173.621094 37.472656 192.238281 37.472656 C 209.59375 37.472656 226.4375 42.421875 240.949219 51.789062 C 255.078125 60.910156 266.339844 73.742188 273.515625 88.898438 C 274.695312 91.386719 273.628906 94.359375 271.136719 95.535156 C 270.445312 95.859375 269.71875 96.015625 269.003906 96.015625 Z M 269.003906 96.015625 " fill-opacity="1" fill-rule="nonzero"/></g><path fill="#000000" d="M 220.984375 211.960938 C 218.9375 211.960938 217.019531 210.695312 216.285156 208.660156 C 215.351562 206.070312 216.699219 203.214844 219.292969 202.28125 C 244.535156 193.207031 263.417969 172.28125 269.804688 146.304688 C 270.464844 143.628906 273.167969 141.996094 275.84375 142.652344 C 278.523438 143.308594 280.160156 146.007812 279.5 148.683594 C 272.3125 177.914062 251.070312 201.457031 222.675781 211.664062 C 222.117188 211.863281 221.546875 211.960938 220.984375 211.960938 Z M 220.984375 211.960938 " fill-opacity="1" fill-rule="nonzero"/><path fill="#000000" d="M 192.238281 182.046875 C 177.707031 182.046875 164.007812 176.429688 153.667969 166.234375 C 143.335938 156.050781 137.535156 142.460938 137.335938 127.976562 C 137.296875 125.222656 139.5 122.960938 142.257812 122.921875 C 145.015625 122.878906 147.28125 125.085938 147.316406 127.839844 C 147.480469 139.6875 152.226562 150.804688 160.679688 159.140625 C 169.140625 167.480469 180.351562 172.074219 192.242188 172.074219 C 217.011719 172.074219 237.167969 151.945312 237.167969 127.207031 C 237.167969 102.464844 217.011719 82.339844 192.242188 82.339844 C 180.40625 82.339844 169.238281 86.894531 160.789062 95.167969 C 158.820312 97.09375 155.660156 97.0625 153.730469 95.097656 C 151.796875 93.132812 151.828125 89.976562 153.796875 88.050781 C 164.125 77.9375 177.777344 72.367188 192.242188 72.367188 C 222.519531 72.367188 247.152344 96.96875 247.152344 127.207031 C 247.152344 157.445312 222.519531 182.046875 192.242188 182.046875 Z M 192.238281 182.046875 " fill-opacity="1" fill-rule="nonzero"/><g clip-path="url(#bedcc13e47)"><path fill="#000000" d="M 261.570312 181.070312 C 260.574219 181.070312 259.570312 180.773438 258.695312 180.160156 L 189.363281 131.28125 C 188.035156 130.34375 187.25 128.824219 187.25 127.207031 L 187.25 42.457031 C 187.25 39.703125 189.484375 37.472656 192.238281 37.472656 C 194.996094 37.472656 197.230469 39.703125 197.230469 42.457031 L 197.230469 124.625 L 264.453125 172.011719 C 266.707031 173.601562 267.242188 176.710938 265.652344 178.960938 C 264.679688 180.335938 263.136719 181.070312 261.570312 181.070312 Z M 261.570312 181.070312 " fill-opacity="1" fill-rule="nonzero"/></g><path fill="#000000" d="M 192.238281 132.191406 C 191.179688 132.191406 190.113281 131.859375 189.207031 131.167969 C 187.015625 129.492188 186.601562 126.363281 188.273438 124.179688 L 239.824219 56.851562 C 241.5 54.664062 244.632812 54.25 246.824219 55.921875 C 249.011719 57.59375 249.429688 60.722656 247.757812 62.910156 L 196.203125 130.234375 C 195.222656 131.519531 193.738281 132.191406 192.234375 132.191406 Z M 192.238281 132.191406 " fill-opacity="1" fill-rule="nonzero"/><g clip-path="url(#d1ea12857f)"><path fill="#000000" d="M 107.378906 147.148438 C 77.101562 147.148438 52.46875 122.546875 52.46875 92.308594 C 52.46875 62.070312 77.101562 37.472656 107.378906 37.472656 C 137.65625 37.472656 162.289062 62.070312 162.289062 92.308594 C 162.289062 122.546875 137.65625 147.148438 107.378906 147.148438 Z M 107.378906 47.441406 C 82.605469 47.441406 62.453125 67.570312 62.453125 92.308594 C 62.453125 117.050781 82.605469 137.179688 107.378906 137.179688 C 132.152344 137.179688 152.304688 117.050781 152.304688 92.308594 C 152.304688 67.570312 132.152344 47.441406 107.378906 47.441406 Z M 107.378906 47.441406 " fill-opacity="1" fill-rule="nonzero"/></g><path fill="#000000" d="M 112.371094 117.238281 L 97.394531 117.238281 C 94.640625 117.238281 92.402344 115.003906 92.402344 112.25 C 92.402344 109.496094 94.640625 107.265625 97.394531 107.265625 L 112.371094 107.265625 C 115.125 107.265625 117.363281 105.027344 117.363281 102.28125 C 117.363281 99.53125 115.125 97.296875 112.371094 97.296875 L 102.386719 97.296875 C 94.128906 97.296875 87.414062 90.585938 87.414062 82.339844 C 87.414062 74.09375 94.128906 67.382812 102.386719 67.382812 L 117.363281 67.382812 C 120.121094 67.382812 122.355469 69.613281 122.355469 72.367188 C 122.355469 75.121094 120.121094 77.355469 117.363281 77.355469 L 102.386719 77.355469 C 99.636719 77.355469 97.394531 79.589844 97.394531 82.339844 C 97.394531 85.085938 99.636719 87.324219 102.386719 87.324219 L 112.371094 87.324219 C 120.628906 87.324219 127.347656 94.035156 127.347656 102.28125 C 127.347656 110.527344 120.628906 117.238281 112.371094 117.238281 Z M 112.371094 117.238281 " fill-opacity="1" fill-rule="nonzero"/><path fill="#000000" d="M 107.378906 127.207031 C 104.621094 127.207031 102.386719 124.976562 102.386719 122.222656 L 102.386719 112.25 C 102.386719 109.496094 104.621094 107.265625 107.378906 107.265625 C 110.136719 107.265625 112.371094 109.496094 112.371094 112.25 L 112.371094 122.222656 C 112.371094 124.976562 110.136719 127.207031 107.378906 127.207031 Z M 107.378906 127.207031 " fill-opacity="1" fill-rule="nonzero"/><path fill="#000000" d="M 107.378906 77.355469 C 104.621094 77.355469 102.386719 75.121094 102.386719 72.367188 L 102.386719 62.398438 C 102.386719 59.644531 104.621094 57.414062 107.378906 57.414062 C 110.136719 57.414062 112.371094 59.644531 112.371094 62.398438 L 112.371094 72.367188 C 112.371094 75.121094 110.136719 77.355469 107.378906 77.355469 Z M 107.378906 77.355469 " fill-opacity="1" fill-rule="nonzero"/><g clip-path="url(#918396e61b)"><path fill="#000000" d="M 292.074219 157.117188 C 270.054688 157.117188 252.140625 139.226562 252.140625 117.238281 C 252.140625 95.246094 270.054688 77.355469 292.074219 77.355469 C 314.097656 77.355469 332.011719 95.246094 332.011719 117.238281 C 332.011719 139.226562 314.097656 157.117188 292.074219 157.117188 Z M 292.074219 87.324219 C 275.5625 87.324219 262.125 100.742188 262.125 117.238281 C 262.125 133.730469 275.5625 147.148438 292.074219 147.148438 C 308.589844 147.148438 322.027344 133.730469 322.027344 117.238281 C 322.027344 100.742188 308.589844 87.324219 292.074219 87.324219 Z M 292.074219 87.324219 " fill-opacity="1" fill-rule="nonzero"/></g><path fill="#000000" d="M 282.09375 132.191406 C 280.816406 132.191406 279.539062 131.707031 278.5625 130.730469 C 276.613281 128.785156 276.613281 125.628906 278.5625 123.683594 L 298.53125 103.742188 C 300.480469 101.792969 303.640625 101.792969 305.589844 103.742188 C 307.539062 105.6875 307.539062 108.84375 305.589844 110.789062 L 285.621094 130.730469 C 284.648438 131.707031 283.371094 132.191406 282.09375 132.191406 Z M 282.09375 132.191406 " fill-opacity="1" fill-rule="nonzero"/><path fill="#000000" d="M 282.105469 112.25 C 279.347656 112.25 277.109375 110.019531 277.109375 107.265625 C 277.109375 104.511719 279.34375 102.28125 282.097656 102.28125 L 282.105469 102.28125 C 284.863281 102.28125 287.097656 104.511719 287.097656 107.265625 C 287.097656 110.019531 284.863281 112.25 282.105469 112.25 Z M 282.105469 112.25 " fill-opacity="1" fill-rule="nonzero"/><path fill="#000000" d="M 302.070312 132.191406 C 299.316406 132.191406 297.078125 129.960938 297.078125 127.207031 C 297.078125 124.453125 299.308594 122.222656 302.066406 122.222656 L 302.070312 122.222656 C 304.828125 122.222656 307.0625 124.453125 307.0625 127.207031 C 307.0625 129.960938 304.828125 132.191406 302.070312 132.191406 Z M 302.070312 132.191406 " fill-opacity="1" fill-rule="nonzero"/></svg>