<svg xmlns="http://www.w3.org/2000/svg" xmlns:xlink="http://www.w3.org/1999/xlink" width="500" zoomAndPan="magnify" viewBox="0 0 375.12 383.03998" height="500" preserveAspectRatio="xMidYMid meet" version="1.0"><defs><clipPath id="deee9f8901"><path d="M 37.4375 43.953125 L 336.6875 43.953125 L 336.6875 330.484375 L 37.4375 330.484375 Z M 37.4375 43.953125 " clip-rule="nonzero"/></clipPath></defs><path fill="#000000" d="M 60.300781 197.160156 C 64.402344 197.035156 64.40625 191.074219 60.300781 190.945312 C 58.191406 190.945312 56.476562 189.226562 56.476562 187.117188 L 56.476562 183.984375 C 56.351562 179.878906 50.394531 179.875 50.269531 183.984375 C 50.269531 183.984375 50.269531 187.117188 50.269531 187.117188 C 50.269531 192.65625 54.769531 197.160156 60.300781 197.160156 Z M 60.300781 197.160156 " fill-opacity="1" fill-rule="nonzero"/><path fill="#000000" d="M 323.851562 187.117188 L 323.851562 183.984375 C 323.851562 182.269531 322.464844 180.875 320.75 180.875 C 319.035156 180.875 317.644531 182.269531 317.644531 183.984375 L 317.644531 187.117188 C 317.644531 189.226562 315.929688 190.945312 313.820312 190.945312 C 312.105469 190.945312 310.71875 192.335938 310.71875 194.054688 C 310.71875 195.769531 312.105469 197.160156 313.820312 197.160156 C 319.351562 197.160156 323.851562 192.65625 323.851562 187.117188 Z M 323.851562 187.117188 " fill-opacity="1" fill-rule="nonzero"/><g clip-path="url(#deee9f8901)"><path fill="#000000" d="M 47.953125 209.195312 C 50.867188 209.921875 53.742188 210.3125 56.519531 210.367188 C 59.011719 212.816406 65.898438 218.605469 76.769531 220.390625 L 69.179688 230.113281 C 65.1875 235.226562 65.164062 242.382812 69.128906 247.519531 L 110.417969 301.039062 C 112.027344 303.261719 115.527344 303.402344 117.359375 301.421875 L 131.09375 302.371094 C 131.769531 302.527344 146.269531 307.1875 146.394531 306.9375 C 148.957031 307.265625 151.621094 306.40625 153.550781 304.695312 C 154.605469 303.769531 155.425781 302.589844 155.957031 301.289062 C 155.957031 301.289062 161.117188 288.378906 161.117188 288.378906 C 163.328125 282.855469 161.289062 276.527344 156.269531 273.339844 L 139.957031 262.972656 L 139.957031 218.296875 C 139.957031 217.089844 139.257812 215.992188 138.164062 215.480469 C 137.070312 214.96875 135.78125 215.140625 134.855469 215.917969 L 106.441406 239.800781 C 105.359375 240.710938 105.027344 242.234375 105.628906 243.511719 L 118.050781 269.753906 L 113.152344 294.410156 L 74.039062 243.714844 C 71.816406 240.832031 71.828125 236.8125 74.070312 233.941406 C 85.609375 219.164062 104.304688 195.214844 115.847656 180.429688 C 117.671875 178.113281 120.128906 176.441406 122.964844 175.625 C 123.714844 175.425781 125.839844 174.777344 126.589844 174.574219 C 126.589844 174.574219 126.59375 174.574219 126.59375 174.574219 L 160.449219 164.8125 L 162.363281 164.8125 C 163.914062 177.667969 175.351562 186.65625 188.132812 185.75 C 199.929688 185.882812 210.453125 176.546875 211.761719 164.8125 L 213.671875 164.8125 C 213.679688 164.8125 233.671875 170.578125 233.679688 170.582031 C 236.34375 171.527344 252.511719 175.546875 254.496094 177.085938 C 255.9375 177.953125 257.214844 179.074219 258.273438 180.429688 L 267.558594 192.324219 C 274.800781 201.601562 293.027344 224.941406 300.050781 233.941406 C 302.292969 236.8125 302.304688 240.832031 300.082031 243.714844 L 260.972656 294.410156 L 256.074219 269.753906 L 268.492188 243.511719 C 269.097656 242.234375 268.765625 240.710938 267.683594 239.800781 L 239.265625 215.917969 C 238.34375 215.140625 237.054688 214.96875 235.960938 215.480469 C 234.867188 215.988281 234.167969 217.089844 234.167969 218.296875 L 234.167969 262.972656 L 217.855469 273.335938 C 212.832031 276.527344 210.792969 282.851562 213.003906 288.378906 L 218.164062 301.289062 C 219.527344 304.765625 223.164062 307.140625 226.886719 307 C 228.542969 307.15625 238.460938 303.664062 240.210938 303.238281 L 245.257812 324.222656 L 128.863281 324.222656 L 131.101562 314.914062 C 131.503906 313.242188 130.476562 311.566406 128.808594 311.164062 C 127.148438 310.761719 125.464844 311.789062 125.066406 313.457031 L 121.90625 326.601562 C 121.40625 328.488281 122.96875 330.488281 124.921875 330.4375 C 124.921875 330.4375 249.195312 330.4375 249.195312 330.4375 C 251.136719 330.488281 252.722656 328.488281 252.214844 326.601562 L 246.332031 302.140625 L 256.761719 301.421875 C 258.601562 303.394531 262.089844 303.261719 263.703125 301.039062 C 263.703125 301.039062 304.992188 247.515625 304.992188 247.515625 C 308.957031 242.382812 308.933594 235.222656 304.945312 230.109375 L 297.351562 220.390625 C 308.222656 218.605469 315.109375 212.816406 317.601562 210.363281 C 320.378906 210.3125 323.253906 209.921875 326.167969 209.195312 C 332.558594 207.605469 336.976562 201.683594 336.667969 195.117188 L 335.695312 174.304688 C 335.882812 153.65625 325.902344 115.433594 324.734375 111.039062 L 324.058594 85.546875 C 323.949219 81.4375 322.042969 77.613281 318.828125 75.054688 L 299.90625 60.007812 C 297.179688 57.839844 293.640625 56.90625 290.199219 57.453125 L 273.03125 60.171875 C 268.492188 60.890625 265.378906 65.03125 265.9375 69.597656 L 266.257812 72.191406 L 260.699219 77.371094 C 255.628906 82.097656 254.789062 89.6875 258.703125 95.410156 L 265.289062 105.050781 C 268.136719 109.222656 272.652344 111.886719 277.671875 112.367188 L 286.445312 113.203125 L 287.679688 153.097656 C 278.777344 145.058594 261.519531 141.347656 248.71875 145.472656 C 247.402344 145.855469 246.101562 146.285156 244.851562 146.75 C 243.246094 147.351562 242.429688 149.140625 243.027344 150.75 C 243.625 152.355469 245.414062 153.179688 247.019531 152.578125 C 261.871094 146.484375 280.546875 151.730469 288.128906 162.582031 C 288.210938 162.773438 288.316406 162.964844 288.445312 163.140625 C 292.128906 168.324219 293.015625 173.160156 293.03125 173.246094 C 293.855469 177.277344 299.710938 176.261719 299.15625 172.207031 C 299.113281 171.96875 298.160156 166.519531 294.117188 160.441406 L 292.566406 110.273438 C 292.519531 108.710938 291.316406 107.425781 289.757812 107.277344 L 278.261719 106.175781 C 275.078125 105.871094 272.21875 104.183594 270.414062 101.542969 L 263.828125 91.902344 C 261.660156 88.734375 262.125 84.535156 264.929688 81.917969 L 267.191406 79.808594 L 267.425781 81.714844 C 267.695312 83.90625 268.871094 85.910156 270.652344 87.210938 L 277.421875 92.160156 C 281.300781 95.136719 287.378906 93.585938 289.371094 89.140625 C 289.371094 89.140625 289.957031 87.917969 289.957031 87.917969 C 291.613281 84.171875 286.238281 81.574219 284.355469 85.238281 C 284.355469 85.238281 283.769531 86.460938 283.769531 86.460938 C 283.222656 87.503906 282.074219 87.808594 281.085938 87.140625 C 281.085938 87.140625 274.3125 82.1875 274.3125 82.1875 C 273.914062 81.898438 273.652344 81.445312 273.589844 80.953125 L 272.613281 73.003906 L 272.101562 68.835938 C 271.949219 67.613281 272.785156 66.503906 274.003906 66.3125 L 291.171875 63.589844 C 292.902344 63.320312 294.675781 63.785156 296.046875 64.875 L 314.964844 79.921875 C 316.742188 81.332031 317.792969 83.445312 317.851562 85.710938 L 318.539062 111.570312 C 318.546875 111.816406 318.582031 112.058594 318.644531 112.296875 C 318.757812 112.710938 329.753906 153.96875 329.492188 174.507812 C 329.492188 174.507812 330.46875 195.40625 330.46875 195.40625 C 330.636719 199.023438 328.199219 202.285156 324.667969 203.160156 C 321.800781 203.875 319 204.207031 316.351562 204.144531 C 315.421875 204.128906 314.527344 204.527344 313.921875 205.230469 C 313.609375 205.59375 306.34375 213.839844 292.871094 214.648438 C 287.542969 207.820312 268.101562 182.921875 263.164062 176.597656 C 261.3125 174.226562 258.996094 172.347656 256.363281 171.027344 C 254.152344 169.683594 240.179688 166.101562 237.511719 165.214844 L 235.386719 127.4375 C 236.351562 117.164062 236.105469 106.78125 235.519531 98.371094 L 236.933594 98.769531 C 238.835938 99.355469 240.933594 97.773438 240.875 95.777344 C 240.875 81.964844 235.503906 68.972656 225.742188 59.191406 C 215.988281 49.425781 203.015625 44.046875 189.214844 44.046875 C 175.441406 43.371094 161.691406 47.550781 151.292969 56.769531 C 141.886719 64.972656 135.765625 76.304688 134.058594 88.679688 L 126.171875 145.710938 C 113.160156 141.21875 95.496094 144.878906 86.386719 153.222656 L 87.671875 113.203125 L 96.449219 112.363281 C 101.472656 111.886719 105.984375 109.21875 108.832031 105.050781 L 115.417969 95.410156 C 119.332031 89.683594 118.492188 82.097656 113.421875 77.367188 L 107.863281 72.1875 L 108.183594 69.59375 C 108.742188 65.027344 105.628906 60.886719 101.089844 60.167969 L 83.921875 57.449219 C 80.480469 56.902344 76.941406 57.835938 74.214844 60.007812 L 55.292969 75.054688 C 52.078125 77.609375 50.171875 81.433594 50.0625 85.546875 L 49.386719 111.039062 C 48.21875 115.433594 38.238281 153.65625 38.425781 174.304688 L 37.453125 195.113281 C 37.144531 201.679688 41.5625 207.601562 47.953125 209.195312 Z M 131.878906 296.195312 L 119.300781 295.324219 L 123.976562 271.792969 L 136.382812 268.066406 L 152.941406 278.585938 C 155.4375 280.175781 156.453125 283.320312 155.355469 286.070312 L 150.191406 298.980469 C 149.617188 300.332031 148.097656 301.121094 146.664062 300.667969 C 146.664062 300.667969 146.664062 300.667969 146.660156 300.667969 L 132.578125 296.324219 C 132.351562 296.253906 132.117188 296.210938 131.878906 296.195312 Z M 133.746094 224.964844 L 133.746094 262.367188 L 122.957031 265.609375 L 112.265625 243.019531 Z M 261.855469 243.019531 L 251.164062 265.609375 L 240.375 262.367188 L 240.375 224.964844 Z M 242.246094 296.195312 C 242.007812 296.222656 241.769531 296.253906 241.542969 296.324219 L 227.457031 300.667969 C 226.035156 301.105469 224.484375 300.367188 223.929688 298.980469 L 218.765625 286.070312 C 217.667969 283.320312 218.683594 280.171875 221.179688 278.585938 L 237.738281 268.066406 L 250.148438 271.792969 C 250.601562 274.085938 254.488281 293.640625 254.824219 295.324219 L 242.246094 296.191406 Z M 214.96875 158.71875 C 214.660156 158.628906 214.335938 158.589844 214.011719 158.597656 C 220.574219 156.230469 226.421875 151.832031 230.207031 145.9375 L 231.191406 163.394531 Z M 229.109375 127.890625 C 228.828125 130.589844 228.460938 133.289062 227.980469 135.960938 C 227.046875 139.253906 223.523438 150.015625 208.117188 153.882812 C 205.03125 154.617188 201.613281 154.988281 197.960938 154.988281 C 193.859375 155.117188 193.855469 161.078125 197.960938 161.207031 C 200.664062 161.207031 203.261719 161.019531 205.730469 160.65625 C 206.351562 170.789062 198.332031 179.570312 188.132812 179.53125 C 180.703125 180.039062 173.800781 176.742188 170.316406 169.921875 C 169.066406 167.492188 168.398438 164.722656 168.394531 161.910156 C 168.417969 161.789062 168.375 135.574219 168.394531 135.414062 C 168.394531 133.699219 167.003906 132.304688 165.289062 132.304688 L 163.65625 132.304688 C 160.117188 132.300781 156.804688 131.035156 154.167969 128.765625 C 147.890625 123.523438 147.679688 113.601562 153.761719 108.03125 C 156.027344 105.914062 158.910156 104.628906 161.960938 104.339844 C 162.40625 104.300781 162.851562 104.273438 163.300781 104.273438 C 164.636719 104.273438 165.773438 103.433594 166.210938 102.253906 C 166.957031 102 196.527344 93.859375 196.226562 93.710938 C 201.140625 91.792969 205.195312 88.257812 207.78125 83.789062 C 210.738281 88.894531 215.609375 92.785156 221.488281 94.429688 L 229.160156 96.585938 C 229.863281 105.355469 230.253906 116.777344 229.109375 127.890625 Z M 140.207031 89.535156 C 143.40625 65.570312 165.324219 48.5625 189.214844 50.265625 C 212.105469 49.804688 232.851562 68.847656 234.484375 91.625 C 231.585938 90.738281 224.109375 88.871094 221.316406 87.800781 C 215.890625 85.570312 211.949219 80.625 211.070312 74.714844 C 210.945312 73.90625 210.882812 73.070312 210.882812 72.230469 C 210.882812 70.511719 209.492188 69.121094 207.777344 69.121094 C 206.0625 69.121094 204.675781 70.511719 204.675781 72.230469 C 204.675781 73.070312 204.613281 73.90625 204.484375 74.730469 C 203.523438 81.21875 198.777344 86.667969 192.394531 88.445312 C 192.394531 88.445312 162.460938 96.851562 162.460938 96.851562 C 161.695312 97.066406 161.058594 97.5625 160.648438 98.230469 C 155.71875 98.875 151.082031 101.417969 147.878906 105.21875 C 137.339844 117.492188 145.300781 136.570312 161.214844 138.378906 C 161.539062 138.410156 161.859375 138.445312 162.183594 138.46875 L 162.183594 158.597656 C 161.546875 158.625 159.738281 158.507812 159.152344 158.71875 L 129.457031 167.28125 C 131 156.121094 138.507812 101.804688 140.207031 89.535156 Z M 43.652344 195.40625 L 44.632812 174.507812 C 44.367188 153.972656 55.359375 112.714844 55.480469 112.296875 C 55.542969 112.0625 55.578125 111.816406 55.582031 111.574219 L 56.269531 85.714844 C 56.328125 83.445312 57.382812 81.335938 59.15625 79.925781 L 78.074219 64.878906 C 79.445312 63.789062 81.226562 63.320312 82.953125 63.59375 L 100.121094 66.3125 C 101.335938 66.503906 102.171875 67.617188 102.019531 68.839844 C 101.703125 71.40625 100.859375 78.292969 100.53125 80.957031 C 100.472656 81.449219 100.207031 81.898438 99.808594 82.191406 L 93.039062 87.140625 C 92.050781 87.800781 90.910156 87.523438 90.351562 86.464844 C 90.351562 86.464844 89.769531 85.238281 89.769531 85.238281 C 89.03125 83.691406 87.179688 83.035156 85.628906 83.773438 C 84.082031 84.511719 83.425781 86.367188 84.167969 87.917969 L 84.75 89.140625 C 85.777344 91.300781 87.699219 92.875 90.015625 93.460938 C 92.3125 94.046875 94.765625 93.578125 96.699219 92.164062 C 96.699219 92.164062 103.46875 87.210938 103.46875 87.210938 C 105.25 85.910156 106.425781 83.90625 106.695312 81.714844 L 106.929688 79.8125 L 109.191406 81.921875 C 111.996094 84.535156 112.460938 88.734375 110.296875 91.902344 L 103.707031 101.542969 C 101.902344 104.183594 99.042969 105.875 95.859375 106.179688 L 84.363281 107.277344 C 82.808594 107.425781 81.605469 108.707031 81.554688 110.273438 L 79.941406 160.539062 C 75.953125 166.574219 75.007812 171.972656 74.96875 172.210938 C 74.636719 174.082031 76.136719 175.839844 78.03125 175.824219 C 79.511719 175.824219 80.824219 174.757812 81.089844 173.246094 C 81.097656 173.199219 81.960938 168.449219 85.558594 163.3125 C 93.378906 151.445312 111.738281 147.074219 125.308594 151.953125 L 122.929688 169.164062 C 118.238281 170.289062 113.9375 172.722656 110.960938 176.601562 C 108.03125 180.351562 84.773438 210.140625 81.253906 214.648438 C 67.78125 213.84375 60.515625 205.597656 60.210938 205.242188 C 59.605469 204.527344 58.707031 204.125 57.773438 204.148438 C 55.128906 204.207031 52.324219 203.878906 49.453125 203.164062 C 45.925781 202.285156 43.488281 199.023438 43.65625 195.410156 Z M 43.652344 195.40625 " fill-opacity="1" fill-rule="nonzero"/></g></svg>