<svg xmlns="http://www.w3.org/2000/svg" xmlns:xlink="http://www.w3.org/1999/xlink" width="500" zoomAndPan="magnify" viewBox="0 0 375.12 383.03998" height="500" preserveAspectRatio="xMidYMid meet" version="1.0"><defs><clipPath id="23288bbb53"><path d="M 37.4375 45.449219 L 336.6875 45.449219 L 336.6875 328.988281 L 37.4375 328.988281 Z M 37.4375 45.449219 " clip-rule="nonzero"/></clipPath><clipPath id="a4edf706e8"><path d="M 37.4375 37.40625 L 336.6875 37.40625 L 336.6875 336.65625 L 37.4375 336.65625 Z M 37.4375 37.40625 " clip-rule="nonzero"/></clipPath></defs><g clip-path="url(#23288bbb53)"><path fill="#ffffff" d="M 332.445312 319.945312 L 309 319.945312 L 309 145.71875 L 255.496094 145.71875 L 255.496094 319.882812 L 244.835938 319.882812 L 244.835938 199.160156 L 191.332031 199.160156 L 191.332031 319.945312 L 180.667969 319.945312 L 180.667969 260.082031 L 127.167969 260.082031 L 127.167969 319.945312 L 46.042969 319.945312 L 46.042969 210.132812 C 46.042969 200.15625 51.09375 191.054688 59.574219 185.816406 C 68.054688 180.578125 78.46875 180.015625 87.382812 184.445312 C 98.546875 189.929688 110.582031 192.613281 122.492188 192.613281 C 142.882812 192.613281 163.085938 184.753906 178.300781 169.789062 L 288.671875 61.226562 L 288.671875 89.226562 C 288.671875 91.59375 290.605469 93.527344 292.972656 93.527344 C 295.34375 93.527344 297.277344 91.59375 297.277344 89.226562 L 297.277344 49.753906 C 297.277344 47.382812 295.34375 45.449219 292.972656 45.449219 L 251.195312 45.449219 C 248.824219 45.449219 246.890625 47.382812 246.890625 49.753906 C 246.890625 52.121094 248.824219 54.054688 251.195312 54.054688 L 283.683594 54.054688 L 172.25 163.679688 C 150.800781 184.816406 118.25 189.992188 91.1875 176.710938 C 79.527344 170.972656 66.058594 171.660156 55.019531 178.519531 C 43.984375 185.378906 37.4375 197.226562 37.4375 210.195312 L 37.4375 324.308594 C 37.4375 326.679688 39.371094 328.613281 41.738281 328.613281 L 185.035156 328.613281 C 185.410156 328.613281 185.71875 328.550781 186.03125 328.488281 C 186.34375 328.550781 186.71875 328.613281 187.03125 328.613281 L 249.136719 328.613281 C 249.511719 328.613281 249.824219 328.550781 250.136719 328.488281 C 250.445312 328.550781 250.820312 328.613281 251.132812 328.613281 L 332.382812 328.613281 C 334.753906 328.613281 336.6875 326.679688 336.6875 324.308594 C 336.75 321.878906 334.816406 319.945312 332.445312 319.945312 Z M 332.445312 319.945312 " fill-opacity="1" fill-rule="nonzero"/></g><path fill="#ffffff" d="M 75.722656 231.960938 L 75.722656 292.945312 C 75.722656 295.3125 77.65625 297.246094 80.027344 297.246094 C 82.394531 297.246094 84.328125 295.3125 84.328125 292.945312 L 84.328125 231.960938 C 84.328125 229.589844 82.394531 227.65625 80.027344 227.65625 C 77.65625 227.65625 75.722656 229.589844 75.722656 231.960938 Z M 75.722656 231.960938 " fill-opacity="1" fill-rule="nonzero"/><path fill="#ffffff" d="M 142.585938 111.652344 C 142.953125 112.539062 143.277344 113.445312 143.558594 114.367188 C 143.835938 115.285156 144.070312 116.21875 144.257812 117.160156 C 144.445312 118.105469 144.585938 119.054688 144.679688 120.011719 C 144.777344 120.96875 144.824219 121.929688 144.824219 122.890625 C 144.824219 123.851562 144.777344 124.8125 144.679688 125.769531 C 144.585938 126.726562 144.445312 127.679688 144.257812 128.621094 C 144.070312 129.566406 143.835938 130.496094 143.558594 131.417969 C 143.277344 132.335938 142.957031 133.242188 142.585938 134.132812 C 142.21875 135.019531 141.808594 135.886719 141.355469 136.738281 C 140.902344 137.585938 140.40625 138.410156 139.871094 139.207031 C 139.339844 140.007812 138.765625 140.78125 138.15625 141.523438 C 137.546875 142.269531 136.902344 142.980469 136.21875 143.660156 C 135.539062 144.339844 134.828125 144.984375 134.085938 145.59375 C 133.339844 146.207031 132.570312 146.777344 131.769531 147.3125 C 130.96875 147.847656 130.144531 148.339844 129.296875 148.792969 C 128.449219 149.246094 127.582031 149.660156 126.691406 150.027344 C 125.804688 150.394531 124.898438 150.71875 123.976562 150.996094 C 123.058594 151.277344 122.125 151.511719 121.183594 151.699219 C 120.238281 151.886719 119.289062 152.027344 118.332031 152.121094 C 117.375 152.214844 116.414062 152.261719 115.453125 152.261719 C 114.488281 152.261719 113.53125 152.214844 112.574219 152.121094 C 111.617188 152.027344 110.664062 151.886719 109.722656 151.699219 C 108.777344 151.511719 107.847656 151.277344 106.925781 150.996094 C 106.003906 150.71875 105.101562 150.394531 104.210938 150.027344 C 103.324219 149.660156 102.457031 149.246094 101.605469 148.792969 C 100.757812 148.339844 99.933594 147.847656 99.132812 147.3125 C 98.335938 146.777344 97.5625 146.207031 96.820312 145.59375 C 96.074219 144.984375 95.363281 144.339844 94.683594 143.660156 C 94.003906 142.980469 93.359375 142.269531 92.75 141.523438 C 92.136719 140.78125 91.566406 140.007812 91.03125 139.210938 C 90.496094 138.410156 90.003906 137.585938 89.550781 136.738281 C 89.097656 135.890625 88.683594 135.019531 88.316406 134.132812 C 87.949219 133.242188 87.625 132.339844 87.347656 131.417969 C 87.066406 130.496094 86.832031 129.566406 86.644531 128.621094 C 86.457031 127.679688 86.316406 126.726562 86.222656 125.769531 C 86.128906 124.8125 86.082031 123.855469 86.082031 122.890625 C 86.082031 121.929688 86.128906 120.96875 86.222656 120.011719 C 86.316406 119.054688 86.457031 118.105469 86.644531 117.160156 C 86.832031 116.21875 87.066406 115.285156 87.347656 114.367188 C 87.625 113.445312 87.949219 112.539062 88.316406 111.652344 C 88.683594 110.761719 89.09375 109.894531 89.550781 109.046875 C 90.003906 108.199219 90.496094 107.375 91.03125 106.574219 C 91.566406 105.773438 92.136719 105.003906 92.746094 104.257812 C 93.359375 103.515625 94.003906 102.804688 94.683594 102.125 C 95.363281 101.441406 96.074219 100.796875 96.820312 100.1875 C 97.5625 99.578125 98.335938 99.003906 99.132812 98.472656 C 99.933594 97.9375 100.757812 97.441406 101.605469 96.988281 C 102.453125 96.535156 103.324219 96.125 104.210938 95.757812 C 105.101562 95.386719 106.003906 95.066406 106.925781 94.785156 C 107.847656 94.507812 108.777344 94.273438 109.722656 94.085938 C 110.664062 93.898438 111.617188 93.757812 112.574219 93.664062 C 113.53125 93.566406 114.488281 93.519531 115.453125 93.519531 C 116.414062 93.519531 117.375 93.566406 118.332031 93.664062 C 119.289062 93.757812 120.238281 93.898438 121.179688 94.085938 C 122.125 94.273438 123.058594 94.507812 123.976562 94.785156 C 124.898438 95.066406 125.800781 95.386719 126.691406 95.757812 C 127.582031 96.125 128.449219 96.535156 129.296875 96.988281 C 130.144531 97.441406 130.96875 97.9375 131.769531 98.46875 C 132.570312 99.003906 133.339844 99.578125 134.085938 100.1875 C 134.828125 100.796875 135.539062 101.441406 136.21875 102.125 C 136.898438 102.804688 137.546875 103.515625 138.15625 104.257812 C 138.765625 105.003906 139.339844 105.773438 139.871094 106.574219 C 140.40625 107.375 140.902344 108.199219 141.355469 109.046875 C 141.808594 109.894531 142.21875 110.761719 142.585938 111.652344 Z M 142.585938 111.652344 " fill-opacity="1" fill-rule="nonzero"/><g clip-path="url(#a4edf706e8)"><path fill="#ffffff" d="M 271.210938 37.449219 C 263.457031 37.449219 257.207031 43.742188 257.207031 51.453125 C 257.207031 59.203125 263.5 65.457031 271.210938 65.457031 L 288.171875 65.457031 L 246.785156 104.007812 C 241.617188 102.214844 236.117188 101.175781 230.363281 101.132812 C 230.238281 101.132812 230.074219 101.132812 229.949219 101.132812 C 215.695312 101.132812 201.855469 106.96875 191.9375 117.179688 L 187.0625 122.222656 L 182.183594 117.21875 C 172.265625 107.007812 158.429688 101.175781 144.175781 101.175781 C 144.050781 101.175781 143.882812 101.175781 143.757812 101.175781 C 137.089844 101.214844 130.710938 102.550781 124.835938 104.964844 L 118.082031 98.214844 L 121.375 94.921875 C 124.042969 92.253906 125.503906 88.753906 125.503906 85.003906 C 125.503906 81.25 124.042969 77.75 121.417969 75.082031 C 116.125 69.789062 106.871094 69.789062 101.578125 75.082031 L 98.328125 78.335938 L 85.90625 65.496094 L 93.578125 65.496094 C 101.328125 65.496094 107.582031 59.203125 107.582031 51.492188 C 107.582031 43.742188 101.289062 37.488281 93.578125 37.488281 L 37.476562 37.488281 L 37.476562 93.589844 C 37.476562 101.339844 43.769531 107.59375 51.480469 107.59375 C 59.234375 107.59375 65.484375 101.300781 65.484375 93.589844 L 65.484375 85.917969 L 78.324219 98.339844 L 74.863281 101.800781 C 69.488281 107.175781 69.488281 115.886719 75.03125 121.386719 C 80.53125 126.890625 89.449219 126.890625 94.910156 121.429688 L 98.203125 118.136719 L 102.953125 122.886719 C 88.910156 143.3125 90.785156 172.027344 108.457031 190.199219 L 172.972656 256.507812 L 172.972656 280.597656 L 158.96875 280.597656 C 151.21875 280.597656 144.964844 286.890625 144.964844 294.601562 C 144.964844 302.355469 151.257812 308.605469 158.96875 308.605469 L 172.933594 308.605469 L 172.722656 322.445312 C 172.683594 326.238281 174.097656 329.777344 176.765625 332.445312 C 179.433594 335.113281 182.933594 336.613281 186.976562 336.613281 C 190.8125 336.613281 194.398438 335.113281 197.0625 332.40625 C 199.730469 329.695312 201.191406 326.152344 201.148438 322.359375 C 201.105469 317.691406 201.066406 312.316406 201.066406 308.566406 L 215.070312 308.566406 C 222.820312 308.566406 229.074219 302.273438 229.074219 294.5625 C 229.074219 286.808594 222.78125 280.558594 215.070312 280.558594 L 201.066406 280.558594 L 201.066406 256.46875 L 265.582031 190.15625 C 283.839844 171.402344 285.296875 141.476562 269.792969 120.929688 L 308.59375 84.835938 L 308.59375 102.925781 C 308.59375 110.675781 314.886719 116.929688 322.597656 116.929688 C 330.351562 116.929688 336.601562 110.636719 336.601562 102.925781 L 336.601562 37.488281 L 271.210938 37.488281 Z M 327.265625 102.882812 C 327.265625 105.46875 325.183594 107.550781 322.597656 107.550781 C 320.015625 107.550781 317.929688 105.46875 317.929688 102.882812 L 317.929688 63.289062 L 263.5 114.011719 C 261.125 111.84375 258.582031 109.96875 255.914062 108.34375 L 311.929688 56.160156 L 271.210938 56.160156 C 268.625 56.160156 266.542969 54.078125 266.542969 51.492188 C 266.542969 48.910156 268.625 46.824219 271.210938 46.824219 L 327.308594 46.824219 L 327.308594 102.882812 Z M 201.066406 243.046875 L 196.398438 247.839844 L 193.730469 250.550781 C 193.144531 251.175781 192.4375 251.632812 191.6875 252.050781 C 188.8125 253.632812 185.1875 253.632812 182.351562 252.050781 C 181.644531 251.632812 180.933594 251.175781 180.308594 250.550781 L 177.640625 247.839844 L 172.972656 243.046875 L 115.25 183.613281 C 101.078125 169.027344 99.203125 146.269531 109.75 129.515625 C 110.582031 128.179688 111.5 126.890625 112.5 125.679688 C 113.207031 124.765625 113.957031 123.890625 114.792969 123.011719 C 115.042969 122.722656 115.375 122.472656 115.625 122.179688 C 117.875 119.929688 120.375 118.011719 123.042969 116.386719 C 124.417969 115.554688 125.878906 114.761719 127.378906 114.09375 C 128.921875 113.386719 130.546875 112.800781 132.210938 112.300781 C 135.921875 111.175781 139.839844 110.550781 143.925781 110.550781 C 144.050781 110.550781 144.132812 110.550781 144.257812 110.550781 C 156.011719 110.550781 167.390625 115.34375 175.558594 123.761719 L 187.0625 135.601562 L 198.605469 123.722656 C 206.773438 115.304688 218.195312 110.511719 229.90625 110.511719 C 230.03125 110.511719 230.113281 110.511719 230.238281 110.511719 C 233.15625 110.550781 235.992188 110.84375 238.742188 111.46875 C 240.535156 111.84375 242.242188 112.386719 243.953125 113.011719 C 245.578125 113.59375 247.121094 114.261719 248.621094 115.054688 C 251.453125 116.511719 254.121094 118.304688 256.582031 120.429688 C 257.539062 121.261719 258.457031 122.136719 259.332031 123.054688 C 259.539062 123.261719 259.707031 123.511719 259.914062 123.761719 C 260.957031 124.929688 261.957031 126.140625 262.832031 127.429688 C 275.003906 144.3125 273.628906 168.484375 258.832031 183.695312 Z M 219.777344 294.519531 C 219.777344 297.105469 217.695312 299.1875 215.109375 299.1875 L 191.730469 299.1875 L 191.730469 303.855469 C 191.730469 303.855469 191.730469 314.273438 191.8125 322.445312 C 191.8125 323.695312 191.355469 324.902344 190.4375 325.820312 C 188.8125 327.488281 185.394531 327.863281 183.433594 325.863281 C 182.558594 324.988281 182.058594 323.777344 182.101562 322.527344 L 182.433594 299.1875 L 159.011719 299.1875 C 156.429688 299.1875 154.34375 297.105469 154.34375 294.519531 C 154.34375 291.933594 156.429688 289.851562 159.011719 289.851562 L 182.394531 289.851562 L 182.394531 262.136719 C 183.894531 262.511719 185.476562 262.761719 187.0625 262.761719 C 188.644531 262.761719 190.230469 262.550781 191.730469 262.136719 L 191.730469 289.851562 L 215.109375 289.851562 C 217.695312 289.851562 219.777344 291.933594 219.777344 294.519531 Z M 81.53125 114.554688 C 79.824219 112.84375 79.824219 110.050781 81.53125 108.34375 L 91.703125 98.171875 L 56.191406 63.832031 L 56.191406 93.546875 C 56.191406 96.132812 54.109375 98.214844 51.523438 98.214844 C 48.941406 98.214844 46.855469 96.132812 46.855469 93.546875 L 46.855469 46.824219 L 93.578125 46.824219 C 96.160156 46.824219 98.246094 48.910156 98.246094 51.492188 C 98.246094 54.078125 96.160156 56.160156 93.578125 56.160156 L 63.859375 56.160156 L 98.203125 91.671875 L 108.164062 81.710938 C 109.957031 79.960938 113 79.960938 114.792969 81.710938 C 115.667969 82.585938 116.167969 83.753906 116.167969 85.003906 C 116.167969 86.253906 115.667969 87.421875 114.792969 88.296875 L 104.871094 98.214844 L 116.25 109.59375 C 113.664062 111.34375 111.25 113.34375 108.996094 115.59375 L 98.246094 104.839844 L 88.324219 114.761719 C 86.535156 116.554688 83.53125 116.554688 81.53125 114.554688 Z M 255.996094 133.765625 C 264.917969 147.019531 263.664062 165.316406 252.203125 177.113281 L 197.648438 233.167969 L 193.105469 237.835938 L 191.730469 239.210938 L 187.0625 244.046875 L 182.394531 239.253906 L 181.058594 237.878906 L 176.515625 233.210938 L 121.917969 177.113281 C 111.207031 166.109375 109.414062 149.3125 116.542969 136.351562 C 117.292969 134.976562 118.167969 133.601562 119.125 132.347656 C 120 131.183594 120.875 130.097656 121.917969 129.058594 C 122 128.972656 122.085938 128.890625 122.167969 128.808594 C 124.460938 126.515625 126.960938 124.597656 129.710938 123.136719 C 130.085938 122.929688 130.503906 122.761719 130.878906 122.554688 C 133.589844 121.222656 136.464844 120.261719 139.464844 119.761719 C 141.171875 119.472656 142.964844 119.304688 144.714844 119.304688 C 148.632812 119.304688 152.511719 120.011719 156.136719 121.429688 L 160.46875 123.136719 L 158.59375 127.890625 L 157.054688 131.808594 L 152.71875 130.097656 C 144.550781 126.890625 134.878906 129.015625 128.546875 135.515625 C 119.167969 145.1875 119.167969 160.898438 128.546875 170.566406 L 187.0625 230.625 L 245.496094 170.566406 C 254.914062 160.898438 254.914062 145.1875 245.496094 135.515625 C 239.285156 129.140625 229.824219 126.972656 221.777344 129.933594 L 217.402344 131.558594 L 215.945312 127.554688 L 214.195312 122.761719 L 218.570312 121.136719 C 222.03125 119.886719 225.65625 119.21875 229.363281 119.21875 C 236.867188 119.21875 244.035156 121.847656 249.785156 126.722656 C 250.621094 127.429688 251.414062 128.179688 252.203125 128.972656 C 253.621094 130.515625 254.871094 132.097656 255.996094 133.765625 Z M 145.300781 162.523438 C 144.882812 169.277344 147.46875 175.945312 152.386719 180.695312 L 179.933594 207.453125 C 181.976562 209.414062 184.5625 210.414062 187.1875 210.414062 C 189.8125 210.414062 192.394531 209.414062 194.4375 207.453125 L 221.445312 181.195312 C 230.949219 171.984375 231.40625 156.941406 222.53125 147.730469 C 217.988281 143.0625 211.902344 140.394531 205.316406 140.308594 C 204.148438 140.269531 203.023438 140.351562 201.941406 140.476562 C 196.648438 141.058594 191.730469 143.4375 187.894531 147.1875 L 187.226562 147.855469 L 187.0625 147.6875 C 182.933594 143.6875 177.765625 141.308594 172.433594 140.644531 C 166.222656 139.851562 159.886719 141.308594 154.761719 145.1875 C 149.132812 149.394531 145.714844 155.6875 145.300781 162.523438 Z M 160.34375 152.648438 C 162.929688 150.6875 166.015625 149.769531 169.140625 149.769531 C 173.183594 149.769531 177.308594 151.355469 180.476562 154.4375 L 187.144531 160.941406 L 194.355469 153.9375 C 197.230469 151.144531 201.105469 149.769531 205.148438 149.730469 C 209.234375 149.769531 212.984375 151.394531 215.777344 154.3125 C 221.113281 159.855469 220.738281 168.941406 214.902344 174.609375 L 187.894531 200.867188 C 187.476562 201.242188 186.851562 201.242188 186.4375 200.867188 L 158.886719 174.109375 C 155.925781 171.234375 154.386719 167.234375 154.636719 163.191406 C 154.886719 158.941406 156.929688 155.230469 160.34375 152.648438 Z M 160.34375 152.648438 " fill-opacity="1" fill-rule="nonzero"/></g></svg>