<svg xmlns="http://www.w3.org/2000/svg" xmlns:xlink="http://www.w3.org/1999/xlink" width="500" zoomAndPan="magnify" viewBox="0 0 375.12 383.03998" height="500" preserveAspectRatio="xMidYMid meet" version="1.0"><defs><clipPath id="89b08ea032"><path d="M 41.175781 147 L 184 147 L 184 336.65625 L 41.175781 336.65625 Z M 41.175781 147 " clip-rule="nonzero"/></clipPath><clipPath id="b438bd9fa1"><path d="M 190 147 L 332.945312 147 L 332.945312 336.65625 L 190 336.65625 Z M 190 147 " clip-rule="nonzero"/></clipPath><clipPath id="cc523270c6"><path d="M 173 37.40625 L 201 37.40625 L 201 83 L 173 83 Z M 173 37.40625 " clip-rule="nonzero"/></clipPath></defs><g clip-path="url(#89b08ea032)"><path fill="#ffffff" d="M 57.765625 247.734375 C 59.167969 255.539062 63.230469 261.730469 69.832031 266.121094 L 131.007812 306.878906 C 132.070312 307.589844 132.710938 308.78125 132.710938 310.0625 L 132.710938 336.636719 L 183.261719 336.636719 L 183.261719 298.039062 C 183.261719 271.03125 164.03125 247.511719 137.53125 242.117188 C 128.203125 240.222656 120.4375 236.515625 113.101562 230.460938 L 90.085938 211.46875 C 86.839844 208.789062 82.042969 209.097656 79.171875 212.175781 C 76.300781 215.25 76.320312 220.050781 79.210938 223.105469 L 120.800781 267.066406 C 122.25 268.59375 122.1875 271.011719 120.652344 272.464844 C 119.117188 273.914062 116.707031 273.84375 115.253906 272.316406 L 73.660156 228.359375 C 68.042969 222.425781 67.964844 213.125 73.460938 207.101562 L 57.320312 153.101562 C 56.078125 148.9375 51.789062 146.46875 47.566406 147.480469 C 43.34375 148.484375 40.640625 152.625 41.410156 156.894531 Z M 57.765625 247.734375 " fill-opacity="1" fill-rule="evenodd"/></g><g clip-path="url(#b438bd9fa1)"><path fill="#ffffff" d="M 236.628906 242.117188 C 210.277344 247.484375 191.046875 270.871094 190.902344 297.734375 C 190.902344 297.765625 190.902344 297.796875 190.902344 297.832031 C 190.902344 297.898438 190.902344 297.96875 190.902344 298.039062 L 190.902344 336.636719 L 241.449219 336.636719 L 241.449219 310.0625 C 241.449219 308.78125 242.089844 307.589844 243.15625 306.878906 L 304.335938 266.121094 C 310.929688 261.730469 314.992188 255.539062 316.394531 247.734375 L 332.75 156.894531 C 333.523438 152.625 330.816406 148.484375 326.59375 147.480469 C 322.367188 146.46875 318.082031 148.9375 316.839844 153.101562 L 300.699219 207.113281 C 306.183594 213.136719 306.117188 222.425781 300.503906 228.359375 L 258.90625 272.316406 C 257.453125 273.84375 255.042969 273.914062 253.507812 272.464844 C 251.972656 271.011719 251.910156 268.59375 253.359375 267.066406 L 294.949219 223.105469 C 297.839844 220.050781 297.859375 215.25 294.988281 212.175781 C 292.117188 209.097656 287.324219 208.789062 284.074219 211.46875 L 261.058594 230.460938 C 253.722656 236.515625 245.957031 240.222656 236.628906 242.117188 Z M 236.628906 242.117188 " fill-opacity="1" fill-rule="evenodd"/></g><path fill="#ffffff" d="M 187.082031 219.199219 C 202.417969 219.199219 216.820312 216.019531 226.601562 210.472656 C 230.21875 208.417969 232.132812 204.859375 231.847656 200.707031 C 230.253906 177.265625 210.585938 158.894531 187.082031 158.894531 C 163.574219 158.894531 143.910156 177.265625 142.3125 200.707031 C 142.027344 204.859375 143.945312 208.417969 147.558594 210.472656 C 157.339844 216.019531 171.742188 219.199219 187.082031 219.199219 Z M 187.082031 219.199219 " fill-opacity="1" fill-rule="evenodd"/><path fill="#ffffff" d="M 187.082031 139.871094 C 197.929688 139.871094 206.753906 131.046875 206.753906 120.195312 C 206.753906 109.347656 197.929688 100.523438 187.082031 100.523438 C 176.230469 100.523438 167.40625 109.347656 167.40625 120.195312 C 167.40625 131.046875 176.230469 139.871094 187.082031 139.871094 Z M 187.082031 139.871094 " fill-opacity="1" fill-rule="evenodd"/><path fill="#ffffff" d="M 150.980469 103.175781 C 152.304688 103.175781 153.582031 102.488281 154.289062 101.265625 C 155.347656 99.441406 154.722656 97.101562 152.894531 96.046875 L 128.574219 82.007812 L 132.8125 80.867188 C 134.851562 80.320312 136.0625 78.226562 135.519531 76.1875 C 134.972656 74.148438 132.878906 72.941406 130.839844 73.488281 L 117.6875 77.007812 C 116.707031 77.277344 115.871094 77.914062 115.363281 78.792969 C 114.859375 79.671875 114.71875 80.714844 114.988281 81.6875 L 118.507812 94.84375 C 118.964844 96.550781 120.507812 97.675781 122.195312 97.675781 C 122.523438 97.675781 122.855469 97.632812 123.1875 97.550781 C 125.226562 97 126.433594 94.90625 125.886719 92.871094 L 124.753906 88.621094 L 149.074219 102.660156 C 149.675781 103.011719 150.328125 103.175781 150.980469 103.175781 Z M 150.980469 103.175781 " fill-opacity="1" fill-rule="evenodd"/><g clip-path="url(#cc523270c6)"><path fill="#ffffff" d="M 183.261719 50.441406 L 183.261719 78.523438 C 183.261719 80.632812 184.972656 82.34375 187.082031 82.34375 C 189.1875 82.34375 190.902344 80.632812 190.902344 78.523438 L 190.902344 50.441406 L 194.007812 53.546875 C 194.753906 54.292969 195.734375 54.660156 196.707031 54.660156 C 197.679688 54.660156 198.660156 54.292969 199.414062 53.546875 C 200.902344 52.050781 200.902344 49.632812 199.414062 48.140625 L 189.78125 38.515625 C 188.289062 37.019531 185.871094 37.019531 184.378906 38.515625 L 174.746094 48.140625 C 173.257812 49.632812 173.257812 52.050781 174.746094 53.546875 C 176.242188 55.035156 178.65625 55.035156 180.152344 53.546875 Z M 183.261719 50.441406 " fill-opacity="1" fill-rule="evenodd"/></g><path fill="#ffffff" d="M 238.640625 76.1875 C 238.097656 78.226562 239.308594 80.320312 241.347656 80.867188 L 245.585938 82.007812 L 221.265625 96.046875 C 219.4375 97.101562 218.8125 99.441406 219.871094 101.265625 C 220.578125 102.488281 221.863281 103.175781 223.179688 103.175781 C 223.832031 103.175781 224.488281 103.011719 225.085938 102.660156 L 249.40625 88.621094 L 248.273438 92.871094 C 247.726562 94.90625 248.9375 97 250.972656 97.550781 C 251.304688 97.632812 251.636719 97.675781 251.964844 97.675781 C 253.652344 97.675781 255.195312 96.550781 255.652344 94.84375 L 259.175781 81.6875 C 259.722656 79.652344 258.511719 77.558594 256.472656 77.007812 L 243.320312 73.488281 C 241.28125 72.945312 239.1875 74.148438 238.640625 76.1875 Z M 238.640625 76.1875 " fill-opacity="1" fill-rule="evenodd"/></svg>