<svg xmlns="http://www.w3.org/2000/svg" xmlns:xlink="http://www.w3.org/1999/xlink" width="500" zoomAndPan="magnify" viewBox="0 0 375.12 383.03998" height="500" preserveAspectRatio="xMidYMid meet" version="1.0"><defs><clipPath id="48b40efbd3"><path d="M 47.160156 37.40625 L 326.960938 37.40625 L 326.960938 336.65625 L 47.160156 336.65625 Z M 47.160156 37.40625 " clip-rule="nonzero"/></clipPath></defs><g clip-path="url(#48b40efbd3)"><path fill="#000000" d="M 199.046875 224.484375 C 195.832031 221.273438 191.390625 219.285156 186.488281 219.285156 C 181.582031 219.285156 177.144531 221.273438 173.929688 224.484375 C 170.714844 227.699219 168.730469 232.140625 168.730469 237.042969 C 168.730469 241.949219 170.714844 246.386719 173.929688 249.601562 C 177.144531 252.816406 181.582031 254.804688 186.488281 254.804688 C 191.394531 254.804688 195.832031 252.816406 199.046875 249.601562 C 202.257812 246.386719 204.246094 241.949219 204.246094 237.042969 C 204.246094 232.140625 202.257812 227.699219 199.046875 224.484375 Z M 186.488281 211.996094 C 193.402344 211.996094 199.667969 214.800781 204.199219 219.332031 C 208.730469 223.867188 211.535156 230.128906 211.535156 237.042969 C 211.535156 243.960938 208.730469 250.222656 204.199219 254.757812 C 199.667969 259.289062 193.40625 262.09375 186.488281 262.09375 C 179.570312 262.09375 173.308594 259.289062 168.777344 254.757812 C 164.242188 250.222656 161.4375 243.960938 161.4375 237.042969 C 161.4375 230.128906 164.242188 223.867188 168.777344 219.332031 C 173.308594 214.800781 179.570312 211.996094 186.488281 211.996094 Z M 276.707031 236.574219 C 273.496094 233.363281 269.054688 231.375 264.152344 231.375 C 259.246094 231.375 254.804688 233.363281 251.59375 236.574219 C 248.378906 239.789062 246.390625 244.226562 246.390625 249.132812 C 246.390625 254.035156 248.378906 258.476562 251.59375 261.691406 C 254.804688 264.902344 259.246094 266.890625 264.152344 266.890625 C 269.054688 266.890625 273.496094 264.902344 276.707031 261.691406 C 279.921875 258.476562 281.910156 254.035156 281.910156 249.132812 C 281.910156 244.226562 279.921875 239.789062 276.707031 236.574219 Z M 264.152344 224.085938 C 271.066406 224.085938 277.328125 226.890625 281.863281 231.421875 C 286.394531 235.953125 289.199219 242.21875 289.199219 249.132812 C 289.199219 256.050781 286.394531 262.3125 281.863281 266.84375 C 277.328125 271.378906 271.066406 274.183594 264.152344 274.183594 C 257.234375 274.183594 250.972656 271.378906 246.4375 266.84375 C 241.90625 262.3125 239.101562 256.050781 239.101562 249.132812 C 239.101562 242.21875 241.90625 235.957031 246.4375 231.421875 C 250.972656 226.890625 257.234375 224.085938 264.152344 224.085938 Z M 267.414062 289.152344 L 260.886719 289.152344 C 248.445312 289.152344 237.074219 293.976562 228.554688 301.847656 C 222.722656 307.230469 218.226562 314.042969 215.636719 321.710938 C 215.605469 321.824219 215.566406 321.9375 215.523438 322.050781 C 214.765625 324.351562 214.175781 326.730469 213.773438 329.171875 L 314.527344 329.171875 C 312.765625 318.464844 307.410156 308.921875 299.75 301.847656 C 291.230469 293.976562 279.859375 289.15625 267.414062 289.15625 Z M 121.902344 236.574219 C 118.6875 233.363281 114.246094 231.375 109.34375 231.375 C 104.4375 231.375 100 233.363281 96.785156 236.574219 C 93.570312 239.789062 91.582031 244.226562 91.582031 249.132812 C 91.582031 254.039062 93.570312 258.476562 96.785156 261.691406 C 100 264.902344 104.4375 266.890625 109.34375 266.890625 C 114.25 266.890625 118.6875 264.902344 121.902344 261.691406 C 125.113281 258.476562 127.101562 254.039062 127.101562 249.132812 C 127.101562 244.230469 125.113281 239.789062 121.902344 236.574219 Z M 109.34375 224.085938 C 116.257812 224.085938 122.523438 226.890625 127.054688 231.421875 C 131.585938 235.953125 134.390625 242.21875 134.390625 249.132812 C 134.390625 256.050781 131.585938 262.3125 127.054688 266.84375 C 122.523438 271.378906 116.257812 274.183594 109.34375 274.183594 C 102.425781 274.183594 96.164062 271.378906 91.632812 266.84375 C 87.097656 262.3125 84.292969 256.050781 84.292969 249.132812 C 84.292969 242.21875 87.097656 235.957031 91.632812 231.421875 C 96.164062 226.890625 102.425781 224.085938 109.34375 224.085938 Z M 112.605469 289.152344 L 106.082031 289.152344 C 93.636719 289.152344 82.265625 293.976562 73.746094 301.847656 C 66.082031 308.921875 60.726562 318.460938 58.964844 329.171875 L 159.71875 329.171875 C 159.320312 326.730469 158.730469 324.351562 157.972656 322.050781 C 157.925781 321.9375 157.890625 321.824219 157.859375 321.710938 C 155.265625 314.042969 150.769531 307.230469 144.941406 301.847656 C 136.421875 293.976562 125.050781 289.152344 112.605469 289.152344 Z M 146.882812 293.929688 C 150.972656 289.128906 155.996094 285.136719 161.664062 282.242188 C 168.144531 278.933594 175.476562 277.066406 183.226562 277.066406 L 189.75 277.066406 C 197.554688 277.066406 204.925781 278.953125 211.429688 282.296875 C 217.148438 285.238281 222.207031 289.296875 226.308594 294.171875 C 225.390625 294.917969 224.496094 295.691406 223.628906 296.492188 C 217.5 302.15625 212.648438 309.183594 209.574219 317.082031 L 163.917969 317.082031 C 160.847656 309.183594 155.996094 302.15625 149.867188 296.492188 C 148.902344 295.605469 147.90625 294.746094 146.882812 293.929688 Z M 106.082031 281.863281 C 91.742188 281.863281 78.640625 287.425781 68.820312 296.492188 C 58.960938 305.597656 52.410156 318.238281 51.242188 332.347656 C 51.222656 332.5 51.210938 332.65625 51.210938 332.816406 C 51.210938 334.828125 52.84375 336.460938 54.855469 336.460938 L 163.828125 336.460938 C 163.921875 336.460938 164.015625 336.457031 164.113281 336.449219 C 166.117188 336.292969 167.613281 334.539062 167.457031 332.53125 C 167.238281 329.75 166.804688 327.027344 166.183594 324.375 L 207.3125 324.375 C 206.703125 326.96875 206.277344 329.628906 206.050781 332.347656 C 206.03125 332.5 206.019531 332.65625 206.019531 332.816406 C 206.019531 334.828125 207.652344 336.460938 209.664062 336.460938 L 318.636719 336.460938 C 318.730469 336.460938 318.824219 336.457031 318.921875 336.449219 C 320.925781 336.289062 322.421875 334.539062 322.265625 332.53125 C 321.140625 318.351562 314.574219 305.636719 304.675781 296.492188 C 294.855469 287.425781 281.75 281.863281 267.414062 281.863281 L 260.886719 281.863281 C 250.417969 281.863281 240.605469 284.832031 232.25 289.960938 C 227.460938 284.136719 221.507812 279.304688 214.757812 275.832031 C 207.230469 271.964844 198.726562 269.777344 189.75 269.777344 L 183.226562 269.777344 C 174.296875 269.777344 165.84375 271.933594 158.363281 275.75 C 151.628906 279.1875 145.6875 283.976562 140.894531 289.75 C 132.613281 284.75 122.929688 281.863281 112.605469 281.863281 Z M 121.867188 208.578125 C 122.113281 210.574219 120.691406 212.390625 118.691406 212.636719 C 116.695312 212.878906 114.878906 211.457031 114.636719 209.460938 C 114.007812 204.355469 113.523438 199.066406 113.195312 193.613281 C 112.941406 189.398438 112.785156 185.183594 112.726562 180.972656 L 54.46875 180.859375 C 54.703125 190.363281 55.925781 199.585938 58.035156 208.429688 C 60.46875 218.609375 64.097656 228.367188 68.769531 237.546875 C 69.679688 239.339844 68.96875 241.53125 67.175781 242.445312 C 65.382812 243.355469 63.1875 242.644531 62.277344 240.851562 C 57.382812 231.230469 53.558594 220.929688 50.976562 210.109375 C 48.464844 199.601562 47.136719 188.675781 47.136719 177.488281 C 47.136719 138.859375 62.792969 103.890625 88.109375 78.574219 C 113.421875 53.257812 148.398438 37.601562 187.023438 37.601562 C 225.652344 37.601562 260.625 53.257812 285.941406 78.574219 C 311.253906 103.890625 326.914062 138.859375 326.914062 177.488281 C 326.914062 188.679688 325.585938 199.605469 323.074219 210.113281 C 320.488281 220.933594 316.664062 231.238281 311.765625 240.859375 C 310.855469 242.652344 308.664062 243.363281 306.871094 242.453125 C 305.078125 241.539062 304.363281 239.347656 305.273438 237.554688 C 309.949219 228.375 313.578125 218.613281 316.011719 208.433594 C 318.085938 199.75 319.300781 190.703125 319.570312 181.382812 L 261.320312 181.265625 C 261.257812 185.378906 261.101562 189.5 260.855469 193.613281 C 260.527344 199.066406 260.042969 204.355469 259.414062 209.464844 C 259.171875 211.464844 257.355469 212.886719 255.355469 212.640625 C 253.359375 212.398438 251.9375 210.582031 252.183594 208.582031 C 252.808594 203.488281 253.28125 198.347656 253.59375 193.1875 C 253.828125 189.308594 253.972656 185.328125 254.03125 181.253906 L 190.792969 181.128906 L 190.761719 196.488281 C 190.761719 198.492188 189.136719 200.117188 187.132812 200.117188 C 185.128906 200.117188 183.5 198.492188 183.5 196.488281 L 183.53125 181.113281 L 120.011719 180.988281 C 120.066406 185.15625 120.214844 189.222656 120.453125 193.183594 C 120.765625 198.34375 121.238281 203.480469 121.863281 208.578125 Z M 251.296875 106.898438 C 265.269531 102.9375 277.703125 97.726562 288.023438 91.566406 C 285.71875 88.855469 283.304688 86.242188 280.789062 83.726562 C 263.148438 66.085938 240.558594 53.394531 215.28125 47.910156 C 224.761719 55.167969 233.230469 65.980469 240.234375 79.484375 C 244.488281 87.679688 248.210938 96.886719 251.296875 106.898438 Z M 190.925781 115.347656 C 209.988281 115.066406 228.03125 112.730469 244.261719 108.753906 C 241.320312 99.277344 237.792969 90.566406 233.769531 82.816406 C 222.527344 61.140625 207.53125 47.117188 191.0625 45.132812 Z M 129.792969 108.753906 C 146.175781 112.769531 164.402344 115.109375 183.664062 115.351562 L 183.804688 45.046875 C 167.015625 46.660156 151.710938 60.785156 140.28125 82.816406 C 136.261719 90.566406 132.734375 99.277344 129.792969 108.753906 Z M 86.027344 91.566406 C 96.351562 97.726562 108.785156 102.933594 122.757812 106.898438 C 125.84375 96.886719 129.566406 87.679688 133.816406 79.484375 C 140.824219 65.980469 149.292969 55.167969 158.773438 47.910156 C 133.496094 53.394531 110.90625 66.085938 93.261719 83.726562 C 90.75 86.242188 88.335938 88.855469 86.027344 91.566406 Z M 120.742188 113.882812 C 105.78125 109.636719 92.464844 103.988281 81.429688 97.277344 C 65.21875 118.589844 55.308594 144.953125 54.484375 173.597656 L 112.730469 173.714844 C 113.03125 152.207031 115.890625 131.902344 120.742188 113.882812 Z M 183.652344 122.640625 C 163.714844 122.394531 144.800781 119.945312 127.773438 115.746094 C 123.082031 133.160156 120.320312 152.835938 120.023438 173.726562 L 183.550781 173.851562 Z M 246.28125 115.746094 C 229.398438 119.910156 210.660156 122.351562 190.910156 122.636719 L 190.808594 173.867188 L 254.035156 173.992188 C 253.757812 153 250.988281 133.234375 246.28125 115.746094 Z M 292.621094 97.277344 C 281.585938 103.988281 268.269531 109.636719 253.3125 113.882812 C 258.1875 131.984375 261.046875 152.390625 261.324219 174.007812 L 319.585938 174.121094 C 318.867188 145.277344 308.933594 118.71875 292.621094 97.277344 Z M 292.621094 97.277344 " fill-opacity="1" fill-rule="evenodd"/></g></svg>