<svg xmlns="http://www.w3.org/2000/svg" xmlns:xlink="http://www.w3.org/1999/xlink" width="500" zoomAndPan="magnify" viewBox="0 0 375.12 383.03998" height="500" preserveAspectRatio="xMidYMid meet" version="1.0"><defs><clipPath id="968a50d86d"><path d="M 37.4375 47.320312 L 336.6875 47.320312 L 336.6875 327.117188 L 37.4375 327.117188 Z M 37.4375 47.320312 " clip-rule="nonzero"/></clipPath></defs><g clip-path="url(#968a50d86d)"><path fill="#000000" d="M 156.160156 184.257812 C 156.160156 201.316406 170.023438 215.199219 187.0625 215.199219 C 204.097656 215.199219 217.960938 201.316406 217.960938 184.257812 C 217.960938 167.199219 204.097656 153.316406 187.0625 153.316406 C 170.023438 153.316406 156.160156 167.199219 156.160156 184.257812 Z M 210.511719 184.257812 C 210.511719 197.207031 199.992188 207.738281 187.0625 207.738281 C 174.128906 207.738281 163.613281 197.207031 163.613281 184.257812 C 163.613281 171.308594 174.128906 160.777344 187.0625 160.777344 C 199.992188 160.777344 210.511719 171.308594 210.511719 184.257812 Z M 297.355469 226.230469 L 274.589844 226.230469 C 269.464844 226.230469 265.019531 228.3125 261.742188 232.253906 L 248.226562 248.511719 L 228.421875 228.207031 C 223.46875 223.125 217.359375 220.554688 210.269531 220.554688 L 163.859375 220.554688 C 156.769531 220.554688 150.660156 223.125 145.707031 228.207031 L 125.902344 248.511719 L 112.386719 232.253906 C 109.105469 228.3125 104.660156 226.230469 99.539062 226.230469 L 76.78125 226.230469 C 74.722656 226.230469 73.054688 227.902344 73.054688 229.957031 L 73.054688 231.078125 C 73.054688 238.015625 76.492188 243.984375 82.496094 247.453125 L 92.617188 253.304688 L 114.777344 279.457031 C 117.507812 282.683594 121.1875 284.460938 125.410156 284.59375 C 129.644531 284.730469 133.417969 283.1875 136.351562 280.140625 L 146.214844 269.894531 L 146.214844 323.304688 C 146.214844 325.363281 147.886719 327.035156 149.941406 327.035156 L 224.207031 327.035156 C 226.261719 327.035156 227.933594 325.363281 227.933594 323.304688 L 227.933594 269.894531 L 237.796875 280.140625 C 240.726562 283.1875 244.496094 284.730469 248.738281 284.59375 C 252.957031 284.457031 256.640625 282.683594 259.371094 279.457031 L 281.535156 253.304688 L 291.65625 247.453125 C 297.652344 243.984375 301.097656 238.015625 301.097656 231.078125 L 301.097656 229.957031 C 301.097656 227.902344 299.429688 226.230469 297.375 226.230469 Z M 287.914062 240.988281 L 277.234375 247.160156 C 276.859375 247.371094 276.53125 247.652344 276.253906 247.976562 L 253.671875 274.625 C 252.300781 276.25 250.605469 277.0625 248.480469 277.132812 C 246.359375 277.199219 244.613281 276.492188 243.144531 274.960938 L 226.871094 258.066406 C 225.816406 256.972656 224.207031 256.628906 222.796875 257.195312 C 221.386719 257.765625 220.46875 259.132812 220.46875 260.652344 L 220.46875 319.574219 L 153.652344 319.574219 L 153.652344 260.652344 C 153.652344 259.128906 152.726562 257.761719 151.324219 257.195312 C 149.914062 256.628906 148.300781 256.972656 147.253906 258.066406 L 130.980469 274.960938 C 129.507812 276.492188 127.769531 277.207031 125.640625 277.132812 C 123.523438 277.0625 121.824219 276.242188 120.449219 274.625 L 97.871094 247.976562 C 97.589844 247.644531 97.261719 247.371094 96.890625 247.160156 L 86.210938 240.988281 C 83.304688 239.308594 81.429688 236.773438 80.765625 233.683594 L 99.535156 233.683594 C 102.414062 233.683594 104.8125 234.808594 106.65625 237.019531 L 122.816406 256.453125 C 123.492188 257.261719 124.480469 257.753906 125.527344 257.796875 C 126.570312 257.835938 127.601562 257.429688 128.339844 256.679688 L 151.035156 233.414062 C 154.585938 229.777344 158.773438 228.007812 163.859375 228.007812 L 210.269531 228.007812 C 215.347656 228.007812 219.542969 229.777344 223.09375 233.414062 L 245.789062 256.679688 C 246.527344 257.429688 247.550781 257.839844 248.601562 257.796875 C 249.65625 257.753906 250.640625 257.269531 251.3125 256.453125 L 267.472656 237.019531 C 269.316406 234.800781 271.714844 233.683594 274.59375 233.683594 L 293.363281 233.683594 C 292.699219 236.765625 290.824219 239.308594 287.917969 240.988281 Z M 187.0625 138.933594 C 212.261719 138.933594 232.769531 118.40625 232.769531 93.164062 C 232.769531 67.921875 212.269531 47.394531 187.0625 47.394531 C 161.855469 47.394531 141.355469 67.921875 141.355469 93.164062 C 141.355469 118.40625 161.855469 138.933594 187.0625 138.933594 Z M 187.0625 54.863281 C 208.15625 54.863281 225.316406 72.046875 225.316406 93.171875 C 225.316406 114.296875 208.15625 131.476562 187.0625 131.476562 C 165.964844 131.476562 148.804688 114.296875 148.804688 93.171875 C 148.804688 72.046875 165.964844 54.863281 187.0625 54.863281 Z M 128.851562 159.828125 C 128.851562 134.59375 108.34375 114.058594 83.144531 114.058594 C 57.941406 114.058594 37.4375 134.59375 37.4375 159.828125 C 37.4375 185.0625 57.9375 205.59375 83.144531 205.59375 C 108.351562 205.59375 128.851562 185.066406 128.851562 159.828125 Z M 121.367188 160.996094 L 116.011719 164.089844 L 103.753906 144.769531 L 114.820312 138.371094 C 118.964844 144.496094 121.394531 151.882812 121.394531 159.828125 C 121.394531 160.21875 121.375 160.605469 121.363281 160.996094 Z M 66.984375 152.128906 C 67.453125 152.335938 67.957031 152.449219 68.472656 152.449219 L 71.328125 152.449219 C 72.410156 152.449219 73.421875 152.265625 74.40625 151.9375 C 74.992188 153.355469 75.996094 154.890625 77.613281 156.507812 L 79.957031 158.863281 C 81.988281 160.894531 83.960938 162.492188 86.367188 164.0625 L 90.519531 166.765625 C 91.386719 167.332031 91.871094 168.039062 92.082031 169.050781 C 92.292969 170.074219 92.140625 170.910156 91.574219 171.78125 L 85.515625 181.070312 C 84.875 182.050781 84.074219 182.597656 82.933594 182.835938 C 81.785156 183.070312 80.832031 182.890625 79.859375 182.246094 L 66.195312 173.210938 C 64.066406 171.808594 62.539062 170.246094 61.226562 168.15625 C 60.5 167 59.664062 166.042969 58.664062 165.234375 L 66.976562 152.128906 Z M 99.378906 167.511719 C 98.757812 164.570312 97.101562 162.144531 94.585938 160.511719 L 90.433594 157.804688 C 88.457031 156.519531 86.898438 155.257812 85.234375 153.585938 L 82.890625 151.234375 C 82.285156 150.632812 80.914062 149.148438 81.285156 148.429688 C 81.542969 147.933594 81.976562 147.734375 82.210938 147.65625 C 82.449219 147.578125 82.914062 147.492188 83.410156 147.746094 L 90.710938 151.519531 C 93.46875 152.945312 96.558594 152.980469 99.308594 151.664062 L 107.628906 164.789062 C 106.523438 165.6875 105.613281 166.765625 104.867188 168.050781 L 104.707031 168.324219 C 103.066406 171.167969 101.433594 172.886719 99.242188 174.089844 L 98.597656 174.441406 C 99.609375 172.285156 99.886719 169.917969 99.382812 167.511719 Z M 83.144531 121.519531 C 93.59375 121.519531 103.066406 125.738281 109.984375 132.558594 L 99.988281 138.335938 C 98.199219 139.367188 96.996094 140.976562 96.503906 142.984375 C 96.355469 143.601562 96.285156 144.214844 96.292969 144.824219 L 96.273438 144.839844 C 95.558594 145.25 94.859375 145.265625 94.125 144.886719 L 86.824219 141.113281 C 83.3125 139.300781 79.15625 140.03125 76.449219 142.625 L 72.367188 144.734375 C 72.003906 144.917969 71.738281 144.980469 71.339844 144.980469 L 70.011719 144.980469 C 69.992188 144.472656 69.917969 143.960938 69.796875 143.445312 C 69.304688 141.4375 68.101562 139.832031 66.3125 138.796875 L 56.019531 132.847656 C 62.953125 125.851562 72.558594 121.511719 83.148438 121.511719 Z M 51.242188 138.714844 L 62.523438 145.234375 L 50.269531 164.558594 L 44.921875 161.46875 C 44.898438 160.921875 44.878906 160.375 44.878906 159.828125 C 44.878906 152.03125 47.226562 144.769531 51.238281 138.714844 Z M 46.554688 171.023438 L 46.585938 171.042969 C 47.753906 171.71875 49.035156 172.042969 50.289062 172.042969 C 51.578125 172.042969 52.851562 171.695312 53.976562 171.042969 C 54.335938 171.339844 54.632812 171.675781 54.914062 172.117188 C 56.789062 175.113281 59.066406 177.4375 62.085938 179.433594 L 75.753906 188.46875 C 77.679688 189.734375 79.816406 190.390625 82.03125 190.390625 C 82.828125 190.390625 83.632812 190.308594 84.445312 190.132812 C 85.851562 189.839844 87.136719 189.3125 88.285156 188.578125 C 88.285156 188.578125 102.8125 180.621094 102.8125 180.621094 C 106.195312 178.769531 108.839844 176.039062 111.148438 172.042969 L 111.304688 171.769531 C 111.589844 171.273438 111.90625 170.898438 112.296875 170.574219 C 113.421875 171.222656 114.6875 171.570312 115.980469 171.570312 C 117.242188 171.570312 118.511719 171.246094 119.679688 170.570312 L 119.871094 170.457031 C 115.253906 186.417969 100.539062 198.121094 83.132812 198.121094 C 65.722656 198.121094 51.34375 186.691406 46.550781 171.015625 Z M 290.980469 114.058594 C 265.777344 114.058594 245.273438 134.585938 245.273438 159.828125 C 245.273438 185.066406 265.777344 205.59375 290.980469 205.59375 C 316.179688 205.59375 336.6875 185.066406 336.6875 159.828125 C 336.6875 134.585938 316.1875 114.058594 290.980469 114.058594 Z M 268.226562 190.601562 L 268.226562 147.59375 C 268.226562 146.210938 269.386719 145.050781 270.765625 145.050781 L 293.449219 145.050781 L 293.449219 155.363281 C 293.449219 160.878906 297.933594 165.367188 303.441406 165.367188 L 313.738281 165.367188 L 313.738281 190.601562 C 307.375 195.332031 299.503906 198.136719 290.984375 198.136719 C 282.46875 198.136719 274.59375 195.332031 268.230469 190.601562 Z M 300.902344 155.355469 L 300.902344 150.320312 L 308.46875 157.898438 L 303.441406 157.898438 C 302.0625 157.898438 300.902344 156.738281 300.902344 155.355469 Z M 321.191406 183.289062 L 321.191406 161.628906 L 321.175781 161.628906 C 321.175781 160.660156 320.804688 159.703125 320.097656 158.992188 L 299.808594 138.675781 C 299.09375 137.960938 298.144531 137.59375 297.175781 137.59375 C 297.175781 137.59375 270.765625 137.589844 270.765625 137.589844 C 265.257812 137.589844 260.773438 142.078125 260.773438 147.59375 L 260.773438 183.296875 C 255.738281 176.804688 252.730469 168.667969 252.730469 159.832031 C 252.730469 138.707031 269.890625 121.523438 290.984375 121.523438 C 312.082031 121.523438 329.242188 138.707031 329.242188 159.832031 C 329.242188 168.667969 326.230469 176.8125 321.195312 183.296875 Z M 308.1875 187.640625 C 308.1875 189.699219 306.519531 191.371094 304.464844 191.371094 L 277.496094 191.371094 C 275.4375 191.371094 273.769531 189.699219 273.769531 187.640625 C 273.769531 185.582031 275.4375 183.910156 277.496094 183.910156 L 304.464844 183.910156 C 306.519531 183.910156 308.1875 185.582031 308.1875 187.640625 Z M 273.769531 175.226562 C 273.769531 173.167969 275.4375 171.496094 277.496094 171.496094 L 304.464844 171.496094 C 306.519531 171.496094 308.1875 173.167969 308.1875 175.226562 C 308.1875 177.285156 306.519531 178.957031 304.464844 178.957031 L 277.496094 178.957031 C 275.4375 178.957031 273.769531 177.285156 273.769531 175.226562 Z M 273.769531 162.816406 C 273.769531 160.757812 275.4375 159.085938 277.496094 159.085938 L 286.558594 159.085938 C 288.613281 159.085938 290.285156 160.757812 290.285156 162.816406 C 290.285156 164.875 288.613281 166.546875 286.558594 166.546875 L 277.496094 166.546875 C 275.4375 166.546875 273.769531 164.875 273.769531 162.816406 Z M 167.175781 113.578125 L 171.527344 112.074219 C 173.605469 113.792969 175.953125 115.148438 178.46875 116.089844 L 179.34375 120.609375 C 179.6875 122.363281 181.21875 123.632812 183 123.632812 L 191.117188 123.632812 C 192.898438 123.632812 194.429688 122.363281 194.773438 120.609375 L 195.648438 116.089844 C 198.160156 115.148438 200.507812 113.785156 202.59375 112.074219 L 206.945312 113.578125 C 208.628906 114.164062 210.5 113.46875 211.386719 111.921875 L 215.441406 104.882812 C 216.335938 103.335938 216.003906 101.371094 214.65625 100.203125 L 211.1875 97.179688 C 211.40625 95.855469 211.515625 94.511719 211.515625 93.164062 C 211.515625 91.816406 211.40625 90.472656 211.1875 89.148438 L 214.65625 86.125 C 216.003906 84.957031 216.335938 82.992188 215.441406 81.445312 L 211.386719 74.40625 C 210.492188 72.859375 208.628906 72.164062 206.945312 72.746094 L 202.59375 74.253906 C 200.515625 72.535156 198.167969 71.179688 195.648438 70.238281 L 194.773438 65.71875 C 194.429688 63.964844 192.898438 62.695312 191.117188 62.695312 L 183 62.695312 C 181.21875 62.695312 179.683594 63.964844 179.34375 65.71875 L 178.46875 70.238281 C 175.953125 71.179688 173.605469 72.542969 171.519531 74.253906 L 167.167969 72.746094 C 165.480469 72.167969 163.617188 72.859375 162.730469 74.40625 L 158.675781 81.445312 C 157.78125 82.992188 158.109375 84.957031 159.457031 86.125 L 162.929688 89.148438 C 162.710938 90.472656 162.601562 91.816406 162.601562 93.164062 C 162.601562 94.511719 162.710938 95.855469 162.929688 97.179688 L 159.457031 100.203125 C 158.109375 101.371094 157.78125 103.335938 158.675781 104.882812 L 162.730469 111.921875 C 163.625 113.46875 165.488281 114.164062 167.167969 113.578125 Z M 170.640625 97.589844 C 170.253906 96.15625 170.0625 94.664062 170.0625 93.171875 C 170.0625 91.679688 170.253906 90.1875 170.640625 88.75 C 171.007812 87.371094 170.558594 85.902344 169.484375 84.96875 L 166.671875 82.527344 L 167.660156 80.816406 L 171.1875 82.035156 C 172.535156 82.503906 174.03125 82.152344 175.035156 81.148438 C 177.152344 79.019531 179.796875 77.492188 182.671875 76.726562 C 184.050781 76.359375 185.097656 75.234375 185.371094 73.828125 L 186.082031 70.167969 L 188.046875 70.167969 L 188.757812 73.828125 C 189.03125 75.234375 190.074219 76.355469 191.457031 76.726562 C 194.335938 77.496094 196.976562 79.019531 199.097656 81.148438 C 200.105469 82.160156 201.601562 82.503906 202.949219 82.035156 L 206.476562 80.816406 L 207.460938 82.527344 L 204.648438 84.96875 C 203.574219 85.910156 203.121094 87.375 203.496094 88.75 C 203.878906 90.1875 204.074219 91.671875 204.074219 93.171875 C 204.074219 94.667969 203.878906 96.15625 203.496094 97.589844 C 203.128906 98.96875 203.574219 100.4375 204.648438 101.371094 L 207.460938 103.8125 L 206.476562 105.523438 L 202.949219 104.304688 C 201.601562 103.839844 200.105469 104.1875 199.097656 105.195312 C 196.984375 107.320312 194.335938 108.847656 191.464844 109.613281 C 190.085938 109.980469 189.035156 111.105469 188.761719 112.511719 L 188.054688 116.171875 L 186.085938 116.171875 L 185.378906 112.511719 C 185.105469 111.105469 184.0625 109.988281 182.679688 109.613281 C 179.796875 108.84375 177.160156 107.3125 175.035156 105.195312 C 174.03125 104.1875 172.535156 103.839844 171.1875 104.304688 L 167.660156 105.523438 L 166.671875 103.8125 L 169.484375 101.371094 C 170.558594 100.4375 171.011719 98.964844 170.640625 97.589844 Z M 187.0625 104.726562 C 193.425781 104.726562 198.601562 99.542969 198.601562 93.171875 C 198.601562 86.796875 193.425781 81.613281 187.0625 81.613281 C 180.699219 81.613281 175.519531 86.796875 175.519531 93.171875 C 175.519531 99.542969 180.699219 104.726562 187.0625 104.726562 Z M 187.0625 89.066406 C 189.320312 89.066406 191.152344 90.90625 191.152344 93.164062 C 191.152344 95.421875 189.316406 97.261719 187.0625 97.261719 C 184.808594 97.261719 182.96875 95.421875 182.96875 93.164062 C 182.96875 90.90625 184.808594 89.066406 187.0625 89.066406 Z M 187.0625 89.066406 " fill-opacity="1" fill-rule="nonzero"/></g></svg>