<svg xmlns="http://www.w3.org/2000/svg" xmlns:xlink="http://www.w3.org/1999/xlink" width="500" zoomAndPan="magnify" viewBox="0 0 375.12 383.03998" height="500" preserveAspectRatio="xMidYMid meet" version="1.0"><defs><clipPath id="6adb226326"><path d="M 37.4375 45.449219 L 336.6875 45.449219 L 336.6875 328.988281 L 37.4375 328.988281 Z M 37.4375 45.449219 " clip-rule="nonzero"/></clipPath></defs><g clip-path="url(#6adb226326)"><path fill="#ffffff" d="M 332.445312 319.945312 L 309 319.945312 L 309 145.71875 L 255.496094 145.71875 L 255.496094 319.882812 L 244.835938 319.882812 L 244.835938 199.160156 L 191.332031 199.160156 L 191.332031 319.945312 L 180.667969 319.945312 L 180.667969 260.082031 L 127.167969 260.082031 L 127.167969 319.945312 L 46.042969 319.945312 L 46.042969 210.132812 C 46.042969 200.15625 51.09375 191.054688 59.574219 185.816406 C 68.054688 180.578125 78.46875 180.015625 87.382812 184.445312 C 98.546875 189.929688 110.582031 192.613281 122.492188 192.613281 C 142.882812 192.613281 163.085938 184.753906 178.300781 169.789062 L 288.671875 61.226562 L 288.671875 89.226562 C 288.671875 91.59375 290.605469 93.527344 292.972656 93.527344 C 295.34375 93.527344 297.277344 91.59375 297.277344 89.226562 L 297.277344 49.753906 C 297.277344 47.382812 295.34375 45.449219 292.972656 45.449219 L 251.195312 45.449219 C 248.824219 45.449219 246.890625 47.382812 246.890625 49.753906 C 246.890625 52.121094 248.824219 54.054688 251.195312 54.054688 L 283.683594 54.054688 L 172.25 163.679688 C 150.800781 184.816406 118.25 189.992188 91.1875 176.710938 C 79.527344 170.972656 66.058594 171.660156 55.019531 178.519531 C 43.984375 185.378906 37.4375 197.226562 37.4375 210.195312 L 37.4375 324.308594 C 37.4375 326.679688 39.371094 328.613281 41.738281 328.613281 L 185.035156 328.613281 C 185.410156 328.613281 185.71875 328.550781 186.03125 328.488281 C 186.34375 328.550781 186.71875 328.613281 187.03125 328.613281 L 249.136719 328.613281 C 249.511719 328.613281 249.824219 328.550781 250.136719 328.488281 C 250.445312 328.550781 250.820312 328.613281 251.132812 328.613281 L 332.382812 328.613281 C 334.753906 328.613281 336.6875 326.679688 336.6875 324.308594 C 336.75 321.878906 334.816406 319.945312 332.445312 319.945312 Z M 332.445312 319.945312 " fill-opacity="1" fill-rule="nonzero"/></g><path fill="#ffffff" d="M 75.722656 231.960938 L 75.722656 292.945312 C 75.722656 295.3125 77.65625 297.246094 80.027344 297.246094 C 82.394531 297.246094 84.328125 295.3125 84.328125 292.945312 L 84.328125 231.960938 C 84.328125 229.589844 82.394531 227.65625 80.027344 227.65625 C 77.65625 227.65625 75.722656 229.589844 75.722656 231.960938 Z M 75.722656 231.960938 " fill-opacity="1" fill-rule="nonzero"/><path fill="#ffffff" d="M 142.585938 111.652344 C 142.953125 112.539062 143.277344 113.445312 143.558594 114.367188 C 143.835938 115.285156 144.070312 116.21875 144.257812 117.160156 C 144.445312 118.105469 144.585938 119.054688 144.679688 120.011719 C 144.777344 120.96875 144.824219 121.929688 144.824219 122.890625 C 144.824219 123.851562 144.777344 124.8125 144.679688 125.769531 C 144.585938 126.726562 144.445312 127.679688 144.257812 128.621094 C 144.070312 129.566406 143.835938 130.496094 143.558594 131.417969 C 143.277344 132.335938 142.957031 133.242188 142.585938 134.132812 C 142.21875 135.019531 141.808594 135.886719 141.355469 136.738281 C 140.902344 137.585938 140.40625 138.410156 139.871094 139.207031 C 139.339844 140.007812 138.765625 140.78125 138.15625 141.523438 C 137.546875 142.269531 136.902344 142.980469 136.21875 143.660156 C 135.539062 144.339844 134.828125 144.984375 134.085938 145.59375 C 133.339844 146.207031 132.570312 146.777344 131.769531 147.3125 C 130.96875 147.847656 130.144531 148.339844 129.296875 148.792969 C 128.449219 149.246094 127.582031 149.660156 126.691406 150.027344 C 125.804688 150.394531 124.898438 150.71875 123.976562 150.996094 C 123.058594 151.277344 122.125 151.511719 121.183594 151.699219 C 120.238281 151.886719 119.289062 152.027344 118.332031 152.121094 C 117.375 152.214844 116.414062 152.261719 115.453125 152.261719 C 114.488281 152.261719 113.53125 152.214844 112.574219 152.121094 C 111.617188 152.027344 110.664062 151.886719 109.722656 151.699219 C 108.777344 151.511719 107.847656 151.277344 106.925781 150.996094 C 106.003906 150.71875 105.101562 150.394531 104.210938 150.027344 C 103.324219 149.660156 102.457031 149.246094 101.605469 148.792969 C 100.757812 148.339844 99.933594 147.847656 99.132812 147.3125 C 98.335938 146.777344 97.5625 146.207031 96.820312 145.59375 C 96.074219 144.984375 95.363281 144.339844 94.683594 143.660156 C 94.003906 142.980469 93.359375 142.269531 92.75 141.523438 C 92.136719 140.78125 91.566406 140.007812 91.03125 139.210938 C 90.496094 138.410156 90.003906 137.585938 89.550781 136.738281 C 89.097656 135.890625 88.683594 135.019531 88.316406 134.132812 C 87.949219 133.242188 87.625 132.339844 87.347656 131.417969 C 87.066406 130.496094 86.832031 129.566406 86.644531 128.621094 C 86.457031 127.679688 86.316406 126.726562 86.222656 125.769531 C 86.128906 124.8125 86.082031 123.855469 86.082031 122.890625 C 86.082031 121.929688 86.128906 120.96875 86.222656 120.011719 C 86.316406 119.054688 86.457031 118.105469 86.644531 117.160156 C 86.832031 116.21875 87.066406 115.285156 87.347656 114.367188 C 87.625 113.445312 87.949219 112.539062 88.316406 111.652344 C 88.683594 110.761719 89.09375 109.894531 89.550781 109.046875 C 90.003906 108.199219 90.496094 107.375 91.03125 106.574219 C 91.566406 105.773438 92.136719 105.003906 92.746094 104.257812 C 93.359375 103.515625 94.003906 102.804688 94.683594 102.125 C 95.363281 101.441406 96.074219 100.796875 96.820312 100.1875 C 97.5625 99.578125 98.335938 99.003906 99.132812 98.472656 C 99.933594 97.9375 100.757812 97.441406 101.605469 96.988281 C 102.453125 96.535156 103.324219 96.125 104.210938 95.757812 C 105.101562 95.386719 106.003906 95.066406 106.925781 94.785156 C 107.847656 94.507812 108.777344 94.273438 109.722656 94.085938 C 110.664062 93.898438 111.617188 93.757812 112.574219 93.664062 C 113.53125 93.566406 114.488281 93.519531 115.453125 93.519531 C 116.414062 93.519531 117.375 93.566406 118.332031 93.664062 C 119.289062 93.757812 120.238281 93.898438 121.179688 94.085938 C 122.125 94.273438 123.058594 94.507812 123.976562 94.785156 C 124.898438 95.066406 125.800781 95.386719 126.691406 95.757812 C 127.582031 96.125 128.449219 96.535156 129.296875 96.988281 C 130.144531 97.441406 130.96875 97.9375 131.769531 98.46875 C 132.570312 99.003906 133.339844 99.578125 134.085938 100.1875 C 134.828125 100.796875 135.539062 101.441406 136.21875 102.125 C 136.898438 102.804688 137.546875 103.515625 138.15625 104.257812 C 138.765625 105.003906 139.339844 105.773438 139.871094 106.574219 C 140.40625 107.375 140.902344 108.199219 141.355469 109.046875 C 141.808594 109.894531 142.21875 110.761719 142.585938 111.652344 Z M 142.585938 111.652344 " fill-opacity="1" fill-rule="nonzero"/></svg>