<svg xmlns="http://www.w3.org/2000/svg" xmlns:xlink="http://www.w3.org/1999/xlink" width="500" zoomAndPan="magnify" viewBox="0 0 375.12 383.03998" height="500" preserveAspectRatio="xMidYMid meet" version="1.0"><defs><clipPath id="f55e5dad6e"><path d="M 37.4375 54.800781 L 336.6875 54.800781 L 336.6875 319.636719 L 37.4375 319.636719 Z M 37.4375 54.800781 " clip-rule="nonzero"/></clipPath></defs><g clip-path="url(#f55e5dad6e)"><path fill="#ffffff" d="M 336.578125 149.792969 C 336.578125 179.457031 321.746094 211.242188 299.734375 239.390625 C 277.277344 268.097656 222.457031 322.257812 183.445312 319.125 C 177.621094 318.65625 171.792969 317.097656 166.328125 315.050781 C 166.316406 315.050781 166.308594 315.046875 166.300781 315.042969 L 158.390625 311.667969 C 158.378906 311.664062 158.363281 311.660156 158.351562 311.652344 L 152.347656 308.585938 C 152.34375 308.582031 152.339844 308.578125 152.335938 308.578125 C 148.203125 306.328125 144.148438 303.847656 140.226562 301.246094 C 140.222656 301.242188 140.21875 301.238281 140.214844 301.234375 L 130.207031 294.148438 C 130.199219 294.140625 130.191406 294.136719 130.179688 294.128906 L 122.324219 287.976562 C 122.316406 287.972656 122.3125 287.96875 122.308594 287.964844 L 116.542969 283.140625 C 116.539062 283.136719 116.53125 283.132812 116.527344 283.128906 L 107.242188 274.816406 C 107.234375 274.808594 107.230469 274.804688 107.222656 274.796875 L 98.46875 266.347656 C 98.460938 266.339844 98.457031 266.332031 98.449219 266.328125 L 85.859375 253.035156 C 85.855469 253.03125 85.851562 253.027344 85.847656 253.019531 C 57.84375 221.78125 33.867188 180.765625 38.011719 140.324219 C 39.910156 121.808594 47.445312 105.355469 61.300781 93.371094 C 73.082031 83.179688 87.78125 78.28125 103.335938 77.867188 L 103.382812 77.863281 C 127.382812 77.382812 149.835938 88.539062 168.453125 103.855469 C 168.632812 104.003906 168.714844 104.226562 168.667969 104.457031 C 168.621094 104.6875 168.464844 104.859375 168.242188 104.929688 C 165.269531 105.855469 162.371094 106.996094 159.570312 108.34375 C 159.351562 108.449219 159.109375 108.421875 158.917969 108.277344 C 140.871094 94.375 119.195312 84.808594 96.449219 87.792969 C 90.726562 88.546875 85.46875 90.019531 80.6875 92.109375 C 80.632812 92.132812 80.589844 92.160156 80.542969 92.195312 C 33.214844 130.648438 55.527344 188.792969 109.957031 241.039062 C 122.988281 253.546875 136.378906 263.203125 152.992188 271.742188 C 156.90625 273.757812 160.671875 271.648438 164.136719 268.933594 L 187.832031 250.382812 C 192.746094 246.539062 204.21875 237.945312 209.640625 241.039062 C 222.949219 248.640625 201.347656 264.824219 195.742188 276.632812 C 195.632812 276.859375 195.667969 277.113281 195.828125 277.304688 C 195.992188 277.496094 196.238281 277.566406 196.476562 277.5 C 237.722656 265.585938 254.488281 255.152344 287.898438 227.820312 C 290.527344 225.664062 293.828125 225.398438 296.722656 226.875 C 297 227.015625 297.332031 226.9375 297.511719 226.6875 C 313.433594 204.589844 327.179688 177.101562 327.179688 149.796875 C 327.179688 118.660156 309.636719 91.996094 277.660156 87.796875 C 254.914062 84.808594 233.238281 94.378906 215.191406 108.277344 C 215 108.425781 214.757812 108.449219 214.542969 108.347656 C 211.738281 107 208.839844 105.855469 205.871094 104.933594 C 205.644531 104.863281 205.488281 104.6875 205.445312 104.457031 C 205.398438 104.226562 205.476562 104.007812 205.660156 103.855469 C 226.371094 86.820312 251.824219 74.925781 278.882812 78.476562 C 311.71875 82.789062 336.578125 109.570312 336.578125 149.792969 Z M 187.054688 104.613281 C 200.808594 104.613281 211.957031 93.464844 211.957031 79.710938 C 211.957031 65.957031 200.808594 54.808594 187.054688 54.808594 C 173.300781 54.808594 162.152344 65.957031 162.152344 79.710938 C 162.152344 93.464844 173.300781 104.613281 187.054688 104.613281 Z M 241.425781 178.171875 C 253.84375 178.171875 263.914062 168.101562 263.914062 155.683594 C 263.914062 143.265625 253.84375 133.199219 241.425781 133.199219 C 229.007812 133.199219 218.941406 143.265625 218.941406 155.683594 C 218.941406 168.101562 229.007812 178.171875 241.425781 178.171875 Z M 93.28125 208.601562 C 93.167969 208.824219 93.191406 209.078125 93.347656 209.273438 C 100.996094 218.800781 109.125 227.34375 116.398438 234.328125 C 128.535156 245.972656 141.207031 255.089844 156.074219 262.859375 C 156.273438 262.964844 156.5 262.957031 156.691406 262.835938 C 157.328125 262.441406 158.039062 261.894531 158.402344 261.609375 L 176.679688 247.300781 C 176.835938 247.179688 176.917969 247.007812 176.917969 246.808594 L 176.917969 228.636719 C 176.917969 204.304688 157.011719 184.402344 132.683594 184.402344 C 115.554688 184.402344 100.621094 194.269531 93.28125 208.601562 Z M 132.683594 178.171875 C 145.101562 178.171875 155.171875 168.101562 155.171875 155.683594 C 155.171875 143.265625 145.101562 133.199219 132.683594 133.199219 C 120.265625 133.199219 110.199219 143.265625 110.199219 155.683594 C 110.199219 168.101562 120.265625 178.171875 132.683594 178.171875 Z M 197.191406 228.636719 L 197.191406 232.480469 C 197.191406 232.691406 197.289062 232.878906 197.46875 232.996094 C 197.644531 233.117188 197.851562 233.136719 198.050781 233.054688 C 203.3125 230.894531 209.089844 230.011719 214.253906 232.960938 C 218.425781 235.34375 221.605469 238.902344 222.757812 243.648438 C 224.039062 248.929688 222.4375 254.066406 219.789062 258.804688 C 219.660156 259.039062 219.6875 259.316406 219.867188 259.519531 C 220.042969 259.71875 220.3125 259.785156 220.5625 259.6875 C 245.332031 249.90625 261.027344 237.785156 282.007812 220.617188 C 282.699219 220.050781 283.425781 219.542969 284.171875 219.097656 C 284.410156 218.957031 284.527344 218.6875 284.460938 218.417969 C 279.816406 198.972656 262.242188 184.398438 241.425781 184.398438 C 217.097656 184.402344 197.191406 204.304688 197.191406 228.636719 Z M 187.054688 111.421875 C 172.152344 111.421875 158.601562 117.5 148.753906 127.300781 C 148.613281 127.441406 148.550781 127.621094 148.574219 127.820312 C 148.597656 128.015625 148.707031 128.175781 148.875 128.277344 C 167.097656 139.042969 169.898438 164.316406 154.5625 178.804688 C 154.40625 178.953125 154.339844 179.148438 154.375 179.359375 C 154.410156 179.570312 154.535156 179.734375 154.730469 179.824219 C 173.289062 188.265625 186.265625 206.996094 186.265625 228.636719 L 186.265625 238.714844 C 186.265625 238.953125 186.386719 239.15625 186.597656 239.265625 C 186.808594 239.375 187.046875 239.363281 187.246094 239.226562 C 187.355469 239.148438 187.46875 239.070312 187.578125 238.992188 C 187.75 238.871094 187.847656 238.691406 187.847656 238.480469 L 187.847656 228.636719 C 187.847656 206.996094 200.820312 188.265625 219.378906 179.824219 C 219.574219 179.738281 219.703125 179.570312 219.734375 179.359375 C 219.769531 179.148438 219.703125 178.953125 219.550781 178.804688 C 204.214844 164.316406 207.011719 139.042969 225.234375 128.277344 C 225.40625 128.175781 225.511719 128.019531 225.535156 127.820312 C 225.558594 127.621094 225.5 127.441406 225.355469 127.300781 C 215.511719 117.5 201.960938 111.421875 187.054688 111.421875 Z M 187.054688 111.421875 " fill-opacity="1" fill-rule="evenodd"/></g></svg>