<svg xmlns="http://www.w3.org/2000/svg" xmlns:xlink="http://www.w3.org/1999/xlink" width="500" zoomAndPan="magnify" viewBox="0 0 375.12 383.03998" height="500" preserveAspectRatio="xMidYMid meet" version="1.0"><defs><clipPath id="0079d314da"><path d="M 54.082031 37.40625 L 320.414062 37.40625 L 320.414062 336.65625 L 54.082031 336.65625 Z M 54.082031 37.40625 " clip-rule="nonzero"/></clipPath></defs><g clip-path="url(#0079d314da)"><path fill="#000000" d="M 256.808594 198.386719 L 320.421875 187.179688 L 309.195312 250.699219 L 297.746094 239.25 L 221.832031 315.054688 C 211.691406 325.183594 195.117188 325.183594 184.972656 315.054688 L 145.011719 275.152344 L 83.527344 336.53125 L 54.074219 307.101562 L 126.574219 234.691406 C 136.71875 224.578125 153.289062 224.578125 163.433594 234.691406 L 203.394531 274.613281 L 268.277344 209.839844 Z M 187.238281 71.222656 C 160.734375 71.222656 139.226562 92.679688 139.226562 119.167969 C 139.226562 142.367188 153.710938 149.257812 161.308594 170.523438 L 162.335938 173.359375 L 165.296875 173.046875 L 182.933594 173.046875 L 182.933594 138.503906 L 164.390625 126.023438 C 162.421875 124.703125 161.902344 122.023438 163.226562 120.054688 C 164.566406 118.089844 167.234375 117.585938 169.203125 118.90625 L 187.238281 131.035156 L 205.277344 118.90625 C 207.246094 117.585938 209.929688 118.089844 211.253906 120.054688 C 212.578125 122.023438 212.058594 124.703125 210.085938 126.023438 L 191.542969 138.503906 L 191.542969 173.046875 L 209.390625 173.046875 L 212.160156 173.359375 L 213.171875 170.523438 C 220.789062 149.257812 235.253906 142.367188 235.253906 119.167969 C 235.253906 92.679688 213.765625 71.222656 187.238281 71.222656 Z M 213.503906 183.453125 C 212.386719 182.324219 210.871094 181.664062 209.199219 181.644531 L 165.210938 181.644531 C 160.019531 181.664062 157.054688 188.136719 160.976562 192.050781 C 162.109375 193.183594 163.644531 193.863281 165.300781 193.863281 L 209.199219 193.863281 C 214.53125 193.863281 217.40625 187.335938 213.503906 183.453125 Z M 200.1875 214.433594 C 203.289062 211.335938 205.292969 207.121094 205.519531 202.441406 L 168.957031 202.441406 C 169.761719 218.191406 188.984375 225.640625 200.1875 214.433594 Z M 182.933594 41.828125 L 182.933594 53.054688 C 182.933594 55.421875 184.867188 57.335938 187.238281 57.335938 C 189.625 57.335938 191.542969 55.421875 191.542969 53.054688 L 191.542969 41.828125 C 191.542969 39.460938 189.625 37.53125 187.238281 37.53125 C 184.871094 37.53125 182.933594 39.460938 182.933594 41.828125 Z M 152.019531 66.800781 C 153.8125 65.234375 154.003906 62.519531 152.4375 60.730469 L 143.792969 50.828125 C 142.242188 49.035156 139.523438 48.84375 137.726562 50.410156 C 135.933594 51.957031 135.742188 54.671875 137.308594 56.464844 L 145.953125 66.386719 C 147.503906 68.160156 150.222656 68.351562 152.019531 66.800781 Z M 110.714844 91.324219 L 123.421875 94.71875 C 125.703125 95.34375 128.074219 93.96875 128.683594 91.691406 C 129.292969 89.390625 127.933594 87.042969 125.632812 86.433594 L 112.929688 83.023438 C 110.628906 82.414062 108.277344 83.789062 107.664062 86.066406 C 107.054688 88.363281 108.414062 90.714844 110.714844 91.324219 Z M 236.75 50.410156 C 234.972656 48.84375 232.253906 49.035156 230.6875 50.828125 L 222.042969 60.730469 C 220.492188 62.519531 220.683594 65.234375 222.460938 66.800781 C 224.253906 68.351562 226.976562 68.160156 228.542969 66.386719 L 237.1875 56.464844 C 238.738281 54.671875 238.546875 51.957031 236.75 50.410156 Z M 261.566406 83.023438 L 248.847656 86.433594 C 246.5625 87.042969 245.1875 89.390625 245.8125 91.6875 C 246.421875 93.96875 248.777344 95.34375 251.058594 94.71875 L 263.78125 91.324219 C 266.0625 90.714844 267.441406 88.363281 266.8125 86.066406 C 266.203125 83.789062 263.851562 82.414062 261.566406 83.023438 Z M 261.566406 83.023438 " fill-opacity="1" fill-rule="nonzero"/></g></svg>