<svg xmlns="http://www.w3.org/2000/svg" xmlns:xlink="http://www.w3.org/1999/xlink" width="500" zoomAndPan="magnify" viewBox="0 0 375.12 383.03998" height="500" preserveAspectRatio="xMidYMid meet" version="1.0"><defs><clipPath id="78693197ba"><path d="M 43.234375 37.40625 L 331.261719 37.40625 L 331.261719 336.65625 L 43.234375 336.65625 Z M 43.234375 37.40625 " clip-rule="nonzero"/></clipPath></defs><g clip-path="url(#78693197ba)"><path fill="#000000" d="M 257.097656 172.554688 C 256.800781 172.238281 256.519531 171.925781 256.257812 171.59375 C 224.496094 173.339844 170.882812 175.679688 172.160156 203.191406 C 170.113281 272.5 398.914062 226.828125 43.242188 280.792969 L 43.242188 336.621094 C 122.078125 324.503906 247.132812 306.523438 298.191406 279.902344 C 403.230469 225.101562 95.734375 197.363281 257.097656 172.554688 Z M 203.519531 215.761719 C 201.734375 217.523438 199.0625 217.457031 197.171875 215.515625 C 192.191406 210.402344 190.792969 204.398438 189.917969 197.554688 C 189.621094 195.195312 191.300781 193.03125 193.675781 192.734375 C 196.125 192.4375 198.1875 194.082031 198.519531 196.75 C 199.148438 201.570312 199.988281 206.125 203.519531 209.667969 C 205.195312 211.363281 205.195312 214.085938 203.519531 215.761719 Z M 238.09375 233.394531 L 222.277344 227.773438 C 220.019531 226.988281 218.816406 224.542969 219.582031 222.292969 C 220.351562 220.023438 222.835938 218.835938 225.089844 219.621094 L 241.433594 225.433594 C 246.609375 227.355469 244.074219 235.613281 238.09375 233.394531 Z M 90.964844 308.078125 L 73.886719 310.695312 C 68.449219 311.519531 66.5625 303.085938 72.976562 302.125 L 89.632812 299.574219 C 91.996094 299.210938 94.195312 300.816406 94.5625 303.15625 C 94.929688 305.511719 93.324219 307.710938 90.964844 308.078125 Z M 133.632812 301.183594 L 116.570312 304.011719 C 114.230469 304.394531 112.007812 302.804688 111.625 300.449219 C 111.222656 298.109375 112.832031 295.890625 115.171875 295.507812 L 132.179688 292.679688 C 134.523438 292.277344 136.761719 293.851562 137.164062 296.207031 C 137.566406 298.546875 135.992188 300.78125 133.632812 301.183594 Z M 176.164062 293.5 L 159.1875 296.679688 C 156.847656 297.113281 154.609375 295.5625 154.171875 293.222656 C 153.734375 290.882812 155.292969 288.628906 157.632812 288.210938 L 174.554688 285.035156 C 176.894531 284.578125 179.167969 286.097656 179.625 288.4375 C 180.078125 290.796875 178.558594 293.046875 176.164062 293.5 Z M 218.605469 284.441406 L 201.683594 288.296875 C 199.359375 288.804688 197.050781 287.339844 196.542969 285 C 196.039062 282.675781 197.507812 280.390625 199.847656 279.882812 L 216.578125 276.0625 C 218.902344 275.503906 221.226562 276.917969 221.785156 279.238281 C 222.34375 281.558594 220.929688 283.882812 218.605469 284.441406 Z M 260.539062 271.695312 C 255.207031 273.949219 249.40625 275.902344 243.882812 277.613281 C 241.609375 278.328125 239.179688 277.054688 238.480469 274.785156 C 237.761719 272.515625 239.019531 270.109375 241.3125 269.390625 C 246.589844 267.734375 252.0625 265.917969 257.167969 263.753906 C 259.351562 262.828125 261.886719 263.859375 262.828125 266.039062 C 263.757812 268.238281 262.742188 270.769531 260.539062 271.695312 Z M 277.425781 255.269531 C 275.136719 255.984375 272.742188 254.746094 271.988281 252.300781 C 270.957031 249 264.4375 245.125 261.605469 243.589844 C 259.507812 242.453125 258.722656 239.835938 259.859375 237.742188 C 261.011719 235.613281 263.617188 234.84375 265.871094 236.082031 C 271.167969 239.015625 278.492188 243.695312 280.273438 249.875 C 280.972656 252.144531 279.714844 254.554688 277.425781 255.269531 Z M 298.855469 119.308594 C 295.1875 124.875 292.828125 128.457031 290.117188 135.996094 L 288.804688 135.910156 L 276.726562 135.910156 L 276.726562 112.046875 L 289.976562 103.140625 C 291.953125 101.8125 292.460938 99.144531 291.132812 97.171875 C 289.800781 95.199219 287.128906 94.675781 285.152344 96 L 272.410156 104.574219 L 259.683594 96 C 257.707031 94.675781 255.035156 95.199219 253.707031 97.171875 C 252.378906 99.144531 252.882812 101.8125 254.859375 103.140625 L 268.109375 112.046875 L 268.109375 135.910156 L 256.171875 135.910156 L 254.71875 135.996094 L 254.28125 134.792969 C 248.617188 118.941406 237.988281 113.878906 237.988281 97.136719 C 237.988281 78.140625 253.40625 62.761719 272.410156 62.761719 C 291.425781 62.761719 306.84375 78.140625 306.84375 97.136719 C 306.84375 107.226562 302.980469 113.058594 298.855469 119.308594 Z M 288.664062 151.324219 L 256.167969 151.324219 C 255.242188 151.324219 254.402344 150.960938 253.773438 150.332031 C 251.609375 148.164062 253.199219 144.550781 256.152344 144.535156 L 288.664062 144.535156 C 289.59375 144.535156 290.449219 144.917969 291.0625 145.546875 C 293.246094 147.710938 291.621094 151.324219 288.664062 151.324219 Z M 260.121094 159.949219 L 284.714844 159.949219 C 284.3125 162.636719 283.054688 165.066406 281.203125 166.898438 C 273.964844 174.125 261.605469 169.953125 260.121094 159.949219 Z M 296.671875 54.574219 L 302.914062 47.402344 C 304.484375 45.621094 307.210938 45.429688 308.996094 46.980469 C 310.796875 48.554688 310.988281 51.277344 309.414062 53.074219 L 303.175781 60.230469 C 301.617188 62.03125 298.890625 62.203125 297.089844 60.652344 C 295.292969 59.097656 295.097656 56.375 296.671875 54.574219 Z M 272.425781 54.121094 C 270.03125 54.121094 268.109375 52.183594 268.109375 49.808594 L 268.109375 41.691406 C 268.109375 39.316406 270.03125 37.378906 272.425781 37.378906 C 274.804688 37.378906 276.726562 39.316406 276.726562 41.691406 L 276.726562 49.808594 C 276.726562 52.183594 274.804688 54.121094 272.425781 54.121094 Z M 241.660156 60.230469 L 235.421875 53.074219 C 233.847656 51.277344 234.039062 48.550781 235.839844 46.980469 C 237.625 45.425781 240.351562 45.621094 241.921875 47.398438 L 248.164062 54.574219 C 249.738281 56.371094 249.546875 59.097656 247.746094 60.648438 C 245.945312 62.203125 243.21875 62.03125 241.660156 60.230469 Z M 331.109375 73.359375 C 331.71875 75.664062 330.355469 78.019531 328.050781 78.632812 L 318.871094 81.09375 C 316.5625 81.703125 314.203125 80.34375 313.59375 78.039062 C 312.964844 75.753906 314.34375 73.394531 316.632812 72.785156 L 325.828125 70.324219 C 328.117188 69.710938 330.496094 71.074219 331.109375 73.359375 Z M 228.203125 72.785156 C 230.492188 73.394531 231.871094 75.75 231.242188 78.039062 C 230.632812 80.34375 228.273438 81.703125 225.964844 81.09375 L 216.785156 78.632812 C 214.480469 78.019531 213.117188 75.664062 213.726562 73.359375 C 214.339844 71.074219 216.71875 69.710938 219.007812 70.320312 Z M 63.363281 243.46875 C 61.769531 241.703125 61.894531 238.980469 63.660156 237.390625 L 122.53125 183.78125 L 104.351562 182.976562 C 101.976562 182.890625 100.121094 180.882812 100.226562 178.507812 C 100.332031 176.132812 102.34375 174.300781 104.71875 174.386719 L 133.125 175.644531 C 135.730469 175.695312 137.601562 177.757812 137.425781 180.339844 L 136.0625 208.726562 C 135.941406 211.082031 133.929688 212.914062 131.550781 212.8125 C 129.175781 212.707031 127.339844 210.679688 127.460938 208.308594 L 128.335938 190.152344 L 69.445312 243.746094 C 67.695312 245.351562 64.96875 245.230469 63.363281 243.46875 Z M 63.363281 243.46875 " fill-opacity="1" fill-rule="evenodd"/></g></svg>